<svg width="25" height="24" viewBox="0 0 25 24" fill="none" xmlns="http://www.w3.org/2000/svg">
<path d="M21.0552 17.9982C21.0179 17.9988 20.9808 17.992 20.9461 17.9781C20.9114 17.9643 20.8798 17.9436 20.8532 17.9174C20.8265 17.8912 20.8054 17.86 20.7909 17.8255C20.7765 17.7911 20.769 17.7541 20.769 17.7167V9.71768C20.769 9.64177 20.7992 9.56898 20.8529 9.51531C20.9065 9.46164 20.9793 9.43149 21.0552 9.43149C21.1311 9.43149 21.2039 9.46164 21.2576 9.51531C21.3113 9.56898 21.3414 9.64177 21.3414 9.71768V17.7167C21.3414 17.7541 21.334 17.7911 21.3196 17.8255C21.3051 17.86 21.284 17.8912 21.2573 17.9174C21.2307 17.9436 21.1991 17.9643 21.1644 17.9781C21.1297 17.992 21.0926 17.9988 21.0552 17.9982Z" fill="#9E9E9E"/>
<path d="M20.0201 8.29147C19.9693 8.29133 19.9196 8.27641 19.8771 8.24853L13.1277 4.32294C13.0863 4.31003 13.0485 4.28791 13.0169 4.25824C12.9853 4.22856 12.9609 4.1921 12.9455 4.15162C12.9301 4.11113 12.9241 4.06768 12.9279 4.02452C12.9317 3.98137 12.9453 3.93965 12.9676 3.9025C12.9898 3.86535 13.0203 3.83375 13.0565 3.81007C13.0928 3.7864 13.134 3.77126 13.177 3.76582C13.22 3.76038 13.2636 3.76476 13.3046 3.77864C13.3457 3.79252 13.383 3.81554 13.4139 3.84595L20.1632 7.77155C20.2179 7.80301 20.2606 7.85164 20.2848 7.90988C20.309 7.96813 20.3132 8.03272 20.2969 8.09363C20.2806 8.15454 20.2446 8.20836 20.1946 8.24672C20.1445 8.28508 20.0832 8.30585 20.0201 8.30578V8.29147Z" fill="#9E9E9E"/>
<path d="M4.37977 8.29148C4.31671 8.29155 4.25539 8.27079 4.20534 8.23242C4.15529 8.19406 4.11932 8.14024 4.10301 8.07933C4.08669 8.01842 4.09095 7.95382 4.11512 7.89558C4.13929 7.83734 4.18201 7.78871 4.23667 7.75725L10.986 3.8555C11.0169 3.82509 11.0542 3.80207 11.0953 3.78819C11.1363 3.77431 11.18 3.76993 11.2229 3.77537C11.2659 3.78082 11.3071 3.79594 11.3434 3.81962C11.3797 3.84329 11.4101 3.8749 11.4324 3.91205C11.4547 3.9492 11.4682 3.99092 11.472 4.03407C11.4759 4.07722 11.4698 4.12068 11.4544 4.16117C11.439 4.20165 11.4146 4.2381 11.383 4.26778C11.3515 4.29746 11.3136 4.31959 11.2722 4.33249L4.52286 8.23901C4.48009 8.26778 4.431 8.28579 4.37977 8.29148Z" fill="#9E9E9E"/>
<path d="M3.34479 17.9982C3.30743 17.9988 3.27033 17.992 3.23563 17.9781C3.20093 17.9643 3.16934 17.9436 3.1427 17.9174C3.11606 17.8912 3.09491 17.86 3.08047 17.8255C3.06603 17.7911 3.05859 17.7541 3.05859 17.7167V9.71768C3.05859 9.64177 3.08875 9.56898 3.14242 9.51531C3.1961 9.46164 3.26889 9.43149 3.34479 9.43149C3.42069 9.43149 3.49348 9.46164 3.54715 9.51531C3.60082 9.56898 3.63098 9.64177 3.63098 9.71768V17.7167C3.63099 17.7541 3.62356 17.7911 3.60912 17.8255C3.59468 17.86 3.57352 17.8912 3.54688 17.9174C3.52024 17.9436 3.48864 17.9643 3.45395 17.9781C3.41925 17.992 3.38214 17.9988 3.34479 17.9982Z" fill="#9E9E9E"/>
<path d="M12.2166 7.14663C12.1407 7.14663 12.0679 7.11647 12.0142 7.0628C11.9605 7.00913 11.9304 6.93634 11.9304 6.86044V4.79031C11.9251 4.74996 11.9285 4.70895 11.9404 4.67002C11.9523 4.63109 11.9723 4.59514 11.9992 4.56456C12.026 4.53399 12.0591 4.50949 12.0962 4.49271C12.1333 4.47593 12.1735 4.46725 12.2142 4.46725C12.2549 4.46725 12.2951 4.47593 12.3322 4.49271C12.3693 4.50949 12.4023 4.53399 12.4292 4.56456C12.456 4.59514 12.4761 4.63109 12.4879 4.67002C12.4998 4.70895 12.5032 4.74996 12.498 4.79031V6.86044C12.4986 6.8978 12.4918 6.9349 12.4779 6.9696C12.4641 7.00429 12.4435 7.03588 12.4173 7.06252C12.3911 7.08916 12.3598 7.11032 12.3254 7.12476C12.2909 7.1392 12.2539 7.14663 12.2166 7.14663Z" fill="#9E9E9E"/>
<path d="M4.28919 18.4322C4.22614 18.4322 4.16481 18.4115 4.11476 18.3731C4.06472 18.3348 4.02875 18.2809 4.01243 18.22C3.99612 18.1591 4.00037 18.0945 4.02454 18.0363C4.04872 17.978 4.09144 17.9294 4.14609 17.8979L5.91572 16.8915C5.94812 16.872 5.9841 16.8593 6.02153 16.854C6.05896 16.8488 6.09705 16.8511 6.13356 16.8609C6.17006 16.8707 6.20422 16.8878 6.234 16.9111C6.26377 16.9343 6.28853 16.9634 6.30684 16.9964C6.34357 17.0625 6.35318 17.1402 6.33359 17.2133C6.31401 17.2863 6.26678 17.3488 6.20191 17.3876L4.42752 18.3988C4.38504 18.4216 4.3374 18.4331 4.28919 18.4322Z" fill="#9E9E9E"/>
<path d="M16.5621 11.4968C16.5005 11.4952 16.4411 11.4737 16.3927 11.4356C16.3443 11.3975 16.3094 11.3448 16.2934 11.2854C16.2773 11.2259 16.2808 11.1628 16.3035 11.1055C16.3261 11.0482 16.3667 10.9997 16.419 10.9673L19.8581 8.9449C19.889 8.91516 19.9261 8.89274 19.9668 8.87929C20.0075 8.86584 20.0507 8.86171 20.0932 8.86719C20.1357 8.87267 20.1765 8.88763 20.2124 8.91096C20.2484 8.93429 20.2787 8.9654 20.301 9.00199C20.3233 9.03858 20.3371 9.07972 20.3414 9.12236C20.3457 9.16501 20.3404 9.20808 20.3258 9.24839C20.3112 9.28869 20.2877 9.32521 20.2572 9.35524C20.2266 9.38527 20.1896 9.40804 20.1491 9.42188L16.71 11.4443C16.6668 11.4757 16.6154 11.4939 16.5621 11.4968Z" fill="#9E9E9E"/>
<path d="M7.82841 11.5158C7.7802 11.5167 7.73258 11.5052 7.69009 11.4824L4.25101 9.51247C4.20532 9.46742 4.17611 9.40831 4.16804 9.34465C4.15998 9.28099 4.17354 9.21646 4.20656 9.16144C4.23957 9.10641 4.29012 9.06408 4.35008 9.04124C4.41005 9.01839 4.47595 9.01637 4.53721 9.03549L7.97151 11.0054C8.02765 11.0354 8.07196 11.0836 8.09722 11.142C8.12248 11.2004 8.12719 11.2657 8.11059 11.3271C8.09398 11.3885 8.05704 11.4425 8.00579 11.4803C7.95455 11.518 7.89201 11.5373 7.82841 11.5349V11.5158Z" fill="#9E9E9E"/>
<path d="M19.8913 18.6897C19.8405 18.6895 19.7908 18.6746 19.7482 18.6468L18.2028 17.7262C18.1665 17.7097 18.1342 17.6857 18.1079 17.6558C18.0816 17.6259 18.062 17.5907 18.0503 17.5527C18.0386 17.5146 18.0351 17.4745 18.04 17.435C18.045 17.3954 18.0583 17.3574 18.079 17.3234C18.0998 17.2894 18.1275 17.2602 18.1603 17.2377C18.1932 17.2152 18.2305 17.2 18.2697 17.193C18.3089 17.186 18.3491 17.1873 18.3878 17.197C18.4264 17.2067 18.4625 17.2245 18.4938 17.2492L20.0392 18.165C20.0942 18.1967 20.1372 18.2457 20.1613 18.3044C20.1854 18.3632 20.1893 18.4282 20.1723 18.4894C20.1554 18.5506 20.1186 18.6044 20.0677 18.6424C20.0168 18.6804 19.9548 18.7004 19.8913 18.6992V18.6897Z" fill="#9E9E9E"/>
<path d="M21.0552 10.0039C20.7722 10.0039 20.4955 9.91993 20.2602 9.76269C20.0249 9.60545 19.8415 9.38198 19.7332 9.1205C19.6249 8.85903 19.5966 8.57131 19.6518 8.29373C19.707 8.01615 19.8433 7.76118 20.0434 7.56105C20.2435 7.36093 20.4985 7.22465 20.7761 7.16943C21.0536 7.11422 21.3414 7.14256 21.6028 7.25086C21.8643 7.35917 22.0878 7.54257 22.245 7.77789C22.4023 8.01321 22.4862 8.28988 22.4862 8.5729C22.4862 8.95241 22.3354 9.31638 22.0671 9.58474C21.7987 9.85309 21.4347 10.0039 21.0552 10.0039ZM21.0552 7.71909C20.8852 7.71814 20.7187 7.7677 20.5769 7.86146C20.4351 7.95523 20.3243 8.08898 20.2586 8.24578C20.1929 8.40258 20.1752 8.57536 20.2078 8.74222C20.2404 8.90908 20.3218 9.06251 20.4417 9.18306C20.5615 9.30361 20.7145 9.38586 20.8812 9.41938C21.0479 9.45289 21.2208 9.43617 21.3779 9.37133C21.5351 9.30649 21.6694 9.19645 21.764 9.05516C21.8585 8.91386 21.909 8.74768 21.909 8.57766C21.9078 8.35116 21.8176 8.13422 21.6579 7.97361C21.4982 7.813 21.2817 7.72159 21.0552 7.71909Z" fill="#9E9E9E"/>
<path d="M21.0552 20.2877C20.7722 20.2877 20.4955 20.2038 20.2602 20.0465C20.0249 19.8893 19.8415 19.6658 19.7332 19.4043C19.6249 19.1429 19.5966 18.8552 19.6518 18.5776C19.707 18.3 19.8433 18.045 20.0434 17.8449C20.2435 17.6448 20.4985 17.5085 20.7761 17.4533C21.0536 17.3981 21.3414 17.4264 21.6028 17.5347C21.8643 17.643 22.0878 17.8264 22.245 18.0617C22.4023 18.2971 22.4862 18.5737 22.4862 18.8567C22.4862 19.2363 22.3354 19.6002 22.0671 19.8686C21.7987 20.1369 21.4347 20.2877 21.0552 20.2877ZM21.0552 17.9982C20.8852 17.9972 20.7187 18.0468 20.5769 18.1405C20.4351 18.2343 20.3243 18.3681 20.2586 18.5249C20.1929 18.6817 20.1752 18.8544 20.2078 19.0213C20.2404 19.1882 20.3218 19.3416 20.4417 19.4621C20.5615 19.5827 20.7145 19.6649 20.8812 19.6985C21.0479 19.732 21.2208 19.7152 21.3779 19.6504C21.5351 19.5856 21.6694 19.4755 21.764 19.3342C21.8585 19.1929 21.909 19.0268 21.909 18.8567C21.9078 18.6302 21.8176 18.4133 21.6579 18.2527C21.4982 18.0921 21.2817 18.0007 21.0552 17.9982Z" fill="#9E9E9E"/>
<path d="M3.34478 20.2877C3.06176 20.2877 2.78509 20.2038 2.54977 20.0465C2.31446 19.8893 2.13105 19.6658 2.02274 19.4043C1.91444 19.1429 1.8861 18.8552 1.94131 18.5776C1.99653 18.3 2.13282 18.045 2.33294 17.8449C2.53306 17.6448 2.78803 17.5085 3.06561 17.4533C3.34319 17.3981 3.63092 17.4264 3.89239 17.5347C4.15386 17.643 4.37734 17.8264 4.53458 18.0617C4.69181 18.2971 4.77573 18.5737 4.77573 18.8567C4.77573 19.2363 4.62498 19.6002 4.35663 19.8686C4.08827 20.1369 3.72429 20.2877 3.34478 20.2877ZM3.34478 17.9982C3.17497 17.9982 3.00897 18.0485 2.86778 18.1429C2.72658 18.2372 2.61655 18.3713 2.55157 18.5282C2.48658 18.6851 2.46957 18.8577 2.5027 19.0242C2.53583 19.1908 2.6176 19.3438 2.73767 19.4638C2.85774 19.5839 3.01073 19.6657 3.17728 19.6988C3.34382 19.7319 3.51646 19.7149 3.67334 19.65C3.83023 19.585 3.96431 19.4749 4.05865 19.3337C4.153 19.1925 4.20336 19.0265 4.20336 18.8567C4.20336 18.629 4.1129 18.4106 3.95188 18.2496C3.79087 18.0886 3.57248 17.9982 3.34478 17.9982Z" fill="#9E9E9E"/>
<path d="M3.34478 10.0039C3.06176 10.0039 2.78509 9.91993 2.54977 9.76269C2.31446 9.60545 2.13105 9.38198 2.02274 9.1205C1.91444 8.85903 1.8861 8.57131 1.94131 8.29373C1.99653 8.01615 2.13282 7.76118 2.33294 7.56105C2.53306 7.36093 2.78803 7.22465 3.06561 7.16943C3.34319 7.11422 3.63092 7.14256 3.89239 7.25086C4.15386 7.35917 4.37734 7.54257 4.53458 7.77789C4.69181 8.01321 4.77573 8.28988 4.77573 8.5729C4.77573 8.95241 4.62498 9.31638 4.35663 9.58474C4.08827 9.85309 3.72429 10.0039 3.34478 10.0039ZM3.34478 7.71909C3.17497 7.71909 3.00897 7.76944 2.86778 7.86378C2.72658 7.95813 2.61655 8.09222 2.55157 8.2491C2.48658 8.40599 2.46957 8.57862 2.5027 8.74516C2.53583 8.91171 2.6176 9.06469 2.73767 9.18477C2.85774 9.30484 3.01073 9.38661 3.17728 9.41974C3.34382 9.45287 3.51646 9.43587 3.67334 9.37089C3.83023 9.3059 3.96431 9.19586 4.05865 9.05466C4.153 8.91347 4.20336 8.74747 4.20336 8.57766C4.20336 8.46491 4.18115 8.35327 4.138 8.2491C4.09485 8.14493 4.03161 8.05029 3.95188 7.97056C3.87216 7.89084 3.77751 7.82759 3.67334 7.78444C3.56918 7.7413 3.45753 7.71909 3.34478 7.71909Z" fill="#9E9E9E"/>
<path d="M12.2166 4.86192C11.9336 4.86192 11.6569 4.77799 11.4216 4.62075C11.1863 4.46352 11.0029 4.24003 10.8946 3.97856C10.7863 3.71708 10.7579 3.42937 10.8131 3.15179C10.8684 2.87421 11.0046 2.61924 11.2048 2.41912C11.4049 2.21899 11.6599 2.08271 11.9374 2.0275C12.215 1.97228 12.5027 2.00062 12.7642 2.10893C13.0257 2.21723 13.2492 2.40064 13.4064 2.63596C13.5636 2.87128 13.6476 3.14794 13.6476 3.43096C13.6476 3.81047 13.4968 4.17444 13.2284 4.4428C12.9601 4.71116 12.5961 4.86192 12.2166 4.86192ZM12.2166 2.57715C12.0466 2.5762 11.8801 2.62576 11.7383 2.71953C11.5965 2.81329 11.4857 2.94705 11.42 3.10385C11.3543 3.26064 11.3366 3.43343 11.3692 3.60029C11.4018 3.76715 11.4832 3.92057 11.603 4.04112C11.7229 4.16167 11.8759 4.24392 12.0426 4.27744C12.2092 4.31095 12.3821 4.29424 12.5393 4.22939C12.6965 4.16455 12.8308 4.05451 12.9254 3.91321C13.0199 3.77192 13.0704 3.60574 13.0704 3.43573C13.0704 3.20884 12.9806 2.99118 12.8206 2.8303C12.6606 2.66942 12.4435 2.57841 12.2166 2.57715Z" fill="#9E9E9E"/>
<path d="M12.2167 12.5748C11.0195 12.5748 10.2134 11.6543 10.2134 10.2901C10.2134 8.92589 11.0195 8.00531 12.2167 8.00531C13.414 8.00531 14.2153 8.92112 14.2153 10.2901C14.2153 11.659 13.3949 12.5748 12.2167 12.5748ZM12.2167 8.57769C11.1626 8.57769 10.7858 9.49827 10.7858 10.2901C10.7858 11.0819 11.1626 12.0025 12.2167 12.0025C13.2709 12.0025 13.6477 11.0819 13.6477 10.2901C13.6477 9.49827 13.2518 8.57769 12.2167 8.57769Z" fill="#9E9E9E"/>
<path d="M14.7685 22C14.7312 22 14.6942 21.9926 14.6597 21.9781C14.6253 21.9637 14.594 21.9425 14.5678 21.9159C14.5416 21.8892 14.521 21.8577 14.5071 21.823C14.4933 21.7883 14.4865 21.7512 14.4871 21.7138V19.429C14.4865 19.3917 14.4933 19.3546 14.5071 19.3199C14.521 19.2852 14.5416 19.2536 14.5678 19.227C14.594 19.2003 14.6253 19.1792 14.6597 19.1647C14.6942 19.1503 14.7312 19.1428 14.7685 19.1429C14.8444 19.1429 14.9172 19.173 14.9709 19.2267C15.0246 19.2803 15.0547 19.3531 15.0547 19.429V21.7138C15.0547 21.7897 15.0246 21.8625 14.9709 21.9162C14.9172 21.9698 14.8444 22 14.7685 22Z" fill="#9E9E9E"/>
<path d="M9.63139 22C9.55549 22 9.4827 21.9698 9.42903 21.9162C9.37536 21.8625 9.34521 21.7897 9.34521 21.7138V19.429C9.34521 19.3531 9.37536 19.2803 9.42903 19.2267C9.4827 19.173 9.55549 19.1429 9.63139 19.1429C9.66876 19.1428 9.70575 19.1503 9.7402 19.1647C9.77466 19.1792 9.8059 19.2003 9.8321 19.227C9.8583 19.2536 9.87893 19.2852 9.89279 19.3199C9.90664 19.3546 9.91346 19.3917 9.91283 19.429V21.7138C9.91346 21.7512 9.90664 21.7883 9.89279 21.823C9.87893 21.8577 9.8583 21.8892 9.8321 21.9159C9.8059 21.9425 9.77466 21.9637 9.7402 21.9781C9.70575 21.9926 9.66876 22 9.63139 22Z" fill="#9E9E9E"/>
<path d="M12.4837 13.7148H11.9161C11.8757 13.72 11.8347 13.7166 11.7958 13.7047C11.7569 13.6929 11.7209 13.6728 11.6903 13.646C11.6598 13.6191 11.6353 13.586 11.6185 13.549C11.6017 13.5119 11.593 13.4717 11.593 13.431C11.593 13.3903 11.6017 13.35 11.6185 13.313C11.6353 13.2759 11.6598 13.2428 11.6903 13.216C11.7209 13.1891 11.7569 13.1691 11.7958 13.1572C11.8347 13.1453 11.8757 13.1419 11.9161 13.1472H12.4837C12.5241 13.1419 12.5651 13.1453 12.604 13.1572C12.6429 13.1691 12.6789 13.1891 12.7095 13.216C12.74 13.2428 12.7645 13.2759 12.7813 13.313C12.7981 13.35 12.8068 13.3903 12.8068 13.431C12.8068 13.4717 12.7981 13.5119 12.7813 13.549C12.7645 13.586 12.74 13.6191 12.7095 13.646C12.6789 13.6728 12.6429 13.6929 12.604 13.7047C12.5651 13.7166 12.5241 13.72 12.4837 13.7148Z" fill="#9E9E9E"/>
<path d="M12.2166 16.8581C12.1407 16.8581 12.0679 16.828 12.0143 16.7743C11.9606 16.7206 11.9304 16.6478 11.9304 16.5719V13.4286C11.9394 13.3596 11.9731 13.2963 12.0253 13.2504C12.0776 13.2046 12.1447 13.1793 12.2142 13.1793C12.2837 13.1793 12.3509 13.2046 12.4031 13.2504C12.4553 13.2963 12.4891 13.3596 12.498 13.4286V16.5719C12.4987 16.6093 12.4919 16.6464 12.478 16.6811C12.4641 16.7158 12.4435 16.7474 12.4173 16.774C12.3911 16.8006 12.3599 16.8218 12.3254 16.8362C12.291 16.8507 12.254 16.8581 12.2166 16.8581Z" fill="#9E9E9E"/>
<path d="M15.5889 19.4529H13.4663C13.2051 19.44 12.9467 19.3918 12.6984 19.3098H12.6602L11.0194 19.4481H8.23855C8.05978 19.4497 7.88263 19.414 7.71839 19.3434C7.55415 19.2728 7.40641 19.1687 7.28458 19.0379C7.19932 18.9422 7.13628 18.8289 7.09999 18.706C7.0637 18.5832 7.05507 18.4538 7.07471 18.3272L7.66616 15.0121C7.82303 14.4758 8.14855 14.0043 8.59446 13.6675C9.04037 13.3307 9.58293 13.1465 10.1417 13.1423H10.6759L12.2118 16.5528L13.7334 13.1423H14.1246C14.6482 13.1544 15.1517 13.3464 15.5504 13.6861C15.9491 14.0257 16.2187 14.4923 16.3139 15.0074L16.7623 18.3463C16.783 18.4659 16.7771 18.5886 16.7449 18.7057C16.7128 18.8228 16.6552 18.9313 16.5763 19.0236C16.4507 19.16 16.298 19.2686 16.1279 19.3425C15.9579 19.4164 15.7743 19.454 15.5889 19.4529ZM12.6173 18.6754C12.8879 18.7874 13.1744 18.8566 13.4663 18.8805H15.5889C15.69 18.8807 15.79 18.8601 15.8828 18.8198C15.9755 18.7796 16.059 18.7207 16.1279 18.6468C16.1549 18.6176 16.175 18.5827 16.1865 18.5447C16.1981 18.5067 16.2009 18.4666 16.1947 18.4273L15.7463 15.0884C15.6747 14.7056 15.4743 14.3587 15.1785 14.1054C14.8827 13.8521 14.5091 13.7075 14.1198 13.6956H14.0959L12.7127 16.777C12.6697 16.8744 12.6007 16.9581 12.5131 17.0187C12.4256 17.0793 12.3229 17.1145 12.2166 17.1204C12.1129 17.1213 12.011 17.0937 11.9219 17.0407C11.8327 16.9878 11.7598 16.9114 11.711 16.8199L10.3087 13.7147H10.1417C9.71291 13.7195 9.29677 13.8608 8.9537 14.1181C8.61062 14.3754 8.35845 14.7354 8.23378 15.1457L7.64232 18.4417C7.63609 18.4853 7.63971 18.5298 7.65292 18.5719C7.66612 18.614 7.68858 18.6526 7.71864 18.6849C7.78792 18.7545 7.87051 18.8093 7.96149 18.8462C8.05246 18.8831 8.14994 18.9012 8.24809 18.8996H11.0051L11.8112 18.8328C11.1768 18.4321 10.0416 17.8168 9.15436 17.8788L8.76324 17.917L9.15913 16.0949C9.17859 16.024 9.22453 15.9634 9.28746 15.9255C9.35039 15.8876 9.42548 15.8753 9.49719 15.8913C9.5689 15.9072 9.63175 15.9501 9.6727 16.0111C9.71366 16.0721 9.72959 16.1465 9.71721 16.2189L9.47872 17.3064C10.8429 17.3923 12.3979 18.5132 12.6173 18.6754Z" fill="#9E9E9E"/>
<path d="M15.0213 17.9122L14.5443 17.6547C13.4902 17.0871 11.2054 17.3637 11.2054 17.3637H11.1625L9.86509 17.1157C9.84124 17.1157 9.78401 17.1491 9.74585 17.2015L9.40242 17.6785C9.38049 17.7098 9.35262 17.7365 9.32038 17.7571C9.28814 17.7776 9.25216 17.7916 9.21451 17.7983C9.17686 17.8049 9.13828 17.8041 9.10095 17.7958C9.06363 17.7875 9.02829 17.772 8.99697 17.7501C8.96566 17.7282 8.93896 17.7003 8.91841 17.668C8.89787 17.6358 8.88388 17.5998 8.87723 17.5622C8.87059 17.5245 8.87142 17.4859 8.87969 17.4486C8.88796 17.4113 8.90351 17.376 8.92543 17.3446L9.27362 16.8676C9.35233 16.7408 9.47078 16.6434 9.61053 16.5908C9.75027 16.5382 9.90349 16.5332 10.0464 16.5767L11.172 16.7866C12.2312 16.6566 13.305 16.7147 14.344 16.9583L14.2581 16.1092C14.2514 16.0335 14.2746 15.9582 14.3228 15.8994C14.3709 15.8405 14.4402 15.8029 14.5157 15.7944C14.5531 15.7905 14.5908 15.7941 14.6268 15.805C14.6627 15.8158 14.6962 15.8338 14.725 15.8578C14.7539 15.8818 14.7777 15.9114 14.795 15.9447C14.8123 15.9781 14.8228 16.0145 14.8257 16.052L15.0213 17.9122Z" fill="#9E9E9E"/>
</svg>
