<svg width="145" height="170" viewBox="0 0 145 170" fill="none" xmlns="http://www.w3.org/2000/svg">
<g clip-path="url(#clip0_4358_41846)">
<path d="M144.03 105.881L144.03 52.5177C144.03 43.3225 139.09 34.7592 131.137 30.1708L84.9072 3.48963C76.9574 -1.09614 67.0723 -1.09746 59.1081 3.48963L12.8923 30.1708C4.93994 34.7592 -1.89151e-06 43.3225 -2.29345e-06 52.5177L-4.62605e-06 105.881C-5.02764e-06 115.069 4.93993 123.627 12.8936 128.214L15.6743 129.815L16.6012 128.203L13.8205 126.602C6.44219 122.346 1.85774 114.405 1.85774 105.88L1.85774 52.5164C1.85774 43.9821 6.44219 36.0363 13.8205 31.7797L60.0376 5.09853C67.4278 0.843232 76.602 0.843233 83.9789 5.09853L130.208 31.7797C137.588 36.0377 142.171 43.9834 142.171 52.5164L142.171 105.88C142.171 114.408 137.581 122.348 130.195 126.602L127.427 128.205L128.358 129.814L131.124 128.213C139.085 123.628 144.03 115.071 144.03 105.88L144.03 105.881Z" fill="#9AD0C2"/>
<path d="M114.156 145.617C117.899 143.456 120.204 139.463 120.204 135.142L120.204 93.4634C120.204 89.1419 117.899 85.1487 114.156 82.988L78.0629 62.149C74.3204 59.9882 69.7093 59.9882 65.9668 62.149L29.8733 82.988C26.1309 85.1487 23.8254 89.1419 23.8254 93.4634L23.8254 135.142C23.8254 139.463 26.1309 143.456 29.8733 145.617L65.9668 166.456C69.7093 168.617 74.3204 168.617 78.0629 166.456L114.156 145.617ZM104.244 88.7126C107.986 90.8734 110.291 94.8666 110.291 99.188L110.291 129.418C110.291 133.74 107.986 137.733 104.244 139.894L78.0629 155.009C74.3204 157.17 69.7093 157.17 65.9668 155.009L39.7862 139.894C36.0437 137.733 33.7382 133.74 33.7382 129.418L33.7382 99.188C33.7382 94.8666 36.0437 90.8734 39.7862 88.7126L65.9668 73.597C69.7093 71.4362 74.3204 71.4362 78.0629 73.597L104.244 88.7126Z" fill="white"/>
<path d="M123.908 116.152C127.666 113.996 129.983 109.994 129.983 105.661L129.983 53.1421C129.983 48.8095 127.666 44.8077 123.908 42.6511L78.0439 16.3292C74.3151 14.1892 69.7307 14.1892 66.002 16.3292L20.138 42.6511C16.3802 44.8077 14.0629 48.8095 14.0629 53.1421L14.0629 105.661C14.0629 109.994 16.3802 113.996 20.138 116.152L66.002 142.474C69.7307 144.614 74.3151 144.614 78.0439 142.474L123.908 116.152Z" fill="#9AD0C2"/>
</g>
<defs>
<clipPath id="clip0_4358_41846">
<rect width="169.848" height="144.144" fill="white" transform="matrix(-4.37114e-08 1 1 4.37114e-08 0 0)"/>
</clipPath>
</defs>
</svg>
