<svg width="24" height="25" viewBox="0 0 24 25" fill="none" xmlns="http://www.w3.org/2000/svg">
<path d="M11.9945 7.64191L11.9915 7.81291C11.9652 7.81246 11.9106 7.79709 11.8673 7.74783C11.8315 7.70719 11.8236 7.66657 11.8236 7.64112C11.8236 7.61567 11.8315 7.57505 11.8672 7.5344C11.9106 7.48514 11.9652 7.46977 11.9914 7.46931L11.9945 7.64191ZM12.0059 7.6408L12.0089 7.46931C12.0351 7.46977 12.0897 7.48513 12.1331 7.53438C12.1688 7.57502 12.1768 7.61563 12.1768 7.6411C12.1768 7.66656 12.1688 7.70719 12.1331 7.74783C12.0897 7.7971 12.0351 7.81245 12.0089 7.81291L12.0059 7.6408Z" fill="white" stroke="white"/>
<path d="M15.6968 7.31299H15.9209C15.7622 5.40352 14.2376 3.87887 12.3281 3.72023V3.94426C12.3281 4.12562 12.1814 4.27238 12 4.27238C11.8186 4.27238 11.6719 4.12562 11.6719 3.94426V3.72023C9.76239 3.87887 8.23774 5.40352 8.0791 7.31299H8.30313C8.4845 7.31299 8.63126 7.45975 8.63126 7.64111C8.63126 7.82248 8.4845 7.96924 8.30313 7.96924H8.0791C8.23774 9.87871 9.76239 11.4034 11.6719 11.562V11.338C11.6719 11.1566 11.8186 11.0098 12 11.0098C12.1814 11.0098 12.3281 11.1566 12.3281 11.338V11.562C14.2376 11.4034 15.7622 9.87871 15.9209 7.96924H15.6968C15.2655 7.96214 15.2656 7.32002 15.6968 7.31299ZM13.6406 7.96924H12.9239C12.788 8.35035 12.4272 8.62549 12 8.62549C10.8977 8.61528 10.6453 7.08431 11.6719 6.71719V5.01611C11.6719 4.83475 11.8186 4.68799 12 4.68799C12.1814 4.68799 12.3281 4.83475 12.3281 5.01611V6.71719C12.6061 6.81631 12.8248 7.03501 12.9239 7.31299H13.6406C14.0719 7.32006 14.0719 7.96219 13.6406 7.96924Z" fill="white"/>
<path d="M11.9998 2.39111C9.10026 2.39111 6.74976 4.74162 6.74976 7.64111C7.0263 14.6051 16.9743 14.6031 17.2498 7.64107C17.2498 4.74162 14.8993 2.39111 11.9998 2.39111ZM11.9998 12.2349C9.46672 12.2349 7.40601 10.1741 7.40601 7.64111C7.65831 1.54686 16.3422 1.54865 16.5935 7.64114C16.5935 10.1741 14.5328 12.2349 11.9998 12.2349ZM4.12476 11.3911C2.14301 11.4536 2.1423 14.3285 4.12478 14.3911C4.12476 14.3911 6.37476 14.3911 6.37476 14.3911C7.20203 14.3911 7.87476 13.7184 7.87476 12.8911C7.87476 12.0638 7.20203 11.3911 6.37476 11.3911H4.12476Z" fill="white"/>
<path d="M12 13.6411C10.7625 13.6411 9.6075 13.2624 8.65125 12.6173C8.47108 13.5244 9.19835 14.4018 10.125 14.3911C10.125 14.3911 19.875 14.3911 19.875 14.3911C21.8553 14.3315 21.8596 11.4522 19.875 11.3911C19.875 11.3911 16.68 11.3911 16.68 11.3911C15.5775 12.7636 13.89 13.6411 12 13.6411ZM6.375 15.1411H4.125C3.29773 15.1411 2.625 15.8138 2.625 16.6411C2.625 17.4684 3.29773 18.1411 4.125 18.1411H6.375C8.35675 18.0786 8.35746 15.2038 6.375 15.1411Z" fill="white"/>
<path d="M19.8748 15.1411H10.1248C8.14518 15.2027 8.14042 18.0779 10.1248 18.1411H19.8748C21.8544 18.0795 21.8591 15.2043 19.8748 15.1411ZM4.12478 18.8911C2.1428 18.9537 2.1425 21.8285 4.1248 21.8911H6.37478C8.35653 21.8286 8.35724 18.9538 6.37478 18.8911H4.12478Z" fill="white"/>
<path d="M10.1248 18.8911C8.14518 18.9527 8.14042 21.8279 10.1248 21.8911C10.1248 21.8911 19.8748 21.8911 19.8748 21.8911C21.8544 21.8295 21.8591 18.9543 19.8748 18.8911H10.1248ZM2.99981 9.89111C2.99978 9.89111 6.43852 9.89111 6.43852 9.89111C6.34102 9.65111 6.25853 9.39986 6.19104 9.14111H2.99978C2.50757 9.15043 2.50689 9.88168 2.99981 9.89111ZM21.3748 9.51611C21.3748 9.30987 21.206 9.14111 20.9998 9.14111H17.8085C17.741 9.39986 17.6585 9.65111 17.561 9.89111H20.9998C21.206 9.89111 21.3748 9.72236 21.3748 9.51611Z" fill="white"/>
<path d="M21 5.76611C21 4.86235 20.355 4.10487 19.5 3.92861V2.39111C19.5 2.18487 19.3312 2.01611 19.125 2.01611C18.9188 2.01611 18.75 2.18487 18.75 2.39111V3.92861C18.1425 4.05236 17.64 4.47236 17.4037 5.03111C17.625 5.4961 17.7938 5.99486 17.8913 6.51611H21C21.8288 6.51611 22.5 7.18736 22.5 8.01611V21.1411C22.5 21.9698 21.8288 22.6411 21 22.6411H3C2.17124 22.6411 1.5 21.9698 1.5 21.1411V8.01611C1.5 7.18736 2.17124 6.51611 3 6.51611H6.10874C6.20625 5.99486 6.375 5.4961 6.59626 5.03111C6.36001 4.47236 5.8575 4.05236 5.25 3.92861V2.39111C5.25 2.18487 5.08125 2.01611 4.875 2.01611C4.66875 2.01611 4.5 2.18487 4.5 2.39111V3.92861C3.64499 4.10487 3 4.86235 3 5.76611C1.75875 5.76611 0.75 6.77486 0.75 8.01611V21.1411C0.75 22.3824 1.75875 23.3911 3 23.3911H21C22.2412 23.3911 23.25 22.3824 23.25 21.1411V8.01611C23.25 6.77486 22.2412 5.76611 21 5.76611Z" fill="white"/>
</svg>
