<svg width="24" height="25" viewBox="0 0 24 25" fill="none" xmlns="http://www.w3.org/2000/svg">
<path d="M18 3.70361V2.70361H6V3.70361C4.93913 3.70361 3.92172 4.12504 3.17157 4.87519C2.42143 5.62533 2 6.64275 2 7.70361C2 8.76448 2.42143 9.7819 3.17157 10.532C3.92172 11.2822 4.93913 11.7036 6 11.7036H6.81C7.25168 12.4667 7.85613 13.1231 8.58033 13.6261C9.30453 14.1291 10.1307 14.4662 11 14.6136V16.7036H7.22L5.72 22.7036H18.28L16.78 16.7036H13V14.6136C13.8693 14.4662 14.6955 14.1291 15.4197 13.6261C16.1439 13.1231 16.7483 12.4667 17.19 11.7036H18C19.0609 11.7036 20.0783 11.2822 20.8284 10.532C21.5786 9.7819 22 8.76448 22 7.70361C22 6.64275 21.5786 5.62533 20.8284 4.87519C20.0783 4.12504 19.0609 3.70361 18 3.70361ZM6 9.70361C5.46957 9.70361 4.96086 9.4929 4.58579 9.11783C4.21071 8.74275 4 8.23405 4 7.70361C4 7.17318 4.21071 6.66447 4.58579 6.2894C4.96086 5.91433 5.46957 5.70361 6 5.70361V8.70361C5.99928 9.039 6.02941 9.37374 6.09 9.70361H6ZM19.41 9.11361C19.0366 9.4892 18.5296 9.70138 18 9.70361H17.91C17.9706 9.37374 18.0007 9.039 18 8.70361V5.70361C18.5304 5.70361 19.0391 5.91433 19.4142 6.2894C19.7893 6.66447 20 7.17318 20 7.70361C19.9978 8.23319 19.7856 8.74026 19.41 9.11361Z" fill="white"/>
</svg>
