<svg width="25" height="24" viewBox="0 0 25 24" fill="none" xmlns="http://www.w3.org/2000/svg">
<path d="M16.1883 19.9067C16.0917 19.9067 15.9991 19.8683 15.9308 19.8C15.8625 19.7317 15.8241 19.6391 15.8241 19.5425V17.8669C15.8241 17.8527 15.8184 17.8391 15.8084 17.8291C15.7984 17.8191 15.7848 17.8135 15.7707 17.8135H13.2549C13.1583 17.8135 13.0656 17.7751 12.9973 17.7068C12.929 17.6385 12.8906 17.5458 12.8906 17.4492C12.8906 17.3526 12.929 17.26 12.9973 17.1916C13.0656 17.1233 13.1583 17.085 13.2549 17.085H15.7707C15.9776 17.0862 16.1758 17.169 16.3222 17.3154C16.4685 17.4618 16.5513 17.6599 16.5526 17.8669V19.5425C16.5513 19.6387 16.5125 19.7306 16.4445 19.7986C16.3765 19.8667 16.2845 19.9054 16.1883 19.9067Z" fill="#9E9E9E"/>
<path d="M8.63134 19.9067C8.53513 19.9054 8.44321 19.8667 8.37517 19.7986C8.30713 19.7306 8.26835 19.6387 8.26709 19.5425V17.8669C8.26837 17.6591 8.35183 17.4602 8.49924 17.3137C8.64665 17.1672 8.84604 17.085 9.05387 17.085H12.405C12.5016 17.085 12.5943 17.1233 12.6626 17.1916C12.7309 17.26 12.7692 17.3526 12.7692 17.4492C12.7692 17.5458 12.7309 17.6385 12.6626 17.7068C12.5943 17.7751 12.5016 17.8135 12.405 17.8135H9.05387C9.04646 17.8128 9.03899 17.8137 9.03194 17.8161C9.02488 17.8184 9.01841 17.8223 9.01292 17.8273C9.00743 17.8323 9.00305 17.8384 9.00007 17.8453C8.99709 17.8521 8.99556 17.8594 8.9956 17.8669V19.5425C8.9956 19.6391 8.95722 19.7317 8.88891 19.8C8.8206 19.8683 8.72795 19.9067 8.63134 19.9067Z" fill="#9E9E9E"/>
<path d="M17.0095 22H7.78177C7.73375 22.0006 7.68609 21.9916 7.6416 21.9736C7.59711 21.9555 7.5567 21.9287 7.52275 21.8947C7.48879 21.8608 7.46198 21.8204 7.44391 21.7759C7.42584 21.7314 7.41686 21.6837 7.41751 21.6357V19.9602C7.41751 19.8575 7.43774 19.7558 7.47704 19.6609C7.51633 19.5661 7.57393 19.4799 7.64654 19.4072C7.71914 19.3346 7.80534 19.277 7.90021 19.2377C7.99507 19.1984 8.09675 19.1782 8.19944 19.1782H12.3908C12.4874 19.1782 12.58 19.2166 12.6483 19.2849C12.7167 19.3532 12.755 19.4459 12.755 19.5425C12.755 19.6391 12.7167 19.7317 12.6483 19.8C12.58 19.8684 12.4874 19.9067 12.3908 19.9067H8.19944C8.18527 19.9067 8.17169 19.9124 8.16167 19.9224C8.15165 19.9324 8.14602 19.946 8.14602 19.9602V21.2715H16.6307V19.9602C16.6307 19.9531 16.6293 19.9462 16.6266 19.9397C16.6239 19.9332 16.62 19.9273 16.615 19.9224C16.6101 19.9174 16.6042 19.9135 16.5977 19.9108C16.5912 19.9081 16.5843 19.9067 16.5773 19.9067H13.2261C13.1295 19.9067 13.0369 19.8684 12.9686 19.8C12.9002 19.7317 12.8619 19.6391 12.8619 19.5425C12.8619 19.4459 12.9002 19.3532 12.9686 19.2849C13.0369 19.2166 13.1295 19.1782 13.2261 19.1782H16.5773C16.7846 19.1782 16.9835 19.2606 17.1302 19.4072C17.2768 19.5539 17.3592 19.7528 17.3592 19.9602V21.6357C17.3605 21.7302 17.3245 21.8214 17.2591 21.8896C17.1936 21.9578 17.104 21.9974 17.0095 22Z" fill="#9E9E9E"/>
<path d="M10.7295 17.7989C10.6329 17.7989 10.5402 17.7605 10.4719 17.6922C10.4036 17.6239 10.3652 17.5312 10.3652 17.4346V14.5206C10.3652 14.424 10.4036 14.3313 10.4719 14.263C10.5402 14.1947 10.6329 14.1563 10.7295 14.1563C10.8261 14.1563 10.9187 14.1947 10.9871 14.263C11.0554 14.3313 11.0937 14.424 11.0937 14.5206V17.4346C11.0925 17.5308 11.0537 17.6228 10.9857 17.6908C10.9176 17.7588 10.8257 17.7976 10.7295 17.7989Z" fill="#9E9E9E"/>
<path d="M14.0806 17.7989C13.984 17.7989 13.8913 17.7605 13.823 17.6922C13.7547 17.6239 13.7163 17.5312 13.7163 17.4346V14.5206C13.7163 14.424 13.7547 14.3313 13.823 14.263C13.8913 14.1947 13.984 14.1563 14.0806 14.1563C14.1772 14.1563 14.2698 14.1947 14.3381 14.263C14.4064 14.3313 14.4448 14.424 14.4448 14.5206V17.4346C14.4436 17.5308 14.4048 17.6228 14.3367 17.6908C14.2687 17.7588 14.1768 17.7976 14.0806 17.7989Z" fill="#9E9E9E"/>
<path d="M12.4052 15.2977C11.0899 15.2986 9.80398 14.9095 8.70995 14.1795C7.61592 13.4495 6.76296 12.4114 6.25898 11.1966C5.755 9.98176 5.62263 8.64475 5.87863 7.35469C6.13463 6.06462 6.76749 4.87946 7.69715 3.94912C8.62681 3.01878 9.81152 2.38505 11.1014 2.12811C12.3913 1.87117 13.7284 2.00256 14.9436 2.50565C16.1588 3.00874 17.1975 3.86094 17.9283 4.95443C18.6591 6.04793 19.0491 7.33361 19.0491 8.64883C19.0479 10.411 18.3476 12.1006 17.102 13.3471C15.8565 14.5936 14.1673 15.2951 12.4052 15.2977ZM12.4052 2.73336C11.2338 2.7324 10.0885 3.07893 9.11418 3.72909C8.13984 4.37926 7.38026 5.30384 6.93156 6.38583C6.48287 7.46783 6.36522 8.65861 6.5935 9.80749C6.82178 10.9564 7.38574 12.0117 8.21401 12.84C9.04227 13.6682 10.0976 14.2322 11.2465 14.4605C12.3954 14.6888 13.5862 14.5711 14.6682 14.1224C15.7502 13.6737 16.6747 12.9141 17.3249 11.9398C17.9751 10.9655 18.3216 9.82017 18.3206 8.64883C18.3155 7.08242 17.6903 5.58178 16.5818 4.47507C15.4732 3.36836 13.9716 2.74564 12.4052 2.74308V2.73336Z" fill="#9E9E9E"/>
<path d="M14.479 12.3351C14.4107 12.3347 14.3436 12.3162 14.2847 12.2817L12.41 11.1112L10.5353 12.2817C10.4758 12.322 10.4056 12.3435 10.3338 12.3435C10.2619 12.3435 10.1917 12.322 10.1322 12.2817C10.0727 12.2393 10.0271 12.1802 10.0011 12.1119C9.9752 12.0436 9.97013 11.9692 9.98654 11.898L10.5208 9.68818L8.82092 8.12918C8.76745 8.08176 8.72958 8.01928 8.71225 7.94994C8.69491 7.88061 8.69894 7.80765 8.72379 7.74065C8.74693 7.67283 8.7898 7.61347 8.84691 7.5702C8.90403 7.52693 8.97279 7.50172 9.04434 7.49781L11.2347 7.38611L12.0701 5.17145C12.0963 5.10227 12.1428 5.0426 12.2034 5.00016C12.2641 4.95772 12.336 4.93449 12.41 4.93347C12.484 4.93449 12.556 4.95772 12.6166 5.00016C12.6772 5.0426 12.7237 5.10227 12.75 5.17145L13.5854 7.37154L15.7757 7.48324C15.8473 7.48715 15.916 7.51236 15.9731 7.55563C16.0303 7.5989 16.0731 7.65826 16.0963 7.72608C16.1211 7.79308 16.1251 7.86604 16.1078 7.93537C16.0905 8.00471 16.0526 8.06719 15.9991 8.11461L14.2993 9.67362L14.8335 11.8834C14.8458 11.9371 14.846 11.9928 14.834 12.0465C14.822 12.1003 14.7981 12.1506 14.7641 12.1939C14.7301 12.2372 14.6869 12.2724 14.6376 12.2968C14.5882 12.3212 14.534 12.3343 14.479 12.3351ZM9.95254 8.16804L11.1716 9.28022C11.2195 9.32437 11.2546 9.38055 11.2734 9.4429C11.2922 9.50526 11.2939 9.57151 11.2784 9.63476L10.9044 11.1889L12.2158 10.373C12.2743 10.3374 12.3415 10.3186 12.41 10.3186C12.4785 10.3186 12.5457 10.3374 12.6043 10.373L13.9156 11.1889L13.5416 9.63476C13.5261 9.57151 13.5279 9.50526 13.5467 9.4429C13.5655 9.38055 13.6006 9.32437 13.6485 9.28022L14.8675 8.16804L13.3085 8.08547C13.2377 8.08132 13.1697 8.05658 13.1127 8.01431C13.0558 7.97204 13.0124 7.91406 12.988 7.84749L12.41 6.32735L11.8175 7.84749C11.793 7.91406 11.7497 7.97204 11.6927 8.01431C11.6358 8.05658 11.5678 8.08132 11.497 8.08547L9.95254 8.16804Z" fill="#9E9E9E"/>
</svg>
