<svg width="317" height="133" viewBox="0 0 317 133" fill="none" xmlns="http://www.w3.org/2000/svg">
<path d="M269.111 5.59736L269.111 5.59736L230.746 5.59736H230.746C229.009 5.59587 227.302 6.05282 225.797 6.92219C224.293 7.79156 223.044 9.04265 222.176 10.5494L222.176 10.55L202.956 43.8282L269.111 5.59736ZM269.111 5.59736C270.85 5.59497 272.559 6.05146 274.066 6.92087C275.573 7.79026 276.824 9.04186 277.693 10.5496C277.693 10.5496 277.693 10.5497 277.693 10.5497M269.111 5.59736L277.693 10.5497M230.746 5.09736H269.111C270.938 5.09485 272.733 5.57444 274.316 6.4878L230.746 5.09736ZM230.746 5.09736C228.921 5.09579 227.128 5.57589 225.547 6.48927M230.746 5.09736L225.547 6.48927M277.693 10.5497L296.876 43.8281L296.876 43.8282C297.745 45.3359 298.203 47.0462 298.203 48.7872C298.203 50.5283 297.745 52.2386 296.876 53.7463L296.876 53.7464L277.694 87.0242C276.822 88.5305 275.571 89.781 274.064 90.6502C272.558 91.5195 270.849 91.9771 269.111 91.9771H230.746H230.745C229.004 91.9804 227.293 91.5244 225.785 90.6549C224.276 89.7855 223.022 88.5333 222.151 87.0245L202.956 53.7463C202.086 52.2386 201.629 50.5283 201.629 48.7872C201.629 47.0463 202.086 45.3361 202.956 43.8284L277.693 10.5497ZM225.547 6.48927C223.967 7.40265 222.655 8.71702 221.743 10.2999L225.547 6.48927Z" stroke="#2D9596"/>
<path d="M260.125 117.523H181.828C178.823 117.524 175.873 118.317 173.271 119.821C170.67 121.325 168.51 123.488 167.008 126.092L127.809 193.953C126.311 196.56 125.523 199.515 125.523 202.523C125.523 205.53 126.311 208.485 127.809 211.092L167.008 278.966C168.507 281.575 170.665 283.743 173.267 285.252C175.868 286.76 178.821 287.557 181.828 287.561H260.125C263.129 287.559 266.08 286.767 268.681 285.263C271.282 283.758 273.442 281.595 274.944 278.991L314.144 211.118C315.647 208.513 316.439 205.557 316.439 202.548C316.439 199.539 315.647 196.583 314.144 193.978L274.944 126.118C273.446 123.509 271.287 121.341 268.685 119.832C266.084 118.323 263.131 117.527 260.125 117.523Z" fill="#2D9596"/>
<path d="M201.018 22.0478L201.016 22.0478L98.8072 22.0478C98.8072 22.0478 98.8071 22.0478 98.8071 22.0478C96.5096 22.0484 94.2526 22.6536 92.2624 23.8027C90.2723 24.9518 88.6189 26.6044 87.4679 28.595L201.018 22.0478ZM201.018 22.0478C203.319 22.0345 205.582 22.6295 207.58 23.7726C209.577 24.9158 211.238 26.5666 212.393 28.5582L263.503 117.165L263.503 117.165C264.653 119.155 265.258 121.413 265.258 123.712C265.258 126.011 264.653 128.27 263.503 130.26L263.503 130.26L212.393 218.868L212.393 218.868C211.246 220.859 209.595 222.513 207.606 223.662C205.618 224.811 203.362 225.416 201.066 225.415H98.8578C96.5602 225.414 94.3032 224.809 92.3129 223.66C90.3228 222.511 88.6693 220.858 87.5183 218.867C87.5182 218.867 87.5182 218.867 87.5181 218.867L36.4078 130.26L36.4077 130.26C35.2584 128.27 34.6533 126.011 34.6533 123.712C34.6533 121.413 35.2584 119.155 36.4077 117.165L36.4078 117.165L87.4675 28.5955L201.018 22.0478Z" stroke="white"/>
<path d="M157.29 80.8505H61.6187C59.2484 80.8529 56.9204 81.4785 54.8677 82.6648C52.8149 83.8511 51.1095 85.5564 49.9222 87.61L2.09927 170.547C0.912748 172.601 0.288025 174.933 0.288025 177.306C0.288025 179.68 0.912748 182.011 2.09927 184.066L49.9222 267.002C51.1095 269.056 52.8149 270.761 54.8677 271.948C56.9204 273.134 59.2484 273.76 61.6187 273.762H157.29C159.66 273.76 161.988 273.134 164.041 271.948C166.094 270.761 167.799 269.056 168.986 267.002L216.822 184.066C218.002 182.009 218.623 179.678 218.623 177.306C218.623 174.934 218.002 172.604 216.822 170.547L168.986 87.61C167.799 85.5564 166.094 83.8511 164.041 82.6648C161.988 81.4785 159.66 80.8529 157.29 80.8505Z" fill="#265073"/>
</svg>
