<svg width="140" height="58" viewBox="0 0 140 58" fill="none" xmlns="http://www.w3.org/2000/svg">
<path d="M0 6.77662C0 3.46291 2.68629 0.776611 6 0.776611H134C137.314 0.776611 140 3.4629 140 6.77661V34.7193C140 37.429 138.184 39.8024 135.568 40.5107L72.1571 57.6836C71.1385 57.9595 70.0651 57.9618 69.0453 57.6904L4.45656 40.4969C1.82879 39.7974 0 37.4181 0 34.6988V6.77662Z" fill="#265073"/>
<path d="M0 6.77662C0 3.46291 2.68629 0.776611 6 0.776611H134C137.314 0.776611 140 3.4629 140 6.77661V34.7193C140 37.429 138.184 39.8024 135.568 40.5107L72.1571 57.6836C71.1385 57.9595 70.0651 57.9618 69.0453 57.6904L4.45656 40.4969C1.82879 39.7974 0 37.4181 0 34.6988V6.77662Z" stroke="#2E3947"/>
</svg>
