<svg width="24" height="25" viewBox="0 0 24 25" fill="none" xmlns="http://www.w3.org/2000/svg">
<g clip-path="url(#clip0_3088_3995)">
<path fill-rule="evenodd" clip-rule="evenodd" d="M14.2792 2.06061C15.1401 2.06061 15.9044 2.61147 16.1766 3.42815L16.7208 5.06061H20C20.5523 5.06061 21 5.50833 21 6.06061C21 6.61288 20.5523 7.06059 20 7.06061L19.9975 7.13186L19.1301 19.2743C19.018 20.8443 17.7117 22.0606 16.1378 22.0606H7.86224C6.28832 22.0606 4.982 20.8443 4.86986 19.2743L4.00254 7.13186C4.00083 7.10796 3.99998 7.0842 3.99996 7.06061C3.44769 7.06059 3 6.61288 3 6.06061C3 5.50833 3.44772 5.06061 4 5.06061H7.27924L7.82339 3.42815C8.09562 2.61147 8.8599 2.06061 9.72076 2.06061H14.2792ZM9 10.0606C8.48716 10.0606 8.06449 10.4466 8.00673 10.944L8 11.0606V17.0606C8 17.6129 8.44771 18.0606 9 18.0606C9.51284 18.0606 9.93551 17.6746 9.99327 17.1772L10 17.0606V11.0606C10 10.5083 9.55229 10.0606 9 10.0606ZM15 10.0606C14.4477 10.0606 14 10.5083 14 11.0606V17.0606C14 17.6129 14.4477 18.0606 15 18.0606C15.5523 18.0606 16 17.6129 16 17.0606V11.0606C16 10.5083 15.5523 10.0606 15 10.0606ZM14.2792 4.06061H9.72076L9.38743 5.06061H14.6126L14.2792 4.06061Z" fill="white"/>
</g>
<defs>
<clipPath id="clip0_3088_3995">
<rect width="24" height="24" fill="white" transform="translate(0 0.0606079)"/>
</clipPath>
</defs>
</svg>
