<svg width="20" height="18" viewBox="0 0 20 18" fill="none" xmlns="http://www.w3.org/2000/svg">
<path d="M19.5 2C19.5 1.17157 18.8284 0.5 18 0.5H2C1.17157 0.5 0.5 1.17157 0.5 2C0.5 2.82843 1.17157 3.5 2 3.5H18C18.8284 3.5 19.5 2.82843 19.5 2Z" fill="white"/>
<path d="M19.5 9C19.5 8.17157 18.8284 7.5 18 7.5H2C1.17157 7.5 0.5 8.17157 0.5 9C0.5 9.82843 1.17157 10.5 2 10.5H18C18.8284 10.5 19.5 9.82843 19.5 9Z" fill="white"/>
<path d="M18 14.5C18.8284 14.5 19.5 15.1716 19.5 16C19.5 16.8284 18.8284 17.5 18 17.5H2C1.17157 17.5 0.5 16.8284 0.5 16C0.5 15.1716 1.17157 14.5 2 14.5H18Z" fill="white"/>
</svg>
