<svg width="87" height="125" viewBox="0 0 87 125" fill="none" xmlns="http://www.w3.org/2000/svg">
<g clip-path="url(#clip0_2341_51414)">
<path d="M114.05 85.6689H168.7C170.797 85.6699 172.856 86.2221 174.672 87.2701C176.488 88.3181 177.996 89.825 179.044 91.6395L206.404 138.919C207.45 140.735 208 142.794 208 144.889C208 146.985 207.45 149.043 206.404 150.86L179.044 198.148C177.998 199.966 176.491 201.476 174.675 202.527C172.859 203.579 170.798 204.133 168.7 204.136H114.05C111.953 204.135 109.893 203.583 108.077 202.535C106.262 201.487 104.754 199.98 103.706 198.166L76.3452 150.878C75.2954 149.063 74.7428 147.003 74.7428 144.907C74.7428 142.811 75.2954 140.751 76.3452 138.936L103.706 91.6571C104.752 89.8393 106.259 88.3289 108.074 87.2777C109.89 86.2265 111.951 85.6717 114.05 85.6689Z" fill="#2D9596"/>
<path d="M50.7204 24.7262L50.7233 24.7262L122.063 24.7262C122.063 24.7262 122.063 24.7262 122.063 24.7262C123.641 24.7266 125.19 25.1413 126.556 25.9287C127.922 26.7161 129.057 27.8484 129.847 29.2121L50.7204 24.7262ZM50.7204 24.7262C49.141 24.7171 47.5872 25.1248 46.2162 25.908C44.8453 26.6912 43.7057 27.8221 42.9124 29.1863C42.9123 29.1865 42.9122 29.1867 42.9121 29.1869L7.23822 90.9196L7.23811 90.9198C6.4493 92.2833 6.034 93.8304 6.034 95.4053C6.034 96.9802 6.4493 98.5273 7.23811 99.8908L7.23822 99.891L42.9127 161.625L42.9129 161.625C43.7001 162.989 44.8333 164.122 46.1982 164.91C47.5631 165.697 49.1116 166.112 50.6877 166.111H122.028C123.605 166.11 125.155 165.696 126.521 164.908C127.887 164.121 129.022 162.988 129.812 161.624L165.487 99.891L165.487 99.8908C166.276 98.5273 166.691 96.9802 166.691 95.4053C166.691 93.8304 166.276 92.2833 165.487 90.9198L165.487 90.9195L129.848 29.2126L50.7204 24.7262Z" stroke="white"/>
<path d="M90.3699 0H157.147C158.801 0.00165223 160.426 0.43755 161.859 1.26405C163.292 2.09056 164.482 3.27866 165.311 4.70941L198.691 62.4923C199.519 63.9238 199.955 65.5482 199.955 67.2017C199.955 68.8552 199.519 70.4796 198.691 71.9111L165.311 129.694C164.482 131.125 163.292 132.313 161.859 133.139C160.426 133.966 158.801 134.402 157.147 134.403H90.3699C88.7155 134.402 87.0906 133.966 85.6578 133.139C84.225 132.313 83.0347 131.125 82.2059 129.694L48.8174 71.9111C47.9935 70.4781 47.5599 68.8543 47.5599 67.2017C47.5599 65.5491 47.9935 63.9253 48.8174 62.4923L82.2059 4.70941C83.0347 3.27866 84.225 2.09056 85.6578 1.26405C87.0906 0.43755 88.7155 0.00165223 90.3699 0Z" fill="white"/>
</g>
<defs>
<clipPath id="clip0_2341_51414">
<rect width="87" height="125" fill="white"/>
</clipPath>
</defs>
</svg>
