<svg width="87" height="125" viewBox="0 0 87 125" fill="none" xmlns="http://www.w3.org/2000/svg">
<g clip-path="url(#clip0_2341_51414)">
<path d="M-27.0496 85.6689H-81.6999C-83.7968 85.6699 -85.8564 86.2221 -87.6721 87.2701C-89.4878 88.3181 -90.9955 89.825 -92.0439 91.6395L-119.404 138.919C-120.45 140.735 -121 142.794 -121 144.889C-121 146.985 -120.45 149.043 -119.404 150.86L-92.0439 198.148C-90.9978 199.966 -89.491 201.476 -87.6752 202.527C-85.8593 203.579 -83.7985 204.133 -81.6999 204.136H-27.0496C-24.9528 204.135 -22.8931 203.583 -21.0775 202.535C-19.2618 201.487 -17.754 199.98 -16.7056 198.166L10.6548 150.878C11.7046 149.063 12.2572 147.003 12.2572 144.907C12.2572 142.811 11.7046 140.751 10.6548 138.936L-16.7056 91.6571C-17.7518 89.8393 -19.2586 88.3289 -21.0744 87.2777C-22.8902 86.2265 -24.9511 85.6717 -27.0496 85.6689Z" fill="#2D9596"/>
<path d="M36.2796 24.7262L36.2767 24.7262L-35.0633 24.7262C-35.0634 24.7262 -35.0634 24.7262 -35.0634 24.7262C-36.6407 24.7266 -38.1901 25.1413 -39.5564 25.9287C-40.9225 26.7161 -42.0574 27.8484 -42.8474 29.2121L36.2796 24.7262ZM36.2796 24.7262C37.859 24.7171 39.4128 25.1248 40.7838 25.908C42.1547 26.6912 43.2943 27.8221 44.0876 29.1863C44.0877 29.1865 44.0878 29.1867 44.0879 29.1869L79.7618 90.9196L79.7619 90.9198C80.5507 92.2833 80.966 93.8304 80.966 95.4053C80.966 96.9802 80.5507 98.5273 79.7619 99.8908L79.7618 99.891L44.0873 161.625L44.0871 161.625C43.2999 162.989 42.1667 164.122 40.8018 164.91C39.4369 165.697 37.8884 166.112 36.3123 166.111H-35.028C-36.6053 166.11 -38.1548 165.696 -39.5211 164.908C-40.8873 164.121 -42.0224 162.988 -42.8124 161.624L-78.4867 99.891L-78.4868 99.8908C-79.2756 98.5273 -79.6909 96.9802 -79.6909 95.4053C-79.6909 93.8304 -79.2756 92.2833 -78.4868 90.9198L-78.4866 90.9195L-42.8477 29.2126L36.2796 24.7262Z" stroke="white"/>
<path d="M-3.36993 0H-70.1471C-71.8015 0.00165223 -73.4264 0.43755 -74.8592 1.26405C-76.292 2.09056 -77.4824 3.27866 -78.3111 4.70941L-111.691 62.4923C-112.519 63.9238 -112.955 65.5482 -112.955 67.2017C-112.955 68.8552 -112.519 70.4796 -111.691 71.9111L-78.3111 129.694C-77.4824 131.125 -76.292 132.313 -74.8592 133.139C-73.4264 133.966 -71.8015 134.402 -70.1471 134.403H-3.36993C-1.71553 134.402 -0.0905991 133.966 1.34219 133.139C2.77497 132.313 3.96533 131.125 4.79408 129.694L38.1826 71.9111C39.0065 70.4781 39.4401 68.8543 39.4401 67.2017C39.4401 65.5491 39.0065 63.9253 38.1826 62.4923L4.79408 4.70941C3.96533 3.27866 2.77497 2.09056 1.34219 1.26405C-0.0905991 0.43755 -1.71553 0.00165223 -3.36993 0Z" fill="white"/>
</g>
<defs>
<clipPath id="clip0_2341_51414">
<rect width="87" height="125" fill="white" transform="matrix(-1 0 0 1 87 0)"/>
</clipPath>
</defs>
</svg>
