<svg width="17" height="16" viewBox="0 0 17 16" fill="none" xmlns="http://www.w3.org/2000/svg">
<g clip-path="url(#clip0_3382_7324)">
<path d="M7.6706 4.11323L12.3846 8.82725L7.60213 13.6098C7.37985 13.8321 7.0872 13.9678 6.77655 13.9952L6.65932 14.0003H3.17089C2.82384 14.0003 2.53807 13.7377 2.50151 13.4004L2.49756 13.327V9.83852C2.49756 9.52421 2.60855 9.22133 2.80883 8.98227L2.88808 8.89572L7.6706 4.11323ZM9.76387 2.01992C10.2572 1.52662 11.0408 1.50066 11.5647 1.94203L11.6495 2.01992L14.4779 4.84835C14.9712 5.34164 14.9972 6.1253 14.5558 6.64917L14.4779 6.73399L13.3274 7.88445L8.6134 3.17043L9.76387 2.01992Z" fill="white"/>
</g>
<defs>
<clipPath id="clip0_3382_7324">
<rect width="16" height="16" fill="white" transform="translate(0.5)"/>
</clipPath>
</defs>
</svg>
