<svg width="25" height="24" viewBox="0 0 25 24" fill="none" xmlns="http://www.w3.org/2000/svg">
<path d="M6.6001 7C7.15238 7 7.6001 6.55228 7.6001 6C7.6001 5.44772 7.15238 5 6.6001 5C6.04781 5 5.6001 5.44772 5.6001 6C5.6001 6.55228 6.04781 7 6.6001 7Z" fill="#9E9E9E"/>
<path d="M9.1001 7C9.37624 7 9.6001 6.55228 9.6001 6C9.6001 5.44772 9.37624 5 9.1001 5C8.82396 5 8.6001 5.44772 8.6001 6C8.6001 6.55228 8.82396 7 9.1001 7Z" fill="#9E9E9E"/>
<path d="M11.6001 7C12.1524 7 12.6001 6.55228 12.6001 6C12.6001 5.44772 12.1524 5 11.6001 5C11.0478 5 10.6001 5.44772 10.6001 6C10.6001 6.55228 11.0478 7 11.6001 7Z" fill="#9E9E9E"/>
<path fill-rule="evenodd" clip-rule="evenodd" d="M21.6001 19.2V4.8C21.6001 4.3224 21.4105 3.8646 21.0727 3.5274C20.7355 3.1896 20.2777 3 19.8001 3C16.7077 3 8.4925 3 5.4001 3C4.9225 3 4.4647 3.1896 4.1275 3.5274C3.7897 3.8646 3.6001 4.3224 3.6001 4.8C3.6001 7.8924 3.6001 16.1076 3.6001 19.2C3.6001 19.6776 3.7897 20.1354 4.1275 20.4726C4.4647 20.8104 4.9225 21 5.4001 21C8.4925 21 16.7077 21 19.8001 21C20.2777 21 20.7355 20.8104 21.0727 20.4726C21.4105 20.1354 21.6001 19.6776 21.6001 19.2ZM9.8635 15.189L12.0865 16.6968C12.3559 16.8792 12.7219 16.8138 12.9115 16.5492L15.4879 12.9492C15.6805 12.6798 15.6187 12.3048 15.3493 12.1122C15.0799 11.9196 14.7049 11.9814 14.5123 12.2508L12.2761 15.375L10.5367 14.1954C10.2631 14.01 9.8893 14.0814 9.7033 14.3556C9.5179 14.6298 9.5893 15.003 9.8635 15.189ZM20.4001 7.8042H4.8001V4.8C4.8001 4.641 4.8631 4.488 4.9759 4.3758C5.0881 4.263 5.2411 4.2 5.4001 4.2H19.8001C19.9591 4.2 20.1121 4.263 20.2243 4.3758C20.3371 4.488 20.4001 4.641 20.4001 4.8V7.8042Z" fill="#9E9E9E"/>
</svg>
