<svg width="16" height="16" viewBox="0 0 16 16" fill="none" xmlns="http://www.w3.org/2000/svg">
<path fill-rule="evenodd" clip-rule="evenodd" d="M3 3.2C3 2.53726 3.53726 2 4.2 2H11.4C12.0627 2 12.6 2.53726 12.6 3.2V12.8C12.6 13.4627 12.0627 14 11.4 14H4.2C3.53726 14 3 13.4627 3 12.8V3.2ZM5.4 6.2C5.4 5.86863 5.66863 5.6 6 5.6H9.6C9.93137 5.6 10.2 5.86863 10.2 6.2C10.2 6.53137 9.93137 6.8 9.6 6.8H6C5.66863 6.8 5.4 6.53137 5.4 6.2ZM6 8.6C5.66863 8.6 5.4 8.86863 5.4 9.2C5.4 9.53137 5.66863 9.8 6 9.8H7.8C8.13137 9.8 8.4 9.53137 8.4 9.2C8.4 8.86863 8.13137 8.6 7.8 8.6H6Z" fill="white"/>
</svg>
