<svg width="24" height="24" viewBox="0 0 24 24" fill="none" xmlns="http://www.w3.org/2000/svg">
<path d="M2.48523 6C2.48523 5.17157 3.15282 4.5 3.97633 4.5H19.8814C20.7049 4.5 21.3725 5.17157 21.3725 6C21.3725 6.82843 20.7049 7.5 19.8814 7.5H3.97633C3.15282 7.5 2.48523 6.82843 2.48523 6Z" fill="white"/>
<path d="M5.46743 12C5.46743 11.1716 6.13502 10.5 6.95853 10.5H16.8992C17.7227 10.5 18.3903 11.1716 18.3903 12C18.3903 12.8284 17.7227 13.5 16.8992 13.5H6.95853C6.13502 13.5 5.46743 12.8284 5.46743 12Z" fill="white"/>
<path d="M9.94074 16.5C9.11722 16.5 8.44964 17.1716 8.44964 18C8.44964 18.8284 9.11722 19.5 9.94074 19.5H13.917C14.7405 19.5 15.4081 18.8284 15.4081 18C15.4081 17.1716 14.7405 16.5 13.917 16.5H9.94074Z" fill="white"/>
</svg>
