<svg width="24" height="24" viewBox="0 0 24 24" fill="none" xmlns="http://www.w3.org/2000/svg">
<path fill-rule="evenodd" clip-rule="evenodd" d="M10 2C9.44772 2 9 2.44772 9 3C9 3.55228 9.44772 4 10 4H14C14.5523 4 15 3.55228 15 3C15 2.44772 14.5523 2 14 2H10ZM6 3H7V4C7 5.10457 7.89543 6 9 6H15C16.1046 6 17 5.10457 17 4V3H18C19.1046 3 20 3.89543 20 5V16C20 19.3137 17.3137 22 14 22H6C4.89543 22 4 21.1046 4 20V5C4 3.89543 4.89543 3 6 3ZM8 11C8 10.4477 8.44772 10 9 10H15C15.5523 10 16 10.4477 16 11C16 11.5523 15.5523 12 15 12H9C8.44772 12 8 11.5523 8 11ZM9 14C8.44772 14 8 14.4477 8 15C8 15.5523 8.44772 16 9 16H12C12.5523 16 13 15.5523 13 15C13 14.4477 12.5523 14 12 14H9Z" fill="#9E9E9E"/>
</svg>
