<svg width="20" height="23" viewBox="0 0 20 23" fill="none" xmlns="http://www.w3.org/2000/svg">
<g clip-path="url(#clip0_3267_41040)">
<path d="M13.9952 5.83657C13.0493 5.75001 12.1973 5.66964 11.3395 5.58308C10.4288 5.49652 9.51225 5.40996 8.60156 5.3234C7.88476 5.25539 7.16795 5.19356 6.45115 5.12555C6.16325 5.09464 6.02812 4.9277 6.06925 4.67421C6.1045 4.45163 6.28664 4.34652 6.55691 4.37125C7.4676 4.46399 8.38417 4.54437 9.29486 4.63093C10.3701 4.73604 11.4394 4.83496 12.5146 4.94007C12.9083 4.97716 13.3019 5.01426 13.6956 5.05136C13.7896 5.05754 13.8836 5.06372 13.9776 5.08227C14.2185 5.12555 14.336 5.28012 14.3066 5.50888C14.2949 5.7191 14.1362 5.84276 13.9952 5.83657Z" fill="white"/>
<path d="M13.643 7.93254C12.5384 7.82743 11.4397 7.71614 10.3351 7.61103C9.26578 7.51211 8.20232 7.41318 7.13299 7.31426C6.83335 7.28953 6.5337 7.25861 6.23405 7.22151C6.01666 7.19678 5.87565 7.04221 5.88152 6.832C5.89328 6.62178 6.04016 6.46721 6.2693 6.48576C6.8921 6.53522 7.5149 6.59087 8.13182 6.64651C9.01313 6.72689 9.90033 6.81963 10.7816 6.90001C11.7922 6.99275 12.7969 7.08549 13.8075 7.18442C14.0249 7.20297 14.1541 7.3699 14.1424 7.59248C14.1306 7.80888 13.9779 7.93872 13.7487 7.93254C13.7135 7.93254 13.6782 7.92635 13.6371 7.92017C13.643 7.92635 13.643 7.93254 13.643 7.93254Z" fill="white"/>
<path d="M17.5853 18.0662C17.5794 19.3955 16.5571 20.4836 15.2939 20.4836C14.0366 20.4836 12.9907 19.3769 12.9966 18.0476C13.0025 16.7307 14.0542 15.6301 15.2998 15.6425C16.5689 15.6487 17.5912 16.7307 17.5853 18.0662Z" fill="white"/>
<path d="M19.9941 17.4479C19.9824 17.0645 19.7239 16.7554 19.3713 16.7307C19.1951 16.7183 19.1069 16.6503 19.0717 16.471C19.0599 16.4215 19.0423 16.3659 19.0129 16.3226C18.9307 16.1928 18.9483 16.1062 19.0541 15.9825C19.2949 15.7105 19.2832 15.2962 19.0482 15.0118C18.9659 14.9129 18.8778 14.8202 18.7838 14.7336C18.6721 14.6347 18.6369 14.5234 18.6369 14.375C18.6428 13.0643 18.6428 11.7473 18.6369 10.4366C18.6369 9.84302 18.2609 9.45969 17.6968 9.4535C17.5558 9.4535 17.4148 9.44114 17.2797 9.4535C17.1269 9.46587 17.074 9.42259 17.0917 9.25565C17.1445 8.71157 17.1857 8.1613 17.2327 7.61721C17.3619 6.16426 17.4853 4.7113 17.6146 3.25834C17.6381 2.98012 17.5617 2.74517 17.3737 2.54732C17.0094 2.15781 16.6392 1.76829 16.2926 1.36023C16.0811 1.11291 15.8402 1.03254 15.5405 1.00781C14.6357 0.933612 13.7309 0.84087 12.8202 0.754311C11.9213 0.667752 11.0223 0.587376 10.1234 0.500817C9.22444 0.414257 8.3255 0.327698 7.42656 0.247322C6.52761 0.160763 5.62867 0.0618381 4.72973 1.01209e-05C4.0658 -0.0432694 3.65452 0.389526 3.60752 1.09437C3.54289 2.02797 3.45476 2.95539 3.37838 3.88281C3.29612 4.83496 3.21387 5.78711 3.13161 6.73926C3.06698 7.49974 3.00235 8.26022 2.9436 9.02071C2.93184 9.19383 2.86721 9.23092 2.70858 9.22474C2.12103 9.21237 1.53349 9.21856 0.945946 9.21856C0.305523 9.21856 0.00587544 9.53388 0.00587544 10.214C0.00587544 11.7844 0.00587544 13.3487 0.00587544 14.9191H0C0 16.5019 0 18.0847 0 19.6737C0 20.4836 0.393654 21.0091 1.13396 21.2255C1.48061 21.3245 1.83901 21.3616 2.19741 21.3616C5.13513 21.3678 8.07285 21.3801 11.0106 21.3492C11.557 21.343 12.0153 21.4172 12.3384 21.9242C12.3561 21.9489 12.3796 21.9675 12.4031 21.986C12.6792 22.2395 13.0729 22.2519 13.3431 21.9922C13.443 21.8995 13.5135 21.8747 13.6251 21.9489C13.6839 21.9922 13.7544 22.0231 13.8249 22.0417C13.9659 22.0726 14.0129 22.1468 14.0247 22.3075C14.0423 22.6847 14.3419 22.9753 14.6827 22.9815C15.094 22.9876 15.5053 22.9876 15.9166 22.9815C16.2338 22.9753 16.557 22.6909 16.5511 22.3694C16.5511 22.1344 16.6569 22.0664 16.8273 22.0108C16.8919 21.9922 16.9506 21.9613 17.0094 21.9304C17.0917 21.8809 17.1445 21.8933 17.215 21.9613C17.5558 22.2828 17.926 22.2643 18.2491 21.9304C18.4959 21.6769 18.7368 21.4172 18.9835 21.1575C19.3008 20.8175 19.3184 20.428 19.0188 20.0694C18.9542 19.9952 18.9365 19.9395 18.9835 19.8468C19.0247 19.7664 19.0599 19.6798 19.0834 19.5933C19.1246 19.4511 19.1951 19.3954 19.3419 19.3831C19.7239 19.346 19.9824 19.043 19.9941 18.6411C20 18.2516 20.0059 17.8497 19.9941 17.4479ZM15.4583 2.92447C15.4877 2.57205 15.5053 2.21963 15.5523 1.86721C15.5758 1.68173 15.6815 1.80539 15.7344 1.85485C15.9283 2.0527 16.1105 2.26291 16.2985 2.46695C16.4982 2.68953 16.7039 2.90592 16.9036 3.12232C16.8978 3.14087 16.886 3.15324 16.8801 3.17178C16.4395 3.1285 15.9929 3.08523 15.5523 3.05431C15.4524 3.05431 15.4524 2.99248 15.4583 2.92447ZM3.40188 11.8772C3.49589 10.9312 3.56639 9.98522 3.64865 9.03926C3.7309 8.08711 3.81316 7.13496 3.89542 6.18281C3.97767 5.24302 4.05405 4.30942 4.13631 3.36963C4.20094 2.61533 4.25969 1.86103 4.32432 1.10673C4.3537 0.797591 4.47121 0.723397 4.77086 0.754311C5.6698 0.847053 6.56874 0.927429 7.46768 1.01399C8.396 1.10055 9.32432 1.18711 10.2526 1.27985C11.134 1.36023 12.0212 1.44678 12.9025 1.52716C13.5018 1.58281 14.1011 1.65082 14.7004 1.70028C14.8237 1.71264 14.859 1.74356 14.8414 1.87958C14.7944 2.26291 14.765 2.64625 14.7297 3.02958C14.6945 3.43764 14.9882 3.76533 15.3878 3.80243C15.8167 3.83953 16.2515 3.88899 16.6804 3.92609C16.8038 3.93845 16.839 3.97555 16.8273 4.10539C16.745 4.98953 16.6745 5.87367 16.5981 6.75781C16.5276 7.58012 16.4512 8.40243 16.3925 9.22474C16.3807 9.41022 16.3337 9.47205 16.1516 9.46587C15.423 9.4535 14.7004 9.45969 13.9718 9.45969C13.2844 9.45969 12.5911 9.47205 11.9036 9.4535C11.4747 9.44114 11.1986 9.6328 11.0047 10.0161C10.6757 10.6591 10.3231 11.2898 9.98825 11.9328C9.92362 12.0565 9.84724 12.0997 9.71798 12.0997C7.6792 12.0936 5.63455 12.0936 3.59577 12.0997C3.40776 12.0997 3.39013 12.0565 3.40188 11.8772ZM1.68038 13.0272C1.68038 15.4694 1.68038 17.9116 1.68625 20.3476C1.68625 20.5516 1.64512 20.5825 1.46298 20.5454C0.92832 20.428 0.728555 20.193 0.728555 19.6118C0.728555 18.0661 0.728555 16.5204 0.728555 14.9747C0.73443 14.9747 0.73443 14.9747 0.740305 14.9747C0.740305 13.3919 0.746181 11.8091 0.73443 10.2264C0.73443 10.0285 0.793184 9.97904 0.969448 9.97904C1.53937 9.98522 2.11516 9.98522 2.68508 9.97904C2.81434 9.97904 2.86134 9.99141 2.84371 10.1522C2.77908 10.7395 2.73208 11.3331 2.69095 11.9266C2.6792 12.0565 2.64395 12.0874 2.52644 12.0936C1.94477 12.1121 1.68038 12.4151 1.68038 13.0272ZM11.557 20.0941C11.4571 20.1868 11.3807 20.3229 11.3807 20.4589C11.3749 20.6444 11.2867 20.6382 11.1575 20.6382C8.30787 20.6382 5.45828 20.632 2.61457 20.6382C2.44418 20.6382 2.39718 20.6011 2.39718 20.4156C2.40305 17.9672 2.40305 15.5188 2.39718 13.0704C2.39718 12.8911 2.43831 12.8417 2.61457 12.8417C5.05875 12.8479 7.50294 12.8417 9.94712 12.8479C10.2056 12.8479 10.3643 12.7551 10.4877 12.514C10.8461 11.8153 11.228 11.129 11.5864 10.4366C11.6745 10.2635 11.7803 10.2078 11.9683 10.2078C13.8249 10.214 15.6816 10.214 17.5382 10.214C17.9083 10.214 17.926 10.2387 17.926 10.6097C17.926 11.6422 17.926 12.6809 17.926 13.7135C17.926 13.7876 17.926 13.868 17.926 13.9546C17.6263 13.8804 17.3796 13.9546 17.1739 14.1772C17.1328 14.2266 17.0975 14.2266 17.0447 14.1957C16.9741 14.1524 16.8978 14.1153 16.8214 14.0968C16.6451 14.0473 16.5452 13.9731 16.5452 13.7382C16.5452 13.4167 16.2221 13.1261 15.9107 13.1199C15.4994 13.1075 15.0881 13.1075 14.6769 13.1199C14.3302 13.1261 14.0364 13.4229 14.0188 13.8C14.0129 13.9608 13.96 14.0288 13.819 14.0721C13.7368 14.0968 13.6545 14.1401 13.5781 14.1833C13.4959 14.2266 13.443 14.2204 13.3666 14.1524C13.0259 13.8309 12.6616 13.8495 12.3325 14.1833C12.0799 14.443 11.8331 14.7027 11.5864 14.9686C11.2867 15.2962 11.2691 15.6796 11.5511 16.0258C11.6275 16.1186 11.651 16.1866 11.5864 16.2855C11.5511 16.3411 11.5217 16.4091 11.51 16.4772C11.4747 16.6688 11.3749 16.7245 11.1927 16.7368C10.8637 16.7678 10.611 17.046 10.5993 17.3984C10.5875 17.825 10.5875 18.2454 10.5934 18.6721C10.5993 19.0739 10.8461 19.3583 11.228 19.3954C11.3866 19.4078 11.463 19.4634 11.4924 19.6242C11.5041 19.6984 11.5394 19.7726 11.5805 19.8344C11.651 19.9333 11.651 20.0075 11.557 20.0941ZM19.1011 18.6473C19.0306 18.6411 18.9542 18.6411 18.8837 18.6473C18.725 18.6659 18.5958 18.7462 18.5546 18.9132C18.4665 19.2471 18.3372 19.5624 18.1786 19.8715C18.0611 20.1126 18.1727 20.2919 18.349 20.428C18.5076 20.5516 18.5018 20.6382 18.3549 20.7742C18.161 20.9535 17.9847 21.1514 17.8143 21.3492C17.738 21.4358 17.691 21.4358 17.6204 21.3492C17.5852 21.2997 17.5382 21.2626 17.4971 21.2194C17.3032 21.0153 17.1915 20.9968 16.9506 21.1328C16.7156 21.2626 16.4747 21.3739 16.228 21.4543C15.9107 21.5594 15.8461 21.6274 15.8696 21.986C15.8813 22.2024 15.8402 22.289 15.6169 22.2643C15.3819 22.2395 15.1469 22.2457 14.9119 22.2643C14.7591 22.2766 14.718 22.2148 14.7356 22.0664C14.7415 22.0108 14.7356 21.9613 14.7356 21.9057C14.7415 21.6707 14.6357 21.5285 14.4183 21.4667C14.1716 21.3987 13.9365 21.2997 13.7074 21.1699C13.3784 20.9844 13.2844 20.9906 13.0435 21.2812C12.926 21.4234 12.8555 21.4419 12.7262 21.2936C12.5558 21.0895 12.3678 20.904 12.1798 20.7247C12.1034 20.6444 12.0799 20.5887 12.1739 20.5145C12.2385 20.4651 12.2914 20.3971 12.3443 20.3352C12.4677 20.1992 12.5029 20.0384 12.4089 19.8715C12.2503 19.5809 12.1328 19.278 12.0505 18.9565C11.9859 18.7153 11.8096 18.6226 11.5922 18.6597C11.3572 18.6968 11.2926 18.604 11.3161 18.3691C11.3337 18.1341 11.322 17.893 11.3161 17.6519C11.3102 17.5282 11.3337 17.4788 11.4689 17.4788C11.9565 17.4726 11.9683 17.4602 12.1152 16.978C12.1798 16.7739 12.2562 16.5761 12.3561 16.3844C12.5264 16.0505 12.5264 15.9578 12.2503 15.7043C12.1034 15.5683 12.0975 15.4879 12.2444 15.3519C12.4266 15.185 12.5969 14.9995 12.7556 14.8078C12.8555 14.6841 12.926 14.7027 13.0082 14.814C13.0494 14.8696 13.0964 14.9129 13.1492 14.9624C13.2844 15.0922 13.4313 15.1169 13.5958 15.0242C13.8719 14.8696 14.1598 14.7336 14.4653 14.6471C14.6827 14.5852 14.7474 14.4121 14.7415 14.1833C14.7297 13.868 14.7356 13.868 15.0353 13.868C15.1234 13.868 15.2115 13.868 15.2996 13.868C15.3349 13.868 15.376 13.868 15.4113 13.868C15.5582 13.8742 15.7403 13.8247 15.8402 13.8928C15.9401 13.9608 15.8637 14.1648 15.8754 14.307C15.8931 14.4925 15.9988 14.5976 16.1575 14.6471C16.416 14.7274 16.6686 14.8264 16.9095 14.9624C17.2209 15.1417 17.3208 15.1355 17.5558 14.8449C17.6851 14.6903 17.7615 14.6841 17.8907 14.8387C18.0611 15.0428 18.2491 15.2282 18.4371 15.4075C18.5135 15.4817 18.5253 15.5312 18.4371 15.5992C18.3784 15.6487 18.3314 15.7043 18.2785 15.76C18.1316 15.9207 18.1081 16.0938 18.2139 16.2855C18.349 16.539 18.4606 16.811 18.537 17.0893C18.6193 17.3922 18.725 17.4788 19.0364 17.454C19.2538 17.4355 19.3184 17.5035 19.3008 17.7261C19.2832 17.961 19.2891 18.2083 19.3067 18.4433C19.3008 18.6164 19.2421 18.6659 19.1011 18.6473Z" fill="white"/>
</g>
<defs>
<clipPath id="clip0_3267_41040">
<rect width="20" height="23" fill="white"/>
</clipPath>
</defs>
</svg>
