<svg width="21" height="25" viewBox="0 0 21 25" fill="none" xmlns="http://www.w3.org/2000/svg">
<g clip-path="url(#clip0_1502_33212)">
<path d="M11.5589 24.6157C11.4832 24.5157 11.5045 24.4138 11.5426 24.3032C12.8134 20.7045 14.082 17.1049 15.3482 13.5045C15.4107 13.3257 15.4976 13.2482 15.7001 13.2495C17.3526 13.2582 19.0051 13.2538 20.6576 13.2557C20.7301 13.2557 20.8301 13.2163 20.8664 13.3057C20.8945 13.3757 20.8157 13.4307 20.7726 13.482C18.5351 16.2003 16.2972 18.9168 14.0589 21.6313C13.2409 22.6251 12.4232 23.6195 11.6057 24.6145L11.5589 24.6157Z" fill="#6B7888"/>
<path d="M9.92136 24.6157L1.27635 14.1157C1.0976 13.8988 0.917605 13.6832 0.740105 13.4657C0.702605 13.4188 0.635102 13.3707 0.659477 13.3069C0.691977 13.2244 0.784477 13.2575 0.846977 13.2575C1.96948 13.2575 3.09198 13.2575 4.21448 13.2575C4.74448 13.2575 5.27698 13.2694 5.80448 13.2519C6.02698 13.2444 6.11698 13.3319 6.18886 13.5294C6.76886 15.1961 7.35344 16.8603 7.9426 18.5219C8.6176 20.4357 9.29323 22.3492 9.96948 24.2625C10.0114 24.3819 10.0607 24.4988 9.96948 24.6169L9.92136 24.6157Z" fill="#6B7888"/>
<path d="M10.9506 0.615751C11.3112 0.800126 11.4469 1.09638 11.4362 1.49763C11.4194 2.1145 11.4362 2.73138 11.4306 3.34825C11.4306 3.81388 11.1581 4.12825 10.7525 4.14638C10.315 4.16638 9.98686 3.87513 9.97311 3.39638C9.95373 2.71763 9.96186 2.03763 9.97311 1.35888C9.97686 1.00325 10.1644 0.758252 10.4856 0.614502L10.9506 0.615751Z" fill="#6B7888"/>
<path d="M10.7644 13.2563H13.7113C13.9851 13.2563 13.9938 13.267 13.9088 13.512C12.8951 16.4249 11.8805 19.3366 10.8651 22.247C10.8438 22.3095 10.8476 22.4113 10.7626 22.4101C10.6776 22.4088 10.6826 22.3063 10.6607 22.2451C9.64527 19.3338 8.63111 16.4222 7.61819 13.5101C7.53444 13.2707 7.54381 13.2601 7.79381 13.2601C8.78381 13.2576 9.77402 13.2563 10.7644 13.2563Z" fill="#6B7888"/>
<path d="M6.7944 6.22438C7.57377 6.22438 8.35315 6.22876 9.1319 6.22063C9.2085 6.21386 9.2855 6.22816 9.35457 6.26198C9.42364 6.29579 9.48215 6.34785 9.52378 6.41251C9.99503 7.08751 10.0032 6.81813 9.52378 7.47126C8.6394 8.67001 7.74065 9.85813 6.84752 11.0506C6.6744 11.2825 6.67065 11.2819 6.54003 11.0213C5.78753 9.51376 5.03523 8.00605 4.28314 6.49813C4.14939 6.23001 4.15315 6.22438 4.46002 6.22438H6.7944Z" fill="#6B7888"/>
<path d="M14.7463 6.22437C15.5413 6.22437 16.3357 6.22812 17.13 6.22437C17.325 6.22437 17.3632 6.27437 17.2738 6.45187C16.5009 7.99353 15.73 9.5352 14.9613 11.0769C14.8775 11.2444 14.8213 11.2456 14.7113 11.0969C13.7196 9.76353 12.724 8.43374 11.7244 7.10749C11.6325 6.98249 11.6432 6.89562 11.7288 6.77624C12.1238 6.22624 12.1207 6.22437 12.8044 6.22437H14.7463Z" fill="#6B7888"/>
<path d="M18.5582 11.8845C17.8182 11.8845 17.0782 11.8845 16.3375 11.8845C16.1 11.8845 16.0875 11.8632 16.1957 11.647C16.9432 10.147 17.6932 8.64699 18.4457 7.14699C18.4763 7.08449 18.4907 6.99074 18.5657 6.98699C18.66 6.98199 18.6719 7.08824 18.705 7.15386C19.4492 8.64844 20.1925 10.1434 20.935 11.6389C21.0482 11.867 21.0357 11.8889 20.7825 11.8889C20.0388 11.8857 19.2988 11.8845 18.5582 11.8845Z" fill="#6B7888"/>
<path d="M2.95817 11.8845C2.21817 11.8845 1.47879 11.8845 0.738795 11.8845C0.500045 11.8845 0.484419 11.8608 0.589419 11.6495C1.33942 10.142 2.09109 8.63496 2.84442 7.12829C2.8713 7.07454 2.88442 6.99267 2.95442 6.98892C3.04255 6.98454 3.05067 7.07954 3.07942 7.13704C3.82942 8.63704 4.57817 10.137 5.32567 11.637C5.44005 11.867 5.42942 11.887 5.17692 11.887C4.43734 11.8862 3.69775 11.8854 2.95817 11.8845Z" fill="#6B7888"/>
<path d="M10.757 11.8846C9.9078 11.8846 9.05842 11.8846 8.20884 11.8846C8.13634 11.8846 8.03759 11.9221 7.99946 11.834C7.96884 11.7633 8.04572 11.709 8.08634 11.654C8.92717 10.529 9.76759 9.40396 10.6076 8.27896C10.7201 8.12833 10.7895 8.10271 10.9145 8.27083C11.7551 9.40521 12.602 10.534 13.4495 11.6652C13.4895 11.7183 13.5663 11.7733 13.5232 11.8465C13.4801 11.9196 13.3982 11.8852 13.3282 11.8852C12.4715 11.8856 11.6145 11.8854 10.757 11.8846Z" fill="#6B7888"/>
<path d="M8.67748 4.12191C8.67373 4.42129 8.54498 4.65004 8.2731 4.77941C8.00123 4.90879 7.7231 4.89441 7.50748 4.69004C6.99373 4.2017 6.49248 3.70004 6.00373 3.18504C5.74373 2.91066 5.78372 2.46941 6.04935 2.20879C6.31497 1.94816 6.73685 1.91441 7.00623 2.16691C7.52185 2.65379 8.01623 3.16316 8.51248 3.67004C8.56917 3.73024 8.61304 3.80134 8.6414 3.87902C8.66977 3.9567 8.68204 4.03934 8.67748 4.12191Z" fill="#6B7888"/>
<path d="M15.6927 2.73007C15.6943 2.82811 15.6754 2.92541 15.6372 3.01572C15.599 3.10603 15.5423 3.18734 15.4708 3.25444C15.0145 3.71319 14.5608 4.17507 14.0958 4.62944C13.7833 4.93194 13.3308 4.92882 13.0495 4.63757C12.7683 4.34632 12.7777 3.90882 13.0739 3.60569C13.5322 3.13736 13.995 2.67403 14.462 2.21569C14.5622 2.10935 14.6936 2.03767 14.8372 2.01104C14.9808 1.9844 15.1292 2.00421 15.2608 2.06757C15.5489 2.18757 15.687 2.41944 15.6927 2.73007Z" fill="#6B7888"/>
</g>
<defs>
<clipPath id="clip0_1502_33212">
<rect width="20.4725" height="24" fill="white" transform="translate(0.527588 0.615723)"/>
</clipPath>
</defs>
</svg>
