<svg width="25" height="24" viewBox="0 0 25 24" fill="none" xmlns="http://www.w3.org/2000/svg">
<path d="M14.0003 2.65C13.2892 2.11667 12.3114 2.11667 11.6003 2.65L4.60029 7.9C4.09668 8.27771 3.80029 8.87049 3.80029 9.5V19C3.80029 20.1046 4.69572 21 5.80029 21H9.70029C10.3078 21 10.8003 20.5075 10.8003 19.9V15C10.8003 13.8954 11.6957 13 12.8003 13C13.9049 13 14.8003 13.8954 14.8003 15V19.9C14.8003 20.5075 15.2928 21 15.9003 21H19.8003C20.9049 21 21.8003 20.1046 21.8003 19V9.5C21.8003 8.87049 21.5039 8.27771 21.0003 7.9L14.0003 2.65Z" fill="#9E9E9E"/>
</svg>
