<svg width="28" height="27" viewBox="0 0 28 27" fill="none" xmlns="http://www.w3.org/2000/svg">
<path d="M21.7539 15.8555H23.4453C22.5267 20.7637 17.8814 23.7739 13.8987 23.7739C11.0261 23.7739 7.9796 22.2292 6.13736 19.8386C6.07869 19.7639 5.9929 19.7154 5.89866 19.7037C5.80441 19.6919 5.70934 19.7178 5.63411 19.7758C5.55888 19.8338 5.50958 19.9191 5.49694 20.0132C5.4843 20.1073 5.50933 20.2027 5.5666 20.2784C6.5877 21.5914 7.89312 22.6559 9.38475 23.3919C10.8402 24.1133 12.4009 24.4945 13.8987 24.4945C16.1884 24.4945 18.598 23.6008 20.5102 22.0425C22.4703 20.4451 23.7586 18.2641 24.1777 15.8557H26.1857L23.9698 12.6442L21.7539 15.8555ZM4.38987 11.7628C5.30847 6.85465 9.95371 3.84443 13.9364 3.84443C16.809 3.84443 19.8555 5.38917 21.6978 7.77973C21.7565 7.85442 21.8422 7.90292 21.9365 7.91468C22.0307 7.92644 22.1258 7.90052 22.201 7.84255C22.2763 7.78458 22.3256 7.69925 22.3382 7.60512C22.3508 7.51099 22.3258 7.41568 22.2685 7.33991C21.2474 6.0269 19.942 4.96239 18.4504 4.2264C16.995 3.50514 15.4342 3.12384 13.9364 3.12384C11.6468 3.12384 9.23713 4.01753 7.32494 5.57586C5.36488 7.17325 4.07652 9.35427 3.65749 11.7626H1.64941L3.86533 14.9741L6.08125 11.7628H4.38987Z" fill="white"/>
<path d="M17.839 13.9752C17.8386 13.3343 17.6814 12.7032 17.3812 12.137C17.081 11.5708 16.6468 11.0866 16.1165 10.7266C15.5862 10.3667 14.976 10.1419 14.3389 10.0719C13.7019 10.002 13.0573 10.0889 12.4616 10.3251C11.8658 10.5613 11.3369 10.9397 10.9209 11.4272C10.5049 11.9148 10.2144 12.4967 10.0749 13.1222C9.93538 13.7477 9.95098 14.3979 10.1204 15.016C10.2897 15.6341 10.6077 16.2014 11.0466 16.6684C11.5277 17.1757 11.793 17.8499 11.7868 18.549H11.7447C11.6491 18.549 11.5575 18.587 11.4899 18.6545C11.4223 18.7221 11.3844 18.8137 11.3844 18.9093C11.3844 19.0049 11.4223 19.0965 11.4899 19.1641C11.5575 19.2316 11.6491 19.2696 11.7447 19.2696H16.0903C16.1859 19.2696 16.2775 19.2316 16.3451 19.1641C16.4127 19.0965 16.4506 19.0049 16.4506 18.9093C16.4506 18.8137 16.4127 18.7221 16.3451 18.6545C16.2775 18.587 16.1859 18.549 16.0903 18.549H16.0024C15.9883 17.8593 16.2468 17.2189 16.7616 16.6801C17.4506 15.9476 17.8357 14.9808 17.839 13.9752ZM12.5897 20.0577C12.4942 20.0577 12.4025 20.0957 12.3349 20.1632C12.2674 20.2308 12.2294 20.3225 12.2294 20.418C12.2294 20.5136 12.2674 20.6052 12.3349 20.6728C12.4025 20.7403 12.4942 20.7783 12.5897 20.7783H15.2456C15.3412 20.7783 15.4328 20.7403 15.5004 20.6728C15.5679 20.6052 15.6059 20.5136 15.6059 20.418C15.6059 20.3225 15.5679 20.2308 15.5004 20.1632C15.4328 20.0957 15.3412 20.0577 15.2456 20.0577H12.5897ZM14.1874 8.67887V7.20032C14.1874 7.10477 14.1495 7.01312 14.0819 6.94556C14.0143 6.87799 13.9227 6.84003 13.8271 6.84003C13.7316 6.84003 13.6399 6.87799 13.5724 6.94556C13.5048 7.01312 13.4668 7.10477 13.4668 7.20032V8.67908C13.4668 8.77463 13.5048 8.86628 13.5724 8.93384C13.6399 9.00141 13.7316 9.03937 13.8271 9.03937C13.9227 9.03937 14.0143 9.00141 14.0819 8.93384C14.1495 8.86628 14.1874 8.77463 14.1874 8.67908V8.67887ZM18.812 8.98975C18.7463 8.9203 18.6558 8.87975 18.5603 8.87702C18.4648 8.8743 18.3721 8.90963 18.3027 8.97524L17.2163 10.0013C17.1468 10.0669 17.1062 10.1575 17.1035 10.253C17.1007 10.3485 17.136 10.4412 17.2016 10.5107C17.2673 10.5802 17.3578 10.6208 17.4533 10.6235C17.5489 10.6263 17.6416 10.5909 17.7111 10.5253L18.7974 9.49926C18.8319 9.46677 18.8596 9.42781 18.8789 9.38462C18.8983 9.34142 18.9089 9.29483 18.9103 9.24752C18.9116 9.2002 18.9036 9.15308 18.8868 9.10885C18.8699 9.06462 18.8445 9.02415 18.812 8.98975ZM10.5794 10.384C10.6131 10.3508 10.6399 10.3112 10.6583 10.2677C10.6767 10.2241 10.6864 10.1773 10.6867 10.13C10.6871 10.0827 10.6781 10.0357 10.6603 9.99189C10.6425 9.94804 10.6162 9.90813 10.583 9.87443L9.54187 8.8182C9.47463 8.75093 9.3835 8.71298 9.28838 8.71262C9.19326 8.71227 9.10186 8.74955 9.03412 8.81633C8.96638 8.88311 8.92779 8.97396 8.92678 9.06908C8.92576 9.16419 8.96241 9.25585 9.02871 9.32406L10.0699 10.3803C10.1031 10.414 10.1426 10.4408 10.1862 10.4592C10.2298 10.4777 10.2766 10.4873 10.3239 10.4877C10.3712 10.488 10.4181 10.479 10.462 10.4612C10.5058 10.4434 10.5457 10.4172 10.5794 10.3839L10.5794 10.384Z" fill="white"/>
</svg>
