<svg width="24" height="25" viewBox="0 0 24 25" fill="none" xmlns="http://www.w3.org/2000/svg">
<g clip-path="url(#clip0_3088_2619)">
<path d="M12 2.70361C17.5228 2.70361 22 7.18076 22 12.7036C22 18.2264 17.5228 22.7036 12 22.7036C6.47715 22.7036 2 18.2264 2 12.7036C2 7.18076 6.47715 2.70361 12 2.70361ZM11.99 10.7036H11C10.4477 10.7036 10 11.1513 10 11.7036C10 12.2165 10.386 12.6391 10.8834 12.6969L11 12.7036V17.6936C11 18.2142 11.3938 18.6429 11.8999 18.6977L12.01 18.7036H12.5C13.0523 18.7036 13.5 18.2559 13.5 17.7036C13.5 17.3746 13.3411 17.0827 13.0959 16.9005L13 16.8374V11.7136C13 11.193 12.6061 10.7644 12.1 10.7095L11.99 10.7036ZM12 7.70361C11.4477 7.70361 11 8.15133 11 8.70361C11 9.25589 11.4477 9.70361 12 9.70361C12.5523 9.70361 13 9.25589 13 8.70361C13 8.15133 12.5523 7.70361 12 7.70361Z" fill="white"/>
</g>
<defs>
<clipPath id="clip0_3088_2619">
<rect width="24" height="24" fill="white" transform="translate(0 0.703613)"/>
</clipPath>
</defs>
</svg>
