<svg width="20" height="20" viewBox="0 0 20 20" fill="none" xmlns="http://www.w3.org/2000/svg">
<g clip-path="url(#clip0_3183_4475)">
<path d="M8.69809 3.6397C10.8134 1.5244 14.2431 1.5244 16.3584 3.6397C18.4738 5.75501 18.4738 9.18463 16.3584 11.2999C14.794 12.8643 12.5122 13.2706 10.5754 12.5233L10.3511 12.4319L10.3346 12.4278H9.82609V13.7431C9.82609 14.2825 9.41615 14.7261 8.89092 14.7794L8.78442 14.7848H7.46905V16.1002C7.46905 16.6395 7.05915 17.0831 6.53389 17.1365L6.42739 17.1418H3.10852C2.67474 17.1418 2.31749 16.8136 2.27179 16.392L2.26685 16.3003V14.1241C2.26685 13.834 2.36768 13.5543 2.54993 13.3319L2.63297 13.2402L7.21684 8.65639L7.22448 8.62534C7.22663 8.60814 7.22702 8.58489 7.22153 8.55798C6.87023 6.83804 7.36138 4.97641 8.69809 3.6397ZM12.2337 5.99673C11.7455 6.48488 11.7455 7.27632 12.2337 7.76446C12.7218 8.25262 13.5133 8.25262 14.0014 7.76446C14.4896 7.27632 14.4896 6.48488 14.0014 5.99673C13.5133 5.50858 12.7218 5.50858 12.2337 5.99673Z" fill="#2E3947"/>
</g>
<defs>
<clipPath id="clip0_3183_4475">
<rect width="20" height="19.9997" fill="white"/>
</clipPath>
</defs>
</svg>
