<svg width="20" height="20" viewBox="0 0 20 20" fill="none" xmlns="http://www.w3.org/2000/svg">
<g clip-path="url(#clip0_3183_4429)">
<path d="M19.9261 18.534L15.9081 8.05575C15.8339 7.86225 15.708 7.69681 15.5464 7.5804C15.3848 7.464 15.1947 7.40186 15.0003 7.40186C14.8058 7.40186 14.6158 7.464 14.4541 7.5804C14.2925 7.69681 14.1666 7.86225 14.0924 8.05575L10.0745 18.534C10.0245 18.6625 9.99862 18.8003 9.99829 18.9396C9.99797 19.0789 10.0232 19.2169 10.0726 19.3457C10.1219 19.4745 10.1944 19.5915 10.2859 19.69C10.3774 19.7885 10.4861 19.8665 10.6057 19.9197C10.7253 19.9729 10.8534 20 10.9828 19.9997C11.1122 19.9994 11.2403 19.9715 11.3596 19.9177C11.479 19.864 11.5873 19.7853 11.6783 19.6863C11.7694 19.5874 11.8414 19.47 11.8901 19.341L12.7085 17.2074H17.2921L18.1104 19.341C18.1846 19.5346 18.3105 19.7001 18.4722 19.8165C18.6338 19.933 18.824 19.9952 19.0185 19.9951C19.1799 19.995 19.3387 19.9521 19.4811 19.8702C19.6234 19.7882 19.7448 19.6698 19.8344 19.5253C19.9241 19.3809 19.9794 19.2148 19.9953 19.0419C20.0112 18.869 19.9873 18.6946 19.9256 18.534H19.9261ZM13.5197 15.0925L15.0005 11.2305L16.4813 15.0925H13.5197Z" fill="#2E3947"/>
<path d="M10.5289 14.1754C10.6815 13.9485 10.7442 13.6656 10.7032 13.389C10.6623 13.1123 10.5211 12.8644 10.3106 12.6998C10.3016 12.6926 9.6409 12.1648 8.6815 11.0305C10.4516 8.45034 11.4543 5.515 11.8633 4.13361H13.304C13.5644 4.13361 13.8143 4.0222 13.9984 3.82389C14.1826 3.62558 14.2861 3.35662 14.2861 3.07617C14.2861 2.79572 14.1826 2.52676 13.9984 2.32845C13.8143 2.13015 13.5644 2.01874 13.304 2.01874H8.12523V1.05743C8.12523 0.776985 8.02175 0.508022 7.83756 0.309715C7.65337 0.111408 7.40355 0 7.14306 0C6.88257 0 6.63275 0.111408 6.44856 0.309715C6.26437 0.508022 6.16089 0.776985 6.16089 1.05743V2.01874H0.982171C0.721683 2.01874 0.471864 2.13015 0.287671 2.32845C0.103478 2.52676 0 2.79572 0 3.07617C0 3.35662 0.103478 3.62558 0.287671 3.82389C0.471864 4.0222 0.721683 4.13361 0.982171 4.13361H9.78823C9.36321 5.42896 8.5806 7.47414 7.38682 9.34195C5.98455 7.33859 5.46355 6.04227 5.45953 6.0317C5.35687 5.77628 5.16482 5.57472 4.92503 5.47075C4.68525 5.36679 4.41705 5.36879 4.17863 5.47633C3.9402 5.58386 3.75077 5.78826 3.65141 6.0452C3.55205 6.30213 3.55078 6.59087 3.64787 6.84881C3.67377 6.91514 4.29744 8.49408 6.00776 10.8829C6.04883 10.9401 6.08946 10.9959 6.13008 11.0516C4.37825 13.1833 2.65945 14.5056 1.94023 14.9324C1.71154 15.0667 1.54176 15.2933 1.46825 15.5624C1.39474 15.8314 1.42352 16.1209 1.54826 16.3672C1.673 16.6134 1.88348 16.7962 2.13339 16.8753C2.38331 16.9545 2.65219 16.9235 2.88089 16.7892C2.97732 16.7325 5.05059 15.4967 7.41807 12.6753C8.42345 13.8327 9.11454 14.3787 9.15606 14.4104C9.26053 14.4921 9.37893 14.5508 9.50449 14.5832C9.63006 14.6156 9.76032 14.621 9.88783 14.5991C10.0153 14.5772 10.1376 14.5285 10.2476 14.4557C10.3576 14.3829 10.4532 14.2875 10.5289 14.1749V14.1754Z" fill="#2E3947"/>
</g>
<defs>
<clipPath id="clip0_3183_4429">
<rect width="20" height="19.9997" fill="white"/>
</clipPath>
</defs>
</svg>
