<svg width="167" height="277" viewBox="0 0 167 277" fill="none" xmlns="http://www.w3.org/2000/svg">
<g clip-path="url(#clip0_4868_42917)">
<mask id="mask0_4868_42917" style="mask-type:luminance" maskUnits="userSpaceOnUse" x="0" y="0" width="167" height="277">
<path d="M167 0H0V277H167V0Z" fill="white"/>
</mask>
<g mask="url(#mask0_4868_42917)">
<path fill-rule="evenodd" clip-rule="evenodd" d="M134.926 210.053H93.342C91.5395 210.052 89.7676 210.525 88.2066 211.426C86.6456 212.326 85.3498 213.622 84.4498 215.182L84.4491 215.183L63.6168 251.187C63.6169 251.187 63.6167 251.187 63.6168 251.187C62.7149 252.748 62.2397 254.519 62.2397 256.322C62.2397 258.125 62.7147 259.896 63.6168 261.457L84.4217 297.461C85.326 299.023 86.6264 300.32 88.1921 301.221C89.7578 302.122 91.5335 302.594 93.3402 302.591H134.925C136.73 302.591 138.502 302.116 140.066 301.216C141.628 300.316 142.927 299.021 143.831 297.462M143.832 297.46L164.623 261.457C165.525 259.896 166 258.125 166 256.322C166 254.519 165.525 252.748 164.623 251.187L143.831 215.182C142.929 213.621 141.631 212.325 140.068 211.424C138.504 210.524 136.731 210.051 134.926 210.053M144.697 214.682L165.489 250.686C166.479 252.4 167 254.343 167 256.322C167 258.3 166.479 260.244 165.489 261.958L144.697 297.962C143.705 299.674 142.28 301.095 140.565 302.083C138.85 303.07 136.905 303.591 134.925 303.591H93.342C91.3598 303.594 89.4115 303.076 87.6935 302.088C85.9756 301.1 84.5485 299.677 83.5562 297.962L62.751 261.958C61.7609 260.244 61.2397 258.3 61.2397 256.322C61.2397 254.343 61.7609 252.4 62.751 250.686L83.5836 214.682C84.5715 212.97 85.9937 211.548 87.707 210.559C89.4202 209.571 91.3639 209.052 93.342 209.053H134.925C136.905 209.051 138.851 209.57 140.567 210.558C142.283 211.546 143.707 212.968 144.697 214.682Z" fill="#2D9596"/>
<path d="M-10.1059 133.034H-94.9715C-98.2277 133.035 -101.426 133.893 -104.246 135.52C-107.065 137.148 -109.407 139.488 -111.035 142.306L-153.522 215.725C-155.146 218.546 -156 221.743 -156 224.996C-156 228.25 -155.146 231.447 -153.522 234.268L-111.035 307.701C-109.41 310.524 -107.07 312.869 -104.25 314.502C-101.431 316.134 -98.2303 316.996 -94.9715 317H-10.1059C-6.84979 316.999 -3.65135 316.141 -0.831818 314.514C1.98772 312.886 4.32909 310.546 5.95714 307.728L48.4448 234.295C50.0749 231.477 50.9331 228.279 50.9331 225.024C50.9331 221.769 50.0749 218.571 48.4448 215.752L5.95714 142.333C4.33255 139.51 1.99269 137.165 -0.827087 135.532C-3.64685 133.9 -6.84711 133.038 -10.1059 133.034Z" fill="#2D9596"/>
<path d="M26.6661 0H-77.0311C-79.6002 0.00256572 -82.1235 0.679465 -84.3485 1.96293C-86.5734 3.24639 -88.4219 5.09138 -89.7089 7.31317L-141.544 97.0433C-142.83 99.2664 -143.507 101.789 -143.507 104.356C-143.507 106.924 -142.83 109.447 -141.544 111.67L-89.7089 201.4C-88.4219 203.622 -86.5734 205.467 -84.3485 206.75C-82.1235 208.034 -79.6002 208.71 -77.0311 208.713H26.6661C29.2352 208.71 31.7586 208.034 33.9836 206.75C36.2086 205.467 38.0569 203.622 39.3439 201.4L91.1925 111.67C92.4719 109.444 93.1451 106.923 93.1451 104.356C93.1451 101.79 92.4719 99.2686 91.1925 97.0433L39.3439 7.31317C38.0569 5.09138 36.2086 3.24639 33.9836 1.96293C31.7586 0.679465 29.2352 0.00256572 26.6661 0Z" fill="white"/>
<mask id="path-5-inside-1_4868_42917" fill="white">
<path fill-rule="evenodd" clip-rule="evenodd" d="M-23.8415 43.9629C-26.0664 45.2464 -27.9149 47.0914 -29.2019 49.3132L-81.037 139.043C-82.323 141.266 -83 143.789 -83 146.356C-83 148.924 -82.323 151.447 -81.037 153.67L-29.2019 243.4L-28.336 242.9L-28.3366 242.899C-27.1374 244.969 -25.4151 246.688 -23.3419 247.884L-23.3417 247.884C-21.2686 249.08 -18.9173 249.71 -16.5229 249.713H-16.5241V250.713L-16.5229 249.713H87.1719L87.1731 250.713V249.713H87.1719C89.5663 249.71 91.9176 249.08 93.9907 247.884L93.991 247.884C96.0641 246.688 97.7864 244.969 98.9856 242.899L98.9851 242.9L99.8509 243.4L98.9856 242.899L150.832 153.172L151.699 153.67L150.834 153.17L150.832 153.172C152.025 151.097 152.652 148.748 152.652 146.356C152.652 143.966 152.025 141.617 150.834 139.544L151.699 139.043L150.833 139.542L98.9856 49.8144L99.8509 49.3132L98.9851 49.8135L98.9856 49.8144C97.7864 47.7442 96.0641 46.0251 93.9908 44.8291C91.9176 43.6333 89.5665 43.0025 87.1726 43H87.1731V42L87.1721 43C87.1723 43 87.1724 43 87.1726 43H-16.5236C-16.5234 43 -16.5233 43 -16.5231 43L-16.5241 42V43H-16.5236C-18.9175 43.0025 -21.2686 43.6333 -23.3418 44.8291C-25.4148 46.025 -27.137 47.7438 -28.3362 49.8137M-28.3366 49.8144L-80.1711 139.544L-80.1714 139.544C-81.3694 141.615 -82 143.965 -82 146.356C-82 148.748 -81.3693 151.098 -80.1714 153.169L-80.1711 153.17L-28.3366 242.899L-29.2019 243.4"/>
</mask>
<path d="M-27.9397 50.1183L-23.445 44.2675L-24.238 43.6583L-28.7327 49.5091L-27.9397 50.1183ZM-28.7019 243.402L-27.8366 49.8166L-28.8366 49.8122L-29.7019 243.398L-28.7019 243.402ZM-29.2019 49.3132L-30.0672 48.8119L-30.0678 48.813L-29.2019 49.3132ZM-81.037 139.043L-80.1714 139.544L-80.1711 139.544L-81.037 139.043ZM-81.037 153.67L-80.1711 153.17L-80.1714 153.169L-81.037 153.67ZM-29.2019 243.4L-30.0678 243.9L-29.5676 244.766L-28.7017 244.266L-29.2019 243.4ZM-28.336 242.9L-27.8358 243.766L-26.9704 243.266L-27.4698 242.4L-28.336 242.9ZM-23.3419 247.884L-23.8415 248.75L-23.8346 248.754L-23.8276 248.758L-23.3419 247.884ZM-23.3417 247.884L-22.8418 247.018L-22.8489 247.014L-22.856 247.01L-23.3417 247.884ZM-16.5241 249.713V248.713H-17.5241V249.713H-16.5241ZM-16.5241 250.713H-17.5241L-15.5241 250.714L-16.5241 250.713ZM87.1731 250.713L86.1731 250.714L88.1731 250.713H87.1731ZM87.1731 249.713H88.1731V248.713H87.1731V249.713ZM93.9907 247.884L94.4905 248.75L94.4917 248.749L93.9907 247.884ZM93.991 247.884L93.4914 247.017L93.4899 247.018L93.991 247.884ZM98.9851 242.9L98.1186 242.4L97.6199 243.266L98.4848 243.766L98.9851 242.9ZM99.8509 243.4L99.3506 244.266L100.352 242.535L99.8509 243.4ZM151.699 153.67L151.201 154.537L152.2 152.804L151.699 153.67ZM150.834 153.17L151.334 152.304L150.47 151.804L149.969 152.668L150.834 153.17ZM150.834 139.544L150.333 138.678L149.47 139.177L149.967 140.042L150.834 139.544ZM151.699 139.043L152.2 139.909L151.201 138.176L151.699 139.043ZM150.833 139.542L149.967 140.042L150.466 140.906L151.331 140.409L150.833 139.542ZM99.8509 49.3132L100.352 50.1785L99.3506 48.4473L99.8509 49.3132ZM98.9851 49.8135L98.4848 48.9476L97.6213 49.4465L98.1178 50.3113L98.9851 49.8135ZM93.9908 44.8291L94.4905 43.9629L94.4905 43.9629L93.9908 44.8291ZM87.1731 43V44H88.1731V43H87.1731ZM87.1731 42H88.1731L86.1731 41.999L87.1731 42ZM87.1721 43L86.1721 42.999L86.1711 43.9988L87.1709 44L87.1721 43ZM-16.5231 43L-16.522 44L-15.5221 43.9989L-15.5231 42.999L-16.5231 43ZM-16.5241 42L-15.5241 41.999L-17.5241 42H-16.5241ZM-16.5241 43H-17.5241V44H-16.5241V43ZM-23.3418 44.8291L-23.8415 43.9629L-23.8415 43.9629L-23.3418 44.8291ZM-80.1711 139.544L-79.307 140.047L-79.3052 140.044L-80.1711 139.544ZM-80.1714 139.544L-81.0355 139.041L-81.037 139.043L-80.1714 139.544ZM-80.1714 153.169L-79.3047 152.67L-79.3058 152.669L-80.1714 153.169ZM-80.1711 153.17L-81.0378 153.669L-81.037 153.67L-80.1711 153.17ZM-24.3412 43.0967C-26.7178 44.4677 -28.6924 46.4385 -30.0672 48.8119L-28.3366 49.8144C-27.1374 47.7443 -25.415 46.0251 -23.3418 44.8291L-24.3412 43.0967ZM-30.0678 48.813L-81.9029 138.543L-80.1711 139.544L-28.336 49.8134L-30.0678 48.813ZM-81.9026 138.543C-83.2766 140.918 -84 143.613 -84 146.356H-82C-82 143.965 -81.3694 141.615 -80.1714 139.544L-81.9026 138.543ZM-84 146.356C-84 149.1 -83.2767 151.796 -81.9026 154.171L-80.1714 153.169C-81.3693 151.098 -82 148.748 -82 146.356H-84ZM-81.9029 154.17L-30.0678 243.9L-28.336 242.9L-80.1711 153.17L-81.9029 154.17ZM-28.7017 244.266L-27.8358 243.766L-28.8362 242.034L-29.7021 242.534L-28.7017 244.266ZM-27.4698 242.4L-27.4704 242.399L-29.2028 243.399L-29.2022 243.4L-27.4698 242.4ZM-22.8424 247.017C-24.7637 245.909 -26.3599 244.316 -27.4712 242.398L-29.2019 243.4C-27.9149 245.622 -26.0664 247.467 -23.8415 248.75L-22.8424 247.017ZM-22.856 247.01L-22.8563 247.01L-23.8276 248.758L-23.8273 248.758L-22.856 247.01ZM-16.5218 248.713C-18.7415 248.71 -20.9208 248.126 -22.8418 247.018L-23.8415 248.75C-21.6165 250.034 -19.0932 250.71 -16.5241 250.713L-16.5218 248.713ZM-16.5229 248.713H-16.5241V250.713H-16.5229V248.713ZM-17.5241 249.713V250.713H-15.5241V249.713H-17.5241ZM-15.5241 250.714L-15.5229 249.714L-17.5229 249.712L-17.5241 250.712L-15.5241 250.714ZM87.1719 248.713H-16.5229V250.713H87.1719V248.713ZM86.1719 249.714L86.1731 250.714L88.1731 250.712L88.1719 249.712L86.1719 249.714ZM88.1731 250.713V249.713H86.1731V250.713H88.1731ZM87.1731 248.713H87.1719V250.713H87.1731V248.713ZM93.4909 247.018C91.5698 248.126 89.3905 248.71 87.1708 248.713L87.1731 250.713C89.7422 250.71 92.2655 250.034 94.4905 248.75L93.4909 247.018ZM93.4899 247.018L93.4897 247.018L94.4917 248.749L94.492 248.749L93.4899 247.018ZM98.1203 242.398C97.0089 244.316 95.4128 245.91 93.4915 247.017L94.4905 248.75C96.7155 247.467 98.5639 245.622 99.8509 243.4L98.1203 242.398ZM98.1192 242.399L98.1186 242.4L99.8515 243.399L99.852 243.398L98.1192 242.399ZM98.4848 243.766L99.3506 244.266L100.351 242.534L99.4854 242.034L98.4848 243.766ZM100.352 242.535L99.4868 242.033L98.4844 243.764L99.3497 244.265L100.352 242.535ZM149.967 152.671L98.1197 242.398L99.8514 243.399L151.698 153.672L149.967 152.671ZM150.334 154.039L151.201 154.537L152.198 152.803L151.331 152.305L150.334 154.039ZM152.2 152.804L151.334 152.304L150.333 154.036L151.199 154.536L152.2 152.804ZM149.969 152.668L149.968 152.67L151.697 153.674L151.699 153.672L149.969 152.668ZM151.652 146.356C151.652 148.573 151.071 150.75 149.965 152.673L151.699 153.67C152.979 151.444 153.652 148.923 153.652 146.356H151.652ZM149.967 140.042C151.071 141.964 151.652 144.141 151.652 146.356H153.652C153.652 143.791 152.979 141.27 151.701 139.045L149.967 140.042ZM151.334 140.409L152.2 139.909L151.199 138.177L150.333 138.678L151.334 140.409ZM151.201 138.176L150.334 138.675L151.331 140.409L152.198 139.91L151.201 138.176ZM98.1197 50.3147L149.967 140.042L151.698 139.041L99.8514 49.3141L98.1197 50.3147ZM99.4868 50.6797L100.352 50.1785L99.3497 48.4479L98.4844 48.9491L99.4868 50.6797ZM99.3506 48.4473L98.4848 48.9476L99.4854 50.6793L100.351 50.179L99.3506 48.4473ZM98.1178 50.3113L98.1183 50.3123L99.8529 49.3165L99.8523 49.3156L98.1178 50.3113ZM93.4912 45.6954C95.4128 46.8038 97.0089 48.3971 98.1203 50.3157L99.8509 49.3132C98.5639 47.0914 96.7155 45.2464 94.4905 43.9629L93.4912 45.6954ZM87.1715 44C89.3904 44.0023 91.5696 44.587 93.4912 45.6954L94.4905 43.9629C92.2657 42.6795 89.7425 42.0027 87.1736 42L87.1715 44ZM87.1726 44H87.1731V42H87.1726V44ZM88.1731 43V42H86.1731V43H88.1731ZM86.1731 41.999L86.1721 42.999L88.1721 43.001L88.1731 42.001L86.1731 41.999ZM87.1709 44L87.1714 44L87.1737 42L87.1733 42L87.1709 44ZM-16.5236 44H87.1726V42H-16.5236V44ZM-16.5225 44L-16.522 44L-16.5242 42L-16.5247 42L-16.5225 44ZM-15.5231 42.999L-15.5241 41.999L-17.5241 42.001L-17.5231 43.001L-15.5231 42.999ZM-17.5241 42V43H-15.5241V42H-17.5241ZM-16.5241 44H-16.5236V42H-16.5241V44ZM-22.8422 45.6954C-20.9206 44.587 -18.7414 44.0023 -16.5225 44L-16.5246 42C-19.0935 42.0027 -21.6166 42.6795 -23.8415 43.9629L-22.8422 45.6954ZM-27.4709 50.315C-26.3596 48.3968 -24.7634 46.8037 -22.8421 45.6954L-23.8415 43.9629C-26.0661 45.2462 -27.9145 47.0909 -29.2014 49.3124L-27.4709 50.315ZM-79.3052 140.044L-27.4707 50.3146L-29.2025 49.3142L-81.037 139.043L-79.3052 140.044ZM-79.3073 140.047L-79.307 140.047L-81.0352 139.04L-81.0355 139.041L-79.3073 140.047ZM-81 146.356C-81 144.141 -80.4157 141.964 -79.3058 140.045L-81.037 139.043C-82.323 141.266 -83 143.789 -83 146.356H-81ZM-79.3058 152.669C-80.4157 150.75 -81 148.572 -81 146.356H-83C-83 148.924 -82.323 151.447 -81.037 153.67L-79.3058 152.669ZM-79.3044 152.671L-79.3047 152.67L-81.0381 153.668L-81.0378 153.669L-79.3044 152.671ZM-27.4707 242.399L-79.3052 152.67L-81.037 153.67L-29.2025 243.399L-27.4707 242.399ZM-28.8378 242.033L-29.7031 242.535L-28.7007 244.265L-27.8354 243.764L-28.8378 242.033Z" fill="white" mask="url(#path-5-inside-1_4868_42917)"/>
</g>
</g>
<defs>
<clipPath id="clip0_4868_42917">
<rect width="167" height="277" fill="white"/>
</clipPath>
</defs>
</svg>
