<svg width="88" height="215" viewBox="0 0 88 215" fill="none" xmlns="http://www.w3.org/2000/svg">
<path opacity="0.2" d="M-77.7949 9.80636C-73.5051 2.39023 -65.5874 -2.17679 -57.02 -2.17679L-5.32072 -2.17679C3.2467 -2.17679 11.1644 2.39023 15.4541 9.80636L41.2649 54.4283C45.565 61.8625 45.565 71.0278 41.2649 78.462L15.4541 123.084C11.1644 130.5 3.2467 135.067 -5.32073 135.067L-57.02 135.067C-65.5874 135.067 -73.5051 130.5 -77.7949 123.084L-103.606 78.462C-107.906 71.0278 -107.906 61.8625 -103.606 54.4283L-77.7949 9.80636Z" stroke="#265073" stroke-width="3" stroke-linecap="round" stroke-linejoin="round"/>
<path d="M55.9466 191.633C51.6568 199.049 43.7391 203.616 35.1717 203.616L-22.4092 203.616C-30.9766 203.616 -38.8943 199.049 -43.184 191.633L-71.9356 141.927C-76.2357 134.493 -76.2357 125.328 -71.9356 117.894L-43.184 68.1875C-38.8943 60.7714 -30.9766 56.2044 -22.4092 56.2044L35.1717 56.2044C43.7391 56.2044 51.6568 60.7714 55.9466 68.1875L84.6981 117.894C88.9982 125.328 88.9982 134.493 84.6981 141.927L55.9466 191.633Z" fill="url(#paint0_linear_2319_49481)" fill-opacity="0.25"/>
<defs>
<linearGradient id="paint0_linear_2319_49481" x1="-78.8865" y1="129.91" x2="91.649" y2="129.91" gradientUnits="userSpaceOnUse">
<stop offset="0.0001" stop-color="#2D9596"/>
<stop offset="1" stop-color="#265073"/>
</linearGradient>
</defs>
</svg>
