<svg width="167" height="277" viewBox="0 0 167 277" fill="none" xmlns="http://www.w3.org/2000/svg">
<path d="M134.926 209.553L134.925 209.553L93.342 209.553H93.3416C91.4513 209.552 89.5939 210.048 87.9568 210.992C86.3197 211.937 84.9606 213.296 84.0167 214.932L84.0164 214.933L63.1839 250.937L134.926 209.553ZM134.926 209.553C136.818 209.551 138.678 210.047 140.317 210.991C141.957 211.935 143.318 213.295 144.264 214.932C144.264 214.932 144.264 214.932 144.264 214.932M134.926 209.553L144.264 214.932M93.342 209.053H134.925C136.905 209.051 138.851 209.57 140.567 210.558L93.342 209.053ZM93.342 209.053C91.3639 209.052 89.4202 209.571 87.707 210.559M93.342 209.053L87.707 210.559M144.264 214.932L165.056 250.936L165.056 250.937C166.002 252.574 166.5 254.431 166.5 256.322C166.5 258.213 166.002 260.07 165.056 261.707L165.056 261.707L144.265 297.711C143.316 299.347 141.954 300.705 140.315 301.649C138.676 302.593 136.817 303.091 134.925 303.091H93.342H93.3411C91.4466 303.094 89.5847 302.599 87.9428 301.654C86.301 300.71 84.9372 299.35 83.9889 297.711L63.1839 261.707C62.2378 260.07 61.7397 258.213 61.7397 256.322C61.7397 254.431 62.2377 252.574 63.1837 250.937L144.264 214.932ZM87.707 210.559C85.9937 211.548 84.5715 212.97 83.5836 214.682L87.707 210.559Z" stroke="#2D9596"/>
<path d="M-10.1059 133.034H-94.9715C-98.2277 133.035 -101.426 133.893 -104.246 135.52C-107.065 137.148 -109.407 139.488 -111.035 142.306L-153.522 215.725C-155.146 218.546 -156 221.743 -156 224.996C-156 228.25 -155.146 231.447 -153.522 234.268L-111.035 307.701C-109.41 310.524 -107.07 312.869 -104.25 314.502C-101.431 316.134 -98.2303 316.996 -94.9715 317H-10.1059C-6.84979 316.999 -3.65135 316.141 -0.831818 314.514C1.98772 312.886 4.32909 310.546 5.95714 307.728L48.4448 234.295C50.0749 231.477 50.9331 228.279 50.9331 225.024C50.9331 221.769 50.0749 218.571 48.4448 215.752L5.95714 142.333C4.33255 139.51 1.99269 137.165 -0.827087 135.532C-3.64685 133.9 -6.84711 133.038 -10.1059 133.034Z" fill="#2D9596"/>
<path d="M88.2351 38.1204L88.2322 38.1204L-22.5508 38.1204C-22.5508 38.1204 -22.5508 38.1204 -22.5509 38.1204C-25.0486 38.121 -27.5023 38.7778 -29.666 40.0248C-31.8294 41.2717 -33.6268 43.065 -34.8779 45.2247L88.2351 38.1204ZM88.2351 38.1204C90.7363 38.106 93.1969 38.7517 95.3683 39.9921L95.6158 39.5589L95.3683 39.9921C97.5395 41.2325 99.3444 43.0236 100.601 45.1844C100.601 45.1846 100.601 45.1847 100.601 45.1849L155.999 141.049L155.999 141.049C157.248 143.209 157.906 145.659 157.906 148.153C157.906 150.648 157.248 153.098 155.999 155.257L155.999 155.257L100.6 251.123L100.6 251.123C99.3534 253.284 97.5589 255.078 95.3973 256.325C93.2357 257.572 90.7833 258.229 88.2872 258.227H-22.4959C-24.9937 258.227 -27.4475 257.57 -29.6111 256.323C-31.7748 255.076 -33.5723 253.283 -34.8234 251.123L-90.2215 155.257L-90.2217 155.257C-91.4709 153.098 -92.1287 150.648 -92.1287 148.153C-92.1287 145.659 -91.4709 143.209 -90.2217 141.049L-90.2215 141.049L-34.8782 45.2253L88.2351 38.1204Z" stroke="white"/>
<path d="M26.6661 0H-77.0311C-79.6002 0.00256572 -82.1235 0.679465 -84.3485 1.96293C-86.5734 3.24639 -88.4219 5.09138 -89.7089 7.31317L-141.544 97.0433C-142.83 99.2664 -143.507 101.789 -143.507 104.356C-143.507 106.924 -142.83 109.447 -141.544 111.67L-89.7089 201.4C-88.4219 203.622 -86.5734 205.467 -84.3485 206.75C-82.1235 208.034 -79.6002 208.71 -77.0311 208.713H26.6661C29.2352 208.71 31.7585 208.034 33.9835 206.75C36.2085 205.467 38.0569 203.622 39.3439 201.4L91.1925 111.67C92.4719 109.444 93.1451 106.923 93.1451 104.356C93.1451 101.79 92.4719 99.2686 91.1925 97.0433L39.3439 7.31317C38.0569 5.09138 36.2085 3.24639 33.9835 1.96293C31.7585 0.679465 29.2352 0.00256572 26.6661 0Z" fill="white"/>
</svg>
