<svg width="89" height="205" viewBox="0 0 89 205" fill="none" xmlns="http://www.w3.org/2000/svg">
<g opacity="0.4" clip-path="url(#clip0_2319_49872)">
<path opacity="0.2" d="M-77.795 9.80636C-73.5052 2.39023 -65.5875 -2.17679 -57.0201 -2.17679L-5.32081 -2.17679C3.24661 -2.17679 11.1643 2.39023 15.4541 9.80636L41.2648 54.4283C45.5649 61.8625 45.5649 71.0278 41.2648 78.462L15.4541 123.084C11.1643 130.5 3.24661 135.067 -5.32082 135.067L-57.0201 135.067C-65.5875 135.067 -73.5052 130.5 -77.795 123.084L-103.606 78.462C-107.906 71.0278 -107.906 61.8625 -103.606 54.4283L-77.795 9.80636Z" stroke="#265073" stroke-opacity="0.25" stroke-width="3" stroke-linecap="round" stroke-linejoin="round"/>
<path d="M-43.1841 68.1875C-38.8944 60.7714 -30.9767 56.2044 -22.4092 56.2044L35.1716 56.2044C43.739 56.2044 51.6568 60.7714 55.9465 68.1875L84.698 117.894C88.9982 125.328 88.9982 134.493 84.698 141.927L55.9465 191.633C51.6568 199.049 43.739 203.616 35.1716 203.616L-22.4092 203.616C-30.9767 203.616 -38.8944 199.049 -43.1841 191.633L-71.9356 141.927C-76.2358 134.493 -76.2358 125.328 -71.9356 117.894L-43.1841 68.1875Z" fill="#265073" fill-opacity="0.25"/>
</g>
<defs>
<clipPath id="clip0_2319_49872">
<rect width="203.879" height="88.4991" fill="white" transform="matrix(0.000675759 -1 -1 -0.000675759 87.936 204.34)"/>
</clipPath>
</defs>
</svg>
