<svg width="66" height="122" viewBox="0 0 66 122" fill="none" xmlns="http://www.w3.org/2000/svg">
<path d="M53.418 79.8655H37.5405C36.7852 79.8648 36.043 80.0633 35.3889 80.4408C34.7347 80.8183 34.1916 81.3616 33.8144 82.0158L25.86 95.7707C25.482 96.4253 25.283 97.1678 25.283 97.9237C25.283 98.6795 25.482 99.4221 25.86 100.077L33.804 113.832C34.1829 114.487 34.7278 115.03 35.3837 115.408C36.0397 115.785 36.7836 115.983 37.5405 115.982H53.418C54.1739 115.982 54.9165 115.783 55.5714 115.406C56.2263 115.028 56.7704 114.485 57.1493 113.832L65.0881 100.077C65.4661 99.4221 65.6651 98.6795 65.6651 97.9237C65.6651 97.1678 65.4661 96.4253 65.0881 95.7707L57.1493 82.0158C56.7712 81.3612 56.2273 80.8177 55.5722 80.4402C54.9171 80.0627 54.1741 79.8644 53.418 79.8655Z" fill="url(#paint0_linear_2341_51382)"/>
<path d="M-1.95874 50.8235H-34.3627C-35.606 50.824 -36.8272 51.1516 -37.9038 51.7734C-38.9804 52.3951 -39.8744 53.2891 -40.496 54.3655L-56.719 82.4142C-57.3388 83.4918 -57.665 84.7132 -57.665 85.9563C-57.665 87.1994 -57.3388 88.4207 -56.719 89.4983L-40.496 117.552C-39.8757 118.631 -38.9823 119.527 -37.9056 120.15C-36.829 120.774 -35.607 121.103 -34.3627 121.105H-1.95874C-0.715458 121.104 0.505791 120.777 1.58236 120.155C2.65894 119.533 3.55294 118.639 4.17458 117.563L20.3975 89.5088C21.0199 88.432 21.3476 87.2104 21.3476 85.9667C21.3476 84.7231 21.0199 83.5014 20.3975 82.4247L4.17458 54.376C3.55426 53.2976 2.66084 52.4015 1.58418 51.7779C0.507507 51.1543 -0.714436 50.8251 -1.95874 50.8235Z" fill="#2D9596"/>
<path d="M35.5895 14.8723L35.5924 14.8723C36.493 14.8671 37.379 15.0997 38.1609 15.5466C38.9424 15.9933 39.5921 16.6383 40.0444 17.4164C40.0446 17.4167 40.0448 17.417 40.045 17.4173L61.197 54.0401L61.1971 54.0403C61.6469 54.8183 61.8838 55.701 61.8838 56.5996C61.8838 57.4982 61.6469 58.3809 61.1971 59.1589L61.197 59.1591L40.0444 95.783L40.0442 95.7833C39.5953 96.5616 38.9491 97.208 38.1708 97.6574C37.3925 98.1067 36.5095 98.343 35.6107 98.3426H35.6105H-6.68937C-6.68941 98.3426 -6.68946 98.3426 -6.6895 98.3426C-7.58899 98.3424 -8.47261 98.1058 -9.25178 97.6564C-10.031 97.2071 -10.6783 96.5609 -11.1289 95.7826L-32.2812 59.1591L-32.2814 59.1589C-32.7312 58.3809 -32.968 57.4982 -32.968 56.5996C-32.968 55.701 -32.7312 54.8183 -32.2814 54.0403L-32.2812 54.04L-11.1498 17.4324C-11.1498 17.4323 -11.1498 17.4323 -11.1497 17.4322C-10.6992 16.654 -10.0519 16.0078 -9.27271 15.5585C-8.49355 15.1092 -7.60993 14.8725 -6.71043 14.8723C-6.71039 14.8723 -6.71035 14.8723 -6.7103 14.8723L35.5895 14.8723Z" stroke="white"/>
<path d="M12.0819 0H-27.5125C-28.4934 0.00098019 -29.4569 0.259579 -30.3065 0.749905C-31.156 1.24023 -31.8618 1.94508 -32.3532 2.79388L-52.1452 37.0738C-52.6362 37.9231 -52.8948 38.8868 -52.8948 39.8677C-52.8948 40.8487 -52.6362 41.8123 -52.1452 42.6616L-32.3532 76.9416C-31.8618 77.7904 -31.156 78.4952 -30.3065 78.9855C-29.4569 79.4759 -28.4934 79.7345 -27.5125 79.7354H12.0819C13.0629 79.7345 14.0263 79.4759 14.8759 78.9855C15.7254 78.4952 16.4312 77.7904 16.9226 76.9416L36.7198 42.6616C37.2083 41.8115 37.4654 40.8482 37.4654 39.8677C37.4654 38.8873 37.2083 37.924 36.7198 37.0738L16.9226 2.79388C16.4312 1.94508 15.7254 1.24023 14.8759 0.749905C14.0263 0.259579 13.0629 0.00098019 12.0819 0Z" fill="#265073"/>
<defs>
<linearGradient id="paint0_linear_2341_51382" x1="25.2843" y1="97.9211" x2="65.6689" y2="97.9211" gradientUnits="userSpaceOnUse">
<stop stop-color="#347EBB"/>
<stop offset="1" stop-color="#265073"/>
</linearGradient>
</defs>
</svg>
