<svg width="24" height="25" viewBox="0 0 24 25" fill="none" xmlns="http://www.w3.org/2000/svg">
<g clip-path="url(#clip0_3088_6039)">
<path d="M10.2322 10.9349C12.1258 9.04141 15.16 8.98403 17.1226 10.7628L17.3033 10.9349L20.1317 13.7633C22.0844 15.7159 22.0844 18.8817 20.1317 20.8343C18.2383 22.7278 15.2041 22.7852 13.2415 21.0064L13.0607 20.8343L10.9394 18.713C10.5488 18.3225 10.5488 17.6893 10.9394 17.2988C11.2999 16.9383 11.8671 16.9106 12.2594 17.2156L12.3536 17.2988L14.4749 19.4201C15.6465 20.5917 17.546 20.5917 18.7175 19.4201C19.8423 18.2955 19.8873 16.4999 18.8525 15.3215L18.7175 15.1775L15.8891 12.3491C14.7175 11.1775 12.8181 11.1775 11.6466 12.3491C11.256 12.7396 10.6229 12.7396 10.2323 12.3491C9.84187 11.9586 9.84181 11.3254 10.2322 10.9349ZM3.86827 4.57091C5.76172 2.67746 8.79597 2.62008 10.7586 4.39878L10.9393 4.57091L13.0606 6.69223C13.4511 7.08275 13.4511 7.71592 13.0606 8.10645C12.7002 8.46693 12.1329 8.49466 11.7406 8.18963L11.6464 8.10645L9.52512 5.98512C8.35355 4.81355 6.45406 4.81355 5.28248 5.98512C4.15778 7.10983 4.11279 8.90539 5.14752 10.0838L5.28248 10.2278L8.11091 13.0562C9.28248 14.2278 11.182 14.2277 12.3535 13.0562C12.744 12.6656 13.3772 12.6656 13.7677 13.0562C14.1583 13.4467 14.1582 14.0799 13.7677 14.4704C11.8743 16.3638 8.84008 16.4212 6.87749 14.6425L6.6967 14.4704L3.86827 11.642C1.91565 9.68935 1.91565 6.52353 3.86827 4.57091Z" fill="white"/>
</g>
<defs>
<clipPath id="clip0_3088_6039">
<rect width="24" height="24" fill="white" transform="translate(0 0.703613)"/>
</clipPath>
</defs>
</svg>
