<svg width="211" height="153" viewBox="0 0 211 153" fill="none" xmlns="http://www.w3.org/2000/svg">
<g clip-path="url(#clip0_2794_25390)">
<path d="M89.14 93.97C88.79 92.95 88.84 92.11 89 91.31C89.33 89.71 89.66 88.11 89.64 86.46C89.64 85.85 89.74 85.17 90.33 84.9C91.01 84.58 91.42 85.24 91.83 85.63C93.7 87.39 94.38 89.65 93.88 92.08C93.16 95.61 91.63 98.81 89.16 101.5C88.56 102.15 87.9 102.69 87.07 103.06C85.63 103.69 84.93 104.94 84.64 106.42C83.9 110.18 81.84 113.18 79.14 115.73C76.92 117.83 74.36 119.31 71.08 119.04C68.69 118.84 67.23 117.76 66.6 115.43C65.56 111.58 66.36 107.92 67.88 104.36C68.3 103.37 68.74 102.38 69.23 101.42C69.67 100.57 69.32 100.25 68.52 100.15C67.72 100.04 66.93 100.25 66.13 100.27C58.13 100.46 50.15 100.32 42.37 98.13C35.36 96.16 28.94 93.06 23.47 88.15C21.23 86.15 19.46 83.83 18 81.23C16.97 79.4 16.68 79.34 14.83 80.37C9.67 83.25 5.14 86.99 0.689999 90.83C0.479999 91.01 0.28 91.21 0.0699997 91.39C0.0199997 91.43 -0.0799983 91.43 -0.259998 91.48C-0.0399983 90.84 0.399999 90.44 0.799999 90.03C5.24 85.47 9.95 81.22 15.33 77.77C16.22 77.2 16.56 76.5 16.47 75.48C16.04 70.34 17.17 65.56 19.96 61.21C22.67 56.99 26.52 54.05 30.85 51.68C36.18 48.77 41.96 47.33 47.94 46.54C50.8 46.16 53.67 45.99 56.53 45.92C59.63 45.84 62.75 46.13 65.85 46.4C73.45 47.06 80.72 49.23 87.99 51.36C91.74 52.46 95.35 53.99 98.88 55.71C99.65 56.08 100.62 56.89 101.27 56.37C101.97 55.82 101.1 54.86 100.88 54.09C100.6 53.09 100.54 52.12 100.93 51.16C101.37 50.09 101.82 49.02 102.29 47.97C102.61 47.27 103.02 47.21 103.53 47.84C104.67 49.23 104.78 50.57 103.86 52.15C103.66 52.49 103.46 52.85 103.31 53.21C102.83 54.39 103.01 55.01 104.16 55.56C104.81 55.88 105.54 56.69 106.19 56.25C106.94 55.74 106.39 54.77 106.27 54.02C104.72 44.77 102.38 35.7 99.88 26.66C99.45 25.1 98.6 23.64 98.71 21.93C98.82 20.19 99.8 18.96 100.98 17.86C101.53 17.34 101.71 17.91 101.87 18.32C102.6 20.31 103.03 22.38 103.52 24.44C105.82 34.22 107.54 44.11 109.31 54C109.57 55.45 109.79 56.91 110.06 58.36C110.19 59.09 110.54 59.71 111.19 60.12C113.22 61.4 115.23 62.69 117.26 63.97C117.58 64.17 117.93 64.48 118.35 64.19C118.75 63.91 118.63 63.47 118.62 63.09C118.57 61.12 118.02 59.42 116.11 58.43C115.66 58.2 115.31 57.76 114.86 57.5C110.99 55.28 110.36 51.33 109.55 47.51C109.32 46.45 109.57 45.36 110.08 44.37C110.85 42.88 111.62 41.39 112.4 39.91C112.52 39.68 112.65 39.36 112.99 39.39C113.32 39.43 113.38 39.76 113.48 40.01C114.21 41.83 114.52 43.59 113.06 45.28C112.41 46.03 112.02 46.97 111.66 47.91C111.26 48.96 111.52 49.79 112.31 50.5C113.44 51.51 114.78 52.27 115.82 53.39C116 53.59 116.29 53.76 116.58 53.64C116.99 53.47 116.95 53.07 116.96 52.71C116.98 50.57 116.43 48.52 115.99 46.46C114.48 39.33 113.51 32.09 111.66 25.03C110.64 21.14 109.78 17.2 108.38 13.41C108.12 12.71 108.12 12.02 108.49 11.34C108.91 10.57 109.3 9.77998 109.7 8.99998C109.84 8.71998 109.93 8.32998 110.32 8.36998C110.72 8.40998 110.7 8.82998 110.79 9.11998C111.88 13.08 113.04 17.02 114.03 21.01C115.77 28.01 117.51 35.02 119.01 42.07C119.54 44.54 119.67 47.12 120.11 49.62C120.46 51.62 120.8 53.62 120.84 55.66C120.86 56.91 121.5 57.85 122.48 58.58C124.21 59.87 126 61.08 127.5 62.65C127.8 62.96 128.19 63.31 128.66 63.11C129.18 62.88 128.98 62.33 128.95 61.93C128.78 59.15 128.43 56.38 127.95 53.63C127.71 52.24 126.84 51.18 125.59 50.46C124.76 49.98 123.94 49.48 123.14 48.95C122.26 48.36 121.55 47.6 121.25 46.55C120.7 44.67 119.96 42.86 119.83 40.83C119.64 37.8 120.93 35.33 122.41 32.89C122.76 32.31 123.02 32.57 123.23 33.02C123.84 34.32 123.91 35.63 123.28 36.95C122.68 38.21 122.09 39.48 121.52 40.75C121.08 41.72 121.24 42.5 122.21 43.1C123.26 43.76 124.24 44.52 125.26 45.21C125.58 45.42 125.93 45.8 126.33 45.6C126.76 45.38 126.58 44.88 126.56 44.51C126.45 42.23 125.91 40.02 125.5 37.79C123.4 26.49 120.48 15.39 117.4 4.31998C116.92 2.60998 117.63 1.44998 118.68 0.349982C119.25 -0.250018 119.83 -0.0400177 120.23 0.659982C120.67 1.43998 120.82 2.30998 121.04 3.14998C123.7 13.21 125.87 23.39 127.69 33.63C128.48 38.1 129.07 42.6 129.69 47.1C129.91 48.66 130.74 49.71 131.99 50.56C136.67 53.71 140.71 57.55 144.27 61.91C148.57 67.2 151.32 73.21 152.41 79.92C152.84 82.57 152.63 85.26 151.73 87.85C151.31 89.06 150.98 90.3 150.44 91.46C149.42 93.65 149.55 95.76 150.54 97.91C153.18 103.68 155.77 109.48 158.38 115.26C159.04 116.71 159.73 118.16 160.41 119.6C160.9 120.64 161.7 121.14 162.88 121.15C169.28 121.18 175.59 122.19 181.9 123.15C185.17 123.65 188.43 124.2 191.7 124.73C191.96 124.77 192.33 124.64 192.41 125C192.48 125.31 192.16 125.48 191.95 125.65C190.11 127.13 188.3 128.63 186.41 130.05C184.97 131.13 183.27 130.98 181.68 130.58C176.34 129.26 170.96 128.08 165.55 127.09C162.07 126.46 158.52 126.16 155 125.71C153.7 125.54 152.39 125.37 151.09 125.17C149.73 124.96 148.73 124.24 148.15 122.98C147.56 121.71 146.9 120.47 146.4 119.17C144.96 115.4 143.01 111.86 141.32 108.2C140.61 106.65 140.06 106.44 139.12 107.03C136.88 108.44 136.61 109.08 137.75 110.61C140.16 113.86 142.34 117.27 143.76 121.07C145.17 124.83 145.98 128.81 145.7 132.79C145.33 138.04 142.5 141.98 137.89 144.55C135.17 146.07 132.22 146.83 129.1 147.07C126.52 147.27 123.97 147.8 121.65 147.79C124.26 147.39 127.1 146.76 129.72 145.43C133.58 143.47 137.23 141.18 140.33 138.11C143.92 134.56 144.93 130.36 143.35 125.6C141.99 121.51 139.74 117.87 137.15 114.45C137.05 114.32 136.94 114.2 136.83 114.1C136.47 113.77 136.14 113.12 135.58 113.45C134.94 113.82 135.51 114.37 135.64 114.83C137.22 120.38 139.12 125.85 140.18 131.54C140.35 132.44 140.13 133.36 140.31 134.28C139.78 132.42 139.23 130.56 138.74 128.69C137.24 122.89 134.93 117.35 133.41 111.56C133.04 110.14 132.97 108.73 133.04 107.29C133.06 106.94 133.02 106.53 133.44 106.37C133.85 106.22 134.13 106.52 134.36 106.78C134.9 107.42 135.37 108.28 136.34 108.06C137.5 107.8 138.4 107.04 139.08 106.05C139.46 105.48 139.38 104.88 139 104.37C137.38 102.24 135.73 100.14 134.08 98.03C133.65 97.48 133.1 97.5 132.61 97.93C132.13 98.35 131.63 98.79 131.3 99.32C129.91 101.53 127.83 101.75 125.54 101.45C123.37 101.17 123.13 101.3 122.49 103.43C121.58 106.47 120.23 109.23 117.73 111.3C117.23 111.71 116.69 112.04 116.08 112.25C114.41 112.83 112.94 112.23 112.25 110.59C111.84 109.6 111.58 108.54 111.23 107.53C110.82 106.36 110.15 106.05 109 106.54C107.67 107.11 106.66 108.06 105.96 109.32C105.36 110.4 105.64 111.28 106.85 111.88C108.03 112.47 109.26 112.95 110.48 113.44C111.53 113.86 112.49 114.41 113.36 115.13C114.59 116.13 114.82 118.58 113.82 119.78C113.47 120.2 113.18 119.94 112.89 119.76C111.9 119.15 110.94 118.51 109.94 117.92C109.29 117.54 108.62 117.16 107.91 116.9C106.11 116.22 104.86 116.56 103.66 118.06C102.89 119.02 102.23 120.08 101.48 121.07C99.84 123.27 98.15 123.49 96.13 121.68C95.35 120.98 94.74 120.96 93.94 121.55C92.56 122.58 91.16 123.56 89.75 124.55C88.42 125.48 88.15 126.8 88.17 128.33C88.23 132.64 85.64 136.08 81.5 137.27C80.66 137.51 79.78 137.59 78.91 137.7C77.96 137.82 77.26 138.29 76.82 139.11C75.66 141.29 75.16 143.59 75.78 146.04C76.25 147.91 77.79 149.2 79.72 149.37C81.08 149.48 82.36 148.7 82.87 147.27C83.43 145.69 83.88 144.08 84.31 142.46C84.61 141.33 85.04 140.26 85.59 139.24C85.97 138.54 86.38 137.71 87.31 137.76C88.31 137.81 88.57 138.75 88.88 139.53C89.06 139.97 89.17 140.44 89.3 140.9C90.43 144.7 92.17 146.06 96.1 145.81C99.49 145.59 102.57 144.45 105.03 141.97C105.49 141.51 105.87 141 105.92 140.32C105.99 139.4 105.45 138.95 104.58 139.23C103.98 139.43 103.41 139.75 102.81 139.97C102.03 140.25 101.43 140.03 101.29 139.16C101.02 137.5 101.23 135.89 102.12 134.44C102.68 133.53 103.61 133.45 104.57 133.7C106.19 134.14 107.44 135.67 107.63 137.47C108 141.07 106.88 144.1 104.05 146.4C101.68 148.33 98.98 149.55 95.9 149.85C93.06 150.13 90.42 148.22 89.47 145.14C89.22 144.34 89.01 143.52 88.53 142.82C87.79 141.74 86.91 141.7 86.13 142.75C85.15 144.07 84.76 145.61 84.61 147.22C84.58 147.54 84.61 147.86 84.61 148.18C84.56 150.18 83.93 150.8 81.91 150.86C77.14 151 75.95 148.81 75.25 144.58C74.92 142.59 74.79 140.63 75.98 138.79C76.45 138.06 75.84 137.9 75.25 137.91C74.21 137.92 73.21 138.3 71.86 138.15C73.4 137.72 74.68 137.32 75.98 137.01C77.14 136.73 77.6 136.02 77.68 134.88C77.73 134.13 77.52 134 76.89 134.3C75.92 134.77 74.96 135.28 73.98 135.71C73.36 135.98 72.64 136.3 72.06 135.76C71.43 135.17 71.21 134.33 71.18 133.47C71.16 132.96 71.6 132.83 71.98 132.71C72.78 132.46 73.6 132.26 74.38 131.96C75.62 131.49 76.69 130.83 76.73 129.14C77.78 130.03 77.86 131.17 78.1 132.21C78.26 132.91 78.33 133.63 78.36 134.34C78.41 135.32 78.88 135.37 79.63 135.03C84.25 132.99 87.12 129.59 87.41 124.45C87.54 122.09 88.63 120.57 90.46 119.37C91.06 118.98 91.68 118.61 92.31 118.27C93.52 117.61 94.65 116.89 95.14 115.39C95.78 115.92 95.84 116.64 96.15 117.21C97 118.78 98.25 119.21 99.72 118.19C102.6 116.2 104.52 113.62 104.75 109.93C104.95 106.73 106.86 104.46 109.36 102.72C111.12 101.5 112.08 102.02 112.49 104.1C112.64 104.84 112.73 105.61 112.99 106.31C113.36 107.31 114.05 107.96 115.24 107.92C117.32 107.86 120.56 105.3 120.97 103.28C121.13 102.5 121.15 101.7 121.21 100.9C121.42 97.76 121.71 94.64 121.13 91.48C120.83 89.81 120.82 88.06 120.84 86.35C120.87 84.22 120.14 82.46 118.7 80.94C117.36 79.53 115.8 78.43 114.08 77.55C113.03 77.01 112.67 77.21 112.69 78.37C112.73 80.28 112.86 82.2 112.95 84.11C113.15 88.03 112.54 91.83 111.2 95.5C110.06 98.61 108.11 101 104.78 101.94C102.53 102.57 100.44 102.11 99.5 100.12C99.18 99.45 98.68 99.41 98.13 99.82C96.69 100.9 95.24 101.96 93.85 103.1C93.1 103.71 92.94 104.67 92.77 105.58C92.41 107.5 92.07 109.42 91.71 111.34C90.62 117.12 87.27 120.93 81.69 122.8C80.1 123.33 78.47 123.72 76.82 124.01C75.19 124.3 73.55 124.19 71.9 124.22C75.34 123.7 78.42 122.31 81.3 120.4C87.08 116.56 90.39 111.12 91.77 104.41C91.87 103.9 92 103.4 92.08 102.89C92.51 100.19 93.85 98.16 96.3 96.85C97.5 96.21 98.59 95.39 99.58 94.45C100.09 93.96 100.49 94 100.7 94.73C100.71 94.77 100.73 94.8 100.74 94.84C101.21 96.26 101.64 97.88 103.45 97.95C105.47 98.03 107.4 97.46 108.96 96.04C109.45 95.59 109.64 94.96 109.74 94.32C110.5 89.05 110.82 83.77 109.64 78.51C109.49 77.86 109.53 77.16 109.54 76.48C109.55 74.8 108.88 73.47 107.56 72.45C107.47 72.38 107.38 72.29 107.27 72.23C100.97 68.54 94.82 64.54 87.89 62.07C85.35 61.17 82.75 60.32 80.06 59.88C79.28 59.75 78.43 59.53 78.16 60.5C77.88 61.47 78.63 62.01 79.43 62.25C81.42 62.86 82.51 64.23 82.84 66.19C83.3 68.9 82.58 71.35 80.81 73.45C79.69 74.78 78.94 74.74 77.77 73.43C77.28 72.88 76.99 72.24 76.89 71.5C76.78 70.65 76.36 70.58 75.77 71.09C74.11 72.5 74.34 74.32 76.29 75.19C78.71 76.27 80.91 76.32 82.97 74.23C84.98 72.18 87.02 70.14 89.43 68.52C90.23 67.98 91.06 67.57 92.17 67.37C91.39 68.9 90.28 69.94 89.02 70.74C86.07 72.62 83.46 74.9 80.96 77.33C80.06 78.21 79.06 78.93 77.75 79.04C76.91 79.11 76.6 79.62 76.47 80.35C76.37 80.94 76.25 81.53 76.15 82.11C75.96 83.22 76.17 83.43 77.24 82.97C78.66 82.36 80.04 81.67 81.55 80.95C81.59 81.66 81.15 81.87 80.83 82.07C76.25 84.93 71.74 87.6 65.91 87.4C59.49 87.18 53.62 85.44 48.1 82.46C44.88 80.72 42.4 78.11 41.3 74.44C41.06 73.65 41.19 72.85 41.15 72.06C41.08 70.81 40.58 70.42 39.38 70.72C34.26 71.99 29.23 73.55 24.35 75.56C22.95 76.14 22.75 76.62 23.32 78.06C24.89 81.99 27.76 84.85 31.13 87.24C37.67 91.89 45 94.72 52.89 95.79C58.69 96.58 64.57 96.94 70.45 96.36C74.78 95.93 78.94 94.88 82.73 92.65C83.12 92.42 83.76 92.28 83.6 91.68C83.44 91.05 82.8 91.15 82.29 91.12C81.89 91.1 81.49 91.1 81.1 91.01C79.14 90.54 78.55 89.38 79.35 87.52C81.25 83.11 84.85 80.59 89.14 78.88C91.04 78.12 93.01 77.64 95.09 77.68C96.8 77.71 97.34 78.31 97.06 80C96.99 80.46 96.79 80.91 96.6 81.35C96.23 82.24 95.77 82.59 94.81 81.86C93.44 80.82 91.83 80.95 90.21 81.24C87.78 81.68 85.5 82.45 83.42 83.78C82.89 84.12 82.4 84.56 81.98 85.03C81.3 85.8 81.48 86.52 82.44 86.9C83.07 87.15 83.74 87.29 84.43 87.27C84.91 87.27 85.39 87.24 85.87 87.28C87.72 87.45 88.35 88.38 87.73 90.14C86.88 92.56 85.19 94.24 82.98 95.48C79.54 97.41 75.89 98.8 72 99.47C70.37 99.75 69.46 100.54 69.03 102.12C68.43 104.35 67.32 106.41 67.02 108.74C66.43 113.23 69.68 115.39 73.46 114.76C77.68 114.06 80.79 111.59 83.02 107.97C83.37 107.4 83.38 106.76 83.37 106.12C83.37 105.28 82.93 104.87 82.13 104.81C81.81 104.78 81.49 104.81 81.17 104.81C79.18 104.89 78.82 104.53 79.06 102.55C79.24 101.15 79.71 99.81 80.53 98.66C81.91 96.71 84.04 97.01 84.76 98.73C85.14 99.63 85.84 99.68 86.65 99.31C88.38 98.52 89.92 97.48 91.2 96.06C92.64 94.47 92.71 92.9 91.39 91.21C91.13 90.88 90.89 90.38 90.38 90.49C89.83 90.61 89.77 91.2 89.68 91.65C89.54 92.34 89.61 93.07 89.11 93.91L89.14 93.97ZM66.9 58.32C69.22 58.32 70.82 58.36 72.42 58.3C73.09 58.28 74.04 58.71 74.38 57.9C74.7 57.16 73.89 56.62 73.43 56.1C72.73 55.32 72.61 54.49 72.99 53.55C73.33 52.72 73.79 52.61 74.38 53.36C75.22 54.43 75.97 55.57 76.47 56.84C77.06 58.32 78.08 59.06 79.66 59.36C89.35 61.22 98.42 64.75 106.98 69.62C107.08 69.68 107.19 69.74 107.3 69.78C108.23 70.17 108.56 69.98 108.57 68.97C108.59 67.69 108.19 66.44 108.16 65.18C108.11 63.1 107 61.87 105.31 60.96C104.04 60.28 102.8 59.56 101.53 58.89C95.92 55.91 90.28 53.01 84.24 50.98C79.53 49.4 74.7 48.43 69.79 47.71C63.29 46.77 56.8 46.13 50.27 47.31C44.05 48.43 38.11 50.34 32.86 54.01C28.74 56.89 25.1 60.18 23.36 65.1C22.61 67.22 22.08 69.39 22.26 71.66C22.37 73.06 22.76 73.28 23.99 72.68C26.47 71.47 29.03 70.45 31.62 69.52C34.88 68.34 38.07 66.94 41.57 66.55C42.58 66.44 43.36 65.92 44 65.15C46.46 62.19 49.73 60.63 53.38 59.75C58.06 58.61 62.8 58.06 66.9 58.32ZM69.97 59.05C68.26 59.05 66.53 58.93 64.83 59.08C62.34 59.29 59.81 59.43 57.41 60.26C54.57 61.25 51.8 62.39 49.68 64.64C48.8 65.57 48.91 66.01 50.12 66.38C51.3 66.74 52.5 67.06 53.69 67.37C60.07 69.04 66.11 71.65 72.32 73.81C73.26 74.14 73.89 74.11 74.38 73.13C75.04 71.81 75.79 70.54 76.51 69.25C76.97 68.43 77.21 67.55 77.24 66.62C77.27 65.84 77.12 65.1 76.3 64.71C75.12 64.15 72.96 65.15 72.16 66.61C71.56 67.7 71.86 68.46 73.3 69.42C73.89 69.82 74.23 70.22 73.88 71C73.2 72.49 72.06 72.65 71.05 71.36C70.5 70.66 70.27 69.87 70.54 69C71.38 66.23 72.94 63.98 75.39 62.39C76.38 61.75 76.5 60.94 75.7 60.05C75.13 59.42 74.36 59.14 73.57 59.09C72.38 59 71.19 58.76 69.99 59.06L69.97 59.05ZM150.28 86.66C150.22 86.07 150.12 85.47 150.1 84.88C150.03 81.19 149.22 77.67 147.48 74.42C143.73 67.37 138.2 61.77 132.47 56.35C132.24 56.13 131.92 55.89 131.61 56.06C131.27 56.25 131.27 56.67 131.29 57.03C131.49 60.01 131.7 62.99 131.9 65.98C131.99 67.37 132.6 68.46 133.66 69.38C134.65 70.24 135.7 71.07 136.45 72.17C140.17 77.61 143.96 83 146.57 89.1C146.92 89.91 147.36 90.67 147.92 91.35C148.56 92.13 148.9 92.1 149.26 91.21C149.85 89.76 150.11 88.23 150.26 86.67L150.28 86.66ZM70.54 84.24C72.04 84.3 73.5 84.14 74.94 83.75C75.41 83.62 75.89 83.45 75.63 82.89C74.7 80.88 73.99 78.76 71.55 77.87C65.66 75.73 59.76 73.64 53.77 71.8C51.95 71.24 50.16 70.49 48.21 70.48C47.1 70.47 46.63 70.89 46.73 71.99C46.83 73.15 47.12 74.26 47.76 75.27C48.99 77.22 50.72 78.66 52.74 79.65C58.35 82.39 64.29 83.96 70.54 84.25V84.24ZM185.77 128.64C186.38 128.64 187.06 128.55 187.13 127.81C187.2 127.15 186.49 127.06 186.01 126.95C184.76 126.69 183.5 126.52 182.25 126.26C178.93 125.58 175.65 124.76 172.3 124.22C168.2 123.56 164.07 123.28 159.96 122.78C157.71 122.51 155.71 121.71 154.66 119.42C153.95 117.86 153.15 116.34 152.56 114.72C151.02 110.46 148.86 106.51 146.82 102.49C146.61 102.07 146.31 101.68 146 101.32C145.63 100.9 145.18 100.9 144.71 101.2C143.59 101.92 143.35 103.07 144.11 104.18C144.87 105.3 145.68 106.4 146.4 107.54C149.07 111.74 151.1 116.24 152.76 120.92C153.4 122.71 154.58 123.77 156.49 124C158.31 124.22 160.12 124.52 161.94 124.68C167.74 125.2 173.45 126.33 179.19 127.29C181.39 127.66 183.57 128.17 185.78 128.63L185.77 128.64ZM133.59 87.83C133.3 89.66 133.66 91.4 135.52 92.56C135.71 92.68 135.83 92.92 135.98 93.11C137.97 95.71 139.96 98.31 141.96 100.91C142.24 101.28 142.49 101.76 143.09 101.63C144.34 101.36 145.19 99.44 144.49 98.36C142.16 94.73 140.06 90.95 137.35 87.57C136.62 86.66 135.88 85.78 135 85.02C134.7 84.77 134.39 84.62 134.01 84.72C133.55 84.84 133.6 85.26 133.59 85.61C133.57 86.29 133.59 86.97 133.59 87.82V87.83ZM111.49 68.11C111.49 68.7 111.42 69.15 111.5 69.57C111.74 70.84 111.69 72.25 112.93 73.1C114.83 74.41 116.74 75.71 118.68 76.98C119.59 77.58 119.97 77.39 120.06 76.31C120.18 74.91 119.85 73.54 119.65 72.16C119.52 71.22 119.03 70.56 118.26 70.04C116.77 69.05 115.3 68.01 113.8 67.03C113.19 66.63 112.54 65.81 111.83 66.15C111.05 66.53 111.64 67.53 111.48 68.09L111.49 68.11ZM130.89 85.51C130.73 83.95 130.57 82.29 130.37 80.63C130.33 80.29 130.16 79.92 129.94 79.66C128.28 77.77 126.34 76.17 124.43 74.55C124.06 74.24 123.43 74.08 123.29 74.78C122.91 76.75 123.15 78.72 123.51 80.67C123.55 80.88 123.75 81.09 123.92 81.24C125.76 82.94 127.61 84.64 129.48 86.31C129.76 86.56 130.11 86.92 130.52 86.68C130.89 86.46 130.91 86.01 130.89 85.5V85.51ZM128.29 97.05C128.44 97.02 128.68 96.98 128.91 96.95C130.91 96.69 131.37 96.11 130.54 94.27C129.3 91.52 127.34 89.24 125.11 87.22C124.8 86.94 124.41 86.54 123.95 86.76C123.46 86.99 123.45 87.54 123.47 88.02C123.54 89.61 123.64 91.2 123.7 92.79C123.81 95.63 125.36 97.11 128.27 97.05H128.29ZM129.95 72.11C130 70.92 129.51 69.95 128.69 69.13C128.32 68.77 127.96 68.4 127.57 68.05C126.29 66.92 125.01 65.77 123.69 64.68C123.22 64.29 122.39 63.98 122.36 64.91C122.31 66.44 122.4 68.04 123.75 69.17C125.25 70.42 126.74 71.68 128.25 72.92C128.63 73.23 129.03 73.73 129.6 73.42C130.11 73.14 129.9 72.57 129.95 72.11ZM132.84 75.78C132.84 76.14 132.82 76.52 133.05 76.82C134.83 79.07 137.02 80.95 138.89 83.12C139.04 83.3 139.32 83.36 139.55 83.2C139.81 83.01 139.65 82.75 139.55 82.56C139.31 82.1 139.05 81.65 138.79 81.21C137.54 79.12 136.16 77.11 134.47 75.35C134.15 75.02 133.76 74.61 133.24 74.76C132.76 74.9 132.87 75.4 132.85 75.79L132.84 75.78ZM79.33 69.95C79.28 70.82 79.55 71.46 80.55 71.49C81.35 71.51 82.03 70.65 81.89 69.58C81.8 68.85 81.82 67.86 80.76 67.73C80.07 67.65 79.33 68.87 79.33 69.94V69.95ZM77.91 68.04C77.89 68.49 77.98 68.92 78.21 69.29C78.38 69.58 78.68 69.69 78.84 69.32C79.21 68.45 79.75 67.65 79.89 66.69C79.95 66.31 79.88 65.96 79.47 65.82C79.09 65.69 78.77 65.85 78.53 66.16C78.1 66.71 77.96 67.37 77.92 68.05L77.91 68.04Z" fill="#265073"/>
<path d="M107.47 125.51C108.26 126.51 108.54 127.56 109.01 128.51C109.85 130.23 110.66 131.97 111.51 133.68C111.7 134.06 111.94 134.56 112.44 134.49C113.04 134.41 113.02 133.8 113.1 133.35C113.23 132.6 113.01 131.76 113.76 131C114.37 132.58 114.57 134.07 114.18 135.61C113.73 137.35 114.01 138.13 115.48 139.19C116.82 140.15 118.32 140.62 119.95 140.71C121.82 140.81 122.79 139.94 123.09 137.92C123.38 137.88 123.39 138.11 123.43 138.28C123.74 139.76 124.29 139.95 125.52 139.03C126.58 138.23 126.72 137.04 126.9 135.75C127.35 136.43 127.12 137.58 128.19 137.45C129.24 137.32 129.62 136.43 129.77 135.46C129.84 135 129.92 134.55 130.01 134.01C131.05 135.53 131.85 135.46 132.82 133.89C133.33 133.06 133.39 132.16 133.24 131.23C132.55 127.09 130.52 123.51 128.5 119.93C128.31 119.59 128.01 119.16 127.57 119.35C127.09 119.55 127.16 120.05 127.28 120.5C127.88 122.77 128.45 125.05 129.07 127.32C129.22 127.87 129.24 128.4 129.11 128.97C127.88 125.71 126.57 122.47 125.89 119.05C125.44 116.79 125.23 114.48 124.92 112.19C124.89 111.95 124.9 111.71 124.92 111.47C124.95 111.1 125.03 110.73 125.46 110.64C125.83 110.56 126.08 110.82 126.24 111.09C126.66 111.77 127.04 112.47 127.42 113.17C129.48 117 131.89 120.65 133.2 124.84C134.06 127.6 134.55 130.4 134.1 133.32C133.56 136.79 131.7 139.4 128.9 141.32C126.13 143.22 123.25 144.99 119.64 144.67C118.16 144.54 116.84 144.08 115.79 142.97C115.63 142.8 115.45 142.63 115.26 142.49C114.32 141.78 114.05 141.88 113.8 143.02C113.58 144.03 113.43 145.06 113.16 146.06C112.5 148.53 111.07 150.34 108.53 151.11C106.01 151.87 103.47 152.55 100.8 152.57C100.04 152.57 99.33 152.38 98.42 152.26C103.85 151.52 107.86 148.74 111 144.68C112.84 142.3 113.26 139.71 111.62 136.89C110.22 134.48 109.14 131.88 107.91 129.38C107.32 128.19 107.28 126.97 107.47 125.51Z" fill="#265073"/>
<path d="M188.27 65.6C188.88 68.08 189.11 70.48 187.33 72.6C186.36 73.76 185.27 74.82 184.99 76.43C184.78 77.65 185.05 78.83 185.22 80C185.61 82.66 185.66 85.32 185.63 87.99C185.58 92.86 180.61 96.34 175.56 93.8C172.26 92.14 170.33 89.31 169.56 85.71C169.32 84.61 168.89 83.61 168.39 82.6C167.19 80.19 167.44 77.63 168 75.12C168.68 72.1 170.58 69.75 172.5 67.45C174.69 64.84 177.36 62.72 179.85 60.41C182.63 57.84 185.05 54.99 186.67 51.54C186.81 51.25 186.95 50.97 187.07 50.67C187.22 50.31 187.48 49.88 187.11 49.57C186.7 49.23 186.28 49.52 185.92 49.79C185.12 50.38 184.31 50.98 183.38 51.37C182.84 51.6 182.52 51.51 182.34 50.86C181.75 48.77 182.29 47.58 184.28 46.83C185.63 46.32 186.77 45.59 187.59 44.38C187.74 44.16 187.83 43.79 188.17 43.87C188.58 43.96 188.5 44.37 188.51 44.67C188.68 48.02 187.64 51.05 185.94 53.87C183.43 58.04 179.88 61.26 176.26 64.41C173.33 66.96 170.42 69.52 169.24 73.45C168.67 75.35 168.64 77.3 168.46 79.24C168.42 79.62 168.54 79.99 168.97 80.08C169.42 80.17 169.62 79.81 169.73 79.47C169.93 78.87 170.08 78.25 170.25 77.63C170.43 76.93 170.71 76.27 171.16 75.69C171.97 74.66 172.98 73.89 174.34 74.22C175.73 74.55 176.3 75.78 176.44 77.02C176.72 79.54 175.98 81.85 174.44 83.85C173.61 84.93 172.43 85.4 171.04 85.08C170.06 84.86 169.9 85.25 170.17 86.1C170.92 88.45 173.84 90.78 176.24 90.94C179.7 91.17 181.71 90.06 183.06 87.06C184.43 84.02 184.48 80.78 184.28 77.55C184.18 75.91 184.14 74.28 184.15 72.65C184.15 71.85 184.56 71.2 185 70.58C185.35 70.09 185.76 69.66 186.14 69.19C187.01 68.11 188.09 67.16 188.26 65.61L188.27 65.6ZM171.78 81.5C173.31 81.49 174.58 80.62 174.56 79.66C174.55 78.84 173.5 78.03 172.49 78.06C171.36 78.09 170.24 79.23 170.26 80.31C170.28 81.42 171.15 81.35 171.78 81.51V81.5Z" fill="#265073"/>
<path d="M202.58 90.21C202.04 89.77 201.52 89.85 200.96 89.99C198.23 90.68 196.36 89.96 194.78 87.6C193.51 85.7 192.76 83.53 191.86 81.45C190.86 79.12 189.46 76.93 189.08 74.35C189.02 73.97 188.83 73.6 189.12 73.16C189.8 73.75 190.09 74.54 190.41 75.3C191.26 77.32 192.02 79.38 192.94 81.37C193.93 83.53 195.08 85.59 197.67 86.24C199.75 86.77 200.77 85.85 200.36 83.76C200.07 82.28 199.8 80.79 199.55 79.3C199.41 78.45 199.61 77.61 200.02 76.88C200.49 76.03 201.23 75.67 202.24 75.95C203.02 76.17 203.74 76.5 204.45 76.86C205.57 77.42 206.69 77.85 208 77.53C208.95 77.29 209.43 77.63 209.47 78.76C209.53 80.33 209.13 81.52 207.77 82.43C206.6 83.21 205.74 84.32 205.02 85.55C204.5 86.44 203.95 87.33 203.18 88.04C202.55 88.62 202.18 89.27 202.58 90.22V90.21ZM201.57 80.11C200.99 80.07 200.57 80.54 200.49 81.38C200.4 82.31 200.62 83.18 200.92 84.05C201.2 84.88 201.63 84.85 202.27 84.46C203.22 83.88 203.8 82.99 204.39 82.09C204.61 81.75 204.61 81.4 204.25 81.15C203.53 80.66 202.81 80.16 201.57 80.1V80.11Z" fill="#265073"/>
<path d="M77.08 104.14C76.58 105.51 75.92 106.73 75.06 107.83C74.06 109.1 71.52 109.88 70.08 109.49C69.4 109.31 69.12 108.96 69.24 108.3C69.35 107.72 69.51 107.14 69.65 106.56C69.85 105.78 70.33 105.44 71.15 105.55C73.29 105.82 75.26 105.38 77.08 104.14Z" fill="#265073"/>
<path d="M184.13 64.28C184.79 63.69 185.38 63.56 185.92 63.33C187.56 62.63 188.97 61.6 190.17 60.3C190.36 60.09 190.57 59.87 190.47 59.57C190.35 59.22 190.01 59.33 189.75 59.31C187.35 59.12 186.94 58.37 188.14 56.25C188.9 54.91 189.96 53.84 191.2 52.94C191.4 52.79 191.65 52.49 191.93 52.74C192.2 52.98 191.93 53.27 191.83 53.5C191.4 54.49 190.6 55.15 189.75 55.76C189.42 56 189.04 56.24 189.19 56.71C189.35 57.19 189.81 57.12 190.21 57.13C190.49 57.13 190.77 57.16 191.05 57.13C192.64 56.94 193.14 57.39 192.29 59.19C191.98 59.84 191.47 60.37 190.93 60.85C189.97 61.7 185.71 63.9 184.12 64.3L184.13 64.28Z" fill="#265073"/>
<path d="M98.16 131.28C99.35 134.44 99.02 136.8 96.81 137.97C95.2 138.82 94.43 138.55 93.91 136.83C93.38 135.09 93.37 135.05 95.07 134.4C96.52 133.85 97.35 132.72 98.16 131.28Z" fill="#265073"/>
<path d="M116.78 130.96C116.54 128.66 116.18 126.39 116.63 124.14C117.02 122.18 118.1 121.32 119.66 121.34C120.58 121.35 121.08 121.79 121.24 122.64C121.31 123.03 121.3 123.43 121.31 123.83C121.317 124.997 120.76 125.48 119.64 125.28C118.35 125.06 117.18 126.07 117.02 127.62C116.9 128.73 116.86 129.84 116.78 130.96Z" fill="#265073"/>
<path d="M199.69 69.16C199.53 68.36 199.4 67.49 199.18 66.65C199.02 66.02 198.98 65.38 199.05 64.75C199.16 63.76 200.17 63.1 201.06 63.4C201.55 63.56 201.87 63.9 201.92 64.44C201.96 64.98 201.64 65.18 201.17 65.35C199.6 65.89 199.62 65.92 199.94 67.57C200.16 68.7 200.52 69.83 200.04 70.98C199.81 71.55 199.55 72.15 198.85 72.17C198.2 72.19 197.92 71.63 197.67 71.12C197.38 70.55 197.13 69.97 196.82 69.41C196.43 68.69 195.9 68.18 194.99 68.5C194.65 68.62 194.37 68.62 194.2 68.23C194.04 67.88 193.99 67.56 194.2 67.2C194.4 66.85 194.69 66.67 195.09 66.74C195.92 66.89 196.56 67.33 196.99 68.06C197.34 68.64 197.65 69.25 198.03 69.8C198.27 70.15 198.58 70.6 199.08 70.43C199.6 70.25 199.61 69.69 199.71 69.15L199.69 69.16Z" fill="#265073"/>
<path d="M118.51 91.7C118.96 94.67 117.08 97.54 114.56 98.01C113.64 98.18 113.19 97.8 113.22 96.88C113.29 94.91 113.61 94.42 115.5 93.83C116.69 93.46 117.52 92.61 118.51 91.7Z" fill="#265073"/>
<path d="M104.76 83.71C104.78 85.61 104.36 87.24 103.15 88.63C102.77 89.06 102.28 89.34 101.73 89.47C99.84 89.95 99.44 89.47 99.59 87.54C99.69 86.18 100.08 85.59 101.53 85.53C102.9 85.47 103 85.24 104.76 83.7V83.71Z" fill="#265073"/>
<path d="M91.06 128.6C91.06 126.75 91.19 126.56 93.02 125.86C93.76 125.58 94.22 124.95 94.84 124.52C95.02 124.4 95.18 124.09 95.43 124.33C95.55 124.45 95.63 124.7 95.61 124.87C95.39 126.78 95.25 128.75 93.17 129.72C92.62 129.98 92.09 130.64 91.46 130.27C90.89 129.94 91.08 129.19 91.06 128.6Z" fill="#265073"/>
<path d="M208.42 85.9C209.76 85.91 210.81 86.58 210.78 87.41C210.73 88.9 209.99 90.36 209.28 90.37C207.77 90.39 206.56 89.81 206.59 89.09C206.67 87.31 207.49 85.89 208.42 85.9Z" fill="#265073"/>
<path d="M99.84 106.69C100.16 107.33 100.27 108.05 101 107.91C102.24 107.66 101.87 106.38 102.3 105.55C103.07 107.22 102.09 109.48 100.44 109.87C99.76 110.03 99.19 110.33 98.67 110.79C97.75 111.61 96.93 111.43 96.37 110.33C95.97 109.55 95.98 108.63 96.46 107.58C96.9 108.31 96.82 109.59 98.03 109.33C99.29 109.06 99.46 107.86 99.83 106.68L99.84 106.69Z" fill="#265073"/>
<path d="M87.24 106.51C88.32 106.49 89.07 107.37 88.75 108.31C88.41 109.32 87.99 110.31 87.35 111.18C87.23 111.34 87.1 111.49 86.95 111.62C86.72 111.81 86.4 111.73 86.34 111.51C86.08 110.55 84.41 110.4 84.72 109.48C85 108.63 85.6 107.73 86.26 106.99C86.54 106.68 86.87 106.48 87.23 106.51H87.24Z" fill="#265073"/>
<path d="M180.26 71.34C179.94 71.05 179.62 70.76 179.31 70.46C178.88 70.04 177.93 69.93 178.11 69.15C178.37 68.03 178.85 66.94 179.73 66.15C180.18 65.75 180.73 66.12 181.16 66.39C181.72 66.76 182.07 67.26 181.91 68C181.76 68.7 180.96 70.36 180.25 71.33L180.26 71.34Z" fill="#265073"/>
<path d="M82.93 127.18C82.95 128.01 81.62 130.08 81.07 130.13C80.36 130.19 80.02 129.51 79.51 129.16C79.11 128.88 78.95 128.48 79.17 128.01C79.57 127.14 80.07 126.33 80.67 125.58C81.06 125.09 81.5 125.18 81.92 125.54C82.48 126.02 82.89 126.59 82.93 127.19V127.18Z" fill="#265073"/>
<path d="M192.12 73.74C193.22 72.54 194.64 71.66 195.32 70.11C194.88 71.87 193.69 72.98 192.12 73.74Z" fill="#265073"/>
<path d="M203.1 60.81C202.68 60.35 202.25 59.89 201.83 59.42C201.66 59.23 201.33 58.97 201.58 58.73C201.92 58.41 202.14 58.84 202.32 59.05C202.73 59.52 203.07 60.05 203.1 60.8V60.81Z" fill="#265073"/>
</g>
<defs>
<clipPath id="clip0_2794_25390">
<rect width="211" height="153" fill="white"/>
</clipPath>
</defs>
</svg>
