<svg width="495" height="153" viewBox="0 0 495 153" fill="none" xmlns="http://www.w3.org/2000/svg">
<g clip-path="url(#clip0_4268_21501)">
<path d="M373.14 93.97C372.79 92.95 372.84 92.11 373 91.31C373.33 89.71 373.66 88.11 373.64 86.46C373.64 85.85 373.74 85.17 374.33 84.9C375.01 84.58 375.42 85.24 375.83 85.63C377.7 87.39 378.38 89.65 377.88 92.08C377.16 95.61 375.63 98.81 373.16 101.5C372.56 102.15 371.9 102.69 371.07 103.06C369.63 103.69 368.93 104.94 368.64 106.42C367.9 110.18 365.84 113.18 363.14 115.73C360.92 117.83 358.36 119.31 355.08 119.04C352.69 118.84 351.23 117.76 350.6 115.43C349.56 111.58 350.36 107.92 351.88 104.36C352.3 103.37 352.74 102.38 353.23 101.42C353.67 100.57 353.32 100.25 352.52 100.15C351.72 100.04 350.93 100.25 350.13 100.27C342.13 100.46 334.15 100.32 326.37 98.13C319.36 96.16 312.94 93.06 307.47 88.15C305.23 86.15 303.46 83.83 302 81.23C300.97 79.4 300.68 79.34 298.83 80.37C293.67 83.25 289.14 86.99 284.69 90.83C284.48 91.01 284.28 91.21 284.07 91.39C284.02 91.43 283.92 91.43 283.74 91.48C283.96 90.84 284.4 90.44 284.8 90.03C289.24 85.47 293.95 81.22 299.33 77.77C300.22 77.2 300.56 76.5 300.47 75.48C300.04 70.34 301.17 65.56 303.96 61.21C306.67 56.99 310.52 54.05 314.85 51.68C320.18 48.77 325.96 47.33 331.94 46.54C334.8 46.16 337.67 45.99 340.53 45.92C343.63 45.84 346.75 46.13 349.85 46.4C357.45 47.06 364.72 49.23 371.99 51.36C375.74 52.46 379.35 53.99 382.88 55.71C383.65 56.08 384.62 56.89 385.27 56.37C385.97 55.82 385.1 54.86 384.88 54.09C384.6 53.09 384.54 52.12 384.93 51.16C385.37 50.09 385.82 49.02 386.29 47.97C386.61 47.27 387.02 47.21 387.53 47.84C388.67 49.23 388.78 50.57 387.86 52.15C387.66 52.49 387.46 52.85 387.31 53.21C386.83 54.39 387.01 55.01 388.16 55.56C388.81 55.88 389.54 56.69 390.19 56.25C390.94 55.74 390.39 54.77 390.27 54.02C388.72 44.77 386.38 35.7 383.88 26.66C383.45 25.1 382.6 23.64 382.71 21.93C382.82 20.19 383.8 18.96 384.98 17.86C385.53 17.34 385.71 17.91 385.87 18.32C386.6 20.31 387.03 22.38 387.52 24.44C389.82 34.22 391.54 44.11 393.31 54C393.57 55.45 393.79 56.91 394.06 58.36C394.19 59.09 394.54 59.71 395.19 60.12C397.22 61.4 399.23 62.69 401.26 63.97C401.58 64.17 401.93 64.48 402.35 64.19C402.75 63.91 402.63 63.47 402.62 63.09C402.57 61.12 402.02 59.42 400.11 58.43C399.66 58.2 399.31 57.76 398.86 57.5C394.99 55.28 394.36 51.33 393.55 47.51C393.32 46.45 393.57 45.36 394.08 44.37C394.85 42.88 395.62 41.39 396.4 39.91C396.52 39.68 396.65 39.36 396.99 39.39C397.32 39.43 397.38 39.76 397.48 40.01C398.21 41.83 398.52 43.59 397.06 45.28C396.41 46.03 396.02 46.97 395.66 47.91C395.26 48.96 395.52 49.79 396.31 50.5C397.44 51.51 398.78 52.27 399.82 53.39C400 53.59 400.29 53.76 400.58 53.64C400.99 53.47 400.95 53.07 400.96 52.71C400.98 50.57 400.43 48.52 399.99 46.46C398.48 39.33 397.51 32.09 395.66 25.03C394.64 21.14 393.78 17.2 392.38 13.41C392.12 12.71 392.12 12.02 392.49 11.34C392.91 10.57 393.3 9.77998 393.7 8.99998C393.84 8.71998 393.93 8.32998 394.32 8.36998C394.72 8.40998 394.7 8.82998 394.79 9.11998C395.88 13.08 397.04 17.02 398.03 21.01C399.77 28.01 401.51 35.02 403.01 42.07C403.54 44.54 403.67 47.12 404.11 49.62C404.46 51.62 404.8 53.62 404.84 55.66C404.86 56.91 405.5 57.85 406.48 58.58C408.21 59.87 410 61.08 411.5 62.65C411.8 62.96 412.19 63.31 412.66 63.11C413.18 62.88 412.98 62.33 412.95 61.93C412.78 59.15 412.43 56.38 411.95 53.63C411.71 52.24 410.84 51.18 409.59 50.46C408.76 49.98 407.94 49.48 407.14 48.95C406.26 48.36 405.55 47.6 405.25 46.55C404.7 44.67 403.96 42.86 403.83 40.83C403.64 37.8 404.93 35.33 406.41 32.89C406.76 32.31 407.02 32.57 407.23 33.02C407.84 34.32 407.91 35.63 407.28 36.95C406.68 38.21 406.09 39.48 405.52 40.75C405.08 41.72 405.24 42.5 406.21 43.1C407.26 43.76 408.24 44.52 409.26 45.21C409.58 45.42 409.93 45.8 410.33 45.6C410.76 45.38 410.58 44.88 410.56 44.51C410.45 42.23 409.91 40.02 409.5 37.79C407.4 26.49 404.48 15.39 401.4 4.31998C400.92 2.60998 401.63 1.44998 402.68 0.349982C403.25 -0.250018 403.83 -0.0400177 404.23 0.659982C404.67 1.43998 404.82 2.30998 405.04 3.14998C407.7 13.21 409.87 23.39 411.69 33.63C412.48 38.1 413.07 42.6 413.69 47.1C413.91 48.66 414.74 49.71 415.99 50.56C420.67 53.71 424.71 57.55 428.27 61.91C432.57 67.2 435.32 73.21 436.41 79.92C436.84 82.57 436.63 85.26 435.73 87.85C435.31 89.06 434.98 90.3 434.44 91.46C433.42 93.65 433.55 95.76 434.54 97.91C437.18 103.68 439.77 109.48 442.38 115.26C443.04 116.71 443.73 118.16 444.41 119.6C444.9 120.64 445.7 121.14 446.88 121.15C453.28 121.18 459.59 122.19 465.9 123.15C469.17 123.65 472.43 124.2 475.7 124.73C475.96 124.77 476.33 124.64 476.41 125C476.48 125.31 476.16 125.48 475.95 125.65C474.11 127.13 472.3 128.63 470.41 130.05C468.97 131.13 467.27 130.98 465.68 130.58C460.34 129.26 454.96 128.08 449.55 127.09C446.07 126.46 442.52 126.16 439 125.71C437.7 125.54 436.39 125.37 435.09 125.17C433.73 124.96 432.73 124.24 432.15 122.98C431.56 121.71 430.9 120.47 430.4 119.17C428.96 115.4 427.01 111.86 425.32 108.2C424.61 106.65 424.06 106.44 423.12 107.03C420.88 108.44 420.61 109.08 421.75 110.61C424.16 113.86 426.34 117.27 427.76 121.07C429.17 124.83 429.98 128.81 429.7 132.79C429.33 138.04 426.5 141.98 421.89 144.55C419.17 146.07 416.22 146.83 413.1 147.07C410.52 147.27 407.97 147.8 405.65 147.79C408.26 147.39 411.1 146.76 413.72 145.43C417.58 143.47 421.23 141.18 424.33 138.11C427.92 134.56 428.93 130.36 427.35 125.6C425.99 121.51 423.74 117.87 421.15 114.45C421.05 114.32 420.94 114.2 420.83 114.1C420.47 113.77 420.14 113.12 419.58 113.45C418.94 113.82 419.51 114.37 419.64 114.83C421.22 120.38 423.12 125.85 424.18 131.54C424.35 132.44 424.13 133.36 424.31 134.28C423.78 132.42 423.23 130.56 422.74 128.69C421.24 122.89 418.93 117.35 417.41 111.56C417.04 110.14 416.97 108.73 417.04 107.29C417.06 106.94 417.02 106.53 417.44 106.37C417.85 106.22 418.13 106.52 418.36 106.78C418.9 107.42 419.37 108.28 420.34 108.06C421.5 107.8 422.4 107.04 423.08 106.05C423.46 105.48 423.38 104.88 423 104.37C421.38 102.24 419.73 100.14 418.08 98.03C417.65 97.48 417.1 97.5 416.61 97.93C416.13 98.35 415.63 98.79 415.3 99.32C413.91 101.53 411.83 101.75 409.54 101.45C407.37 101.17 407.13 101.3 406.49 103.43C405.58 106.47 404.23 109.23 401.73 111.3C401.23 111.71 400.69 112.04 400.08 112.25C398.41 112.83 396.94 112.23 396.25 110.59C395.84 109.6 395.58 108.54 395.23 107.53C394.82 106.36 394.15 106.05 393 106.54C391.67 107.11 390.66 108.06 389.96 109.32C389.36 110.4 389.64 111.28 390.85 111.88C392.03 112.47 393.26 112.95 394.48 113.44C395.53 113.86 396.49 114.41 397.36 115.13C398.59 116.13 398.82 118.58 397.82 119.78C397.47 120.2 397.18 119.94 396.89 119.76C395.9 119.15 394.94 118.51 393.94 117.92C393.29 117.54 392.62 117.16 391.91 116.9C390.11 116.22 388.86 116.56 387.66 118.06C386.89 119.02 386.23 120.08 385.48 121.07C383.84 123.27 382.15 123.49 380.13 121.68C379.35 120.98 378.74 120.96 377.94 121.55C376.56 122.58 375.16 123.56 373.75 124.55C372.42 125.48 372.15 126.8 372.17 128.33C372.23 132.64 369.64 136.08 365.5 137.27C364.66 137.51 363.78 137.59 362.91 137.7C361.96 137.82 361.26 138.29 360.82 139.11C359.66 141.29 359.16 143.59 359.78 146.04C360.25 147.91 361.79 149.2 363.72 149.37C365.08 149.48 366.36 148.7 366.87 147.27C367.43 145.69 367.88 144.08 368.31 142.46C368.61 141.33 369.04 140.26 369.59 139.24C369.97 138.54 370.38 137.71 371.31 137.76C372.31 137.81 372.57 138.75 372.88 139.53C373.06 139.97 373.17 140.44 373.3 140.9C374.43 144.7 376.17 146.06 380.1 145.81C383.49 145.59 386.57 144.45 389.03 141.97C389.49 141.51 389.87 141 389.92 140.32C389.99 139.4 389.45 138.95 388.58 139.23C387.98 139.43 387.41 139.75 386.81 139.97C386.03 140.25 385.43 140.03 385.29 139.16C385.02 137.5 385.23 135.89 386.12 134.44C386.68 133.53 387.61 133.45 388.57 133.7C390.19 134.14 391.44 135.67 391.63 137.47C392 141.07 390.88 144.1 388.05 146.4C385.68 148.33 382.98 149.55 379.9 149.85C377.06 150.13 374.42 148.22 373.47 145.14C373.22 144.34 373.01 143.52 372.53 142.82C371.79 141.74 370.91 141.7 370.13 142.75C369.15 144.07 368.76 145.61 368.61 147.22C368.58 147.54 368.61 147.86 368.61 148.18C368.56 150.18 367.93 150.8 365.91 150.86C361.14 151 359.95 148.81 359.25 144.58C358.92 142.59 358.79 140.63 359.98 138.79C360.45 138.06 359.84 137.9 359.25 137.91C358.21 137.92 357.21 138.3 355.86 138.15C357.4 137.72 358.68 137.32 359.98 137.01C361.14 136.73 361.6 136.02 361.68 134.88C361.73 134.13 361.52 134 360.89 134.3C359.92 134.77 358.96 135.28 357.98 135.71C357.36 135.98 356.64 136.3 356.06 135.76C355.43 135.17 355.21 134.33 355.18 133.47C355.16 132.96 355.6 132.83 355.98 132.71C356.78 132.46 357.6 132.26 358.38 131.96C359.62 131.49 360.69 130.83 360.73 129.14C361.78 130.03 361.86 131.17 362.1 132.21C362.26 132.91 362.33 133.63 362.36 134.34C362.41 135.32 362.88 135.37 363.63 135.03C368.25 132.99 371.12 129.59 371.41 124.45C371.54 122.09 372.63 120.57 374.46 119.37C375.06 118.98 375.68 118.61 376.31 118.27C377.52 117.61 378.65 116.89 379.14 115.39C379.78 115.92 379.84 116.64 380.15 117.21C381 118.78 382.25 119.21 383.72 118.19C386.6 116.2 388.52 113.62 388.75 109.93C388.95 106.73 390.86 104.46 393.36 102.72C395.12 101.5 396.08 102.02 396.49 104.1C396.64 104.84 396.73 105.61 396.99 106.31C397.36 107.31 398.05 107.96 399.24 107.92C401.32 107.86 404.56 105.3 404.97 103.28C405.13 102.5 405.15 101.7 405.21 100.9C405.42 97.76 405.71 94.64 405.13 91.48C404.83 89.81 404.82 88.06 404.84 86.35C404.87 84.22 404.14 82.46 402.7 80.94C401.36 79.53 399.8 78.43 398.08 77.55C397.03 77.01 396.67 77.21 396.69 78.37C396.73 80.28 396.86 82.2 396.95 84.11C397.15 88.03 396.54 91.83 395.2 95.5C394.06 98.61 392.11 101 388.78 101.94C386.53 102.57 384.44 102.11 383.5 100.12C383.18 99.45 382.68 99.41 382.13 99.82C380.69 100.9 379.24 101.96 377.85 103.1C377.1 103.71 376.94 104.67 376.77 105.58C376.41 107.5 376.07 109.42 375.71 111.34C374.62 117.12 371.27 120.93 365.69 122.8C364.1 123.33 362.47 123.72 360.82 124.01C359.19 124.3 357.55 124.19 355.9 124.22C359.34 123.7 362.42 122.31 365.3 120.4C371.08 116.56 374.39 111.12 375.77 104.41C375.87 103.9 376 103.4 376.08 102.89C376.51 100.19 377.85 98.16 380.3 96.85C381.5 96.21 382.59 95.39 383.58 94.45C384.09 93.96 384.49 94 384.7 94.73C384.71 94.77 384.73 94.8 384.74 94.84C385.21 96.26 385.64 97.88 387.45 97.95C389.47 98.03 391.4 97.46 392.96 96.04C393.45 95.59 393.64 94.96 393.74 94.32C394.5 89.05 394.82 83.77 393.64 78.51C393.49 77.86 393.53 77.16 393.54 76.48C393.55 74.8 392.88 73.47 391.56 72.45C391.47 72.38 391.38 72.29 391.27 72.23C384.97 68.54 378.82 64.54 371.89 62.07C369.35 61.17 366.75 60.32 364.06 59.88C363.28 59.75 362.43 59.53 362.16 60.5C361.88 61.47 362.63 62.01 363.43 62.25C365.42 62.86 366.51 64.23 366.84 66.19C367.3 68.9 366.58 71.35 364.81 73.45C363.69 74.78 362.94 74.74 361.77 73.43C361.28 72.88 360.99 72.24 360.89 71.5C360.78 70.65 360.36 70.58 359.77 71.09C358.11 72.5 358.34 74.32 360.29 75.19C362.71 76.27 364.91 76.32 366.97 74.23C368.98 72.18 371.02 70.14 373.43 68.52C374.23 67.98 375.06 67.57 376.17 67.37C375.39 68.9 374.28 69.94 373.02 70.74C370.07 72.62 367.46 74.9 364.96 77.33C364.06 78.21 363.06 78.93 361.75 79.04C360.91 79.11 360.6 79.62 360.47 80.35C360.37 80.94 360.25 81.53 360.15 82.11C359.96 83.22 360.17 83.43 361.24 82.97C362.66 82.36 364.04 81.67 365.55 80.95C365.59 81.66 365.15 81.87 364.83 82.07C360.25 84.93 355.74 87.6 349.91 87.4C343.49 87.18 337.62 85.44 332.1 82.46C328.88 80.72 326.4 78.11 325.3 74.44C325.06 73.65 325.19 72.85 325.15 72.06C325.08 70.81 324.58 70.42 323.38 70.72C318.26 71.99 313.23 73.55 308.35 75.56C306.95 76.14 306.75 76.62 307.32 78.06C308.89 81.99 311.76 84.85 315.13 87.24C321.67 91.89 329 94.72 336.89 95.79C342.69 96.58 348.57 96.94 354.45 96.36C358.78 95.93 362.94 94.88 366.73 92.65C367.12 92.42 367.76 92.28 367.6 91.68C367.44 91.05 366.8 91.15 366.29 91.12C365.89 91.1 365.49 91.1 365.1 91.01C363.14 90.54 362.55 89.38 363.35 87.52C365.25 83.11 368.85 80.59 373.14 78.88C375.04 78.12 377.01 77.64 379.09 77.68C380.8 77.71 381.34 78.31 381.06 80C380.99 80.46 380.79 80.91 380.6 81.35C380.23 82.24 379.77 82.59 378.81 81.86C377.44 80.82 375.83 80.95 374.21 81.24C371.78 81.68 369.5 82.45 367.42 83.78C366.89 84.12 366.4 84.56 365.98 85.03C365.3 85.8 365.48 86.52 366.44 86.9C367.07 87.15 367.74 87.29 368.43 87.27C368.91 87.27 369.39 87.24 369.87 87.28C371.72 87.45 372.35 88.38 371.73 90.14C370.88 92.56 369.19 94.24 366.98 95.48C363.54 97.41 359.89 98.8 356 99.47C354.37 99.75 353.46 100.54 353.03 102.12C352.43 104.35 351.32 106.41 351.02 108.74C350.43 113.23 353.68 115.39 357.46 114.76C361.68 114.06 364.79 111.59 367.02 107.97C367.37 107.4 367.38 106.76 367.37 106.12C367.37 105.28 366.93 104.87 366.13 104.81C365.81 104.78 365.49 104.81 365.17 104.81C363.18 104.89 362.82 104.53 363.06 102.55C363.24 101.15 363.71 99.81 364.53 98.66C365.91 96.71 368.04 97.01 368.76 98.73C369.14 99.63 369.84 99.68 370.65 99.31C372.38 98.52 373.92 97.48 375.2 96.06C376.64 94.47 376.71 92.9 375.39 91.21C375.13 90.88 374.89 90.38 374.38 90.49C373.83 90.61 373.77 91.2 373.68 91.65C373.54 92.34 373.61 93.07 373.11 93.91L373.14 93.97ZM350.9 58.32C353.22 58.32 354.82 58.36 356.42 58.3C357.09 58.28 358.04 58.71 358.38 57.9C358.7 57.16 357.89 56.62 357.43 56.1C356.73 55.32 356.61 54.49 356.99 53.55C357.33 52.72 357.79 52.61 358.38 53.36C359.22 54.43 359.97 55.57 360.47 56.84C361.06 58.32 362.08 59.06 363.66 59.36C373.35 61.22 382.42 64.75 390.98 69.62C391.08 69.68 391.19 69.74 391.3 69.78C392.23 70.17 392.56 69.98 392.57 68.97C392.59 67.69 392.19 66.44 392.16 65.18C392.11 63.1 391 61.87 389.31 60.96C388.04 60.28 386.8 59.56 385.53 58.89C379.92 55.91 374.28 53.01 368.24 50.98C363.53 49.4 358.7 48.43 353.79 47.71C347.29 46.77 340.8 46.13 334.27 47.31C328.05 48.43 322.11 50.34 316.86 54.01C312.74 56.89 309.1 60.18 307.36 65.1C306.61 67.22 306.08 69.39 306.26 71.66C306.37 73.06 306.76 73.28 307.99 72.68C310.47 71.47 313.03 70.45 315.62 69.52C318.88 68.34 322.07 66.94 325.57 66.55C326.58 66.44 327.36 65.92 328 65.15C330.46 62.19 333.73 60.63 337.38 59.75C342.06 58.61 346.8 58.06 350.9 58.32ZM353.97 59.05C352.26 59.05 350.53 58.93 348.83 59.08C346.34 59.29 343.81 59.43 341.41 60.26C338.57 61.25 335.8 62.39 333.68 64.64C332.8 65.57 332.91 66.01 334.12 66.38C335.3 66.74 336.5 67.06 337.69 67.37C344.07 69.04 350.11 71.65 356.32 73.81C357.26 74.14 357.89 74.11 358.38 73.13C359.04 71.81 359.79 70.54 360.51 69.25C360.97 68.43 361.21 67.55 361.24 66.62C361.27 65.84 361.12 65.1 360.3 64.71C359.12 64.15 356.96 65.15 356.16 66.61C355.56 67.7 355.86 68.46 357.3 69.42C357.89 69.82 358.23 70.22 357.88 71C357.2 72.49 356.06 72.65 355.05 71.36C354.5 70.66 354.27 69.87 354.54 69C355.38 66.23 356.94 63.98 359.39 62.39C360.38 61.75 360.5 60.94 359.7 60.05C359.13 59.42 358.36 59.14 357.57 59.09C356.38 59 355.19 58.76 353.99 59.06L353.97 59.05ZM434.28 86.66C434.22 86.07 434.12 85.47 434.1 84.88C434.03 81.19 433.22 77.67 431.48 74.42C427.73 67.37 422.2 61.77 416.47 56.35C416.24 56.13 415.92 55.89 415.61 56.06C415.27 56.25 415.27 56.67 415.29 57.03C415.49 60.01 415.7 62.99 415.9 65.98C415.99 67.37 416.6 68.46 417.66 69.38C418.65 70.24 419.7 71.07 420.45 72.17C424.17 77.61 427.96 83 430.57 89.1C430.92 89.91 431.36 90.67 431.92 91.35C432.56 92.13 432.9 92.1 433.26 91.21C433.85 89.76 434.11 88.23 434.26 86.67L434.28 86.66ZM354.54 84.24C356.04 84.3 357.5 84.14 358.94 83.75C359.41 83.62 359.89 83.45 359.63 82.89C358.7 80.88 357.99 78.76 355.55 77.87C349.66 75.73 343.76 73.64 337.77 71.8C335.95 71.24 334.16 70.49 332.21 70.48C331.1 70.47 330.63 70.89 330.73 71.99C330.83 73.15 331.12 74.26 331.76 75.27C332.99 77.22 334.72 78.66 336.74 79.65C342.35 82.39 348.29 83.96 354.54 84.25V84.24ZM469.77 128.64C470.38 128.64 471.06 128.55 471.13 127.81C471.2 127.15 470.49 127.06 470.01 126.95C468.76 126.69 467.5 126.52 466.25 126.26C462.93 125.58 459.65 124.76 456.3 124.22C452.2 123.56 448.07 123.28 443.96 122.78C441.71 122.51 439.71 121.71 438.66 119.42C437.95 117.86 437.15 116.34 436.56 114.72C435.02 110.46 432.86 106.51 430.82 102.49C430.61 102.07 430.31 101.68 430 101.32C429.63 100.9 429.18 100.9 428.71 101.2C427.59 101.92 427.35 103.07 428.11 104.18C428.87 105.3 429.68 106.4 430.4 107.54C433.07 111.74 435.1 116.24 436.76 120.92C437.4 122.71 438.58 123.77 440.49 124C442.31 124.22 444.12 124.52 445.94 124.68C451.74 125.2 457.45 126.33 463.19 127.29C465.39 127.66 467.57 128.17 469.78 128.63L469.77 128.64ZM417.59 87.83C417.3 89.66 417.66 91.4 419.52 92.56C419.71 92.68 419.83 92.92 419.98 93.11C421.97 95.71 423.96 98.31 425.96 100.91C426.24 101.28 426.49 101.76 427.09 101.63C428.34 101.36 429.19 99.44 428.49 98.36C426.16 94.73 424.06 90.95 421.35 87.57C420.62 86.66 419.88 85.78 419 85.02C418.7 84.77 418.39 84.62 418.01 84.72C417.55 84.84 417.6 85.26 417.59 85.61C417.57 86.29 417.59 86.97 417.59 87.82V87.83ZM395.49 68.11C395.49 68.7 395.42 69.15 395.5 69.57C395.74 70.84 395.69 72.25 396.93 73.1C398.83 74.41 400.74 75.71 402.68 76.98C403.59 77.58 403.97 77.39 404.06 76.31C404.18 74.91 403.85 73.54 403.65 72.16C403.52 71.22 403.03 70.56 402.26 70.04C400.77 69.05 399.3 68.01 397.8 67.03C397.19 66.63 396.54 65.81 395.83 66.15C395.05 66.53 395.64 67.53 395.48 68.09L395.49 68.11ZM414.89 85.51C414.73 83.95 414.57 82.29 414.37 80.63C414.33 80.29 414.16 79.92 413.94 79.66C412.28 77.77 410.34 76.17 408.43 74.55C408.06 74.24 407.43 74.08 407.29 74.78C406.91 76.75 407.15 78.72 407.51 80.67C407.55 80.88 407.75 81.09 407.92 81.24C409.76 82.94 411.61 84.64 413.48 86.31C413.76 86.56 414.11 86.92 414.52 86.68C414.89 86.46 414.91 86.01 414.89 85.5V85.51ZM412.29 97.05C412.44 97.02 412.68 96.98 412.91 96.95C414.91 96.69 415.37 96.11 414.54 94.27C413.3 91.52 411.34 89.24 409.11 87.22C408.8 86.94 408.41 86.54 407.95 86.76C407.46 86.99 407.45 87.54 407.47 88.02C407.54 89.61 407.64 91.2 407.7 92.79C407.81 95.63 409.36 97.11 412.27 97.05H412.29ZM413.95 72.11C414 70.92 413.51 69.95 412.69 69.13C412.32 68.77 411.96 68.4 411.57 68.05C410.29 66.92 409.01 65.77 407.69 64.68C407.22 64.29 406.39 63.98 406.36 64.91C406.31 66.44 406.4 68.04 407.75 69.17C409.25 70.42 410.74 71.68 412.25 72.92C412.63 73.23 413.03 73.73 413.6 73.42C414.11 73.14 413.9 72.57 413.95 72.11ZM416.84 75.78C416.84 76.14 416.82 76.52 417.05 76.82C418.83 79.07 421.02 80.95 422.89 83.12C423.04 83.3 423.32 83.36 423.55 83.2C423.81 83.01 423.65 82.75 423.55 82.56C423.31 82.1 423.05 81.65 422.79 81.21C421.54 79.12 420.16 77.11 418.47 75.35C418.15 75.02 417.76 74.61 417.24 74.76C416.76 74.9 416.87 75.4 416.85 75.79L416.84 75.78ZM363.33 69.95C363.28 70.82 363.55 71.46 364.55 71.49C365.35 71.51 366.03 70.65 365.89 69.58C365.8 68.85 365.82 67.86 364.76 67.73C364.07 67.65 363.33 68.87 363.33 69.94V69.95ZM361.91 68.04C361.89 68.49 361.98 68.92 362.21 69.29C362.38 69.58 362.68 69.69 362.84 69.32C363.21 68.45 363.75 67.65 363.89 66.69C363.95 66.31 363.88 65.96 363.47 65.82C363.09 65.69 362.77 65.85 362.53 66.16C362.1 66.71 361.96 67.37 361.92 68.05L361.91 68.04Z" fill="white"/>
<path d="M391.47 125.51C392.26 126.51 392.54 127.56 393.01 128.51C393.85 130.23 394.66 131.97 395.51 133.68C395.7 134.06 395.94 134.56 396.44 134.49C397.04 134.41 397.02 133.8 397.1 133.35C397.23 132.6 397.01 131.76 397.76 131C398.37 132.58 398.57 134.07 398.18 135.61C397.73 137.35 398.01 138.13 399.48 139.19C400.82 140.15 402.32 140.62 403.95 140.71C405.82 140.81 406.79 139.94 407.09 137.92C407.38 137.88 407.39 138.11 407.43 138.28C407.74 139.76 408.29 139.95 409.52 139.03C410.58 138.23 410.72 137.04 410.9 135.75C411.35 136.43 411.12 137.58 412.19 137.45C413.24 137.32 413.62 136.43 413.77 135.46C413.84 135 413.92 134.55 414.01 134.01C415.05 135.53 415.85 135.46 416.82 133.89C417.33 133.06 417.39 132.16 417.24 131.23C416.55 127.09 414.52 123.51 412.5 119.93C412.31 119.59 412.01 119.16 411.57 119.35C411.09 119.55 411.16 120.05 411.28 120.5C411.88 122.77 412.45 125.05 413.07 127.32C413.22 127.87 413.24 128.4 413.11 128.97C411.88 125.71 410.57 122.47 409.89 119.05C409.44 116.79 409.23 114.48 408.92 112.19C408.89 111.95 408.9 111.71 408.92 111.47C408.95 111.1 409.03 110.73 409.46 110.64C409.83 110.56 410.08 110.82 410.24 111.09C410.66 111.77 411.04 112.47 411.42 113.17C413.48 117 415.89 120.65 417.2 124.84C418.06 127.6 418.55 130.4 418.1 133.32C417.56 136.79 415.7 139.4 412.9 141.32C410.13 143.22 407.25 144.99 403.64 144.67C402.16 144.54 400.84 144.08 399.79 142.97C399.63 142.8 399.45 142.63 399.26 142.49C398.32 141.78 398.05 141.88 397.8 143.02C397.58 144.03 397.43 145.06 397.16 146.06C396.5 148.53 395.07 150.34 392.53 151.11C390.01 151.87 387.47 152.55 384.8 152.57C384.04 152.57 383.33 152.38 382.42 152.26C387.85 151.52 391.86 148.74 395 144.68C396.84 142.3 397.26 139.71 395.62 136.89C394.22 134.48 393.14 131.88 391.91 129.38C391.32 128.19 391.28 126.97 391.47 125.51Z" fill="white"/>
<path d="M472.27 65.6C472.88 68.08 473.11 70.48 471.33 72.6C470.36 73.76 469.27 74.82 468.99 76.43C468.78 77.65 469.05 78.83 469.22 80C469.61 82.66 469.66 85.32 469.63 87.99C469.58 92.86 464.61 96.34 459.56 93.8C456.26 92.14 454.33 89.31 453.56 85.71C453.32 84.61 452.89 83.61 452.39 82.6C451.19 80.19 451.44 77.63 452 75.12C452.68 72.1 454.58 69.75 456.5 67.45C458.69 64.84 461.36 62.72 463.85 60.41C466.63 57.84 469.05 54.99 470.67 51.54C470.81 51.25 470.95 50.97 471.07 50.67C471.22 50.31 471.48 49.88 471.11 49.57C470.7 49.23 470.28 49.52 469.92 49.79C469.12 50.38 468.31 50.98 467.38 51.37C466.84 51.6 466.52 51.51 466.34 50.86C465.75 48.77 466.29 47.58 468.28 46.83C469.63 46.32 470.77 45.59 471.59 44.38C471.74 44.16 471.83 43.79 472.17 43.87C472.58 43.96 472.5 44.37 472.51 44.67C472.68 48.02 471.64 51.05 469.94 53.87C467.43 58.04 463.88 61.26 460.26 64.41C457.33 66.96 454.42 69.52 453.24 73.45C452.67 75.35 452.64 77.3 452.46 79.24C452.42 79.62 452.54 79.99 452.97 80.08C453.42 80.17 453.62 79.81 453.73 79.47C453.93 78.87 454.08 78.25 454.25 77.63C454.43 76.93 454.71 76.27 455.16 75.69C455.97 74.66 456.98 73.89 458.34 74.22C459.73 74.55 460.3 75.78 460.44 77.02C460.72 79.54 459.98 81.85 458.44 83.85C457.61 84.93 456.43 85.4 455.04 85.08C454.06 84.86 453.9 85.25 454.17 86.1C454.92 88.45 457.84 90.78 460.24 90.94C463.7 91.17 465.71 90.06 467.06 87.06C468.43 84.02 468.48 80.78 468.28 77.55C468.18 75.91 468.14 74.28 468.15 72.65C468.15 71.85 468.56 71.2 469 70.58C469.35 70.09 469.76 69.66 470.14 69.19C471.01 68.11 472.09 67.16 472.26 65.61L472.27 65.6ZM455.78 81.5C457.31 81.49 458.58 80.62 458.56 79.66C458.55 78.84 457.5 78.03 456.49 78.06C455.36 78.09 454.24 79.23 454.26 80.31C454.28 81.42 455.15 81.35 455.78 81.51V81.5Z" fill="white"/>
<path d="M486.58 90.21C486.04 89.77 485.52 89.85 484.96 89.99C482.23 90.68 480.36 89.96 478.78 87.6C477.51 85.7 476.76 83.53 475.86 81.45C474.86 79.12 473.46 76.93 473.08 74.35C473.02 73.97 472.83 73.6 473.12 73.16C473.8 73.75 474.09 74.54 474.41 75.3C475.26 77.32 476.02 79.38 476.94 81.37C477.93 83.53 479.08 85.59 481.67 86.24C483.75 86.77 484.77 85.85 484.36 83.76C484.07 82.28 483.8 80.79 483.55 79.3C483.41 78.45 483.61 77.61 484.02 76.88C484.49 76.03 485.23 75.67 486.24 75.95C487.02 76.17 487.74 76.5 488.45 76.86C489.57 77.42 490.69 77.85 492 77.53C492.95 77.29 493.43 77.63 493.47 78.76C493.53 80.33 493.13 81.52 491.77 82.43C490.6 83.21 489.74 84.32 489.02 85.55C488.5 86.44 487.95 87.33 487.18 88.04C486.55 88.62 486.18 89.27 486.58 90.22V90.21ZM485.57 80.11C484.99 80.07 484.57 80.54 484.49 81.38C484.4 82.31 484.62 83.18 484.92 84.05C485.2 84.88 485.63 84.85 486.27 84.46C487.22 83.88 487.8 82.99 488.39 82.09C488.61 81.75 488.61 81.4 488.25 81.15C487.53 80.66 486.81 80.16 485.57 80.1V80.11Z" fill="white"/>
<path d="M361.08 104.14C360.58 105.51 359.92 106.73 359.06 107.83C358.06 109.1 355.52 109.88 354.08 109.49C353.4 109.31 353.12 108.96 353.24 108.3C353.35 107.72 353.51 107.14 353.65 106.56C353.85 105.78 354.33 105.44 355.15 105.55C357.29 105.82 359.26 105.38 361.08 104.14Z" fill="white"/>
<path d="M468.13 64.28C468.79 63.69 469.38 63.56 469.92 63.33C471.56 62.63 472.97 61.6 474.17 60.3C474.36 60.09 474.57 59.87 474.47 59.57C474.35 59.22 474.01 59.33 473.75 59.31C471.35 59.12 470.94 58.37 472.14 56.25C472.9 54.91 473.96 53.84 475.2 52.94C475.4 52.79 475.65 52.49 475.93 52.74C476.2 52.98 475.93 53.27 475.83 53.5C475.4 54.49 474.6 55.15 473.75 55.76C473.42 56 473.04 56.24 473.19 56.71C473.35 57.19 473.81 57.12 474.21 57.13C474.49 57.13 474.77 57.16 475.05 57.13C476.64 56.94 477.14 57.39 476.29 59.19C475.98 59.84 475.47 60.37 474.93 60.85C473.97 61.7 469.71 63.9 468.12 64.3L468.13 64.28Z" fill="white"/>
<path d="M382.16 131.28C383.35 134.44 383.02 136.8 380.81 137.97C379.2 138.82 378.43 138.55 377.91 136.83C377.38 135.09 377.37 135.05 379.07 134.4C380.52 133.85 381.35 132.72 382.16 131.28Z" fill="white"/>
<path d="M400.78 130.96C400.54 128.66 400.18 126.39 400.63 124.14C401.02 122.18 402.1 121.32 403.66 121.34C404.58 121.35 405.08 121.79 405.24 122.64C405.31 123.03 405.3 123.43 405.31 123.83C405.317 124.997 404.76 125.48 403.64 125.28C402.35 125.06 401.18 126.07 401.02 127.62C400.9 128.73 400.86 129.84 400.78 130.96Z" fill="white"/>
<path d="M483.69 69.16C483.53 68.36 483.4 67.49 483.18 66.65C483.02 66.02 482.98 65.38 483.05 64.75C483.16 63.76 484.17 63.1 485.06 63.4C485.55 63.56 485.87 63.9 485.92 64.44C485.96 64.98 485.64 65.18 485.17 65.35C483.6 65.89 483.62 65.92 483.94 67.57C484.16 68.7 484.52 69.83 484.04 70.98C483.81 71.55 483.55 72.15 482.85 72.17C482.2 72.19 481.92 71.63 481.67 71.12C481.38 70.55 481.13 69.97 480.82 69.41C480.43 68.69 479.9 68.18 478.99 68.5C478.65 68.62 478.37 68.62 478.2 68.23C478.04 67.88 477.99 67.56 478.2 67.2C478.4 66.85 478.69 66.67 479.09 66.74C479.92 66.89 480.56 67.33 480.99 68.06C481.34 68.64 481.65 69.25 482.03 69.8C482.27 70.15 482.58 70.6 483.08 70.43C483.6 70.25 483.61 69.69 483.71 69.15L483.69 69.16Z" fill="white"/>
<path d="M402.51 91.7C402.96 94.67 401.08 97.54 398.56 98.01C397.64 98.18 397.19 97.8 397.22 96.88C397.29 94.91 397.61 94.42 399.5 93.83C400.69 93.46 401.52 92.61 402.51 91.7Z" fill="white"/>
<path d="M388.76 83.71C388.78 85.61 388.36 87.24 387.15 88.63C386.77 89.06 386.28 89.34 385.73 89.47C383.84 89.95 383.44 89.47 383.59 87.54C383.69 86.18 384.08 85.59 385.53 85.53C386.9 85.47 387 85.24 388.76 83.7V83.71Z" fill="white"/>
<path d="M375.06 128.6C375.06 126.75 375.19 126.56 377.02 125.86C377.76 125.58 378.22 124.95 378.84 124.52C379.02 124.4 379.18 124.09 379.43 124.33C379.55 124.45 379.63 124.7 379.61 124.87C379.39 126.78 379.25 128.75 377.17 129.72C376.62 129.98 376.09 130.64 375.46 130.27C374.89 129.94 375.08 129.19 375.06 128.6Z" fill="white"/>
<path d="M492.42 85.9C493.76 85.91 494.81 86.58 494.78 87.41C494.73 88.9 493.99 90.36 493.28 90.37C491.77 90.39 490.56 89.81 490.59 89.09C490.67 87.31 491.49 85.89 492.42 85.9Z" fill="white"/>
<path d="M383.84 106.69C384.16 107.33 384.27 108.05 385 107.91C386.24 107.66 385.87 106.38 386.3 105.55C387.07 107.22 386.09 109.48 384.44 109.87C383.76 110.03 383.19 110.33 382.67 110.79C381.75 111.61 380.93 111.43 380.37 110.33C379.97 109.55 379.98 108.63 380.46 107.58C380.9 108.31 380.82 109.59 382.03 109.33C383.29 109.06 383.46 107.86 383.83 106.68L383.84 106.69Z" fill="white"/>
<path d="M371.24 106.51C372.32 106.49 373.07 107.37 372.75 108.31C372.41 109.32 371.99 110.31 371.35 111.18C371.23 111.34 371.1 111.49 370.95 111.62C370.72 111.81 370.4 111.73 370.34 111.51C370.08 110.55 368.41 110.4 368.72 109.48C369 108.63 369.6 107.73 370.26 106.99C370.54 106.68 370.87 106.48 371.23 106.51H371.24Z" fill="white"/>
<path d="M464.26 71.34C463.94 71.05 463.62 70.76 463.31 70.46C462.88 70.04 461.93 69.93 462.11 69.15C462.37 68.03 462.85 66.94 463.73 66.15C464.18 65.75 464.73 66.12 465.16 66.39C465.72 66.76 466.07 67.26 465.91 68C465.76 68.7 464.96 70.36 464.25 71.33L464.26 71.34Z" fill="white"/>
<path d="M366.93 127.18C366.95 128.01 365.62 130.08 365.07 130.13C364.36 130.19 364.02 129.51 363.51 129.16C363.11 128.88 362.95 128.48 363.17 128.01C363.57 127.14 364.07 126.33 364.67 125.58C365.06 125.09 365.5 125.18 365.92 125.54C366.48 126.02 366.89 126.59 366.93 127.19V127.18Z" fill="white"/>
<path d="M476.12 73.74C477.22 72.54 478.64 71.66 479.32 70.11C478.88 71.87 477.69 72.98 476.12 73.74Z" fill="white"/>
<path d="M487.1 60.81C486.68 60.35 486.25 59.89 485.83 59.42C485.66 59.23 485.33 58.97 485.58 58.73C485.92 58.41 486.14 58.84 486.32 59.05C486.73 59.52 487.07 60.05 487.1 60.8V60.81Z" fill="white"/>
<path d="M193.411 112.801C193.411 111.521 193.431 110.241 193.411 108.961C193.391 108.181 193.481 107.671 194.481 107.671C195.441 107.671 195.611 108.091 195.601 108.921C195.571 111.441 195.621 113.961 195.571 116.471C195.551 117.591 195.931 118.051 197.101 118.031C199.651 118.001 199.651 118.041 199.651 115.441C199.651 113.281 199.671 111.121 199.651 108.971C199.651 108.241 199.841 107.861 200.661 107.861C201.511 107.861 201.641 108.311 201.641 109.011C201.621 111.651 201.651 114.281 201.621 116.921C201.601 118.461 200.631 119.451 199.051 119.471C197.621 119.491 196.171 119.721 194.771 119.191C194.601 119.131 194.381 119.191 194.191 119.221C190.861 119.701 187.531 119.651 184.191 119.241C183.211 119.121 182.261 119.541 181.251 119.531C174.931 119.491 168.621 119.531 162.301 119.491C161.151 119.491 160.511 119.701 160.211 120.981C159.721 123.091 156.611 124.541 154.551 123.821C154.241 123.711 154.101 123.521 154.091 123.201C154.091 122.821 154.261 122.601 154.641 122.551C155.191 122.481 155.751 122.391 156.301 122.331C156.801 122.281 157.231 122.111 157.591 121.761C158.091 121.261 158.511 120.651 158.321 119.951C158.131 119.251 157.381 119.501 156.861 119.461C154.551 119.281 153.271 118.181 153.121 116.191C152.861 112.941 153.841 111.211 156.231 110.671C158.421 110.181 160.431 111.941 160.551 114.491C160.591 115.371 160.581 116.251 160.551 117.131C160.531 117.711 160.701 118.021 161.351 118.011C163.231 117.981 165.111 117.991 166.991 118.011C167.571 118.011 167.791 117.811 167.631 117.211C167.381 116.311 167.471 115.381 167.501 114.471C167.561 112.201 169.121 110.581 171.221 110.591C173.301 110.591 174.901 112.261 174.951 114.491C174.971 115.211 175.111 115.991 174.891 116.631C174.431 118.001 175.081 118.061 176.141 118.021C177.901 117.961 179.661 117.971 181.421 118.021C182.471 118.051 182.871 117.561 182.861 116.581C182.861 115.221 182.881 113.861 182.861 112.501C182.841 111.781 183.131 111.511 183.851 111.511C184.591 111.511 184.841 111.801 184.831 112.511C184.801 113.871 184.831 115.231 184.831 116.591C184.831 117.551 185.241 118.041 186.301 118.021C188.261 117.971 190.221 117.981 192.181 118.021C193.111 118.041 193.481 117.681 193.451 116.751C193.411 115.431 193.441 114.111 193.441 112.791L193.411 112.801ZM169.431 115.171C169.391 115.811 169.431 116.451 169.701 117.041C169.981 117.671 170.441 118.021 171.181 118.021C171.931 118.021 172.441 117.671 172.661 117.041C173.131 115.731 173.101 114.381 172.551 113.091C172.301 112.521 171.841 112.091 171.181 112.081C170.521 112.081 170.081 112.531 169.811 113.081C169.491 113.731 169.361 114.431 169.421 115.161L169.431 115.171ZM158.381 115.681C158.381 115.681 158.371 115.681 158.361 115.681C158.361 115.041 158.441 114.391 158.341 113.771C158.211 112.941 157.791 112.181 156.871 112.121C155.971 112.061 155.541 112.811 155.331 113.551C155.041 114.601 155.021 115.681 155.291 116.751C155.521 117.671 156.631 118.271 157.791 118.071C158.821 117.901 158.231 117.051 158.361 116.521C158.431 116.261 158.371 115.961 158.371 115.681H158.381Z" fill="white"/>
<path d="M119.071 113.101C119.071 114.421 119.101 115.741 119.071 117.051C119.031 118.401 118.091 119.461 116.741 119.451C113.721 119.411 110.681 119.841 107.671 119.191C106.951 119.031 106.311 119.541 105.571 119.511C103.851 119.461 102.131 119.511 100.411 119.501C99.1413 119.501 97.8713 119.391 96.7313 120.211C96.2313 120.581 95.5413 120.541 94.9913 120.341C92.2113 119.321 89.3313 119.521 86.4613 119.501C85.1913 119.491 83.9313 119.591 82.6613 119.221C81.9313 119.011 81.1513 119.551 80.3213 119.531C78.4413 119.471 76.5613 119.531 74.6913 119.511C73.9613 119.511 73.5713 119.701 73.3813 120.521C72.8013 122.951 70.3113 124.371 67.8213 123.841C67.4613 123.761 67.2313 123.621 67.2213 123.231C67.2113 122.861 67.3613 122.621 67.7513 122.571C68.0713 122.531 68.3813 122.461 68.7013 122.441C70.7513 122.321 71.4213 121.451 71.5113 119.191C71.6013 117.041 71.5513 114.881 71.5213 112.721C71.5213 111.961 71.6513 111.521 72.5613 111.541C73.4413 111.551 73.5113 112.031 73.5013 112.701C73.4813 114.101 73.5213 115.501 73.4913 116.891C73.4713 117.661 73.6813 118.071 74.5713 118.041C76.4513 117.991 78.3313 118.001 80.2113 118.041C81.1013 118.061 81.4213 117.661 81.4013 116.811C81.3713 115.371 81.4213 113.931 81.3813 112.501C81.3613 111.631 81.8413 111.551 82.5313 111.551C83.2113 111.551 83.5813 111.731 83.5713 112.491C83.5413 113.931 83.5713 115.371 83.5613 116.801C83.5613 117.641 83.9013 118.051 84.7813 118.041C86.5813 118.021 88.3813 118.011 90.1813 118.041C90.9413 118.061 91.1613 117.681 91.1613 117.021C91.1613 116.061 91.1513 115.101 91.2013 114.141C91.3113 112.091 92.8813 110.581 94.8313 110.591C96.7513 110.611 98.3613 112.201 98.4413 114.211C98.4813 115.131 98.4813 116.051 98.4613 116.971C98.4413 117.721 98.7013 118.051 99.5013 118.031C101.381 117.991 103.261 118.001 105.141 118.031C106.001 118.041 106.381 117.711 106.361 116.831C106.331 115.431 106.391 114.031 106.341 112.641C106.311 111.801 106.631 111.531 107.461 111.521C108.341 111.521 108.561 111.891 108.531 112.681C108.491 114.041 108.531 115.401 108.511 116.751C108.491 117.671 108.901 118.041 109.821 118.021C111.821 117.991 113.821 117.991 115.811 118.021C116.811 118.041 117.151 117.541 117.141 116.621C117.131 114.101 117.151 111.591 117.131 109.071C117.131 108.331 117.231 107.841 118.151 107.861C119.011 107.881 119.121 108.341 119.111 109.021C119.091 110.381 119.111 111.741 119.111 113.091L119.071 113.101ZM93.1313 115.751C93.1313 118.531 93.1713 118.571 95.1913 118.901C95.8313 119.001 96.3113 118.751 96.3713 118.191C96.5313 116.531 96.7113 114.841 96.1313 113.221C95.9113 112.601 95.4513 112.071 94.7313 112.091C94.0313 112.111 93.6313 112.641 93.3513 113.261C92.9713 114.111 93.2113 115.001 93.1313 115.741V115.751Z" fill="white"/>
<path d="M270.231 113.091C270.231 114.331 270.251 115.571 270.231 116.801C270.201 118.431 269.301 119.471 267.651 119.451C264.831 119.421 261.991 119.801 259.181 119.211C258.571 119.081 257.821 119.581 257.211 119.451C254.821 118.941 252.421 119.471 250.031 119.321C247.761 119.181 245.361 119.421 243.021 119.491C242.341 119.511 241.661 119.521 240.981 119.451C239.701 119.341 238.741 118.371 238.721 117.091C238.681 114.341 238.721 111.581 238.691 108.831C238.691 108.101 239.041 107.861 239.721 107.861C240.451 107.861 240.701 108.181 240.691 108.881C240.671 111.401 240.681 113.911 240.691 116.431C240.691 117.851 240.861 118.011 242.281 118.011C243.961 118.011 245.641 117.961 247.311 118.031C248.481 118.081 248.881 117.561 248.841 116.461C248.791 115.141 248.851 113.821 248.821 112.511C248.801 111.781 249.091 111.521 249.811 111.521C250.511 111.521 250.841 111.761 250.831 112.491C250.811 113.811 250.811 115.131 250.851 116.441C250.881 117.261 250.971 118.041 252.151 118.021C253.321 118.001 253.401 117.291 253.391 116.421C253.381 115.221 253.401 114.021 253.391 112.831C253.381 112.101 253.361 111.491 254.411 111.511C255.491 111.521 255.391 112.201 255.391 112.881C255.391 114.121 255.381 115.361 255.421 116.591C255.451 117.411 255.681 118.061 256.751 118.021C257.831 117.971 257.961 117.321 257.951 116.481C257.951 115.241 257.951 114.001 257.951 112.771C257.951 112.091 257.931 111.511 258.911 111.511C259.841 111.511 259.941 111.991 259.931 112.721C259.911 114.001 259.931 115.281 259.931 116.551C259.931 117.571 260.371 118.071 261.471 118.021C263.151 117.951 264.831 118.011 266.501 118.001C267.901 118.001 268.161 117.771 268.181 116.331C268.221 113.891 268.201 111.461 268.191 109.021C268.191 108.351 268.291 107.851 269.151 107.851C269.901 107.851 270.261 108.081 270.241 108.881C270.211 110.281 270.241 111.671 270.231 113.071V113.091Z" fill="white"/>
<path d="M57.8913 113.081C57.8913 114.321 57.9113 115.561 57.8913 116.791C57.8613 118.491 56.9313 119.511 55.2113 119.471C52.2713 119.401 49.3113 119.331 46.3913 119.311C43.5213 119.291 40.5913 119.331 37.6913 119.531C37.2113 119.561 37.0413 119.851 36.9513 120.311C36.3813 123.421 33.7913 123.921 31.4113 123.831C31.0013 123.811 30.7313 123.651 30.7213 123.191C30.7213 122.731 30.9913 122.621 31.4013 122.531C34.8813 121.771 35.0313 121.571 35.0413 117.951C35.0413 116.151 35.0613 114.361 35.0413 112.561C35.0413 111.881 35.2213 111.531 35.9813 111.521C36.7913 111.511 37.0213 111.851 37.0013 112.601C36.9613 114.041 37.0213 115.481 36.9813 116.911C36.9513 117.721 37.1913 118.051 38.0513 118.031C40.0113 117.981 41.9613 117.991 43.9213 118.031C44.7813 118.041 45.1613 117.711 45.1413 116.831C45.1113 115.391 45.1613 113.961 45.1213 112.521C45.1013 111.681 45.5113 111.531 46.2313 111.531C46.9813 111.531 47.3313 111.761 47.3113 112.561C47.2713 113.961 47.3113 115.351 47.2913 116.751C47.2713 117.661 47.6713 118.051 48.5913 118.031C50.5913 118.001 52.5813 118.001 54.5813 118.031C55.5813 118.051 55.9313 117.571 55.9313 116.641C55.9213 114.131 55.9313 111.611 55.9213 109.101C55.9213 108.381 55.9913 107.861 56.9213 107.871C57.8813 107.871 57.9013 108.441 57.8913 109.141C57.8713 110.461 57.8913 111.771 57.8913 113.091V113.081Z" fill="white"/>
<path d="M222.481 119.501C220.681 119.501 218.881 119.501 217.091 119.501C216.571 119.501 216.031 119.571 215.561 119.291C214.971 118.931 214.461 119.101 213.871 119.341C211.261 120.371 208.891 118.831 208.721 116.041C208.481 112.031 209.551 110.861 213.601 110.821C216.481 110.791 215.951 110.681 215.991 113.151C216.011 114.351 215.981 115.551 215.991 116.741C215.991 117.601 216.391 118.051 217.311 118.031C219.111 118.001 220.911 118.001 222.701 118.031C223.421 118.031 223.721 117.871 223.511 117.061C223.251 116.051 223.331 114.991 223.431 113.961C223.621 112.031 225.301 110.561 227.171 110.591C229.181 110.631 230.771 112.211 230.841 114.271C230.871 115.111 230.861 115.951 230.841 116.791C230.801 118.371 229.821 119.431 228.231 119.481C226.311 119.531 224.391 119.491 222.481 119.491V119.501ZM228.841 115.561C228.901 114.931 228.821 114.171 228.631 113.441C228.431 112.691 227.931 112.151 227.131 112.111C226.411 112.071 225.951 112.591 225.701 113.201C225.191 114.461 225.171 115.791 225.641 117.051C226.041 118.111 227.031 118.131 227.971 118.001C228.831 117.891 228.781 117.151 228.841 116.521C228.861 116.241 228.841 115.961 228.841 115.551V115.561ZM214.001 114.661C214.001 114.101 214.001 113.551 214.001 112.991C214.001 112.711 213.921 112.461 213.611 112.331C212.651 111.911 211.081 112.521 210.851 113.531C210.571 114.731 210.531 115.971 211.011 117.151C211.241 117.721 211.661 118.211 212.321 118.221C213.031 118.221 213.471 117.731 213.741 117.121C214.101 116.341 214.021 115.491 214.021 114.661H214.001Z" fill="white"/>
<path d="M30.9913 114.691C30.9913 115.251 30.9913 115.811 30.9913 116.371C30.9913 118.541 30.0513 119.481 27.8413 119.501C25.6413 119.521 23.4513 119.541 21.2513 119.501C20.3413 119.481 19.9113 119.791 19.6813 120.711C19.1113 123.031 16.3213 124.501 13.9913 123.831C13.6113 123.721 13.4613 123.511 13.4713 123.151C13.4813 122.831 13.6313 122.621 13.9613 122.571C14.5513 122.491 15.1413 122.401 15.7413 122.341C16.3313 122.281 16.8113 122.021 17.1713 121.571C17.5513 121.091 17.9113 120.531 17.6913 119.931C17.4713 119.321 16.8013 119.521 16.3113 119.491C13.9713 119.321 12.6913 118.261 12.5013 116.301C12.1813 113.091 13.1613 111.301 15.5213 110.731C17.7313 110.201 19.7613 111.881 19.9213 114.431C19.9713 115.261 19.9813 116.111 19.9213 116.941C19.8713 117.751 20.1213 118.071 20.9813 118.051C23.1713 118.001 25.3713 118.001 27.5713 118.051C28.5813 118.071 28.9413 117.581 28.9513 116.691C28.9713 115.571 28.9213 114.451 28.9813 113.341C29.0213 112.621 28.5213 111.541 30.0013 111.551C31.4213 111.561 30.8613 112.591 30.9513 113.271C31.0113 113.741 30.9613 114.231 30.9613 114.711L30.9913 114.691ZM17.7813 115.721C17.7813 115.721 17.7613 115.721 17.7513 115.721C17.7513 115.041 17.8413 114.351 17.7313 113.691C17.6013 112.911 17.1713 112.191 16.3013 112.121C15.3913 112.051 14.9613 112.781 14.7413 113.531C14.4413 114.571 14.4213 115.661 14.6813 116.731C14.9113 117.671 15.9513 118.251 17.1613 118.091C18.2113 117.951 17.6313 117.101 17.7613 116.571C17.8213 116.311 17.7713 116.011 17.7713 115.731L17.7813 115.721Z" fill="white"/>
<path d="M319.171 119.491C316.331 119.491 313.501 119.511 310.661 119.491C308.701 119.471 307.801 118.561 307.791 116.621C307.771 114.101 307.791 111.591 307.781 109.071C307.781 108.321 307.931 107.861 308.831 107.861C309.771 107.861 309.831 108.391 309.831 109.111C309.811 111.511 309.811 113.901 309.831 116.301C309.841 117.791 310.101 118.021 311.591 118.021C316.351 118.021 321.101 117.971 325.861 118.051C327.081 118.071 327.211 117.571 327.001 116.651C326.791 115.721 326.571 114.791 326.151 113.921C325.591 112.761 324.721 112.111 323.411 112.221C322.911 112.261 322.581 112.201 322.351 111.701C322.091 111.131 322.111 110.871 322.851 110.791C325.641 110.491 327.481 111.581 328.421 114.231C328.901 115.591 329.151 117.001 329.351 118.421C329.491 119.431 328.761 119.501 328.041 119.501C325.081 119.501 322.131 119.501 319.171 119.501V119.491Z" fill="white"/>
<path d="M150.951 117.201C150.861 118.161 151.071 119.351 150.791 120.551C150.401 122.211 149.431 123.281 147.791 123.611C145.981 123.971 144.141 124.021 142.351 123.411C140.981 122.941 140.201 121.931 139.921 120.541C139.841 120.141 139.721 119.561 140.371 119.501C140.901 119.451 141.631 119.141 141.841 120.041C142.061 120.961 142.321 121.891 143.371 122.131C144.781 122.451 146.211 122.541 147.611 122.051C148.211 121.841 148.491 121.261 148.681 120.681C148.921 119.961 148.721 119.491 147.881 119.491C147.111 119.491 146.371 119.371 145.641 119.131C144.271 118.681 143.551 117.741 143.491 116.291C143.461 115.611 143.461 114.931 143.491 114.251C143.581 112.161 145.111 110.641 147.181 110.591C149.131 110.541 150.821 112.141 150.931 114.211C150.981 115.131 150.931 116.051 150.931 117.191L150.951 117.201ZM148.781 115.631C148.781 115.071 148.791 114.511 148.781 113.961C148.761 113.011 148.291 112.261 147.381 112.141C146.371 112.001 145.871 112.861 145.741 113.701C145.601 114.671 145.631 115.691 145.721 116.681C145.811 117.631 146.911 118.211 148.151 118.081C149.221 117.961 148.651 117.111 148.771 116.591C148.841 116.291 148.781 115.961 148.771 115.641L148.781 115.631Z" fill="white"/>
<path d="M299.601 119.501C298.441 119.501 297.281 119.521 296.121 119.501C295.391 119.491 295.011 119.691 294.811 120.511C294.221 122.941 291.741 124.361 289.241 123.831C288.881 123.751 288.651 123.611 288.641 123.221C288.631 122.851 288.781 122.611 289.171 122.561C289.491 122.521 289.801 122.451 290.121 122.431C292.171 122.311 292.841 121.441 292.931 119.181C293.021 117.031 292.971 114.871 292.941 112.711C292.941 111.951 293.071 111.511 293.981 111.531C294.861 111.541 294.931 112.021 294.921 112.691C294.901 114.131 294.941 115.571 294.921 117.001C294.911 117.771 295.221 118.051 295.991 118.031C298.151 117.991 300.311 118.001 302.461 118.031C303.381 118.041 303.781 117.641 303.771 116.741C303.761 115.381 303.791 114.021 303.771 112.671C303.761 111.981 303.871 111.521 304.731 111.531C305.521 111.531 305.801 111.841 305.781 112.601C305.751 114.081 305.801 115.561 305.751 117.031C305.701 118.461 304.751 119.411 303.321 119.481C302.081 119.531 300.841 119.491 299.601 119.491V119.511V119.501Z" fill="white"/>
<path d="M245.711 142.021C245.711 140.501 245.741 138.981 245.701 137.461C245.681 136.681 245.991 136.391 246.761 136.401C248.801 136.431 250.841 136.421 252.881 136.401C253.531 136.401 253.961 136.551 253.951 137.331C253.941 138.171 253.391 138.161 252.801 138.161C251.481 138.161 250.161 138.201 248.841 138.141C247.991 138.101 247.781 138.511 247.891 139.221C247.991 139.911 247.451 140.961 248.821 140.981C249.981 140.991 251.141 140.971 252.301 141.001C252.851 141.021 253.611 140.751 253.631 141.731C253.651 142.781 252.831 142.521 252.241 142.541C251.161 142.571 250.081 142.571 249.001 142.551C248.231 142.541 247.841 142.791 247.861 143.661C247.941 146.541 247.541 146.001 250.161 146.061C251.241 146.081 252.321 146.081 253.401 146.061C254.031 146.051 254.381 146.241 254.361 146.951C254.351 147.591 254.021 147.761 253.441 147.761C251.161 147.751 248.881 147.741 246.601 147.761C245.921 147.761 245.691 147.461 245.691 146.811C245.711 145.211 245.691 143.611 245.691 142.011L245.711 142.021Z" fill="white"/>
<path d="M5.51138 148.061C3.72138 148.071 2.16138 147.651 1.27138 145.931C1.04138 145.491 0.581378 144.801 1.34138 144.501C1.90138 144.281 2.60138 144.171 3.03138 145.051C3.74138 146.501 6.38138 146.901 7.63138 145.851C8.52138 145.101 8.34138 143.941 7.17138 143.501C6.02138 143.071 4.79138 142.841 3.62138 142.481C2.82138 142.231 2.02138 141.941 1.50138 141.211C0.801378 140.221 0.871378 138.671 1.66138 137.621C3.39138 135.301 7.90138 135.531 9.34138 138.031C9.59138 138.471 10.1314 139.161 9.55138 139.481C8.98138 139.791 8.13138 139.931 7.61138 138.981C6.95138 137.791 5.44138 137.401 4.17138 137.881C3.45138 138.151 3.02138 138.651 3.02138 139.391C3.02138 140.071 3.53138 140.441 4.15138 140.621C5.26138 140.941 6.39138 141.191 7.49138 141.531C9.62138 142.181 10.2114 142.981 10.1214 144.921C10.0514 146.411 9.00138 147.491 7.17138 147.901C6.63138 148.021 6.06138 148.021 5.51138 148.071V148.061Z" fill="white"/>
<path d="M147.991 142.151C147.991 140.591 148.011 139.041 147.991 137.481C147.981 136.721 148.271 136.391 149.051 136.401C151.131 136.421 153.201 136.421 155.281 136.401C155.901 136.401 156.251 136.601 156.251 137.291C156.251 138.001 155.891 138.171 155.271 138.161C153.831 138.141 152.401 138.181 150.961 138.141C150.221 138.121 149.901 138.411 150.011 139.121C150.121 139.811 149.541 140.881 150.871 140.951C152.141 141.021 153.421 140.981 154.701 140.981C155.251 140.981 155.771 140.981 155.761 141.761C155.761 142.531 155.231 142.541 154.691 142.541C153.491 142.541 152.291 142.561 151.101 142.541C150.301 142.541 149.981 142.871 149.991 143.701C150.041 146.441 149.791 146.021 152.251 146.051C153.371 146.071 154.491 146.061 155.601 146.051C156.191 146.051 156.491 146.251 156.491 146.881C156.491 147.491 156.241 147.751 155.631 147.741C153.391 147.731 151.161 147.721 148.921 147.741C148.141 147.741 147.991 147.321 148.001 146.671C148.011 145.151 148.001 143.641 148.001 142.121L147.991 142.151Z" fill="white"/>
<path d="M75.3813 147.671C74.2313 147.941 73.8513 147.411 73.7213 146.671C73.5313 145.591 72.9313 145.211 71.8813 145.351C71.4513 145.411 71.0013 145.411 70.5713 145.351C69.2213 145.161 68.2713 145.461 67.9913 147.011C67.7913 148.131 66.8313 147.761 66.1413 147.691C65.6713 147.641 65.8613 147.211 65.9713 146.921C67.1113 143.651 68.2713 140.381 69.4013 137.111C69.6413 136.421 70.1713 136.371 70.7513 136.411C71.3913 136.461 72.1813 136.161 72.5013 137.041C73.7013 140.381 74.8913 143.711 76.0513 147.061C76.4013 148.071 75.5013 147.601 75.3813 147.661V147.671ZM70.8813 143.671C71.0413 143.671 71.2013 143.651 71.3613 143.671C72.4113 143.801 72.7413 143.421 72.3413 142.401C71.9513 141.401 71.6513 140.371 71.3013 139.361C71.2413 139.171 71.1913 138.961 70.9313 138.961C70.6713 138.961 70.6213 139.161 70.5613 139.351C70.2713 140.211 69.9813 141.081 69.6913 141.941C69.3113 143.088 69.7046 143.661 70.8713 143.661L70.8813 143.671Z" fill="white"/>
<path d="M132.721 116.951C132.721 117.871 132.741 118.791 132.721 119.701C132.671 121.921 131.311 123.451 129.091 123.751C128.461 123.831 127.821 123.821 127.181 123.831C126.781 123.831 126.481 123.691 126.461 123.221C126.441 122.771 126.681 122.581 127.101 122.541C127.621 122.491 128.131 122.401 128.641 122.331C129.351 122.241 129.911 121.911 130.281 121.271C131.011 120.001 130.781 119.551 129.341 119.471C126.581 119.331 125.481 118.181 125.441 115.441C125.401 112.671 126.211 111.311 128.211 110.771C130.401 110.181 132.581 111.701 132.711 113.961C132.771 114.951 132.711 115.951 132.721 116.951ZM130.771 115.711C130.731 115.011 130.861 114.211 130.571 113.431C130.321 112.751 129.911 112.171 129.181 112.111C128.411 112.051 127.961 112.641 127.711 113.301C127.281 114.451 127.321 115.661 127.611 116.821C127.851 117.761 129.021 118.321 130.161 118.071C131.171 117.851 130.651 116.981 130.771 116.391C130.811 116.201 130.771 115.991 130.771 115.711Z" fill="white"/>
<path d="M83.1313 141.681C82.7813 143.261 82.4413 144.791 82.1013 146.321C81.9513 146.991 82.0113 147.741 80.9313 147.791C79.8513 147.841 79.6013 147.281 79.3713 146.431C78.8413 144.431 78.2113 142.451 77.6513 140.461C77.5513 140.101 77.1313 139.511 77.8313 139.411C78.4013 139.331 79.2513 138.981 79.4813 140.031C79.7813 141.391 80.0913 142.751 80.4013 144.111C80.5013 144.531 80.6313 144.931 80.8013 145.541C81.6113 144.381 81.4913 143.191 81.8113 142.121C81.9813 141.551 82.0813 140.961 82.1613 140.371C82.2713 139.601 82.6713 139.331 83.4613 139.341C84.2713 139.351 84.4413 139.751 84.5613 140.431C84.8113 141.841 85.1413 143.231 85.4313 144.641C85.4813 144.901 85.4013 145.281 85.7813 145.301C86.1813 145.331 86.1213 144.941 86.1813 144.691C86.4913 143.331 86.8013 141.971 87.1113 140.621C87.1713 140.351 87.2213 140.071 87.3413 139.821C87.6613 139.121 88.3113 139.331 88.8113 139.421C89.4713 139.541 89.0713 140.081 88.9913 140.391C88.4013 142.541 87.7313 144.671 87.1513 146.821C86.9413 147.601 86.5113 147.781 85.7713 147.801C84.9913 147.821 84.7313 147.481 84.6013 146.781C84.3613 145.411 84.0313 144.051 83.7613 142.691C83.6913 142.341 83.6713 141.971 83.1213 141.701L83.1313 141.681Z" fill="white"/>
<path d="M166.301 142.201C166.301 143.721 166.301 145.231 166.301 146.751C166.301 147.141 166.371 147.631 165.831 147.711C165.351 147.781 164.741 148.001 164.431 147.411C164.251 147.061 164.171 146.921 163.751 147.131C160.751 148.651 158.711 147.601 158.171 144.271C157.781 141.881 158.991 139.781 161.011 139.261C162.011 139.001 162.811 139.361 163.541 139.981C164.111 140.461 164.371 140.371 164.371 139.611C164.371 138.891 164.391 138.171 164.371 137.451C164.341 136.761 164.581 136.411 165.321 136.421C166.041 136.421 166.321 136.711 166.311 137.421C166.281 139.021 166.311 140.611 166.311 142.211L166.301 142.201ZM164.371 143.641C164.371 141.601 163.271 140.431 161.761 140.881C160.801 141.171 160.161 142.201 160.121 143.551C160.081 144.941 160.701 146.021 161.711 146.351C163.231 146.831 164.361 145.681 164.371 143.651V143.641Z" fill="white"/>
<path d="M112.071 140.421C112.071 139.301 112.101 138.391 112.071 137.491C112.041 136.751 112.281 136.381 113.091 136.401C113.851 136.411 114.031 136.771 114.031 137.451C114.011 140.561 114.031 143.671 114.031 146.781C114.031 147.171 114.081 147.641 113.531 147.721C113.111 147.781 112.581 147.921 112.351 147.431C112.101 146.911 111.901 146.931 111.451 147.201C109.111 148.631 106.961 147.791 106.221 145.151C105.931 144.101 105.931 143.001 106.181 141.951C106.851 139.201 109.331 138.461 112.081 140.421H112.071ZM108.021 143.771C108.021 143.901 107.981 144.191 108.021 144.461C108.221 145.531 108.781 146.321 109.941 146.461C110.921 146.581 111.701 145.901 112.081 144.751C112.391 143.831 112.331 142.931 111.961 142.061C111.641 141.321 111.061 140.861 110.211 140.811C109.351 140.771 108.761 141.181 108.351 141.891C108.051 142.421 107.921 143.011 108.011 143.771H108.021Z" fill="white"/>
<path d="M8.8413 111.011C9.0413 111.011 9.2613 110.961 9.4413 111.021C9.7513 111.131 10.4113 110.771 10.2913 111.461C10.2113 111.901 10.0613 112.501 9.2813 112.361C8.4113 112.211 7.6113 112.511 6.9313 113.041C6.0613 113.721 6.1313 114.211 7.1313 114.631C8.1813 115.061 9.1513 115.601 9.8513 116.521C10.8913 117.871 10.8713 119.381 9.8113 120.701C7.6313 123.421 2.6513 123.201 0.701299 120.311C0.191299 119.551 -0.0187013 118.721 0.00129865 117.821C0.0112987 117.171 -0.0887013 116.531 0.931299 116.541C1.8213 116.541 1.9513 116.951 1.9813 117.721C2.1013 120.541 4.8013 122.071 7.1813 120.711C8.8513 119.761 9.0213 117.871 7.5113 116.671C6.8113 116.111 6.0013 115.761 5.1313 115.611C4.0113 115.431 3.9413 114.741 4.1913 113.861C4.6913 112.121 6.4813 111.021 8.8413 111.021V111.011Z" fill="white"/>
<path d="M14.1913 140.471C15.3813 139.491 16.3813 138.891 17.6813 139.271C18.9913 139.651 19.6713 140.451 19.7013 141.881C19.7413 143.521 19.6913 145.151 19.7213 146.791C19.7313 147.521 19.4413 147.771 18.7213 147.771C17.9613 147.771 17.7613 147.421 17.7713 146.741C17.8013 145.381 17.7913 144.021 17.7713 142.671C17.7513 141.331 17.2813 140.811 16.1513 140.811C14.9413 140.811 14.2213 141.481 14.1913 142.721C14.1613 144.081 14.1613 145.441 14.1913 146.791C14.2113 147.521 13.9113 147.771 13.2013 147.781C12.4613 147.781 12.2313 147.471 12.2313 146.771C12.2513 143.661 12.2513 140.541 12.2313 137.431C12.2313 136.731 12.4713 136.411 13.2013 136.411C13.9213 136.411 14.2113 136.701 14.1913 137.421C14.1613 138.331 14.1913 139.241 14.1913 140.481V140.471Z" fill="white"/>
<path d="M53.6913 140.341C54.7113 139.501 55.7113 138.891 57.0113 139.271C58.3213 139.661 59.0113 140.441 59.0413 141.871C59.0813 143.511 59.0313 145.141 59.0613 146.781C59.0713 147.501 58.7913 147.771 58.0713 147.771C57.3213 147.771 57.1013 147.441 57.1113 146.751C57.1413 145.391 57.1313 144.031 57.1113 142.681C57.0913 141.341 56.6313 140.811 55.5013 140.811C54.2913 140.811 53.5613 141.471 53.5313 142.711C53.5013 144.071 53.5013 145.431 53.5313 146.781C53.5513 147.501 53.2713 147.781 52.5413 147.781C51.8113 147.781 51.5613 147.491 51.5613 146.781C51.5813 143.671 51.5813 140.551 51.5613 137.441C51.5613 136.741 51.7913 136.411 52.5313 136.411C53.2513 136.411 53.5313 136.691 53.5313 137.411C53.5313 138.341 53.4013 139.291 53.6713 140.351L53.6913 140.341Z" fill="white"/>
<path d="M233.961 144.091C234.061 145.031 233.781 146.161 234.151 147.251C234.221 147.451 234.251 147.701 233.981 147.711C233.441 147.741 232.691 148.021 232.421 147.501C231.961 146.631 231.611 147.091 231.131 147.371C230.721 147.611 230.271 147.811 229.821 147.921C228.421 148.251 226.961 147.411 226.611 146.131C226.261 144.831 227.041 143.601 228.541 143.191C229.341 142.971 230.181 142.881 231.001 142.721C231.541 142.621 232.011 142.431 232.021 141.761C232.031 141.031 231.511 140.821 230.951 140.691C230.241 140.521 229.601 140.691 229.101 141.251C228.891 141.481 228.731 141.791 228.361 141.781C227.941 141.771 227.401 141.991 227.131 141.571C226.811 141.081 227.211 140.661 227.531 140.311C228.781 138.931 231.871 138.751 233.271 139.961C233.751 140.381 233.981 140.891 233.971 141.541C233.951 142.341 233.971 143.131 233.971 144.101L233.961 144.091ZM232.161 144.421C232.131 144.091 232.121 143.711 231.521 143.721C229.861 143.751 228.661 144.481 228.691 145.471C228.711 146.321 229.251 146.671 230.001 146.691C231.221 146.731 232.171 145.721 232.151 144.411L232.161 144.421Z" fill="white"/>
<path d="M29.0713 144.171C29.1613 145.081 28.9013 146.171 29.2513 147.221C29.3213 147.421 29.3713 147.681 29.1213 147.701C28.5813 147.761 27.8113 148.011 27.5513 147.521C27.0513 146.561 26.6713 147.131 26.1713 147.421C25.3613 147.901 24.5013 148.151 23.5513 147.871C22.4413 147.541 21.7513 146.861 21.6513 145.691C21.5613 144.641 22.2713 143.601 23.4013 143.261C24.2713 143.001 25.1913 142.891 26.0913 142.721C26.6813 142.611 27.1813 142.411 27.1413 141.671C27.1013 140.941 26.5313 140.791 25.9913 140.671C25.3713 140.531 24.8013 140.701 24.3313 141.141C24.1913 141.271 24.1013 141.501 23.9413 141.591C23.3913 141.901 22.7113 142.011 22.2813 141.591C21.8713 141.191 22.3313 140.711 22.6513 140.361C23.9213 138.941 26.9213 138.731 28.3713 139.951C28.8613 140.361 29.1013 140.871 29.0913 141.521C29.0713 142.361 29.0913 143.191 29.0913 144.191L29.0713 144.171ZM25.0613 146.711C26.4013 146.671 27.3313 145.681 27.2713 144.451C27.2513 144.021 27.1713 143.691 26.5913 143.731C24.8113 143.841 23.7513 144.501 23.8113 145.521C23.8613 146.381 24.4313 146.641 25.0713 146.711H25.0613Z" fill="white"/>
<path d="M49.3413 147.761C48.5213 147.681 47.7013 148.061 47.2313 147.121C47.0313 146.721 46.7513 147.091 46.5513 147.221C46.0813 147.541 45.5813 147.771 45.0313 147.911C43.6013 148.271 42.3113 147.561 41.9113 146.221C41.5313 144.961 42.2213 143.651 43.6013 143.221C44.3913 142.971 45.2313 142.881 46.0613 142.741C46.6913 142.631 47.3113 142.431 47.2313 141.661C47.1613 140.951 46.5113 140.751 45.9113 140.661C45.2413 140.561 44.6313 140.741 44.2113 141.311C43.9413 141.681 43.6113 141.791 43.1913 141.801C42.3113 141.831 42.0813 141.471 42.5013 140.711C43.2213 139.411 44.5113 139.181 45.7913 139.141C48.1613 139.071 49.2113 140.191 49.2413 142.551C49.2613 144.251 49.1213 145.961 49.3513 147.761H49.3413ZM47.2913 144.561C47.2913 144.111 47.3113 143.681 46.6213 143.731C44.9913 143.851 43.7713 144.531 43.8013 145.411C43.8313 146.261 44.3413 146.711 45.2013 146.691C46.4413 146.661 47.3113 145.751 47.2913 144.551V144.561Z" fill="white"/>
<path d="M97.8013 147.761C96.9913 147.681 96.1713 148.061 95.7013 147.121C95.4913 146.711 95.2213 147.081 95.0213 147.211C94.5213 147.561 93.9713 147.801 93.3913 147.931C92.0113 148.231 90.7713 147.521 90.3813 146.221C90.0013 144.961 90.6913 143.641 92.0513 143.211C92.8413 142.961 93.6813 142.871 94.5113 142.731C95.1413 142.621 95.7613 142.421 95.6913 141.661C95.6313 140.941 94.9813 140.741 94.3713 140.651C93.7013 140.551 93.0913 140.731 92.6713 141.291C92.4313 141.601 92.1713 141.801 91.7713 141.781C91.4313 141.761 91.0113 141.911 90.8113 141.501C90.6513 141.171 90.8513 140.871 91.0113 140.611C91.7513 139.401 93.0013 139.171 94.2413 139.141C96.6113 139.071 97.6713 140.191 97.7013 142.541C97.7213 144.241 97.5813 145.951 97.8113 147.761H97.8013ZM93.4813 146.711C94.7313 146.751 95.7213 145.851 95.7413 144.681C95.7413 144.291 95.9213 143.751 95.1913 143.731C93.7113 143.681 92.2313 144.501 92.2513 145.421C92.2713 146.211 92.7513 146.631 93.4713 146.711H93.4813Z" fill="white"/>
<path d="M210.931 148.001C208.361 148.011 206.611 146.231 206.611 143.611C206.611 141.021 208.371 139.161 210.881 139.131C213.311 139.101 215.211 141.031 215.241 143.571C215.271 146.151 213.481 147.991 210.931 148.011V148.001ZM213.131 143.571C213.131 141.711 212.421 140.821 210.941 140.801C209.431 140.791 208.581 141.801 208.581 143.591C208.581 145.361 209.511 146.451 210.961 146.411C212.371 146.371 213.131 145.381 213.131 143.571Z" fill="white"/>
<path d="M194.621 144.101C194.721 145.041 194.441 146.171 194.811 147.261C194.881 147.461 194.911 147.711 194.641 147.721C194.101 147.741 193.361 148.031 193.081 147.501C192.621 146.631 192.251 147.071 191.801 147.391C191.331 147.721 190.801 147.901 190.251 147.981C188.951 148.171 187.691 147.371 187.451 146.271C187.131 144.771 187.771 143.591 189.201 143.201C189.961 142.991 190.761 142.901 191.541 142.761C192.161 142.651 192.761 142.491 192.681 141.671C192.601 140.831 191.911 140.731 191.281 140.651C190.751 140.591 190.251 140.771 189.861 141.161C189.721 141.301 189.631 141.511 189.471 141.611C188.961 141.911 188.321 141.991 187.901 141.631C187.541 141.321 187.921 140.801 188.161 140.451C189.241 138.801 193.081 138.721 194.271 140.301C194.541 140.671 194.641 141.081 194.641 141.541C194.631 142.341 194.641 143.141 194.641 144.101H194.621ZM192.821 144.511C192.791 144.171 192.831 143.751 192.241 143.721C190.801 143.651 189.361 144.491 189.351 145.421C189.341 146.271 189.851 146.651 190.611 146.701C191.811 146.781 192.801 145.801 192.821 144.501V144.511Z" fill="white"/>
<path d="M126.201 143.551C126.211 140.911 127.891 139.141 130.361 139.131C132.991 139.121 134.661 140.951 134.631 143.821C134.611 146.321 132.901 148.011 130.391 148.001C127.751 147.991 126.181 146.321 126.191 143.551H126.201ZM128.161 143.551C128.161 145.361 128.811 146.281 130.181 146.401C131.681 146.531 132.651 145.511 132.701 143.761C132.751 141.871 131.921 140.811 130.391 140.811C128.911 140.811 128.161 141.731 128.161 143.551Z" fill="white"/>
<path d="M274.261 143.441C274.261 140.231 276.551 138.491 279.591 139.391C281.061 139.821 282.361 141.811 282.181 143.331C282.101 143.971 281.651 143.931 281.211 143.931C279.891 143.931 278.581 143.921 277.261 143.931C276.191 143.951 276.011 144.241 276.421 145.251C276.941 146.551 278.381 146.971 279.571 146.061C280.281 145.521 281.341 145.191 281.661 145.781C282.041 146.481 281.041 147.131 280.341 147.481C277.551 148.851 274.041 147.531 274.261 143.441ZM278.111 142.921C278.311 142.921 278.511 142.941 278.701 142.921C279.171 142.851 279.861 143.131 279.971 142.401C280.081 141.651 279.621 141.101 278.921 140.871C278.351 140.681 277.741 140.661 277.201 141.001C276.671 141.331 276.241 141.861 276.341 142.461C276.451 143.151 277.161 142.861 277.641 142.931C277.801 142.951 277.961 142.931 278.111 142.931V142.921Z" fill="white"/>
<path d="M325.661 143.931C324.941 143.931 324.221 143.931 323.501 143.931C322.841 143.931 322.681 144.261 322.811 144.861C323.131 146.381 324.761 147.051 326.061 146.101C326.801 145.561 327.831 145.141 328.221 145.841C328.571 146.451 327.541 147.161 326.821 147.501C325.231 148.251 323.581 148.291 322.201 147.141C320.561 145.771 320.561 143.861 320.971 141.971C321.351 140.221 322.621 139.421 324.301 139.161C326.601 138.811 328.871 140.941 328.721 143.261C328.681 143.791 328.391 143.931 327.931 143.931C327.171 143.931 326.411 143.931 325.661 143.931ZM324.621 142.921C324.861 142.921 325.101 142.941 325.331 142.921C325.771 142.871 326.371 143.081 326.521 142.431C326.651 141.831 326.321 141.321 325.821 141.041C325.091 140.631 324.301 140.601 323.591 141.121C323.121 141.461 322.741 141.991 322.901 142.531C323.051 143.081 323.701 142.881 324.161 142.921C324.321 142.931 324.481 142.921 324.631 142.921H324.621Z" fill="white"/>
<path d="M297.221 143.921C296.621 143.921 296.021 143.921 295.421 143.921C294.381 143.941 294.161 144.271 294.501 145.241C294.921 146.431 296.481 146.951 297.581 146.131C298.331 145.571 299.091 145.321 299.891 145.701C300.281 145.881 299.221 147.201 298.201 147.591C295.191 148.751 292.081 147.361 292.361 143.131C292.571 139.991 294.811 138.521 297.651 139.361C299.211 139.821 300.331 141.511 300.211 143.141C300.171 143.711 299.921 143.921 299.391 143.911C298.671 143.901 297.951 143.911 297.231 143.911L297.221 143.921ZM296.221 142.961C296.811 142.601 297.941 143.521 298.091 142.211C298.181 141.401 297.251 140.731 296.271 140.741C295.331 140.741 294.351 141.491 294.471 142.251C294.641 143.361 295.611 142.701 296.211 142.951L296.221 142.961Z" fill="white"/>
<path d="M288.901 115.591C288.901 115.991 288.921 116.391 288.901 116.791C288.851 117.531 288.651 118.231 288.081 118.721C286.681 119.931 285.101 119.601 283.551 119.101C282.181 118.651 281.531 117.601 281.471 116.191C281.441 115.401 281.401 114.581 281.531 113.801C281.871 111.861 283.531 110.491 285.291 110.591C287.291 110.701 288.721 112.201 288.891 114.381C288.921 114.781 288.891 115.181 288.891 115.581L288.901 115.591ZM286.741 115.471C286.741 115.471 286.731 115.471 286.721 115.471C286.721 114.911 286.791 114.351 286.701 113.801C286.571 112.971 286.171 112.201 285.271 112.111C284.321 112.021 283.901 112.801 283.661 113.591C283.361 114.601 283.371 115.621 283.621 116.651C283.871 117.641 284.641 118.111 285.791 118.011C286.881 117.911 286.701 117.111 286.721 116.421C286.731 116.101 286.721 115.781 286.721 115.471H286.741Z" fill="white"/>
<path d="M304.131 140.521C305.311 139.531 306.321 138.831 307.691 139.281C308.911 139.681 309.741 140.641 309.771 141.901C309.811 143.541 309.761 145.181 309.791 146.811C309.801 147.571 309.451 147.761 308.761 147.761C308.021 147.761 307.771 147.451 307.781 146.751C307.801 145.431 307.811 144.111 307.761 142.801C307.701 141.291 307.281 140.811 306.121 140.801C304.901 140.781 304.151 141.431 304.061 142.791C303.971 144.061 304.011 145.341 304.031 146.621C304.031 147.301 303.961 147.771 303.081 147.771C302.251 147.771 302.071 147.381 302.081 146.661C302.111 144.661 302.081 142.671 302.101 140.671C302.101 140.161 301.861 139.481 302.731 139.361C303.481 139.261 304.111 139.361 304.131 140.521Z" fill="white"/>
<path d="M217.141 143.541C217.141 142.501 217.141 141.471 217.141 140.431C217.141 140.011 217.031 139.471 217.651 139.391C218.141 139.331 218.721 139.181 218.881 139.941C219.011 140.571 219.351 140.331 219.641 140.061C220.731 139.051 221.971 138.861 223.271 139.521C224.531 140.161 224.631 141.371 224.611 142.611C224.591 143.971 224.581 145.321 224.611 146.681C224.631 147.421 224.401 147.781 223.591 147.761C222.821 147.751 222.651 147.381 222.661 146.711C222.681 145.351 222.681 144.001 222.661 142.641C222.641 141.311 222.171 140.791 221.041 140.791C219.831 140.791 219.121 141.461 219.091 142.701C219.061 144.051 219.061 145.411 219.091 146.771C219.111 147.491 218.831 147.761 218.101 147.761C217.371 147.761 217.101 147.471 217.121 146.761C217.151 145.681 217.121 144.611 217.121 143.531L217.141 143.541Z" fill="white"/>
<path d="M176.181 143.511C176.181 144.591 176.181 145.661 176.181 146.741C176.181 147.181 176.231 147.691 175.601 147.731C175.151 147.761 174.621 147.911 174.451 147.211C174.261 146.421 173.901 146.911 173.631 147.151C172.901 147.791 172.051 148.091 171.091 147.961C169.701 147.771 168.811 146.811 168.731 145.221C168.641 143.551 168.721 141.871 168.701 140.191C168.701 139.471 169.091 139.341 169.701 139.341C170.341 139.341 170.671 139.541 170.661 140.231C170.641 141.631 170.641 143.021 170.661 144.421C170.691 145.751 171.201 146.361 172.241 146.401C173.371 146.441 174.001 145.841 174.231 144.631C174.481 143.321 174.331 142.001 174.381 140.691C174.401 140.071 174.231 139.361 175.251 139.341C176.261 139.321 176.171 139.981 176.171 140.631C176.171 141.591 176.171 142.551 176.171 143.501L176.181 143.511Z" fill="white"/>
<path d="M265.151 143.731C265.121 140.381 267.611 138.421 270.651 139.411C271.401 139.651 272.011 140.091 272.431 140.751C272.701 141.171 273.161 141.751 272.571 142.101C272.081 142.391 271.281 142.551 270.881 141.821C270.341 140.831 269.501 140.631 268.551 140.871C267.671 141.091 267.441 141.881 267.241 142.701C267.041 143.521 267.151 144.291 267.361 145.061C267.561 145.801 268.051 146.321 268.851 146.441C269.641 146.561 270.241 146.261 270.691 145.601C270.841 145.371 270.981 145.051 271.201 144.981C271.681 144.831 272.291 144.681 272.671 145.091C273.031 145.471 272.631 145.921 272.431 146.291C271.691 147.641 269.961 148.311 268.271 147.941C266.391 147.531 265.331 146.281 265.141 144.221C265.131 144.061 265.141 143.901 265.141 143.741L265.151 143.731Z" fill="white"/>
<path d="M256.111 139.521C257.641 139.081 258.541 139.461 259.151 140.801C259.741 142.111 260.011 142.091 260.671 140.801C261.171 139.841 261.701 139.151 262.941 139.331C263.611 139.431 263.561 139.631 263.271 140.071C262.671 140.971 262.111 141.891 261.491 142.771C261.121 143.301 261.091 143.741 261.491 144.281C262.121 145.151 262.681 146.081 263.301 146.961C263.741 147.591 263.541 147.701 262.851 147.791C261.651 147.951 261.111 147.311 260.661 146.371C260.481 145.991 260.341 145.401 259.891 145.381C259.351 145.361 259.191 145.991 259.011 146.401C258.571 147.371 257.991 147.951 256.811 147.791C256.131 147.701 256.061 147.521 256.421 147.001C257.031 146.111 257.591 145.191 258.221 144.321C258.631 143.751 258.661 143.291 258.231 142.711C257.511 141.711 256.861 140.661 256.111 139.531V139.521Z" fill="white"/>
<path d="M313.861 143.741C313.831 144.171 313.871 144.761 314.131 145.321C314.761 146.681 316.301 146.851 317.201 145.651C317.341 145.461 317.411 145.171 317.591 145.061C318.091 144.751 318.721 144.711 319.171 145.031C319.631 145.371 319.211 145.841 319.021 146.201C318.321 147.551 316.671 148.251 315.021 147.931C313.261 147.591 312.121 146.441 311.941 144.741C311.871 144.031 311.871 143.301 311.941 142.591C312.111 140.841 313.211 139.681 315.021 139.251C316.491 138.901 318.241 139.551 319.011 140.771C319.261 141.161 319.661 141.691 319.181 142.051C318.711 142.401 317.891 142.491 317.561 141.961C316.931 140.961 316.141 140.481 315.081 140.921C313.961 141.381 313.851 142.481 313.861 143.731V143.741Z" fill="white"/>
<path d="M178.301 143.701C178.251 141.071 179.291 139.661 181.601 139.201C182.971 138.921 184.751 139.681 185.431 140.871C185.661 141.261 186.051 141.821 185.481 142.121C184.991 142.381 184.211 142.521 183.861 141.901C183.281 140.891 182.471 140.541 181.471 140.921C180.441 141.311 180.231 142.301 180.241 143.301C180.241 143.811 180.241 144.341 180.351 144.841C180.531 145.681 181.021 146.301 181.921 146.431C182.721 146.541 183.341 146.171 183.681 145.461C183.941 144.921 184.351 144.881 184.851 144.861C185.771 144.841 185.861 145.241 185.521 145.971C184.881 147.401 183.241 148.231 181.531 147.961C179.721 147.681 178.521 146.501 178.311 144.771C178.271 144.421 178.311 144.051 178.311 143.701H178.301Z" fill="white"/>
<path d="M236.391 116.311C236.391 117.471 236.421 118.631 236.391 119.791C236.321 122.001 235.021 123.451 232.821 123.761C232.151 123.851 231.461 123.831 230.791 123.841C230.361 123.841 230.121 123.621 230.131 123.171C230.131 122.781 230.341 122.601 230.721 122.561C231.081 122.521 231.431 122.421 231.791 122.411C233.721 122.381 234.441 121.131 234.451 119.291C234.461 117.091 234.461 114.901 234.451 112.701C234.451 112.031 234.511 111.551 235.391 111.541C236.311 111.531 236.451 111.981 236.431 112.731C236.401 113.931 236.431 115.131 236.431 116.331H236.421L236.391 116.311Z" fill="white"/>
<path d="M121.431 144.111C121.431 143.431 121.431 142.751 121.431 142.071C121.431 141.411 121.611 140.661 120.591 140.531C120.321 140.501 120.251 140.221 120.251 139.971C120.251 139.651 120.401 139.391 120.721 139.391C121.431 139.391 121.391 138.921 121.461 138.421C121.691 136.821 122.561 136.111 124.041 136.241C124.421 136.271 124.781 136.311 124.821 136.791C124.861 137.211 124.821 137.591 124.291 137.711C124.101 137.751 123.901 137.841 123.761 137.971C123.201 138.481 123.351 139.171 124.091 139.351C124.471 139.441 124.801 139.491 124.811 139.971C124.821 140.441 124.521 140.581 124.131 140.631C123.421 140.711 123.381 141.231 123.391 141.781C123.391 143.421 123.371 145.061 123.391 146.691C123.401 147.421 123.211 147.791 122.391 147.791C121.521 147.791 121.411 147.331 121.431 146.641C121.461 145.801 121.431 144.961 121.431 144.121V144.111Z" fill="white"/>
<path d="M39.8613 144.741C39.8613 146.211 39.9013 147.691 39.8513 149.161C39.8013 150.541 39.0113 151.251 37.7213 151.171C37.3913 151.151 37.0613 151.131 36.9713 150.741C36.8913 150.421 36.8913 150.041 37.2013 149.881C38.0113 149.461 37.9413 148.751 37.9413 148.031C37.9413 145.641 37.9213 143.251 37.9413 140.861C37.9413 140.201 37.6513 139.371 38.8713 139.351C40.0513 139.331 39.8613 140.111 39.8613 140.811C39.8613 142.121 39.8613 143.441 39.8613 144.751V144.741Z" fill="white"/>
<path d="M199.421 147.781C197.831 147.761 197.461 147.411 197.431 145.881C197.411 144.761 197.441 143.651 197.421 142.531C197.401 141.731 197.631 140.861 196.501 140.451C196.081 140.301 196.081 139.571 196.621 139.441C197.471 139.241 197.411 138.661 197.411 138.071C197.411 137.431 197.671 137.121 198.341 137.121C199.031 137.121 199.251 137.461 199.251 138.091C199.251 138.751 199.251 139.401 200.201 139.401C200.531 139.401 200.631 139.711 200.611 140.021C200.601 140.351 200.431 140.551 200.101 140.581C199.351 140.661 199.251 141.191 199.251 141.791C199.251 142.951 199.241 144.101 199.251 145.261C199.251 145.701 199.301 146.161 199.801 146.361C200.261 146.541 200.771 146.681 200.571 147.331C200.371 147.981 199.781 147.691 199.401 147.771L199.421 147.781Z" fill="white"/>
<path d="M274.511 113.721C274.511 115.321 274.491 116.911 274.511 118.511C274.521 119.251 274.201 119.481 273.501 119.481C272.781 119.481 272.491 119.201 272.501 118.491C272.521 115.301 272.521 112.111 272.501 108.921C272.501 108.141 272.831 107.871 273.591 107.881C274.361 107.881 274.521 108.281 274.511 108.951C274.491 110.551 274.511 112.141 274.511 113.741V113.721Z" fill="white"/>
<path d="M121.361 113.711C121.361 112.111 121.381 110.521 121.361 108.921C121.351 108.141 121.681 107.861 122.441 107.871C123.211 107.871 123.371 108.261 123.371 108.931C123.351 112.121 123.351 115.311 123.371 118.501C123.371 119.231 123.071 119.481 122.371 119.481C121.661 119.481 121.351 119.211 121.361 118.491C121.381 116.891 121.361 115.301 121.361 113.701V113.711Z" fill="white"/>
<path d="M60.1814 113.591C60.1814 112.031 60.2014 110.481 60.1814 108.921C60.1714 108.141 60.5014 107.861 61.2614 107.871C62.0314 107.871 62.1914 108.271 62.1914 108.931C62.1714 112.121 62.1714 115.311 62.1914 118.501C62.1914 119.241 61.8914 119.471 61.1814 119.471C60.4714 119.471 60.1714 119.201 60.1714 118.481C60.1914 116.841 60.1714 115.211 60.1714 113.571L60.1814 113.591Z" fill="white"/>
<path d="M286.031 142.121C286.031 143.641 286.011 145.161 286.031 146.671C286.051 147.401 285.861 147.791 285.031 147.771C284.271 147.761 284.081 147.421 284.081 146.741C284.101 143.621 284.101 140.511 284.081 137.391C284.081 136.671 284.371 136.401 285.081 136.401C285.831 136.401 286.041 136.761 286.031 137.441C286.011 139.001 286.031 140.561 286.031 142.111V142.121Z" fill="white"/>
<path d="M138.571 140.701C139.281 140.181 139.561 139.531 140.211 139.341C140.601 139.231 141.141 138.861 141.281 139.531C141.391 140.041 141.661 140.731 140.841 141.061C139.261 141.707 138.471 142.881 138.471 144.581C138.471 145.221 138.471 145.861 138.471 146.491C138.481 147.161 138.521 147.761 137.531 147.761C136.581 147.761 136.531 147.251 136.531 146.531C136.551 144.621 136.521 142.701 136.551 140.791C136.551 140.231 136.231 139.461 137.281 139.331C138.241 139.211 138.561 139.691 138.561 140.681L138.571 140.701Z" fill="white"/>
<path d="M33.4513 140.701C34.1813 140.211 34.4513 139.541 35.1013 139.351C35.4913 139.241 36.0313 138.851 36.1813 139.521C36.3013 140.031 36.5813 140.921 35.7613 141.031C33.4313 141.331 33.2913 142.901 33.3713 144.701C33.4013 145.421 33.3513 146.141 33.3813 146.851C33.4013 147.521 33.1113 147.771 32.4513 147.771C31.7513 147.771 31.4213 147.561 31.4313 146.811C31.4613 144.821 31.4213 142.821 31.4513 140.831C31.4513 140.271 31.1113 139.491 32.1613 139.351C33.1013 139.231 33.4813 139.651 33.4413 140.701H33.4513Z" fill="white"/>
<path d="M100.871 139.361C101.401 139.341 101.721 139.461 101.771 139.991C101.871 140.991 102.251 140.571 102.611 140.141C102.891 139.801 103.211 139.481 103.641 139.351C104.061 139.221 104.661 138.821 104.821 139.551C104.941 140.131 105.221 140.891 104.121 141.111C102.191 141.501 102.011 141.801 102.011 143.791C102.011 144.831 101.991 145.871 102.011 146.911C102.021 147.631 101.621 147.761 101.011 147.771C100.381 147.771 100.031 147.581 100.041 146.891C100.061 144.651 100.051 142.411 100.041 140.181C100.041 139.551 100.351 139.311 100.871 139.371V139.361Z" fill="white"/>
<path d="M290.421 142.181C290.421 143.691 290.411 145.211 290.421 146.721C290.421 147.381 290.251 147.771 289.481 147.771C288.681 147.771 288.581 147.311 288.581 146.681C288.581 143.611 288.591 140.541 288.581 137.471C288.581 136.821 288.751 136.401 289.521 136.411C290.321 136.411 290.421 136.891 290.411 137.511C290.411 139.061 290.411 140.621 290.411 142.171L290.421 142.181Z" fill="white"/>
<path d="M238.351 142.241C238.351 143.721 238.351 145.191 238.351 146.671C238.351 147.291 238.281 147.771 237.471 147.771C236.711 147.771 236.511 147.411 236.521 146.741C236.531 143.631 236.531 140.521 236.521 137.411C236.521 136.801 236.701 136.431 237.401 136.411C238.161 136.401 238.361 136.791 238.351 137.451C238.331 139.041 238.351 140.641 238.351 142.231V142.241Z" fill="white"/>
<path d="M202.731 143.661C202.731 142.551 202.741 141.431 202.731 140.321C202.721 139.691 202.921 139.361 203.621 139.361C204.301 139.361 204.541 139.671 204.531 140.311C204.521 142.501 204.521 144.691 204.531 146.881C204.531 147.551 204.221 147.791 203.571 147.781C202.951 147.781 202.721 147.481 202.731 146.891C202.741 145.821 202.731 144.741 202.731 143.671V143.661Z" fill="white"/>
<path d="M304.101 109.391C303.871 109.341 303.111 109.521 303.211 109.191C303.441 108.401 302.591 107.521 303.451 106.851C303.941 106.471 304.481 106.271 305.101 106.351C305.191 106.361 305.321 106.501 305.331 106.591C305.361 106.831 305.181 106.961 304.971 106.971C304.441 107.011 304.021 107.141 304.031 107.791C304.031 108.381 304.351 108.651 304.921 108.681C305.161 108.691 305.441 108.761 305.391 109.081C305.341 109.371 305.061 109.381 304.821 109.391C304.621 109.391 304.421 109.391 304.091 109.391H304.101Z" fill="white"/>
<path d="M145.651 109.651C144.971 109.641 144.521 109.321 144.521 108.661C144.521 108.081 144.931 107.731 145.541 107.711C146.211 107.691 146.621 108.011 146.621 108.691C146.621 109.321 146.231 109.611 145.651 109.641V109.651Z" fill="white"/>
<path d="M228.241 109.121C227.661 109.021 227.131 108.781 227.081 108.141C227.031 107.481 227.531 107.121 228.121 107.061C228.771 107.001 229.141 107.411 229.171 108.071C229.191 108.691 228.821 108.991 228.251 109.121H228.241Z" fill="white"/>
<path d="M38.8414 137.951C38.1814 138.021 37.9214 137.721 37.9214 137.051C37.9214 136.301 38.3614 136.241 38.9414 136.231C39.6014 136.221 39.8814 136.471 39.8714 137.141C39.8714 137.881 39.4414 137.991 38.8414 137.951Z" fill="white"/>
<path d="M212.361 108.111C212.241 108.671 211.921 109.101 211.351 109.091C210.731 109.091 210.281 108.661 210.311 108.041C210.341 107.431 210.791 107.001 211.421 107.061C211.981 107.111 212.291 107.541 212.361 108.111Z" fill="white"/>
<path d="M204.681 137.101C204.751 137.801 204.351 137.961 203.731 137.971C203.071 137.971 202.671 137.811 202.691 137.041C202.711 136.311 203.151 136.241 203.721 136.231C204.331 136.231 204.741 136.381 204.681 137.101Z" fill="white"/>
<path d="M84.9014 122.401C84.8214 122.981 84.4914 123.411 83.9214 123.441C83.3514 123.471 82.8914 123.111 82.8514 122.521C82.8014 121.881 83.2314 121.451 83.8614 121.411C84.4714 121.381 84.7414 121.861 84.9014 122.391V122.401Z" fill="white"/>
<path d="M81.8414 122.431C81.7714 123.041 81.3914 123.411 80.8314 123.441C80.2414 123.471 79.8214 123.061 79.8014 122.491C79.7814 121.871 80.1814 121.401 80.8314 121.421C81.4114 121.441 81.7314 121.861 81.8314 122.431H81.8414Z" fill="white"/>
<path d="M284.601 107.811C284.611 108.431 284.271 108.821 283.701 108.841C283.071 108.861 282.671 108.441 282.681 107.791C282.691 107.201 283.091 106.811 283.661 106.811C284.221 106.811 284.601 107.181 284.601 107.801V107.811Z" fill="white"/>
<path d="M183.081 108.281C182.991 108.861 182.651 109.191 182.051 109.201C181.441 109.211 181.031 108.871 181.031 108.291C181.031 107.691 181.431 107.231 182.091 107.261C182.671 107.291 182.981 107.701 183.081 108.271V108.281Z" fill="white"/>
<path d="M106.581 108.141C106.581 108.821 106.261 109.231 105.671 109.241C105.051 109.261 104.541 108.861 104.541 108.251C104.541 107.721 104.991 107.301 105.571 107.271C106.191 107.231 106.511 107.601 106.571 108.141H106.581Z" fill="white"/>
<path d="M286.721 108.891C286.111 108.741 285.741 108.451 285.751 107.831C285.751 107.211 286.131 106.831 286.691 106.831C287.321 106.831 287.711 107.271 287.681 107.921C287.651 108.521 287.221 108.791 286.721 108.901V108.891Z" fill="white"/>
<path d="M4.87135 124.941C4.86135 125.751 4.46135 126.071 3.88135 126.031C3.30135 126.001 2.90135 125.631 2.94135 125.011C2.98135 124.421 3.35135 124.031 3.96135 124.051C4.58135 124.071 4.85135 124.501 4.88135 124.941H4.87135Z" fill="white"/>
<path d="M226.041 107.971C226.001 108.631 225.681 109.041 225.111 109.091C224.531 109.141 224.141 108.791 224.091 108.181C224.041 107.521 224.391 107.091 225.031 107.061C225.621 107.041 225.911 107.491 226.041 107.971Z" fill="white"/>
<path d="M214.331 107.041C214.931 107.101 215.331 107.451 215.381 108.011C215.431 108.591 215.041 109.031 214.471 109.081C213.841 109.131 213.391 108.741 213.361 108.091C213.331 107.491 213.791 107.201 214.331 107.051V107.041Z" fill="white"/>
<path d="M253.881 109.321C253.801 109.981 253.491 110.341 252.881 110.341C252.261 110.341 251.921 109.991 251.921 109.381C251.921 108.771 252.261 108.421 252.881 108.421C253.501 108.421 253.781 108.811 253.881 109.311V109.321Z" fill="white"/>
<path d="M255.371 106.991C255.331 107.541 255.041 107.931 254.421 107.931C253.821 107.931 253.441 107.561 253.431 106.961C253.431 106.351 253.811 106.021 254.411 106.001C255.041 105.981 255.351 106.311 255.371 106.991Z" fill="white"/>
<path d="M185.101 107.241C185.711 107.301 186.081 107.671 186.091 108.251C186.101 108.851 185.731 109.221 185.101 109.201C184.501 109.181 184.081 108.871 184.101 108.251C184.121 107.661 184.521 107.341 185.111 107.241H185.101Z" fill="white"/>
<path d="M256.991 109.391C256.921 109.981 256.611 110.341 256.001 110.351C255.391 110.351 255.041 110.011 255.041 109.401C255.041 108.791 255.381 108.441 256.001 108.441C256.611 108.441 256.921 108.811 256.991 109.401V109.391Z" fill="white"/>
<path d="M324.971 121.381C325.561 121.471 325.891 121.801 325.871 122.411C325.841 123.031 325.481 123.341 324.871 123.311C324.261 123.281 323.931 122.921 323.961 122.311C323.991 121.701 324.381 121.411 324.981 121.381H324.971Z" fill="white"/>
<path d="M29.2713 122.421C29.1313 123.021 28.8013 123.351 28.1713 123.321C27.5413 123.291 27.1713 122.921 27.2313 122.321C27.2813 121.761 27.6813 121.361 28.2913 121.401C28.8913 121.441 29.1913 121.841 29.2613 122.411L29.2713 122.421Z" fill="white"/>
<path d="M72.4014 109.151C71.7314 109.081 71.3314 108.761 71.3414 108.161C71.3514 107.571 71.7214 107.211 72.3414 107.211C72.9714 107.211 73.3414 107.571 73.3314 108.161C73.3314 108.751 72.9214 109.071 72.4014 109.141V109.151Z" fill="white"/>
<path d="M149.541 108.611C149.531 109.221 149.271 109.611 148.641 109.631C148.041 109.651 147.641 109.341 147.621 108.741C147.601 108.161 147.921 107.761 148.531 107.721C149.151 107.681 149.471 108.021 149.541 108.611Z" fill="white"/>
<path d="M47.5313 109.271C46.9013 109.151 46.5313 108.831 46.5513 108.211C46.5713 107.601 46.9213 107.231 47.5313 107.261C48.1313 107.291 48.4813 107.681 48.4713 108.281C48.4713 108.901 48.0413 109.161 47.5313 109.271Z" fill="white"/>
<path d="M44.4213 109.271C43.8613 109.151 43.4513 108.871 43.4713 108.241C43.4913 107.641 43.8613 107.261 44.4513 107.261C45.0613 107.261 45.3913 107.641 45.3913 108.261C45.3913 108.891 45.0013 109.171 44.4213 109.271Z" fill="white"/>
<path d="M172.061 108.061C171.961 108.691 171.601 109.051 171.011 109.011C170.421 108.971 170.091 108.561 170.131 107.951C170.171 107.341 170.531 106.981 171.141 107.041C171.741 107.091 172.031 107.501 172.061 108.071V108.061Z" fill="white"/>
<path d="M293.781 109.151C293.181 109.091 292.771 108.771 292.781 108.161C292.791 107.571 293.161 107.211 293.791 107.211C294.421 107.211 294.791 107.581 294.781 108.161C294.781 108.741 294.381 109.091 293.781 109.141V109.151Z" fill="white"/>
<path d="M6.99136 126.061C6.42136 125.961 6.03136 125.681 6.02136 125.051C6.02136 124.421 6.39136 124.071 6.97136 124.061C7.56136 124.051 7.94136 124.401 7.94136 125.031C7.94136 125.651 7.56136 125.951 6.98136 126.061H6.99136Z" fill="white"/>
<path d="M108.701 109.271C108.121 109.171 107.731 108.881 107.731 108.251C107.731 107.641 108.071 107.251 108.681 107.261C109.281 107.261 109.641 107.641 109.661 108.251C109.671 108.871 109.271 109.161 108.701 109.271Z" fill="white"/>
</g>
<defs>
<clipPath id="clip0_4268_21501">
<rect width="495" height="153" fill="white"/>
</clipPath>
</defs>
</svg>
