<svg width="24" height="25" viewBox="0 0 24 25" fill="none" xmlns="http://www.w3.org/2000/svg">
<path d="M13.5 4.70361C13.5 3.87519 12.8284 3.20361 12 3.20361H7C5.067 3.20361 3.5 4.77062 3.5 6.70361V18.7036C3.5 20.6366 5.067 22.2036 7 22.2036H11.5C12.3284 22.2036 13 21.532 13 20.7036C13 19.8752 12.3284 19.2036 11.5 19.2036H7C6.72386 19.2036 6.5 18.9798 6.5 18.7036V6.70361C6.5 6.42747 6.72386 6.20361 7 6.20361H12C12.8284 6.20361 13.5 5.53204 13.5 4.70361Z" fill="white"/>
<path d="M15.7928 11.2036L16.0606 10.9358C16.6464 10.3501 16.6464 9.40031 16.0606 8.81453C15.4748 8.22874 14.5251 8.22874 13.9393 8.81453L11.1108 11.643C10.5251 12.2287 10.5251 13.1785 11.1108 13.7643L13.9393 16.5927C14.5251 17.1785 15.4748 17.1785 16.0606 16.5927C16.6464 16.0069 16.6464 15.0572 16.0606 14.4714L15.7928 14.2036H20C20.8284 14.2036 21.5 13.532 21.5 12.7036C21.5 11.8752 20.8284 11.2036 20 11.2036H15.7928Z" fill="white"/>
</svg>
