<svg width="330" height="213" viewBox="0 0 330 213" fill="none" xmlns="http://www.w3.org/2000/svg">
<g clip-path="url(#clip0_2794_25289)">
<path d="M140.14 93.97C139.79 92.95 139.84 92.11 140 91.31C140.33 89.71 140.66 88.11 140.64 86.46C140.64 85.85 140.74 85.17 141.33 84.9C142.01 84.58 142.42 85.24 142.83 85.63C144.7 87.39 145.38 89.65 144.88 92.08C144.16 95.61 142.63 98.81 140.16 101.5C139.56 102.15 138.9 102.69 138.07 103.06C136.63 103.69 135.93 104.94 135.64 106.42C134.9 110.18 132.84 113.18 130.14 115.73C127.92 117.83 125.36 119.31 122.08 119.04C119.69 118.84 118.23 117.76 117.6 115.43C116.56 111.58 117.36 107.92 118.88 104.36C119.3 103.37 119.74 102.38 120.23 101.42C120.67 100.57 120.32 100.25 119.52 100.15C118.72 100.04 117.93 100.25 117.13 100.27C109.13 100.46 101.15 100.32 93.37 98.13C86.36 96.16 79.94 93.06 74.47 88.15C72.23 86.15 70.46 83.83 69 81.23C67.97 79.4 67.68 79.34 65.83 80.37C60.67 83.25 56.14 86.99 51.69 90.83C51.48 91.01 51.28 91.21 51.07 91.39C51.02 91.43 50.92 91.43 50.74 91.48C50.96 90.84 51.4 90.44 51.8 90.03C56.24 85.47 60.95 81.22 66.33 77.77C67.22 77.2 67.56 76.5 67.47 75.48C67.04 70.34 68.17 65.56 70.96 61.21C73.67 56.99 77.52 54.05 81.85 51.68C87.18 48.77 92.96 47.33 98.94 46.54C101.8 46.16 104.67 45.99 107.53 45.92C110.63 45.84 113.75 46.13 116.85 46.4C124.45 47.06 131.72 49.23 138.99 51.36C142.74 52.46 146.35 53.99 149.88 55.71C150.65 56.08 151.62 56.89 152.27 56.37C152.97 55.82 152.1 54.86 151.88 54.09C151.6 53.09 151.54 52.12 151.93 51.16C152.37 50.09 152.82 49.02 153.29 47.97C153.61 47.27 154.02 47.21 154.53 47.84C155.67 49.23 155.78 50.57 154.86 52.15C154.66 52.49 154.46 52.85 154.31 53.21C153.83 54.39 154.01 55.01 155.16 55.56C155.81 55.88 156.54 56.69 157.19 56.25C157.94 55.74 157.39 54.77 157.27 54.02C155.72 44.77 153.38 35.7 150.88 26.66C150.45 25.1 149.6 23.64 149.71 21.93C149.82 20.19 150.8 18.96 151.98 17.86C152.53 17.34 152.71 17.91 152.87 18.32C153.6 20.31 154.03 22.38 154.52 24.44C156.82 34.22 158.54 44.11 160.31 54C160.57 55.45 160.79 56.91 161.06 58.36C161.19 59.09 161.54 59.71 162.19 60.12C164.22 61.4 166.23 62.69 168.26 63.97C168.58 64.17 168.93 64.48 169.35 64.19C169.75 63.91 169.63 63.47 169.62 63.09C169.57 61.12 169.02 59.42 167.11 58.43C166.66 58.2 166.31 57.76 165.86 57.5C161.99 55.28 161.36 51.33 160.55 47.51C160.32 46.45 160.57 45.36 161.08 44.37C161.85 42.88 162.62 41.39 163.4 39.91C163.52 39.68 163.65 39.36 163.99 39.39C164.32 39.43 164.38 39.76 164.48 40.01C165.21 41.83 165.52 43.59 164.06 45.28C163.41 46.03 163.02 46.97 162.66 47.91C162.26 48.96 162.52 49.79 163.31 50.5C164.44 51.51 165.78 52.27 166.82 53.39C167 53.59 167.29 53.76 167.58 53.64C167.99 53.47 167.95 53.07 167.96 52.71C167.98 50.57 167.43 48.52 166.99 46.46C165.48 39.33 164.51 32.09 162.66 25.03C161.64 21.14 160.78 17.2 159.38 13.41C159.12 12.71 159.12 12.02 159.49 11.34C159.91 10.57 160.3 9.77998 160.7 8.99998C160.84 8.71998 160.93 8.32998 161.32 8.36998C161.72 8.40998 161.7 8.82998 161.79 9.11998C162.88 13.08 164.04 17.02 165.03 21.01C166.77 28.01 168.51 35.02 170.01 42.07C170.54 44.54 170.67 47.12 171.11 49.62C171.46 51.62 171.8 53.62 171.84 55.66C171.86 56.91 172.5 57.85 173.48 58.58C175.21 59.87 177 61.08 178.5 62.65C178.8 62.96 179.19 63.31 179.66 63.11C180.18 62.88 179.98 62.33 179.95 61.93C179.78 59.15 179.43 56.38 178.95 53.63C178.71 52.24 177.84 51.18 176.59 50.46C175.76 49.98 174.94 49.48 174.14 48.95C173.26 48.36 172.55 47.6 172.25 46.55C171.7 44.67 170.96 42.86 170.83 40.83C170.64 37.8 171.93 35.33 173.41 32.89C173.76 32.31 174.02 32.57 174.23 33.02C174.84 34.32 174.91 35.63 174.28 36.95C173.68 38.21 173.09 39.48 172.52 40.75C172.08 41.72 172.24 42.5 173.21 43.1C174.26 43.76 175.24 44.52 176.26 45.21C176.58 45.42 176.93 45.8 177.33 45.6C177.76 45.38 177.58 44.88 177.56 44.51C177.45 42.23 176.91 40.02 176.5 37.79C174.4 26.49 171.48 15.39 168.4 4.31998C167.92 2.60998 168.63 1.44998 169.68 0.349982C170.25 -0.250018 170.83 -0.0400177 171.23 0.659982C171.67 1.43998 171.82 2.30998 172.04 3.14998C174.7 13.21 176.87 23.39 178.69 33.63C179.48 38.1 180.07 42.6 180.69 47.1C180.91 48.66 181.74 49.71 182.99 50.56C187.67 53.71 191.71 57.55 195.27 61.91C199.57 67.2 202.32 73.21 203.41 79.92C203.84 82.57 203.63 85.26 202.73 87.85C202.31 89.06 201.98 90.3 201.44 91.46C200.42 93.65 200.55 95.76 201.54 97.91C204.18 103.68 206.77 109.48 209.38 115.26C210.04 116.71 210.73 118.16 211.41 119.6C211.9 120.64 212.7 121.14 213.88 121.15C220.28 121.18 226.59 122.19 232.9 123.15C236.17 123.65 239.43 124.2 242.7 124.73C242.96 124.77 243.33 124.64 243.41 125C243.48 125.31 243.16 125.48 242.95 125.65C241.11 127.13 239.3 128.63 237.41 130.05C235.97 131.13 234.27 130.98 232.68 130.58C227.34 129.26 221.96 128.08 216.55 127.09C213.07 126.46 209.52 126.16 206 125.71C204.7 125.54 203.39 125.37 202.09 125.17C200.73 124.96 199.73 124.24 199.15 122.98C198.56 121.71 197.9 120.47 197.4 119.17C195.96 115.4 194.01 111.86 192.32 108.2C191.61 106.65 191.06 106.44 190.12 107.03C187.88 108.44 187.61 109.08 188.75 110.61C191.16 113.86 193.34 117.27 194.76 121.07C196.17 124.83 196.98 128.81 196.7 132.79C196.33 138.04 193.5 141.98 188.89 144.55C186.17 146.07 183.22 146.83 180.1 147.07C177.52 147.27 174.97 147.8 172.65 147.79C175.26 147.39 178.1 146.76 180.72 145.43C184.58 143.47 188.23 141.18 191.33 138.11C194.92 134.56 195.93 130.36 194.35 125.6C192.99 121.51 190.74 117.87 188.15 114.45C188.05 114.32 187.94 114.2 187.83 114.1C187.47 113.77 187.14 113.12 186.58 113.45C185.94 113.82 186.51 114.37 186.64 114.83C188.22 120.38 190.12 125.85 191.18 131.54C191.35 132.44 191.13 133.36 191.31 134.28C190.78 132.42 190.23 130.56 189.74 128.69C188.24 122.89 185.93 117.35 184.41 111.56C184.04 110.14 183.97 108.73 184.04 107.29C184.06 106.94 184.02 106.53 184.44 106.37C184.85 106.22 185.13 106.52 185.36 106.78C185.9 107.42 186.37 108.28 187.34 108.06C188.5 107.8 189.4 107.04 190.08 106.05C190.46 105.48 190.38 104.88 190 104.37C188.38 102.24 186.73 100.14 185.08 98.03C184.65 97.48 184.1 97.5 183.61 97.93C183.13 98.35 182.63 98.79 182.3 99.32C180.91 101.53 178.83 101.75 176.54 101.45C174.37 101.17 174.13 101.3 173.49 103.43C172.58 106.47 171.23 109.23 168.73 111.3C168.23 111.71 167.69 112.04 167.08 112.25C165.41 112.83 163.94 112.23 163.25 110.59C162.84 109.6 162.58 108.54 162.23 107.53C161.82 106.36 161.15 106.05 160 106.54C158.67 107.11 157.66 108.06 156.96 109.32C156.36 110.4 156.64 111.28 157.85 111.88C159.03 112.47 160.26 112.95 161.48 113.44C162.53 113.86 163.49 114.41 164.36 115.13C165.59 116.13 165.82 118.58 164.82 119.78C164.47 120.2 164.18 119.94 163.89 119.76C162.9 119.15 161.94 118.51 160.94 117.92C160.29 117.54 159.62 117.16 158.91 116.9C157.11 116.22 155.86 116.56 154.66 118.06C153.89 119.02 153.23 120.08 152.48 121.07C150.84 123.27 149.15 123.49 147.13 121.68C146.35 120.98 145.74 120.96 144.94 121.55C143.56 122.58 142.16 123.56 140.75 124.55C139.42 125.48 139.15 126.8 139.17 128.33C139.23 132.64 136.64 136.08 132.5 137.27C131.66 137.51 130.78 137.59 129.91 137.7C128.96 137.82 128.26 138.29 127.82 139.11C126.66 141.29 126.16 143.59 126.78 146.04C127.25 147.91 128.79 149.2 130.72 149.37C132.08 149.48 133.36 148.7 133.87 147.27C134.43 145.69 134.88 144.08 135.31 142.46C135.61 141.33 136.04 140.26 136.59 139.24C136.97 138.54 137.38 137.71 138.31 137.76C139.31 137.81 139.57 138.75 139.88 139.53C140.06 139.97 140.17 140.44 140.3 140.9C141.43 144.7 143.17 146.06 147.1 145.81C150.49 145.59 153.57 144.45 156.03 141.97C156.49 141.51 156.87 141 156.92 140.32C156.99 139.4 156.45 138.95 155.58 139.23C154.98 139.43 154.41 139.75 153.81 139.97C153.03 140.25 152.43 140.03 152.29 139.16C152.02 137.5 152.23 135.89 153.12 134.44C153.68 133.53 154.61 133.45 155.57 133.7C157.19 134.14 158.44 135.67 158.63 137.47C159 141.07 157.88 144.1 155.05 146.4C152.68 148.33 149.98 149.55 146.9 149.85C144.06 150.13 141.42 148.22 140.47 145.14C140.22 144.34 140.01 143.52 139.53 142.82C138.79 141.74 137.91 141.7 137.13 142.75C136.15 144.07 135.76 145.61 135.61 147.22C135.58 147.54 135.61 147.86 135.61 148.18C135.56 150.18 134.93 150.8 132.91 150.86C128.14 151 126.95 148.81 126.25 144.58C125.92 142.59 125.79 140.63 126.98 138.79C127.45 138.06 126.84 137.9 126.25 137.91C125.21 137.92 124.21 138.3 122.86 138.15C124.4 137.72 125.68 137.32 126.98 137.01C128.14 136.73 128.6 136.02 128.68 134.88C128.73 134.13 128.52 134 127.89 134.3C126.92 134.77 125.96 135.28 124.98 135.71C124.36 135.98 123.64 136.3 123.06 135.76C122.43 135.17 122.21 134.33 122.18 133.47C122.16 132.96 122.6 132.83 122.98 132.71C123.78 132.46 124.6 132.26 125.38 131.96C126.62 131.49 127.69 130.83 127.73 129.14C128.78 130.03 128.86 131.17 129.1 132.21C129.26 132.91 129.33 133.63 129.36 134.34C129.41 135.32 129.88 135.37 130.63 135.03C135.25 132.99 138.12 129.59 138.41 124.45C138.54 122.09 139.63 120.57 141.46 119.37C142.06 118.98 142.68 118.61 143.31 118.27C144.52 117.61 145.65 116.89 146.14 115.39C146.78 115.92 146.84 116.64 147.15 117.21C148 118.78 149.25 119.21 150.72 118.19C153.6 116.2 155.52 113.62 155.75 109.93C155.95 106.73 157.86 104.46 160.36 102.72C162.12 101.5 163.08 102.02 163.49 104.1C163.64 104.84 163.73 105.61 163.99 106.31C164.36 107.31 165.05 107.96 166.24 107.92C168.32 107.86 171.56 105.3 171.97 103.28C172.13 102.5 172.15 101.7 172.21 100.9C172.42 97.76 172.71 94.64 172.13 91.48C171.83 89.81 171.82 88.06 171.84 86.35C171.87 84.22 171.14 82.46 169.7 80.94C168.36 79.53 166.8 78.43 165.08 77.55C164.03 77.01 163.67 77.21 163.69 78.37C163.73 80.28 163.86 82.2 163.95 84.11C164.15 88.03 163.54 91.83 162.2 95.5C161.06 98.61 159.11 101 155.78 101.94C153.53 102.57 151.44 102.11 150.5 100.12C150.18 99.45 149.68 99.41 149.13 99.82C147.69 100.9 146.24 101.96 144.85 103.1C144.1 103.71 143.94 104.67 143.77 105.58C143.41 107.5 143.07 109.42 142.71 111.34C141.62 117.12 138.27 120.93 132.69 122.8C131.1 123.33 129.47 123.72 127.82 124.01C126.19 124.3 124.55 124.19 122.9 124.22C126.34 123.7 129.42 122.31 132.3 120.4C138.08 116.56 141.39 111.12 142.77 104.41C142.87 103.9 143 103.4 143.08 102.89C143.51 100.19 144.85 98.16 147.3 96.85C148.5 96.21 149.59 95.39 150.58 94.45C151.09 93.96 151.49 94 151.7 94.73C151.71 94.77 151.73 94.8 151.74 94.84C152.21 96.26 152.64 97.88 154.45 97.95C156.47 98.03 158.4 97.46 159.96 96.04C160.45 95.59 160.64 94.96 160.74 94.32C161.5 89.05 161.82 83.77 160.64 78.51C160.49 77.86 160.53 77.16 160.54 76.48C160.55 74.8 159.88 73.47 158.56 72.45C158.47 72.38 158.38 72.29 158.27 72.23C151.97 68.54 145.82 64.54 138.89 62.07C136.35 61.17 133.75 60.32 131.06 59.88C130.28 59.75 129.43 59.53 129.16 60.5C128.88 61.47 129.63 62.01 130.43 62.25C132.42 62.86 133.51 64.23 133.84 66.19C134.3 68.9 133.58 71.35 131.81 73.45C130.69 74.78 129.94 74.74 128.77 73.43C128.28 72.88 127.99 72.24 127.89 71.5C127.78 70.65 127.36 70.58 126.77 71.09C125.11 72.5 125.34 74.32 127.29 75.19C129.71 76.27 131.91 76.32 133.97 74.23C135.98 72.18 138.02 70.14 140.43 68.52C141.23 67.98 142.06 67.57 143.17 67.37C142.39 68.9 141.28 69.94 140.02 70.74C137.07 72.62 134.46 74.9 131.96 77.33C131.06 78.21 130.06 78.93 128.75 79.04C127.91 79.11 127.6 79.62 127.47 80.35C127.37 80.94 127.25 81.53 127.15 82.11C126.96 83.22 127.17 83.43 128.24 82.97C129.66 82.36 131.04 81.67 132.55 80.95C132.59 81.66 132.15 81.87 131.83 82.07C127.25 84.93 122.74 87.6 116.91 87.4C110.49 87.18 104.62 85.44 99.1 82.46C95.88 80.72 93.4 78.11 92.3 74.44C92.06 73.65 92.19 72.85 92.15 72.06C92.08 70.81 91.58 70.42 90.38 70.72C85.26 71.99 80.23 73.55 75.35 75.56C73.95 76.14 73.75 76.62 74.32 78.06C75.89 81.99 78.76 84.85 82.13 87.24C88.67 91.89 96 94.72 103.89 95.79C109.69 96.58 115.57 96.94 121.45 96.36C125.78 95.93 129.94 94.88 133.73 92.65C134.12 92.42 134.76 92.28 134.6 91.68C134.44 91.05 133.8 91.15 133.29 91.12C132.89 91.1 132.49 91.1 132.1 91.01C130.14 90.54 129.55 89.38 130.35 87.52C132.25 83.11 135.85 80.59 140.14 78.88C142.04 78.12 144.01 77.64 146.09 77.68C147.8 77.71 148.34 78.31 148.06 80C147.99 80.46 147.79 80.91 147.6 81.35C147.23 82.24 146.77 82.59 145.81 81.86C144.44 80.82 142.83 80.95 141.21 81.24C138.78 81.68 136.5 82.45 134.42 83.78C133.89 84.12 133.4 84.56 132.98 85.03C132.3 85.8 132.48 86.52 133.44 86.9C134.07 87.15 134.74 87.29 135.43 87.27C135.91 87.27 136.39 87.24 136.87 87.28C138.72 87.45 139.35 88.38 138.73 90.14C137.88 92.56 136.19 94.24 133.98 95.48C130.54 97.41 126.89 98.8 123 99.47C121.37 99.75 120.46 100.54 120.03 102.12C119.43 104.35 118.32 106.41 118.02 108.74C117.43 113.23 120.68 115.39 124.46 114.76C128.68 114.06 131.79 111.59 134.02 107.97C134.37 107.4 134.38 106.76 134.37 106.12C134.37 105.28 133.93 104.87 133.13 104.81C132.81 104.78 132.49 104.81 132.17 104.81C130.18 104.89 129.82 104.53 130.06 102.55C130.24 101.15 130.71 99.81 131.53 98.66C132.91 96.71 135.04 97.01 135.76 98.73C136.14 99.63 136.84 99.68 137.65 99.31C139.38 98.52 140.92 97.48 142.2 96.06C143.64 94.47 143.71 92.9 142.39 91.21C142.13 90.88 141.89 90.38 141.38 90.49C140.83 90.61 140.77 91.2 140.68 91.65C140.54 92.34 140.61 93.07 140.11 93.91L140.14 93.97ZM117.9 58.32C120.22 58.32 121.82 58.36 123.42 58.3C124.09 58.28 125.04 58.71 125.38 57.9C125.7 57.16 124.89 56.62 124.43 56.1C123.73 55.32 123.61 54.49 123.99 53.55C124.33 52.72 124.79 52.61 125.38 53.36C126.22 54.43 126.97 55.57 127.47 56.84C128.06 58.32 129.08 59.06 130.66 59.36C140.35 61.22 149.42 64.75 157.98 69.62C158.08 69.68 158.19 69.74 158.3 69.78C159.23 70.17 159.56 69.98 159.57 68.97C159.59 67.69 159.19 66.44 159.16 65.18C159.11 63.1 158 61.87 156.31 60.96C155.04 60.28 153.8 59.56 152.53 58.89C146.92 55.91 141.28 53.01 135.24 50.98C130.53 49.4 125.7 48.43 120.79 47.71C114.29 46.77 107.8 46.13 101.27 47.31C95.05 48.43 89.11 50.34 83.86 54.01C79.74 56.89 76.1 60.18 74.36 65.1C73.61 67.22 73.08 69.39 73.26 71.66C73.37 73.06 73.76 73.28 74.99 72.68C77.47 71.47 80.03 70.45 82.62 69.52C85.88 68.34 89.07 66.94 92.57 66.55C93.58 66.44 94.36 65.92 95 65.15C97.46 62.19 100.73 60.63 104.38 59.75C109.06 58.61 113.8 58.06 117.9 58.32ZM120.97 59.05C119.26 59.05 117.53 58.93 115.83 59.08C113.34 59.29 110.81 59.43 108.41 60.26C105.57 61.25 102.8 62.39 100.68 64.64C99.8 65.57 99.91 66.01 101.12 66.38C102.3 66.74 103.5 67.06 104.69 67.37C111.07 69.04 117.11 71.65 123.32 73.81C124.26 74.14 124.89 74.11 125.38 73.13C126.04 71.81 126.79 70.54 127.51 69.25C127.97 68.43 128.21 67.55 128.24 66.62C128.27 65.84 128.12 65.1 127.3 64.71C126.12 64.15 123.96 65.15 123.16 66.61C122.56 67.7 122.86 68.46 124.3 69.42C124.89 69.82 125.23 70.22 124.88 71C124.2 72.49 123.06 72.65 122.05 71.36C121.5 70.66 121.27 69.87 121.54 69C122.38 66.23 123.94 63.98 126.39 62.39C127.38 61.75 127.5 60.94 126.7 60.05C126.13 59.42 125.36 59.14 124.57 59.09C123.38 59 122.19 58.76 120.99 59.06L120.97 59.05ZM201.28 86.66C201.22 86.07 201.12 85.47 201.1 84.88C201.03 81.19 200.22 77.67 198.48 74.42C194.73 67.37 189.2 61.77 183.47 56.35C183.24 56.13 182.92 55.89 182.61 56.06C182.27 56.25 182.27 56.67 182.29 57.03C182.49 60.01 182.7 62.99 182.9 65.98C182.99 67.37 183.6 68.46 184.66 69.38C185.65 70.24 186.7 71.07 187.45 72.17C191.17 77.61 194.96 83 197.57 89.1C197.92 89.91 198.36 90.67 198.92 91.35C199.56 92.13 199.9 92.1 200.26 91.21C200.85 89.76 201.11 88.23 201.26 86.67L201.28 86.66ZM121.54 84.24C123.04 84.3 124.5 84.14 125.94 83.75C126.41 83.62 126.89 83.45 126.63 82.89C125.7 80.88 124.99 78.76 122.55 77.87C116.66 75.73 110.76 73.64 104.77 71.8C102.95 71.24 101.16 70.49 99.21 70.48C98.1 70.47 97.63 70.89 97.73 71.99C97.83 73.15 98.12 74.26 98.76 75.27C99.99 77.22 101.72 78.66 103.74 79.65C109.35 82.39 115.29 83.96 121.54 84.25V84.24ZM236.77 128.64C237.38 128.64 238.06 128.55 238.13 127.81C238.2 127.15 237.49 127.06 237.01 126.95C235.76 126.69 234.5 126.52 233.25 126.26C229.93 125.58 226.65 124.76 223.3 124.22C219.2 123.56 215.07 123.28 210.96 122.78C208.71 122.51 206.71 121.71 205.66 119.42C204.95 117.86 204.15 116.34 203.56 114.72C202.02 110.46 199.86 106.51 197.82 102.49C197.61 102.07 197.31 101.68 197 101.32C196.63 100.9 196.18 100.9 195.71 101.2C194.59 101.92 194.35 103.07 195.11 104.18C195.87 105.3 196.68 106.4 197.4 107.54C200.07 111.74 202.1 116.24 203.76 120.92C204.4 122.71 205.58 123.77 207.49 124C209.31 124.22 211.12 124.52 212.94 124.68C218.74 125.2 224.45 126.33 230.19 127.29C232.39 127.66 234.57 128.17 236.78 128.63L236.77 128.64ZM184.59 87.83C184.3 89.66 184.66 91.4 186.52 92.56C186.71 92.68 186.83 92.92 186.98 93.11C188.97 95.71 190.96 98.31 192.96 100.91C193.24 101.28 193.49 101.76 194.09 101.63C195.34 101.36 196.19 99.44 195.49 98.36C193.16 94.73 191.06 90.95 188.35 87.57C187.62 86.66 186.88 85.78 186 85.02C185.7 84.77 185.39 84.62 185.01 84.72C184.55 84.84 184.6 85.26 184.59 85.61C184.57 86.29 184.59 86.97 184.59 87.82V87.83ZM162.49 68.11C162.49 68.7 162.42 69.15 162.5 69.57C162.74 70.84 162.69 72.25 163.93 73.1C165.83 74.41 167.74 75.71 169.68 76.98C170.59 77.58 170.97 77.39 171.06 76.31C171.18 74.91 170.85 73.54 170.65 72.16C170.52 71.22 170.03 70.56 169.26 70.04C167.77 69.05 166.3 68.01 164.8 67.03C164.19 66.63 163.54 65.81 162.83 66.15C162.05 66.53 162.64 67.53 162.48 68.09L162.49 68.11ZM181.89 85.51C181.73 83.95 181.57 82.29 181.37 80.63C181.33 80.29 181.16 79.92 180.94 79.66C179.28 77.77 177.34 76.17 175.43 74.55C175.06 74.24 174.43 74.08 174.29 74.78C173.91 76.75 174.15 78.72 174.51 80.67C174.55 80.88 174.75 81.09 174.92 81.24C176.76 82.94 178.61 84.64 180.48 86.31C180.76 86.56 181.11 86.92 181.52 86.68C181.89 86.46 181.91 86.01 181.89 85.5V85.51ZM179.29 97.05C179.44 97.02 179.68 96.98 179.91 96.95C181.91 96.69 182.37 96.11 181.54 94.27C180.3 91.52 178.34 89.24 176.11 87.22C175.8 86.94 175.41 86.54 174.95 86.76C174.46 86.99 174.45 87.54 174.47 88.02C174.54 89.61 174.64 91.2 174.7 92.79C174.81 95.63 176.36 97.11 179.27 97.05H179.29ZM180.95 72.11C181 70.92 180.51 69.95 179.69 69.13C179.32 68.77 178.96 68.4 178.57 68.05C177.29 66.92 176.01 65.77 174.69 64.68C174.22 64.29 173.39 63.98 173.36 64.91C173.31 66.44 173.4 68.04 174.75 69.17C176.25 70.42 177.74 71.68 179.25 72.92C179.63 73.23 180.03 73.73 180.6 73.42C181.11 73.14 180.9 72.57 180.95 72.11ZM183.84 75.78C183.84 76.14 183.82 76.52 184.05 76.82C185.83 79.07 188.02 80.95 189.89 83.12C190.04 83.3 190.32 83.36 190.55 83.2C190.81 83.01 190.65 82.75 190.55 82.56C190.31 82.1 190.05 81.65 189.79 81.21C188.54 79.12 187.16 77.11 185.47 75.35C185.15 75.02 184.76 74.61 184.24 74.76C183.76 74.9 183.87 75.4 183.85 75.79L183.84 75.78ZM130.33 69.95C130.28 70.82 130.55 71.46 131.55 71.49C132.35 71.51 133.03 70.65 132.89 69.58C132.8 68.85 132.82 67.86 131.76 67.73C131.07 67.65 130.33 68.87 130.33 69.94V69.95ZM128.91 68.04C128.89 68.49 128.98 68.92 129.21 69.29C129.38 69.58 129.68 69.69 129.84 69.32C130.21 68.45 130.75 67.65 130.89 66.69C130.95 66.31 130.88 65.96 130.47 65.82C130.09 65.69 129.77 65.85 129.53 66.16C129.1 66.71 128.96 67.37 128.92 68.05L128.91 68.04Z" fill="#265073"/>
<path d="M158.47 125.51C159.26 126.51 159.54 127.56 160.01 128.51C160.85 130.23 161.66 131.97 162.51 133.68C162.7 134.06 162.94 134.56 163.44 134.49C164.04 134.41 164.02 133.8 164.1 133.35C164.23 132.6 164.01 131.76 164.76 131C165.37 132.58 165.57 134.07 165.18 135.61C164.73 137.35 165.01 138.13 166.48 139.19C167.82 140.15 169.32 140.62 170.95 140.71C172.82 140.81 173.79 139.94 174.09 137.92C174.38 137.88 174.39 138.11 174.43 138.28C174.74 139.76 175.29 139.95 176.52 139.03C177.58 138.23 177.72 137.04 177.9 135.75C178.35 136.43 178.12 137.58 179.19 137.45C180.24 137.32 180.62 136.43 180.77 135.46C180.84 135 180.92 134.55 181.01 134.01C182.05 135.53 182.85 135.46 183.82 133.89C184.33 133.06 184.39 132.16 184.24 131.23C183.55 127.09 181.52 123.51 179.5 119.93C179.31 119.59 179.01 119.16 178.57 119.35C178.09 119.55 178.16 120.05 178.28 120.5C178.88 122.77 179.45 125.05 180.07 127.32C180.22 127.87 180.24 128.4 180.11 128.97C178.88 125.71 177.57 122.47 176.89 119.05C176.44 116.79 176.23 114.48 175.92 112.19C175.89 111.95 175.9 111.71 175.92 111.47C175.95 111.1 176.03 110.73 176.46 110.64C176.83 110.56 177.08 110.82 177.24 111.09C177.66 111.77 178.04 112.47 178.42 113.17C180.48 117 182.89 120.65 184.2 124.84C185.06 127.6 185.55 130.4 185.1 133.32C184.56 136.79 182.7 139.4 179.9 141.32C177.13 143.22 174.25 144.99 170.64 144.67C169.16 144.54 167.84 144.08 166.79 142.97C166.63 142.8 166.45 142.63 166.26 142.49C165.32 141.78 165.05 141.88 164.8 143.02C164.58 144.03 164.43 145.06 164.16 146.06C163.5 148.53 162.07 150.34 159.53 151.11C157.01 151.87 154.47 152.55 151.8 152.57C151.04 152.57 150.33 152.38 149.42 152.26C154.85 151.52 158.86 148.74 162 144.68C163.84 142.3 164.26 139.71 162.62 136.89C161.22 134.48 160.14 131.88 158.91 129.38C158.32 128.19 158.28 126.97 158.47 125.51Z" fill="#265073"/>
<path d="M193.42 174.43C193.42 173.15 193.44 171.87 193.42 170.59C193.4 169.81 193.49 169.3 194.49 169.3C195.45 169.3 195.62 169.72 195.61 170.55C195.58 173.07 195.63 175.59 195.58 178.1C195.56 179.22 195.94 179.68 197.11 179.66C199.66 179.63 199.66 179.67 199.66 177.07C199.66 174.91 199.68 172.75 199.66 170.6C199.66 169.87 199.85 169.49 200.67 169.49C201.52 169.49 201.65 169.94 201.65 170.64C201.63 173.28 201.66 175.91 201.63 178.55C201.61 180.09 200.64 181.08 199.06 181.1C197.63 181.12 196.18 181.35 194.78 180.82C194.61 180.76 194.39 180.82 194.2 180.85C190.87 181.33 187.54 181.28 184.2 180.87C183.22 180.75 182.27 181.17 181.26 181.16C174.94 181.12 168.63 181.16 162.31 181.12C161.16 181.12 160.52 181.33 160.22 182.61C159.73 184.72 156.62 186.17 154.56 185.45C154.25 185.34 154.11 185.15 154.1 184.83C154.1 184.45 154.27 184.23 154.65 184.18C155.2 184.11 155.76 184.02 156.31 183.96C156.81 183.91 157.24 183.74 157.6 183.39C158.1 182.89 158.52 182.28 158.33 181.58C158.14 180.88 157.39 181.13 156.87 181.09C154.56 180.91 153.28 179.81 153.13 177.82C152.87 174.57 153.85 172.84 156.24 172.3C158.43 171.81 160.44 173.57 160.56 176.12C160.6 177 160.59 177.88 160.56 178.76C160.54 179.34 160.71 179.65 161.36 179.64C163.24 179.61 165.12 179.62 167 179.64C167.58 179.64 167.8 179.44 167.64 178.84C167.39 177.94 167.48 177.01 167.51 176.1C167.57 173.83 169.13 172.21 171.23 172.22C173.31 172.22 174.91 173.89 174.96 176.12C174.98 176.84 175.12 177.62 174.9 178.26C174.44 179.63 175.09 179.69 176.15 179.65C177.91 179.59 179.67 179.6 181.43 179.65C182.48 179.68 182.88 179.19 182.87 178.21C182.87 176.85 182.89 175.49 182.87 174.13C182.85 173.41 183.14 173.14 183.86 173.14C184.6 173.14 184.85 173.43 184.84 174.14C184.81 175.5 184.84 176.86 184.84 178.22C184.84 179.18 185.25 179.67 186.31 179.65C188.27 179.6 190.23 179.61 192.19 179.65C193.12 179.67 193.49 179.31 193.46 178.38C193.42 177.06 193.45 175.74 193.45 174.42L193.42 174.43ZM169.44 176.8C169.4 177.44 169.44 178.08 169.71 178.67C169.99 179.3 170.45 179.65 171.19 179.65C171.94 179.65 172.45 179.3 172.67 178.67C173.14 177.36 173.11 176.01 172.56 174.72C172.31 174.15 171.85 173.72 171.19 173.71C170.53 173.71 170.09 174.16 169.82 174.71C169.5 175.36 169.37 176.06 169.43 176.79L169.44 176.8ZM158.39 177.31C158.39 177.31 158.38 177.31 158.37 177.31C158.37 176.67 158.45 176.02 158.35 175.4C158.22 174.57 157.8 173.81 156.88 173.75C155.98 173.69 155.55 174.44 155.34 175.18C155.05 176.23 155.03 177.31 155.3 178.38C155.53 179.3 156.64 179.9 157.8 179.7C158.83 179.53 158.24 178.68 158.37 178.15C158.44 177.89 158.38 177.59 158.38 177.31H158.39Z" fill="#265073"/>
<path d="M239.27 65.6C239.88 68.08 240.11 70.48 238.33 72.6C237.36 73.76 236.27 74.82 235.99 76.43C235.78 77.65 236.05 78.83 236.22 80C236.61 82.66 236.66 85.32 236.63 87.99C236.58 92.86 231.61 96.34 226.56 93.8C223.26 92.14 221.33 89.31 220.56 85.71C220.32 84.61 219.89 83.61 219.39 82.6C218.19 80.19 218.44 77.63 219 75.12C219.68 72.1 221.58 69.75 223.5 67.45C225.69 64.84 228.36 62.72 230.85 60.41C233.63 57.84 236.05 54.99 237.67 51.54C237.81 51.25 237.95 50.97 238.07 50.67C238.22 50.31 238.48 49.88 238.11 49.57C237.7 49.23 237.28 49.52 236.92 49.79C236.12 50.38 235.31 50.98 234.38 51.37C233.84 51.6 233.52 51.51 233.34 50.86C232.75 48.77 233.29 47.58 235.28 46.83C236.63 46.32 237.77 45.59 238.59 44.38C238.74 44.16 238.83 43.79 239.17 43.87C239.58 43.96 239.5 44.37 239.51 44.67C239.68 48.02 238.64 51.05 236.94 53.87C234.43 58.04 230.88 61.26 227.26 64.41C224.33 66.96 221.42 69.52 220.24 73.45C219.67 75.35 219.64 77.3 219.46 79.24C219.42 79.62 219.54 79.99 219.97 80.08C220.42 80.17 220.62 79.81 220.73 79.47C220.93 78.87 221.08 78.25 221.25 77.63C221.43 76.93 221.71 76.27 222.16 75.69C222.97 74.66 223.98 73.89 225.34 74.22C226.73 74.55 227.3 75.78 227.44 77.02C227.72 79.54 226.98 81.85 225.44 83.85C224.61 84.93 223.43 85.4 222.04 85.08C221.06 84.86 220.9 85.25 221.17 86.1C221.92 88.45 224.84 90.78 227.24 90.94C230.7 91.17 232.71 90.06 234.06 87.06C235.43 84.02 235.48 80.78 235.28 77.55C235.18 75.91 235.14 74.28 235.15 72.65C235.15 71.85 235.56 71.2 236 70.58C236.35 70.09 236.76 69.66 237.14 69.19C238.01 68.11 239.09 67.16 239.26 65.61L239.27 65.6ZM222.78 81.5C224.31 81.49 225.58 80.62 225.56 79.66C225.55 78.84 224.5 78.03 223.49 78.06C222.36 78.09 221.24 79.23 221.26 80.31C221.28 81.42 222.15 81.35 222.78 81.51V81.5Z" fill="#265073"/>
<path d="M119.08 174.73C119.08 176.05 119.11 177.37 119.08 178.68C119.04 180.03 118.1 181.09 116.75 181.08C113.73 181.04 110.69 181.47 107.68 180.82C106.96 180.66 106.32 181.17 105.58 181.14C103.86 181.09 102.14 181.14 100.42 181.13C99.15 181.13 97.88 181.02 96.74 181.84C96.24 182.21 95.55 182.17 95 181.97C92.22 180.95 89.34 181.15 86.47 181.13C85.2 181.12 83.94 181.22 82.67 180.85C81.94 180.64 81.16 181.18 80.33 181.16C78.45 181.1 76.57 181.16 74.7 181.14C73.97 181.14 73.58 181.33 73.39 182.15C72.81 184.58 70.32 186 67.83 185.47C67.47 185.39 67.24 185.25 67.23 184.86C67.22 184.49 67.37 184.25 67.76 184.2C68.08 184.16 68.39 184.09 68.71 184.07C70.76 183.95 71.43 183.08 71.52 180.82C71.61 178.67 71.56 176.51 71.53 174.35C71.53 173.59 71.66 173.15 72.57 173.17C73.45 173.18 73.52 173.66 73.51 174.33C73.49 175.73 73.53 177.13 73.5 178.52C73.48 179.29 73.69 179.7 74.58 179.67C76.46 179.62 78.34 179.63 80.22 179.67C81.11 179.69 81.43 179.29 81.41 178.44C81.38 177 81.43 175.56 81.39 174.13C81.37 173.26 81.85 173.18 82.54 173.18C83.22 173.18 83.59 173.36 83.58 174.12C83.55 175.56 83.58 177 83.57 178.43C83.57 179.27 83.91 179.68 84.79 179.67C86.59 179.65 88.39 179.64 90.19 179.67C90.95 179.69 91.17 179.31 91.17 178.65C91.17 177.69 91.16 176.73 91.21 175.77C91.32 173.72 92.89 172.21 94.84 172.22C96.76 172.24 98.37 173.83 98.45 175.84C98.49 176.76 98.49 177.68 98.47 178.6C98.45 179.35 98.71 179.68 99.51 179.66C101.39 179.62 103.27 179.63 105.15 179.66C106.01 179.67 106.39 179.34 106.37 178.46C106.34 177.06 106.4 175.66 106.35 174.27C106.32 173.43 106.64 173.16 107.47 173.15C108.35 173.15 108.57 173.52 108.54 174.31C108.5 175.67 108.54 177.03 108.52 178.38C108.5 179.3 108.91 179.67 109.83 179.65C111.83 179.62 113.83 179.62 115.82 179.65C116.82 179.67 117.16 179.17 117.15 178.25C117.14 175.73 117.16 173.22 117.14 170.7C117.14 169.96 117.24 169.47 118.16 169.49C119.02 169.51 119.13 169.97 119.12 170.65C119.1 172.01 119.12 173.37 119.12 174.72L119.08 174.73ZM93.14 177.38C93.14 180.16 93.18 180.2 95.2 180.53C95.84 180.63 96.32 180.38 96.38 179.82C96.54 178.16 96.72 176.47 96.14 174.85C95.92 174.23 95.46 173.7 94.74 173.72C94.04 173.74 93.64 174.27 93.36 174.89C92.98 175.74 93.22 176.63 93.14 177.37V177.38Z" fill="#265073"/>
<path d="M270.24 174.72C270.24 175.96 270.26 177.2 270.24 178.43C270.21 180.06 269.31 181.1 267.66 181.08C264.84 181.05 262 181.43 259.19 180.84C258.58 180.71 257.83 181.21 257.22 181.08C254.83 180.57 252.43 181.1 250.04 180.95C247.77 180.81 245.37 181.05 243.03 181.12C242.35 181.14 241.67 181.15 240.99 181.08C239.71 180.97 238.75 180 238.73 178.72C238.69 175.97 238.73 173.21 238.7 170.46C238.7 169.73 239.05 169.49 239.73 169.49C240.46 169.49 240.71 169.81 240.7 170.51C240.68 173.03 240.69 175.54 240.7 178.06C240.7 179.48 240.87 179.64 242.29 179.64C243.97 179.64 245.65 179.59 247.32 179.66C248.49 179.71 248.89 179.19 248.85 178.09C248.8 176.77 248.86 175.45 248.83 174.14C248.81 173.41 249.1 173.15 249.82 173.15C250.52 173.15 250.85 173.39 250.84 174.12C250.82 175.44 250.82 176.76 250.86 178.07C250.89 178.89 250.98 179.67 252.16 179.65C253.33 179.63 253.41 178.92 253.4 178.05C253.39 176.85 253.41 175.65 253.4 174.46C253.39 173.73 253.37 173.12 254.42 173.14C255.5 173.15 255.4 173.83 255.4 174.51C255.4 175.75 255.39 176.99 255.43 178.22C255.46 179.04 255.69 179.69 256.76 179.65C257.84 179.6 257.97 178.95 257.96 178.11C257.96 176.87 257.96 175.63 257.96 174.4C257.96 173.72 257.94 173.14 258.92 173.14C259.85 173.14 259.95 173.62 259.94 174.35C259.92 175.63 259.94 176.91 259.94 178.18C259.94 179.2 260.38 179.7 261.48 179.65C263.16 179.58 264.84 179.64 266.51 179.63C267.91 179.63 268.17 179.4 268.19 177.96C268.23 175.52 268.21 173.09 268.2 170.65C268.2 169.98 268.3 169.48 269.16 169.48C269.91 169.48 270.27 169.71 270.25 170.51C270.22 171.91 270.25 173.3 270.24 174.7V174.72Z" fill="#265073"/>
<path d="M253.58 90.21C253.04 89.77 252.52 89.85 251.96 89.99C249.23 90.68 247.36 89.96 245.78 87.6C244.51 85.7 243.76 83.53 242.86 81.45C241.86 79.12 240.46 76.93 240.08 74.35C240.02 73.97 239.83 73.6 240.12 73.16C240.8 73.75 241.09 74.54 241.41 75.3C242.26 77.32 243.02 79.38 243.94 81.37C244.93 83.53 246.08 85.59 248.67 86.24C250.75 86.77 251.77 85.85 251.36 83.76C251.07 82.28 250.8 80.79 250.55 79.3C250.41 78.45 250.61 77.61 251.02 76.88C251.49 76.03 252.23 75.67 253.24 75.95C254.02 76.17 254.74 76.5 255.45 76.86C256.57 77.42 257.69 77.85 259 77.53C259.95 77.29 260.43 77.63 260.47 78.76C260.53 80.33 260.13 81.52 258.77 82.43C257.6 83.21 256.74 84.32 256.02 85.55C255.5 86.44 254.95 87.33 254.18 88.04C253.55 88.62 253.18 89.27 253.58 90.22V90.21ZM252.57 80.11C251.99 80.07 251.57 80.54 251.49 81.38C251.4 82.31 251.62 83.18 251.92 84.05C252.2 84.88 252.63 84.85 253.27 84.46C254.22 83.88 254.8 82.99 255.39 82.09C255.61 81.75 255.61 81.4 255.25 81.15C254.53 80.66 253.81 80.16 252.57 80.1V80.11Z" fill="#265073"/>
<path d="M57.9 174.71C57.9 175.95 57.92 177.19 57.9 178.42C57.87 180.12 56.94 181.14 55.22 181.1C52.28 181.03 49.32 180.96 46.4 180.94C43.53 180.92 40.6 180.96 37.7 181.16C37.22 181.19 37.05 181.48 36.96 181.94C36.39 185.05 33.8 185.55 31.42 185.46C31.01 185.44 30.74 185.28 30.73 184.82C30.73 184.36 31 184.25 31.41 184.16C34.89 183.4 35.04 183.2 35.05 179.58C35.05 177.78 35.07 175.99 35.05 174.19C35.05 173.51 35.23 173.16 35.99 173.15C36.8 173.14 37.03 173.48 37.01 174.23C36.97 175.67 37.03 177.11 36.99 178.54C36.96 179.35 37.2 179.68 38.06 179.66C40.02 179.61 41.97 179.62 43.93 179.66C44.79 179.67 45.17 179.34 45.15 178.46C45.12 177.02 45.17 175.59 45.13 174.15C45.11 173.31 45.52 173.16 46.24 173.16C46.99 173.16 47.34 173.39 47.32 174.19C47.28 175.59 47.32 176.98 47.3 178.38C47.28 179.29 47.68 179.68 48.6 179.66C50.6 179.63 52.59 179.63 54.59 179.66C55.59 179.68 55.94 179.2 55.94 178.27C55.93 175.76 55.94 173.24 55.93 170.73C55.93 170.01 56 169.49 56.93 169.5C57.89 169.5 57.91 170.07 57.9 170.77C57.88 172.09 57.9 173.4 57.9 174.72V174.71Z" fill="#265073"/>
<path d="M222.49 181.13C220.69 181.13 218.89 181.13 217.1 181.13C216.58 181.13 216.04 181.2 215.57 180.92C214.98 180.56 214.47 180.73 213.88 180.97C211.27 182 208.9 180.46 208.73 177.67C208.49 173.66 209.56 172.49 213.61 172.45C216.49 172.42 215.96 172.31 216 174.78C216.02 175.98 215.99 177.18 216 178.37C216 179.23 216.4 179.68 217.32 179.66C219.12 179.63 220.92 179.63 222.71 179.66C223.43 179.66 223.73 179.5 223.52 178.69C223.26 177.68 223.34 176.62 223.44 175.59C223.63 173.66 225.31 172.19 227.18 172.22C229.19 172.26 230.78 173.84 230.85 175.9C230.88 176.74 230.87 177.58 230.85 178.42C230.81 180 229.83 181.06 228.24 181.11C226.32 181.16 224.4 181.12 222.49 181.12V181.13ZM228.85 177.19C228.91 176.56 228.83 175.8 228.64 175.07C228.44 174.32 227.94 173.78 227.14 173.74C226.42 173.7 225.96 174.22 225.71 174.83C225.2 176.09 225.18 177.42 225.65 178.68C226.05 179.74 227.04 179.76 227.98 179.63C228.84 179.52 228.79 178.78 228.85 178.15C228.87 177.87 228.85 177.59 228.85 177.18V177.19ZM214.01 176.29C214.01 175.73 214.01 175.18 214.01 174.62C214.01 174.34 213.93 174.09 213.62 173.96C212.66 173.54 211.09 174.15 210.86 175.16C210.58 176.36 210.54 177.6 211.02 178.78C211.25 179.35 211.67 179.84 212.33 179.85C213.04 179.85 213.48 179.36 213.75 178.75C214.11 177.97 214.03 177.12 214.03 176.29H214.01Z" fill="#265073"/>
<path d="M31 176.32C31 176.88 31 177.44 31 178C31 180.17 30.06 181.11 27.85 181.13C25.65 181.15 23.46 181.17 21.26 181.13C20.35 181.11 19.92 181.42 19.69 182.34C19.12 184.66 16.33 186.13 14 185.46C13.62 185.35 13.47 185.14 13.48 184.78C13.49 184.46 13.64 184.25 13.97 184.2C14.56 184.12 15.15 184.03 15.75 183.97C16.34 183.91 16.82 183.65 17.18 183.2C17.56 182.72 17.92 182.16 17.7 181.56C17.48 180.95 16.81 181.15 16.32 181.12C13.98 180.95 12.7 179.89 12.51 177.93C12.19 174.72 13.17 172.93 15.53 172.36C17.74 171.83 19.77 173.51 19.93 176.06C19.98 176.89 19.99 177.74 19.93 178.57C19.88 179.38 20.13 179.7 20.99 179.68C23.18 179.63 25.38 179.63 27.58 179.68C28.59 179.7 28.95 179.21 28.96 178.32C28.98 177.2 28.93 176.08 28.99 174.97C29.03 174.25 28.53 173.17 30.01 173.18C31.43 173.19 30.87 174.22 30.96 174.9C31.02 175.37 30.97 175.86 30.97 176.34L31 176.32ZM17.79 177.35C17.79 177.35 17.77 177.35 17.76 177.35C17.76 176.67 17.85 175.98 17.74 175.32C17.61 174.54 17.18 173.82 16.31 173.75C15.4 173.68 14.97 174.41 14.75 175.16C14.45 176.2 14.43 177.29 14.69 178.36C14.92 179.3 15.96 179.88 17.17 179.72C18.22 179.58 17.64 178.73 17.77 178.2C17.83 177.94 17.78 177.64 17.78 177.36L17.79 177.35Z" fill="#265073"/>
<path d="M319.18 181.12C316.34 181.12 313.51 181.14 310.67 181.12C308.71 181.1 307.81 180.19 307.8 178.25C307.78 175.73 307.8 173.22 307.79 170.7C307.79 169.95 307.94 169.49 308.84 169.49C309.78 169.49 309.84 170.02 309.84 170.74C309.82 173.14 309.82 175.53 309.84 177.93C309.85 179.42 310.11 179.65 311.6 179.65C316.36 179.65 321.11 179.6 325.87 179.68C327.09 179.7 327.22 179.2 327.01 178.28C326.8 177.35 326.58 176.42 326.16 175.55C325.6 174.39 324.73 173.74 323.42 173.85C322.92 173.89 322.59 173.83 322.36 173.33C322.1 172.76 322.12 172.5 322.86 172.42C325.65 172.12 327.49 173.21 328.43 175.86C328.91 177.22 329.16 178.63 329.36 180.05C329.5 181.06 328.77 181.13 328.05 181.13C325.09 181.13 322.14 181.13 319.18 181.13V181.12Z" fill="#265073"/>
<path d="M150.96 178.83C150.87 179.79 151.08 180.98 150.8 182.18C150.41 183.84 149.44 184.91 147.8 185.24C145.99 185.6 144.15 185.65 142.36 185.04C140.99 184.57 140.21 183.56 139.93 182.17C139.85 181.77 139.73 181.19 140.38 181.13C140.91 181.08 141.64 180.77 141.85 181.67C142.07 182.59 142.33 183.52 143.38 183.76C144.79 184.08 146.22 184.17 147.62 183.68C148.22 183.47 148.5 182.89 148.69 182.31C148.93 181.59 148.73 181.12 147.89 181.12C147.12 181.12 146.38 181 145.65 180.76C144.28 180.31 143.56 179.37 143.5 177.92C143.47 177.24 143.47 176.56 143.5 175.88C143.59 173.79 145.12 172.27 147.19 172.22C149.14 172.17 150.83 173.77 150.94 175.84C150.99 176.76 150.94 177.68 150.94 178.82L150.96 178.83ZM148.79 177.26C148.79 176.7 148.8 176.14 148.79 175.59C148.77 174.64 148.3 173.89 147.39 173.77C146.38 173.63 145.88 174.49 145.75 175.33C145.61 176.3 145.64 177.32 145.73 178.31C145.82 179.26 146.92 179.84 148.16 179.71C149.23 179.59 148.66 178.74 148.78 178.22C148.85 177.92 148.79 177.59 148.78 177.27L148.79 177.26Z" fill="#265073"/>
<path d="M299.61 181.13C298.45 181.13 297.29 181.15 296.13 181.13C295.4 181.12 295.02 181.32 294.82 182.14C294.23 184.57 291.75 185.99 289.25 185.46C288.89 185.38 288.66 185.24 288.65 184.85C288.64 184.48 288.79 184.24 289.18 184.19C289.5 184.15 289.81 184.08 290.13 184.06C292.18 183.94 292.85 183.07 292.94 180.81C293.03 178.66 292.98 176.5 292.95 174.34C292.95 173.58 293.08 173.14 293.99 173.16C294.87 173.17 294.94 173.65 294.93 174.32C294.91 175.76 294.95 177.2 294.93 178.63C294.92 179.4 295.23 179.68 296 179.66C298.16 179.62 300.32 179.63 302.47 179.66C303.39 179.67 303.79 179.27 303.78 178.37C303.77 177.01 303.8 175.65 303.78 174.3C303.77 173.61 303.88 173.15 304.74 173.16C305.53 173.16 305.81 173.47 305.79 174.23C305.76 175.71 305.81 177.19 305.76 178.66C305.71 180.09 304.76 181.04 303.33 181.11C302.09 181.16 300.85 181.12 299.61 181.12V181.14V181.13Z" fill="#265073"/>
<path d="M245.72 203.65C245.72 202.13 245.75 200.61 245.71 199.09C245.69 198.31 246 198.02 246.77 198.03C248.81 198.06 250.85 198.05 252.89 198.03C253.54 198.03 253.97 198.18 253.96 198.96C253.95 199.8 253.4 199.79 252.81 199.79C251.49 199.79 250.17 199.83 248.85 199.77C248 199.73 247.79 200.14 247.9 200.85C248 201.54 247.46 202.59 248.83 202.61C249.99 202.62 251.15 202.6 252.31 202.63C252.86 202.65 253.62 202.38 253.64 203.36C253.66 204.41 252.84 204.15 252.25 204.17C251.17 204.2 250.09 204.2 249.01 204.18C248.24 204.17 247.85 204.42 247.87 205.29C247.95 208.17 247.55 207.63 250.17 207.69C251.25 207.71 252.33 207.71 253.41 207.69C254.04 207.68 254.39 207.87 254.37 208.58C254.36 209.22 254.03 209.39 253.45 209.39C251.17 209.38 248.89 209.37 246.61 209.39C245.93 209.39 245.7 209.09 245.7 208.44C245.72 206.84 245.7 205.24 245.7 203.64L245.72 203.65Z" fill="#265073"/>
<path d="M5.52001 209.69C3.73001 209.7 2.17001 209.28 1.28001 207.56C1.05001 207.12 0.590014 206.43 1.35001 206.13C1.91001 205.91 2.61001 205.8 3.04001 206.68C3.75001 208.13 6.39001 208.53 7.64001 207.48C8.53001 206.73 8.35001 205.57 7.18001 205.13C6.03001 204.7 4.80001 204.47 3.63001 204.11C2.83001 203.86 2.03001 203.57 1.51001 202.84C0.810014 201.85 0.880014 200.3 1.67001 199.25C3.40001 196.93 7.91001 197.16 9.35001 199.66C9.60001 200.1 10.14 200.79 9.56001 201.11C8.99001 201.42 8.14001 201.56 7.62001 200.61C6.96001 199.42 5.45001 199.03 4.18001 199.51C3.46001 199.78 3.03001 200.28 3.03001 201.02C3.03001 201.7 3.54001 202.07 4.16001 202.25C5.27001 202.57 6.40001 202.82 7.50001 203.16C9.63001 203.81 10.22 204.61 10.13 206.55C10.06 208.04 9.01001 209.12 7.18001 209.53C6.64001 209.65 6.07001 209.65 5.52001 209.7V209.69Z" fill="#265073"/>
<path d="M148 203.78C148 202.22 148.02 200.67 148 199.11C147.99 198.35 148.28 198.02 149.06 198.03C151.14 198.05 153.21 198.05 155.29 198.03C155.91 198.03 156.26 198.23 156.26 198.92C156.26 199.63 155.9 199.8 155.28 199.79C153.84 199.77 152.41 199.81 150.97 199.77C150.23 199.75 149.91 200.04 150.02 200.75C150.13 201.44 149.55 202.51 150.88 202.58C152.15 202.65 153.43 202.61 154.71 202.61C155.26 202.61 155.78 202.61 155.77 203.39C155.77 204.16 155.24 204.17 154.7 204.17C153.5 204.17 152.3 204.19 151.11 204.17C150.31 204.17 149.99 204.5 150 205.33C150.05 208.07 149.8 207.65 152.26 207.68C153.38 207.7 154.5 207.69 155.61 207.68C156.2 207.68 156.5 207.88 156.5 208.51C156.5 209.12 156.25 209.38 155.64 209.37C153.4 209.36 151.17 209.35 148.93 209.37C148.15 209.37 148 208.95 148.01 208.3C148.02 206.78 148.01 205.27 148.01 203.75L148 203.78Z" fill="#265073"/>
<path d="M75.39 209.3C74.24 209.57 73.86 209.04 73.73 208.3C73.54 207.22 72.94 206.84 71.89 206.98C71.46 207.04 71.01 207.04 70.58 206.98C69.23 206.79 68.28 207.09 68 208.64C67.8 209.76 66.84 209.39 66.15 209.32C65.68 209.27 65.87 208.84 65.98 208.55C67.12 205.28 68.28 202.01 69.41 198.74C69.65 198.05 70.18 198 70.76 198.04C71.4 198.09 72.19 197.79 72.51 198.67C73.71 202.01 74.9 205.34 76.06 208.69C76.41 209.7 75.51 209.23 75.39 209.29V209.3ZM70.89 205.3C71.05 205.3 71.21 205.28 71.37 205.3C72.42 205.43 72.75 205.05 72.35 204.03C71.96 203.03 71.66 202 71.31 200.99C71.25 200.8 71.2 200.59 70.94 200.59C70.68 200.59 70.63 200.79 70.57 200.98C70.28 201.84 69.99 202.71 69.7 203.57C69.32 204.717 69.7133 205.29 70.88 205.29L70.89 205.3Z" fill="#265073"/>
<path d="M132.73 178.58C132.73 179.5 132.75 180.42 132.73 181.33C132.68 183.55 131.32 185.08 129.1 185.38C128.47 185.46 127.83 185.45 127.19 185.46C126.79 185.46 126.49 185.32 126.47 184.85C126.45 184.4 126.69 184.21 127.11 184.17C127.63 184.12 128.14 184.03 128.65 183.96C129.36 183.87 129.92 183.54 130.29 182.9C131.02 181.63 130.79 181.18 129.35 181.1C126.59 180.96 125.49 179.81 125.45 177.07C125.41 174.3 126.22 172.94 128.22 172.4C130.41 171.81 132.59 173.33 132.72 175.59C132.78 176.58 132.72 177.58 132.73 178.58ZM130.78 177.34C130.74 176.64 130.87 175.84 130.58 175.06C130.33 174.38 129.92 173.8 129.19 173.74C128.42 173.68 127.97 174.27 127.72 174.93C127.29 176.08 127.33 177.29 127.62 178.45C127.86 179.39 129.03 179.95 130.17 179.7C131.18 179.48 130.66 178.61 130.78 178.02C130.82 177.83 130.78 177.62 130.78 177.34Z" fill="#265073"/>
<path d="M83.14 203.31C82.79 204.89 82.45 206.42 82.11 207.95C81.96 208.62 82.02 209.37 80.94 209.42C79.86 209.47 79.61 208.91 79.38 208.06C78.85 206.06 78.22 204.08 77.66 202.09C77.56 201.73 77.14 201.14 77.84 201.04C78.41 200.96 79.26 200.61 79.49 201.66C79.79 203.02 80.1 204.38 80.41 205.74C80.51 206.16 80.64 206.56 80.81 207.17C81.62 206.01 81.5 204.82 81.82 203.75C81.99 203.18 82.09 202.59 82.17 202C82.28 201.23 82.68 200.96 83.47 200.97C84.28 200.98 84.45 201.38 84.57 202.06C84.82 203.47 85.15 204.86 85.44 206.27C85.49 206.53 85.41 206.91 85.79 206.93C86.19 206.96 86.13 206.57 86.19 206.32C86.5 204.96 86.81 203.6 87.12 202.25C87.18 201.98 87.23 201.7 87.35 201.45C87.67 200.75 88.32 200.96 88.82 201.05C89.48 201.17 89.08 201.71 89 202.02C88.41 204.17 87.74 206.3 87.16 208.45C86.95 209.23 86.52 209.41 85.78 209.43C85 209.45 84.74 209.11 84.61 208.41C84.37 207.04 84.04 205.68 83.77 204.32C83.7 203.97 83.68 203.6 83.13 203.33L83.14 203.31Z" fill="#265073"/>
<path d="M166.31 203.83C166.31 205.35 166.31 206.86 166.31 208.38C166.31 208.77 166.38 209.26 165.84 209.34C165.36 209.41 164.75 209.63 164.44 209.04C164.26 208.69 164.18 208.55 163.76 208.76C160.76 210.28 158.72 209.23 158.18 205.9C157.79 203.51 159 201.41 161.02 200.89C162.02 200.63 162.82 200.99 163.55 201.61C164.12 202.09 164.38 202 164.38 201.24C164.38 200.52 164.4 199.8 164.38 199.08C164.35 198.39 164.59 198.04 165.33 198.05C166.05 198.05 166.33 198.34 166.32 199.05C166.29 200.65 166.32 202.24 166.32 203.84L166.31 203.83ZM164.38 205.27C164.38 203.23 163.28 202.06 161.77 202.51C160.81 202.8 160.17 203.83 160.13 205.18C160.09 206.57 160.71 207.65 161.72 207.98C163.24 208.46 164.37 207.31 164.38 205.28V205.27Z" fill="#265073"/>
<path d="M112.08 202.05C112.08 200.93 112.11 200.02 112.08 199.12C112.05 198.38 112.29 198.01 113.1 198.03C113.86 198.04 114.04 198.4 114.04 199.08C114.02 202.19 114.04 205.3 114.04 208.41C114.04 208.8 114.09 209.27 113.54 209.35C113.12 209.41 112.59 209.55 112.36 209.06C112.11 208.54 111.91 208.56 111.46 208.83C109.12 210.26 106.97 209.42 106.23 206.78C105.94 205.73 105.94 204.63 106.19 203.58C106.86 200.83 109.34 200.09 112.09 202.05H112.08ZM108.03 205.4C108.03 205.53 107.99 205.82 108.03 206.09C108.23 207.16 108.79 207.95 109.95 208.09C110.93 208.21 111.71 207.53 112.09 206.38C112.4 205.46 112.34 204.56 111.97 203.69C111.65 202.95 111.07 202.49 110.22 202.44C109.36 202.4 108.77 202.81 108.36 203.52C108.06 204.05 107.93 204.64 108.02 205.4H108.03Z" fill="#265073"/>
<path d="M8.85 172.64C9.05 172.64 9.27 172.59 9.45 172.65C9.76 172.76 10.42 172.4 10.3 173.09C10.22 173.53 10.07 174.13 9.29 173.99C8.42 173.84 7.62 174.14 6.94 174.67C6.07 175.35 6.14 175.84 7.14 176.26C8.19 176.69 9.16 177.23 9.86 178.15C10.9 179.5 10.88 181.01 9.82 182.33C7.64 185.05 2.66 184.83 0.709996 181.94C0.199996 181.18 -0.0100038 180.35 0.00999616 179.45C0.0199962 178.8 -0.0800038 178.16 0.939996 178.17C1.83 178.17 1.96 178.58 1.99 179.35C2.11 182.17 4.81 183.7 7.19 182.34C8.86 181.39 9.03 179.5 7.52 178.3C6.82 177.74 6.01 177.39 5.14 177.24C4.02 177.06 3.95 176.37 4.2 175.49C4.7 173.75 6.49 172.65 8.85 172.65V172.64Z" fill="#265073"/>
<path d="M14.2 202.1C15.39 201.12 16.39 200.52 17.69 200.9C19 201.28 19.68 202.08 19.71 203.51C19.75 205.15 19.7 206.78 19.73 208.42C19.74 209.15 19.45 209.4 18.73 209.4C17.97 209.4 17.77 209.05 17.78 208.37C17.81 207.01 17.8 205.65 17.78 204.3C17.76 202.96 17.29 202.44 16.16 202.44C14.95 202.44 14.23 203.11 14.2 204.35C14.17 205.71 14.17 207.07 14.2 208.42C14.22 209.15 13.92 209.4 13.21 209.41C12.47 209.41 12.24 209.1 12.24 208.4C12.26 205.29 12.26 202.17 12.24 199.06C12.24 198.36 12.48 198.04 13.21 198.04C13.93 198.04 14.22 198.33 14.2 199.05C14.17 199.96 14.2 200.87 14.2 202.11V202.1Z" fill="#265073"/>
<path d="M53.7 201.97C54.72 201.13 55.72 200.52 57.02 200.9C58.33 201.29 59.02 202.07 59.05 203.5C59.09 205.14 59.04 206.77 59.07 208.41C59.08 209.13 58.8 209.4 58.08 209.4C57.33 209.4 57.11 209.07 57.12 208.38C57.15 207.02 57.14 205.66 57.12 204.31C57.1 202.97 56.64 202.44 55.51 202.44C54.3 202.44 53.57 203.1 53.54 204.34C53.51 205.7 53.51 207.06 53.54 208.41C53.56 209.13 53.28 209.41 52.55 209.41C51.82 209.41 51.57 209.12 51.57 208.41C51.59 205.3 51.59 202.18 51.57 199.07C51.57 198.37 51.8 198.04 52.54 198.04C53.26 198.04 53.54 198.32 53.54 199.04C53.54 199.97 53.41 200.92 53.68 201.98L53.7 201.97Z" fill="#265073"/>
<path d="M233.97 205.72C234.07 206.66 233.79 207.79 234.16 208.88C234.23 209.08 234.26 209.33 233.99 209.34C233.45 209.37 232.7 209.65 232.43 209.13C231.97 208.26 231.62 208.72 231.14 209C230.73 209.24 230.28 209.44 229.83 209.55C228.43 209.88 226.97 209.04 226.62 207.76C226.27 206.46 227.05 205.23 228.55 204.82C229.35 204.6 230.19 204.51 231.01 204.35C231.55 204.25 232.02 204.06 232.03 203.39C232.04 202.66 231.52 202.45 230.96 202.32C230.25 202.15 229.61 202.32 229.11 202.88C228.9 203.11 228.74 203.42 228.37 203.41C227.95 203.4 227.41 203.62 227.14 203.2C226.82 202.71 227.22 202.29 227.54 201.94C228.79 200.56 231.88 200.38 233.28 201.59C233.76 202.01 233.99 202.52 233.98 203.17C233.96 203.97 233.98 204.76 233.98 205.73L233.97 205.72ZM232.17 206.05C232.14 205.72 232.13 205.34 231.53 205.35C229.87 205.38 228.67 206.11 228.7 207.1C228.72 207.95 229.26 208.3 230.01 208.32C231.23 208.36 232.18 207.35 232.16 206.04L232.17 206.05Z" fill="#265073"/>
<path d="M29.08 205.8C29.17 206.71 28.91 207.8 29.26 208.85C29.33 209.05 29.38 209.31 29.13 209.33C28.59 209.39 27.82 209.64 27.56 209.15C27.06 208.19 26.68 208.76 26.18 209.05C25.37 209.53 24.51 209.78 23.56 209.5C22.45 209.17 21.76 208.49 21.66 207.32C21.57 206.27 22.28 205.23 23.41 204.89C24.28 204.63 25.2 204.52 26.1 204.35C26.69 204.24 27.19 204.04 27.15 203.3C27.11 202.57 26.54 202.42 26 202.3C25.38 202.16 24.81 202.33 24.34 202.77C24.2 202.9 24.11 203.13 23.95 203.22C23.4 203.53 22.72 203.64 22.29 203.22C21.88 202.82 22.34 202.34 22.66 201.99C23.93 200.57 26.93 200.36 28.38 201.58C28.87 201.99 29.11 202.5 29.1 203.15C29.08 203.99 29.1 204.82 29.1 205.82L29.08 205.8ZM25.07 208.34C26.41 208.3 27.34 207.31 27.28 206.08C27.26 205.65 27.18 205.32 26.6 205.36C24.82 205.47 23.76 206.13 23.82 207.15C23.87 208.01 24.44 208.27 25.08 208.34H25.07Z" fill="#265073"/>
<path d="M49.35 209.39C48.53 209.31 47.71 209.69 47.24 208.75C47.04 208.35 46.76 208.72 46.56 208.85C46.09 209.17 45.59 209.4 45.04 209.54C43.61 209.9 42.32 209.19 41.92 207.85C41.54 206.59 42.23 205.28 43.61 204.85C44.4 204.6 45.24 204.51 46.07 204.37C46.7 204.26 47.32 204.06 47.24 203.29C47.17 202.58 46.52 202.38 45.92 202.29C45.25 202.19 44.64 202.37 44.22 202.94C43.95 203.31 43.62 203.42 43.2 203.43C42.32 203.46 42.09 203.1 42.51 202.34C43.23 201.04 44.52 200.81 45.8 200.77C48.17 200.7 49.22 201.82 49.25 204.18C49.27 205.88 49.13 207.59 49.36 209.39H49.35ZM47.3 206.19C47.3 205.74 47.32 205.31 46.63 205.36C45 205.48 43.78 206.16 43.81 207.04C43.84 207.89 44.35 208.34 45.21 208.32C46.45 208.29 47.32 207.38 47.3 206.18V206.19Z" fill="#265073"/>
<path d="M97.81 209.39C97 209.31 96.18 209.69 95.71 208.75C95.5 208.34 95.23 208.71 95.03 208.84C94.53 209.19 93.98 209.43 93.4 209.56C92.02 209.86 90.78 209.15 90.39 207.85C90.01 206.59 90.7 205.27 92.06 204.84C92.85 204.59 93.69 204.5 94.52 204.36C95.15 204.25 95.77 204.05 95.7 203.29C95.64 202.57 94.99 202.37 94.38 202.28C93.71 202.18 93.1 202.36 92.68 202.92C92.44 203.23 92.18 203.43 91.78 203.41C91.44 203.39 91.02 203.54 90.82 203.13C90.66 202.8 90.86 202.5 91.02 202.24C91.76 201.03 93.01 200.8 94.25 200.77C96.62 200.7 97.68 201.82 97.71 204.17C97.73 205.87 97.59 207.58 97.82 209.39H97.81ZM93.49 208.34C94.74 208.38 95.73 207.48 95.75 206.31C95.75 205.92 95.93 205.38 95.2 205.36C93.72 205.31 92.24 206.13 92.26 207.05C92.28 207.84 92.76 208.26 93.48 208.34H93.49Z" fill="#265073"/>
<path d="M210.94 209.63C208.37 209.64 206.62 207.86 206.62 205.24C206.62 202.65 208.38 200.79 210.89 200.76C213.32 200.73 215.22 202.66 215.25 205.2C215.28 207.78 213.49 209.62 210.94 209.64V209.63ZM213.14 205.2C213.14 203.34 212.43 202.45 210.95 202.43C209.44 202.42 208.59 203.43 208.59 205.22C208.59 206.99 209.52 208.08 210.97 208.04C212.38 208 213.14 207.01 213.14 205.2Z" fill="#265073"/>
<path d="M194.63 205.73C194.73 206.67 194.45 207.8 194.82 208.89C194.89 209.09 194.92 209.34 194.65 209.35C194.11 209.37 193.37 209.66 193.09 209.13C192.63 208.26 192.26 208.7 191.81 209.02C191.34 209.35 190.81 209.53 190.26 209.61C188.96 209.8 187.7 209 187.46 207.9C187.14 206.4 187.78 205.22 189.21 204.83C189.97 204.62 190.77 204.53 191.55 204.39C192.17 204.28 192.77 204.12 192.69 203.3C192.61 202.46 191.92 202.36 191.29 202.28C190.76 202.22 190.26 202.4 189.87 202.79C189.73 202.93 189.64 203.14 189.48 203.24C188.97 203.54 188.33 203.62 187.91 203.26C187.55 202.95 187.93 202.43 188.17 202.08C189.25 200.43 193.09 200.35 194.28 201.93C194.55 202.3 194.65 202.71 194.65 203.17C194.64 203.97 194.65 204.77 194.65 205.73H194.63ZM192.83 206.14C192.8 205.8 192.84 205.38 192.25 205.35C190.81 205.28 189.37 206.12 189.36 207.05C189.35 207.9 189.86 208.28 190.62 208.33C191.82 208.41 192.81 207.43 192.83 206.13V206.14Z" fill="#265073"/>
<path d="M126.21 205.18C126.22 202.54 127.9 200.77 130.37 200.76C133 200.75 134.67 202.58 134.64 205.45C134.62 207.95 132.91 209.64 130.4 209.63C127.76 209.62 126.19 207.95 126.2 205.18H126.21ZM128.17 205.18C128.17 206.99 128.82 207.91 130.19 208.03C131.69 208.16 132.66 207.14 132.71 205.39C132.76 203.5 131.93 202.44 130.4 202.44C128.92 202.44 128.17 203.36 128.17 205.18Z" fill="#265073"/>
<path d="M274.27 205.07C274.27 201.86 276.56 200.12 279.6 201.02C281.07 201.45 282.37 203.44 282.19 204.96C282.11 205.6 281.66 205.56 281.22 205.56C279.9 205.56 278.59 205.55 277.27 205.56C276.2 205.58 276.02 205.87 276.43 206.88C276.95 208.18 278.39 208.6 279.58 207.69C280.29 207.15 281.35 206.82 281.67 207.41C282.05 208.11 281.05 208.76 280.35 209.11C277.56 210.48 274.05 209.16 274.27 205.07ZM278.12 204.55C278.32 204.55 278.52 204.57 278.71 204.55C279.18 204.48 279.87 204.76 279.98 204.03C280.09 203.28 279.63 202.73 278.93 202.5C278.36 202.31 277.75 202.29 277.21 202.63C276.68 202.96 276.25 203.49 276.35 204.09C276.46 204.78 277.17 204.49 277.65 204.56C277.81 204.58 277.97 204.56 278.12 204.56V204.55Z" fill="#265073"/>
<path d="M325.67 205.56C324.95 205.56 324.23 205.56 323.51 205.56C322.85 205.56 322.69 205.89 322.82 206.49C323.14 208.01 324.77 208.68 326.07 207.73C326.81 207.19 327.84 206.77 328.23 207.47C328.58 208.08 327.55 208.79 326.83 209.13C325.24 209.88 323.59 209.92 322.21 208.77C320.57 207.4 320.57 205.49 320.98 203.6C321.36 201.85 322.63 201.05 324.31 200.79C326.61 200.44 328.88 202.57 328.73 204.89C328.69 205.42 328.4 205.56 327.94 205.56C327.18 205.56 326.42 205.56 325.67 205.56ZM324.63 204.55C324.87 204.55 325.11 204.57 325.34 204.55C325.78 204.5 326.38 204.71 326.53 204.06C326.66 203.46 326.33 202.95 325.83 202.67C325.1 202.26 324.31 202.23 323.6 202.75C323.13 203.09 322.75 203.62 322.91 204.16C323.06 204.71 323.71 204.51 324.17 204.55C324.33 204.56 324.49 204.55 324.64 204.55H324.63Z" fill="#265073"/>
<path d="M297.23 205.55C296.63 205.55 296.03 205.55 295.43 205.55C294.39 205.57 294.17 205.9 294.51 206.87C294.93 208.06 296.49 208.58 297.59 207.76C298.34 207.2 299.1 206.95 299.9 207.33C300.29 207.51 299.23 208.83 298.21 209.22C295.2 210.38 292.09 208.99 292.37 204.76C292.58 201.62 294.82 200.15 297.66 200.99C299.22 201.45 300.34 203.14 300.22 204.77C300.18 205.34 299.93 205.55 299.4 205.54C298.68 205.53 297.96 205.54 297.24 205.54L297.23 205.55ZM296.23 204.59C296.82 204.23 297.95 205.15 298.1 203.84C298.19 203.03 297.26 202.36 296.28 202.37C295.34 202.37 294.36 203.12 294.48 203.88C294.65 204.99 295.62 204.33 296.22 204.58L296.23 204.59Z" fill="#265073"/>
<path d="M288.91 177.22C288.91 177.62 288.93 178.02 288.91 178.42C288.86 179.16 288.66 179.86 288.09 180.35C286.69 181.56 285.11 181.23 283.56 180.73C282.19 180.28 281.54 179.23 281.48 177.82C281.45 177.03 281.41 176.21 281.54 175.43C281.88 173.49 283.54 172.12 285.3 172.22C287.3 172.33 288.73 173.83 288.9 176.01C288.93 176.41 288.9 176.81 288.9 177.21L288.91 177.22ZM286.75 177.1C286.75 177.1 286.74 177.1 286.73 177.1C286.73 176.54 286.8 175.98 286.71 175.43C286.58 174.6 286.18 173.83 285.28 173.74C284.33 173.65 283.91 174.43 283.67 175.22C283.37 176.23 283.38 177.25 283.63 178.28C283.88 179.27 284.65 179.74 285.8 179.64C286.89 179.54 286.71 178.74 286.73 178.05C286.74 177.73 286.73 177.41 286.73 177.1H286.75Z" fill="#265073"/>
<path d="M304.14 202.15C305.32 201.16 306.33 200.46 307.7 200.91C308.92 201.31 309.75 202.27 309.78 203.53C309.82 205.17 309.77 206.81 309.8 208.44C309.81 209.2 309.46 209.39 308.77 209.39C308.03 209.39 307.78 209.08 307.79 208.38C307.81 207.06 307.82 205.74 307.77 204.43C307.71 202.92 307.29 202.44 306.13 202.43C304.91 202.41 304.16 203.06 304.07 204.42C303.98 205.69 304.02 206.97 304.04 208.25C304.04 208.93 303.97 209.4 303.09 209.4C302.26 209.4 302.08 209.01 302.09 208.29C302.12 206.29 302.09 204.3 302.11 202.3C302.11 201.79 301.87 201.11 302.74 200.99C303.49 200.89 304.12 200.99 304.14 202.15Z" fill="#265073"/>
<path d="M217.15 205.17C217.15 204.13 217.15 203.1 217.15 202.06C217.15 201.64 217.04 201.1 217.66 201.02C218.15 200.96 218.73 200.81 218.89 201.57C219.02 202.2 219.36 201.96 219.65 201.69C220.74 200.68 221.98 200.49 223.28 201.15C224.54 201.79 224.64 203 224.62 204.24C224.6 205.6 224.59 206.95 224.62 208.31C224.64 209.05 224.41 209.41 223.6 209.39C222.83 209.38 222.66 209.01 222.67 208.34C222.69 206.98 222.69 205.63 222.67 204.27C222.65 202.94 222.18 202.42 221.05 202.42C219.84 202.42 219.13 203.09 219.1 204.33C219.07 205.68 219.07 207.04 219.1 208.4C219.12 209.12 218.84 209.39 218.11 209.39C217.38 209.39 217.11 209.1 217.13 208.39C217.16 207.31 217.13 206.24 217.13 205.16L217.15 205.17Z" fill="#265073"/>
<path d="M176.19 205.14C176.19 206.22 176.19 207.29 176.19 208.37C176.19 208.81 176.24 209.32 175.61 209.36C175.16 209.39 174.63 209.54 174.46 208.84C174.27 208.05 173.91 208.54 173.64 208.78C172.91 209.42 172.06 209.72 171.1 209.59C169.71 209.4 168.82 208.44 168.74 206.85C168.65 205.18 168.73 203.5 168.71 201.82C168.71 201.1 169.1 200.97 169.71 200.97C170.35 200.97 170.68 201.17 170.67 201.86C170.65 203.26 170.65 204.65 170.67 206.05C170.7 207.38 171.21 207.99 172.25 208.03C173.38 208.07 174.01 207.47 174.24 206.26C174.49 204.95 174.34 203.63 174.39 202.32C174.41 201.7 174.24 200.99 175.26 200.97C176.27 200.95 176.18 201.61 176.18 202.26C176.18 203.22 176.18 204.18 176.18 205.13L176.19 205.14Z" fill="#265073"/>
<path d="M265.16 205.36C265.13 202.01 267.62 200.05 270.66 201.04C271.41 201.28 272.02 201.72 272.44 202.38C272.71 202.8 273.17 203.38 272.58 203.73C272.09 204.02 271.29 204.18 270.89 203.45C270.35 202.46 269.51 202.26 268.56 202.5C267.68 202.72 267.45 203.51 267.25 204.33C267.05 205.15 267.16 205.92 267.37 206.69C267.57 207.43 268.06 207.95 268.86 208.07C269.65 208.19 270.25 207.89 270.7 207.23C270.85 207 270.99 206.68 271.21 206.61C271.69 206.46 272.3 206.31 272.68 206.72C273.04 207.1 272.64 207.55 272.44 207.92C271.7 209.27 269.97 209.94 268.28 209.57C266.4 209.16 265.34 207.91 265.15 205.85C265.14 205.69 265.15 205.53 265.15 205.37L265.16 205.36Z" fill="#265073"/>
<path d="M256.12 201.15C257.65 200.71 258.55 201.09 259.16 202.43C259.75 203.74 260.02 203.72 260.68 202.43C261.18 201.47 261.71 200.78 262.95 200.96C263.62 201.06 263.57 201.26 263.28 201.7C262.68 202.6 262.12 203.52 261.5 204.4C261.13 204.93 261.1 205.37 261.5 205.91C262.13 206.78 262.69 207.71 263.31 208.59C263.75 209.22 263.55 209.33 262.86 209.42C261.66 209.58 261.12 208.94 260.67 208C260.49 207.62 260.35 207.03 259.9 207.01C259.36 206.99 259.2 207.62 259.02 208.03C258.58 209 258 209.58 256.82 209.42C256.14 209.33 256.07 209.15 256.43 208.63C257.04 207.74 257.6 206.82 258.23 205.95C258.64 205.38 258.67 204.92 258.24 204.34C257.52 203.34 256.87 202.29 256.12 201.16V201.15Z" fill="#265073"/>
<path d="M313.87 205.37C313.84 205.8 313.88 206.39 314.14 206.95C314.77 208.31 316.31 208.48 317.21 207.28C317.35 207.09 317.42 206.8 317.6 206.69C318.1 206.38 318.73 206.34 319.18 206.66C319.64 207 319.22 207.47 319.03 207.83C318.33 209.18 316.68 209.88 315.03 209.56C313.27 209.22 312.13 208.07 311.95 206.37C311.88 205.66 311.88 204.93 311.95 204.22C312.12 202.47 313.22 201.31 315.03 200.88C316.5 200.53 318.25 201.18 319.02 202.4C319.27 202.79 319.67 203.32 319.19 203.68C318.72 204.03 317.9 204.12 317.57 203.59C316.94 202.59 316.15 202.11 315.09 202.55C313.97 203.01 313.86 204.11 313.87 205.36V205.37Z" fill="#265073"/>
<path d="M178.31 205.33C178.26 202.7 179.3 201.29 181.61 200.83C182.98 200.55 184.76 201.31 185.44 202.5C185.67 202.89 186.06 203.45 185.49 203.75C185 204.01 184.22 204.15 183.87 203.53C183.29 202.52 182.48 202.17 181.48 202.55C180.45 202.94 180.24 203.93 180.25 204.93C180.25 205.44 180.25 205.97 180.36 206.47C180.54 207.31 181.03 207.93 181.93 208.06C182.73 208.17 183.35 207.8 183.69 207.09C183.95 206.55 184.36 206.51 184.86 206.49C185.78 206.47 185.87 206.87 185.53 207.6C184.89 209.03 183.25 209.86 181.54 209.59C179.73 209.31 178.53 208.13 178.32 206.4C178.28 206.05 178.32 205.68 178.32 205.33H178.31Z" fill="#265073"/>
<path d="M236.4 177.94C236.4 179.1 236.43 180.26 236.4 181.42C236.33 183.63 235.03 185.08 232.83 185.39C232.16 185.48 231.47 185.46 230.8 185.47C230.37 185.47 230.13 185.25 230.14 184.8C230.14 184.41 230.35 184.23 230.73 184.19C231.09 184.15 231.44 184.05 231.8 184.04C233.73 184.01 234.45 182.76 234.46 180.92C234.47 178.72 234.47 176.53 234.46 174.33C234.46 173.66 234.52 173.18 235.4 173.17C236.32 173.16 236.46 173.61 236.44 174.36C236.41 175.56 236.44 176.76 236.44 177.96H236.43L236.4 177.94Z" fill="#265073"/>
<path d="M121.44 205.74C121.44 205.06 121.44 204.38 121.44 203.7C121.44 203.04 121.62 202.29 120.6 202.16C120.33 202.13 120.26 201.85 120.26 201.6C120.26 201.28 120.41 201.02 120.73 201.02C121.44 201.02 121.4 200.55 121.47 200.05C121.7 198.45 122.57 197.74 124.05 197.87C124.43 197.9 124.79 197.94 124.83 198.42C124.87 198.84 124.83 199.22 124.3 199.34C124.11 199.38 123.91 199.47 123.77 199.6C123.21 200.11 123.36 200.8 124.1 200.98C124.48 201.07 124.81 201.12 124.82 201.6C124.83 202.07 124.53 202.21 124.14 202.26C123.43 202.34 123.39 202.86 123.4 203.41C123.4 205.05 123.38 206.69 123.4 208.32C123.41 209.05 123.22 209.42 122.4 209.42C121.53 209.42 121.42 208.96 121.44 208.27C121.47 207.43 121.44 206.59 121.44 205.75V205.74Z" fill="#265073"/>
<path d="M39.87 206.37C39.87 207.84 39.91 209.32 39.86 210.79C39.81 212.17 39.02 212.88 37.73 212.8C37.4 212.78 37.07 212.76 36.98 212.37C36.9 212.05 36.9 211.67 37.21 211.51C38.02 211.09 37.95 210.38 37.95 209.66C37.95 207.27 37.93 204.88 37.95 202.49C37.95 201.83 37.66 201 38.88 200.98C40.06 200.96 39.87 201.74 39.87 202.44C39.87 203.75 39.87 205.07 39.87 206.38V206.37Z" fill="#265073"/>
<path d="M199.43 209.41C197.84 209.39 197.47 209.04 197.44 207.51C197.42 206.39 197.45 205.28 197.43 204.16C197.41 203.36 197.64 202.49 196.51 202.08C196.09 201.93 196.09 201.2 196.63 201.07C197.48 200.87 197.42 200.29 197.42 199.7C197.42 199.06 197.68 198.75 198.35 198.75C199.04 198.75 199.26 199.09 199.26 199.72C199.26 200.38 199.26 201.03 200.21 201.03C200.54 201.03 200.64 201.34 200.62 201.65C200.61 201.98 200.44 202.18 200.11 202.21C199.36 202.29 199.26 202.82 199.26 203.42C199.26 204.58 199.25 205.73 199.26 206.89C199.26 207.33 199.31 207.79 199.81 207.99C200.27 208.17 200.78 208.31 200.58 208.96C200.38 209.61 199.79 209.32 199.41 209.4L199.43 209.41Z" fill="#265073"/>
<path d="M128.08 104.14C127.58 105.51 126.92 106.73 126.06 107.83C125.06 109.1 122.52 109.88 121.08 109.49C120.4 109.31 120.12 108.96 120.24 108.3C120.35 107.72 120.51 107.14 120.65 106.56C120.85 105.78 121.33 105.44 122.15 105.55C124.29 105.82 126.26 105.38 128.08 104.14Z" fill="#265073"/>
<path d="M235.13 64.28C235.79 63.69 236.38 63.56 236.92 63.33C238.56 62.63 239.97 61.6 241.17 60.3C241.36 60.09 241.57 59.87 241.47 59.57C241.35 59.22 241.01 59.33 240.75 59.31C238.35 59.12 237.94 58.37 239.14 56.25C239.9 54.91 240.96 53.84 242.2 52.94C242.4 52.79 242.65 52.49 242.93 52.74C243.2 52.98 242.93 53.27 242.83 53.5C242.4 54.49 241.6 55.15 240.75 55.76C240.42 56 240.04 56.24 240.19 56.71C240.35 57.19 240.81 57.12 241.21 57.13C241.49 57.13 241.77 57.16 242.05 57.13C243.64 56.94 244.14 57.39 243.29 59.19C242.98 59.84 242.47 60.37 241.93 60.85C240.97 61.7 236.71 63.9 235.12 64.3L235.13 64.28Z" fill="#265073"/>
<path d="M274.52 175.35C274.52 176.95 274.5 178.54 274.52 180.14C274.53 180.88 274.21 181.11 273.51 181.11C272.79 181.11 272.5 180.83 272.51 180.12C272.53 176.93 272.53 173.74 272.51 170.55C272.51 169.77 272.84 169.5 273.6 169.51C274.37 169.51 274.53 169.91 274.52 170.58C274.5 172.18 274.52 173.77 274.52 175.37V175.35Z" fill="#265073"/>
<path d="M121.37 175.34C121.37 173.74 121.39 172.15 121.37 170.55C121.36 169.77 121.69 169.49 122.45 169.5C123.22 169.5 123.38 169.89 123.38 170.56C123.36 173.75 123.36 176.94 123.38 180.13C123.38 180.86 123.08 181.11 122.38 181.11C121.67 181.11 121.36 180.84 121.37 180.12C121.39 178.52 121.37 176.93 121.37 175.33V175.34Z" fill="#265073"/>
<path d="M60.19 175.22C60.19 173.66 60.21 172.11 60.19 170.55C60.18 169.77 60.51 169.49 61.27 169.5C62.04 169.5 62.2 169.9 62.2 170.56C62.18 173.75 62.18 176.94 62.2 180.13C62.2 180.87 61.9 181.1 61.19 181.1C60.48 181.1 60.18 180.83 60.18 180.11C60.2 178.47 60.18 176.84 60.18 175.2L60.19 175.22Z" fill="#265073"/>
<path d="M286.04 203.75C286.04 205.27 286.02 206.79 286.04 208.3C286.06 209.03 285.87 209.42 285.04 209.4C284.28 209.39 284.09 209.05 284.09 208.37C284.11 205.25 284.11 202.14 284.09 199.02C284.09 198.3 284.38 198.03 285.09 198.03C285.84 198.03 286.05 198.39 286.04 199.07C286.02 200.63 286.04 202.19 286.04 203.74V203.75Z" fill="#265073"/>
<path d="M138.58 202.33C139.29 201.81 139.57 201.16 140.22 200.97C140.61 200.86 141.15 200.49 141.29 201.16C141.4 201.67 141.67 202.36 140.85 202.69C139.27 203.337 138.48 204.51 138.48 206.21C138.48 206.85 138.48 207.49 138.48 208.12C138.49 208.79 138.53 209.39 137.54 209.39C136.59 209.39 136.54 208.88 136.54 208.16C136.56 206.25 136.53 204.33 136.56 202.42C136.56 201.86 136.24 201.09 137.29 200.96C138.25 200.84 138.57 201.32 138.57 202.31L138.58 202.33Z" fill="#265073"/>
<path d="M33.46 202.33C34.19 201.84 34.46 201.17 35.11 200.98C35.5 200.87 36.04 200.48 36.19 201.15C36.31 201.66 36.59 202.55 35.77 202.66C33.44 202.96 33.3 204.53 33.38 206.33C33.41 207.05 33.36 207.77 33.39 208.48C33.41 209.15 33.12 209.4 32.46 209.4C31.76 209.4 31.43 209.19 31.44 208.44C31.47 206.45 31.43 204.45 31.46 202.46C31.46 201.9 31.12 201.12 32.17 200.98C33.11 200.86 33.49 201.28 33.45 202.33H33.46Z" fill="#265073"/>
<path d="M100.88 200.99C101.41 200.97 101.73 201.09 101.78 201.62C101.88 202.62 102.26 202.2 102.62 201.77C102.9 201.43 103.22 201.11 103.65 200.98C104.07 200.85 104.67 200.45 104.83 201.18C104.95 201.76 105.23 202.52 104.13 202.74C102.2 203.13 102.02 203.43 102.02 205.42C102.02 206.46 102 207.5 102.02 208.54C102.03 209.26 101.63 209.39 101.02 209.4C100.39 209.4 100.04 209.21 100.05 208.52C100.07 206.28 100.06 204.04 100.05 201.81C100.05 201.18 100.36 200.94 100.88 201V200.99Z" fill="#265073"/>
<path d="M149.16 131.28C150.35 134.44 150.02 136.8 147.81 137.97C146.2 138.82 145.43 138.55 144.91 136.83C144.38 135.09 144.37 135.05 146.07 134.4C147.52 133.85 148.35 132.72 149.16 131.28Z" fill="#265073"/>
<path d="M167.78 130.96C167.54 128.66 167.18 126.39 167.63 124.14C168.02 122.18 169.1 121.32 170.66 121.34C171.58 121.35 172.08 121.79 172.24 122.64C172.31 123.03 172.3 123.43 172.31 123.83C172.317 124.997 171.76 125.48 170.64 125.28C169.35 125.06 168.18 126.07 168.02 127.62C167.9 128.73 167.86 129.84 167.78 130.96Z" fill="#265073"/>
<path d="M290.43 203.81C290.43 205.32 290.42 206.84 290.43 208.35C290.43 209.01 290.26 209.4 289.49 209.4C288.69 209.4 288.59 208.94 288.59 208.31C288.59 205.24 288.6 202.17 288.59 199.1C288.59 198.45 288.76 198.03 289.53 198.04C290.33 198.04 290.43 198.52 290.42 199.14C290.42 200.69 290.42 202.25 290.42 203.8L290.43 203.81Z" fill="#265073"/>
<path d="M238.36 203.87C238.36 205.35 238.36 206.82 238.36 208.3C238.36 208.92 238.29 209.4 237.48 209.4C236.72 209.4 236.52 209.04 236.53 208.37C236.54 205.26 236.54 202.15 236.53 199.04C236.53 198.43 236.71 198.06 237.41 198.04C238.17 198.03 238.37 198.42 238.36 199.08C238.34 200.67 238.36 202.27 238.36 203.86V203.87Z" fill="#265073"/>
<path d="M250.69 69.16C250.53 68.36 250.4 67.49 250.18 66.65C250.02 66.02 249.98 65.38 250.05 64.75C250.16 63.76 251.17 63.1 252.06 63.4C252.55 63.56 252.87 63.9 252.92 64.44C252.96 64.98 252.64 65.18 252.17 65.35C250.6 65.89 250.62 65.92 250.94 67.57C251.16 68.7 251.52 69.83 251.04 70.98C250.81 71.55 250.55 72.15 249.85 72.17C249.2 72.19 248.92 71.63 248.67 71.12C248.38 70.55 248.13 69.97 247.82 69.41C247.43 68.69 246.9 68.18 245.99 68.5C245.65 68.62 245.37 68.62 245.2 68.23C245.04 67.88 244.99 67.56 245.2 67.2C245.4 66.85 245.69 66.67 246.09 66.74C246.92 66.89 247.56 67.33 247.99 68.06C248.34 68.64 248.65 69.25 249.03 69.8C249.27 70.15 249.58 70.6 250.08 70.43C250.6 70.25 250.61 69.69 250.71 69.15L250.69 69.16Z" fill="#265073"/>
<path d="M169.51 91.7C169.96 94.67 168.08 97.54 165.56 98.01C164.64 98.18 164.19 97.8 164.22 96.88C164.29 94.91 164.61 94.42 166.5 93.83C167.69 93.46 168.52 92.61 169.51 91.7Z" fill="#265073"/>
<path d="M155.76 83.71C155.78 85.61 155.36 87.24 154.15 88.63C153.77 89.06 153.28 89.34 152.73 89.47C150.84 89.95 150.44 89.47 150.59 87.54C150.69 86.18 151.08 85.59 152.53 85.53C153.9 85.47 154 85.24 155.76 83.7V83.71Z" fill="#265073"/>
<path d="M142.06 128.6C142.06 126.75 142.19 126.56 144.02 125.86C144.76 125.58 145.22 124.95 145.84 124.52C146.02 124.4 146.18 124.09 146.43 124.33C146.55 124.45 146.63 124.7 146.61 124.87C146.39 126.78 146.25 128.75 144.17 129.72C143.62 129.98 143.09 130.64 142.46 130.27C141.89 129.94 142.08 129.19 142.06 128.6Z" fill="#265073"/>
<path d="M202.74 205.29C202.74 204.18 202.75 203.06 202.74 201.95C202.73 201.32 202.93 200.99 203.63 200.99C204.31 200.99 204.55 201.3 204.54 201.94C204.53 204.13 204.53 206.32 204.54 208.51C204.54 209.18 204.23 209.42 203.58 209.41C202.96 209.41 202.73 209.11 202.74 208.52C202.75 207.45 202.74 206.37 202.74 205.3V205.29Z" fill="#265073"/>
<path d="M259.42 85.9C260.76 85.91 261.81 86.58 261.78 87.41C261.73 88.9 260.99 90.36 260.28 90.37C258.77 90.39 257.56 89.81 257.59 89.09C257.67 87.31 258.49 85.89 259.42 85.9Z" fill="#265073"/>
<path d="M150.84 106.69C151.16 107.33 151.27 108.05 152 107.91C153.24 107.66 152.87 106.38 153.3 105.55C154.07 107.22 153.09 109.48 151.44 109.87C150.76 110.03 150.19 110.33 149.67 110.79C148.75 111.61 147.93 111.43 147.37 110.33C146.97 109.55 146.98 108.63 147.46 107.58C147.9 108.31 147.82 109.59 149.03 109.33C150.29 109.06 150.46 107.86 150.83 106.68L150.84 106.69Z" fill="#265073"/>
<path d="M138.24 106.51C139.32 106.49 140.07 107.37 139.75 108.31C139.41 109.32 138.99 110.31 138.35 111.18C138.23 111.34 138.1 111.49 137.95 111.62C137.72 111.81 137.4 111.73 137.34 111.51C137.08 110.55 135.41 110.4 135.72 109.48C136 108.63 136.6 107.73 137.26 106.99C137.54 106.68 137.87 106.48 138.23 106.51H138.24Z" fill="#265073"/>
<path d="M231.26 71.34C230.94 71.05 230.62 70.76 230.31 70.46C229.88 70.04 228.93 69.93 229.11 69.15C229.37 68.03 229.85 66.94 230.73 66.15C231.18 65.75 231.73 66.12 232.16 66.39C232.72 66.76 233.07 67.26 232.91 68C232.76 68.7 231.96 70.36 231.25 71.33L231.26 71.34Z" fill="#265073"/>
<path d="M133.93 127.18C133.95 128.01 132.62 130.08 132.07 130.13C131.36 130.19 131.02 129.51 130.51 129.16C130.11 128.88 129.95 128.48 130.17 128.01C130.57 127.14 131.07 126.33 131.67 125.58C132.06 125.09 132.5 125.18 132.92 125.54C133.48 126.02 133.89 126.59 133.93 127.19V127.18Z" fill="#265073"/>
<path d="M304.11 171.02C303.88 170.97 303.12 171.15 303.22 170.82C303.45 170.03 302.6 169.15 303.46 168.48C303.95 168.1 304.49 167.9 305.11 167.98C305.2 167.99 305.33 168.13 305.34 168.22C305.37 168.46 305.19 168.59 304.98 168.6C304.45 168.64 304.03 168.77 304.04 169.42C304.04 170.01 304.36 170.28 304.93 170.31C305.17 170.32 305.45 170.39 305.4 170.71C305.35 171 305.07 171.01 304.83 171.02C304.63 171.02 304.43 171.02 304.1 171.02H304.11Z" fill="#265073"/>
<path d="M145.66 171.28C144.98 171.27 144.53 170.95 144.53 170.29C144.53 169.71 144.94 169.36 145.55 169.34C146.22 169.32 146.63 169.64 146.63 170.32C146.63 170.95 146.24 171.24 145.66 171.27V171.28Z" fill="#265073"/>
<path d="M228.25 170.75C227.67 170.65 227.14 170.41 227.09 169.77C227.04 169.11 227.54 168.75 228.13 168.69C228.78 168.63 229.15 169.04 229.18 169.7C229.2 170.32 228.83 170.62 228.26 170.75H228.25Z" fill="#265073"/>
<path d="M38.85 199.58C38.19 199.65 37.93 199.35 37.93 198.68C37.93 197.93 38.37 197.87 38.95 197.86C39.61 197.85 39.89 198.1 39.88 198.77C39.88 199.51 39.45 199.62 38.85 199.58Z" fill="#265073"/>
<path d="M212.37 169.74C212.25 170.3 211.93 170.73 211.36 170.72C210.74 170.72 210.29 170.29 210.32 169.67C210.35 169.06 210.8 168.63 211.43 168.69C211.99 168.74 212.3 169.17 212.37 169.74Z" fill="#265073"/>
<path d="M204.69 198.73C204.76 199.43 204.36 199.59 203.74 199.6C203.08 199.6 202.68 199.44 202.7 198.67C202.72 197.94 203.16 197.87 203.73 197.86C204.34 197.86 204.75 198.01 204.69 198.73Z" fill="#265073"/>
<path d="M84.91 184.03C84.83 184.61 84.5 185.04 83.93 185.07C83.36 185.1 82.9 184.74 82.86 184.15C82.81 183.51 83.24 183.08 83.87 183.04C84.48 183.01 84.75 183.49 84.91 184.02V184.03Z" fill="#265073"/>
<path d="M81.85 184.06C81.78 184.67 81.4 185.04 80.84 185.07C80.25 185.1 79.83 184.69 79.81 184.12C79.79 183.5 80.19 183.03 80.84 183.05C81.42 183.07 81.74 183.49 81.84 184.06H81.85Z" fill="#265073"/>
<path d="M284.61 169.44C284.62 170.06 284.28 170.45 283.71 170.47C283.08 170.49 282.68 170.07 282.69 169.42C282.7 168.83 283.1 168.44 283.67 168.44C284.23 168.44 284.61 168.81 284.61 169.43V169.44Z" fill="#265073"/>
<path d="M183.09 169.91C183 170.49 182.66 170.82 182.06 170.83C181.45 170.84 181.04 170.5 181.04 169.92C181.04 169.32 181.44 168.86 182.1 168.89C182.68 168.92 182.99 169.33 183.09 169.9V169.91Z" fill="#265073"/>
<path d="M106.59 169.77C106.59 170.45 106.27 170.86 105.68 170.87C105.06 170.89 104.55 170.49 104.55 169.88C104.55 169.35 105 168.93 105.58 168.9C106.2 168.86 106.52 169.23 106.58 169.77H106.59Z" fill="#265073"/>
<path d="M286.73 170.52C286.12 170.37 285.75 170.08 285.76 169.46C285.76 168.84 286.14 168.46 286.7 168.46C287.33 168.46 287.72 168.9 287.69 169.55C287.66 170.15 287.23 170.42 286.73 170.53V170.52Z" fill="#265073"/>
<path d="M4.87999 186.57C4.86999 187.38 4.46999 187.7 3.88999 187.66C3.30999 187.63 2.90999 187.26 2.94999 186.64C2.98999 186.05 3.35999 185.66 3.96999 185.68C4.58999 185.7 4.85999 186.13 4.88999 186.57H4.87999Z" fill="#265073"/>
<path d="M226.05 169.6C226.01 170.26 225.69 170.67 225.12 170.72C224.54 170.77 224.15 170.42 224.1 169.81C224.05 169.15 224.4 168.72 225.04 168.69C225.63 168.67 225.92 169.12 226.05 169.6Z" fill="#265073"/>
<path d="M214.34 168.67C214.94 168.73 215.34 169.08 215.39 169.64C215.44 170.22 215.05 170.66 214.48 170.71C213.85 170.76 213.4 170.37 213.37 169.72C213.34 169.12 213.8 168.83 214.34 168.68V168.67Z" fill="#265073"/>
<path d="M253.89 170.95C253.81 171.61 253.5 171.97 252.89 171.97C252.27 171.97 251.93 171.62 251.93 171.01C251.93 170.4 252.27 170.05 252.89 170.05C253.51 170.05 253.79 170.44 253.89 170.94V170.95Z" fill="#265073"/>
<path d="M255.38 168.62C255.34 169.17 255.05 169.56 254.43 169.56C253.83 169.56 253.45 169.19 253.44 168.59C253.44 167.98 253.82 167.65 254.42 167.63C255.05 167.61 255.36 167.94 255.38 168.62Z" fill="#265073"/>
<path d="M185.11 168.87C185.72 168.93 186.09 169.3 186.1 169.88C186.11 170.48 185.74 170.85 185.11 170.83C184.51 170.81 184.09 170.5 184.11 169.88C184.13 169.29 184.53 168.97 185.12 168.87H185.11Z" fill="#265073"/>
<path d="M257 171.02C256.93 171.61 256.62 171.97 256.01 171.98C255.4 171.98 255.05 171.64 255.05 171.03C255.05 170.42 255.39 170.07 256.01 170.07C256.62 170.07 256.93 170.44 257 171.03V171.02Z" fill="#265073"/>
<path d="M324.98 183.01C325.57 183.1 325.9 183.43 325.88 184.04C325.85 184.66 325.49 184.97 324.88 184.94C324.27 184.91 323.94 184.55 323.97 183.94C324 183.33 324.39 183.04 324.99 183.01H324.98Z" fill="#265073"/>
<path d="M29.28 184.05C29.14 184.65 28.81 184.98 28.18 184.95C27.55 184.92 27.18 184.55 27.24 183.95C27.29 183.39 27.69 182.99 28.3 183.03C28.9 183.07 29.2 183.47 29.27 184.04L29.28 184.05Z" fill="#265073"/>
<path d="M72.41 170.78C71.74 170.71 71.34 170.39 71.35 169.79C71.36 169.2 71.73 168.84 72.35 168.84C72.98 168.84 73.35 169.2 73.34 169.79C73.34 170.38 72.93 170.7 72.41 170.77V170.78Z" fill="#265073"/>
<path d="M149.55 170.24C149.54 170.85 149.28 171.24 148.65 171.26C148.05 171.28 147.65 170.97 147.63 170.37C147.61 169.79 147.93 169.39 148.54 169.35C149.16 169.31 149.48 169.65 149.55 170.24Z" fill="#265073"/>
<path d="M47.54 170.9C46.91 170.78 46.54 170.46 46.56 169.84C46.58 169.23 46.93 168.86 47.54 168.89C48.14 168.92 48.49 169.31 48.48 169.91C48.48 170.53 48.05 170.79 47.54 170.9Z" fill="#265073"/>
<path d="M44.43 170.9C43.87 170.78 43.46 170.5 43.48 169.87C43.5 169.27 43.87 168.89 44.46 168.89C45.07 168.89 45.4 169.27 45.4 169.89C45.4 170.52 45.01 170.8 44.43 170.9Z" fill="#265073"/>
<path d="M172.07 169.69C171.97 170.32 171.61 170.68 171.02 170.64C170.43 170.6 170.1 170.19 170.14 169.58C170.18 168.97 170.54 168.61 171.15 168.67C171.75 168.72 172.04 169.13 172.07 169.7V169.69Z" fill="#265073"/>
<path d="M293.79 170.78C293.19 170.72 292.78 170.4 292.79 169.79C292.8 169.2 293.17 168.84 293.8 168.84C294.43 168.84 294.8 169.21 294.79 169.79C294.79 170.37 294.39 170.72 293.79 170.77V170.78Z" fill="#265073"/>
<path d="M7 187.69C6.43 187.59 6.04 187.31 6.03 186.68C6.03 186.05 6.4 185.7 6.98 185.69C7.57 185.68 7.95 186.03 7.95 186.66C7.95 187.28 7.57 187.58 6.99 187.69H7Z" fill="#265073"/>
<path d="M108.71 170.9C108.13 170.8 107.74 170.51 107.74 169.88C107.74 169.27 108.08 168.88 108.69 168.89C109.29 168.89 109.65 169.27 109.67 169.88C109.68 170.5 109.28 170.79 108.71 170.9Z" fill="#265073"/>
<path d="M243.12 73.74C244.22 72.54 245.64 71.66 246.32 70.11C245.88 71.87 244.69 72.98 243.12 73.74Z" fill="#265073"/>
<path d="M254.1 60.81C253.68 60.35 253.25 59.89 252.83 59.42C252.66 59.23 252.33 58.97 252.58 58.73C252.92 58.41 253.14 58.84 253.32 59.05C253.73 59.52 254.07 60.05 254.1 60.8V60.81Z" fill="#265073"/>
</g>
<defs>
<clipPath id="clip0_2794_25289">
<rect width="329.38" height="212.8" fill="white"/>
</clipPath>
</defs>
</svg>
