<svg width="20" height="20" viewBox="0 0 20 20" fill="none" xmlns="http://www.w3.org/2000/svg">
<path fill-rule="evenodd" clip-rule="evenodd" d="M10 0C4.47715 0 0 4.47715 0 10C0 15.5228 4.47715 20 10 20C15.5228 20 20 15.5228 20 10C20 4.47715 15.5228 0 10 0ZM8.61794 5.69706C7.88591 5.38489 7.0612 5.85908 6.96449 6.65037C6.90255 7.1572 6.7862 8.3173 6.7862 9.88577C6.7862 11.4551 6.90268 12.6156 6.96459 13.122C7.06102 13.9106 7.88271 14.3875 8.61621 14.0757C9.08336 13.8771 10.1369 13.4013 11.5071 12.6102C12.8768 11.8194 13.8155 11.1451 14.2213 10.8397C14.8591 10.3596 14.8553 9.40852 14.22 8.93147C13.8113 8.62452 12.8612 7.94205 11.5076 7.16052C10.1542 6.37916 9.08828 5.89763 8.61794 5.69706Z" fill="white"/>
</svg>
