<svg width="24" height="24" viewBox="0 0 24 24" fill="none" xmlns="http://www.w3.org/2000/svg">
<g clip-path="url(#clip0_3088_2927)">
<path d="M12.6297 4.11094V4.54123L13.0552 4.60535C14.1259 4.76672 15.1974 5.20355 16.0022 6.09874C16.8035 6.99 17.3922 8.39307 17.3922 10.5891C17.3922 13.2857 17.7274 14.8658 18.3446 15.976C18.7 16.615 19.146 17.0843 19.6215 17.5047H4.38552C4.86053 17.0864 5.30499 16.6191 5.65891 15.9824C6.27515 14.8736 6.60781 13.2945 6.60781 10.5984C6.60781 8.40322 7.19958 6.999 8.00495 6.1057C8.81414 5.20817 9.89087 4.76888 10.9644 4.60523L11.482 4.52632L11.3844 4.03802L11.3844 4.03594C11.3844 3.76906 11.6179 3.5 12 3.5C12.3891 3.5 12.6292 3.77348 12.6343 4.0277C12.6343 4.02773 12.6343 4.02776 12.6343 4.02779L12.6342 4.02918C12.6337 4.03416 12.6326 4.04515 12.6318 4.05635C12.6308 4.06978 12.6297 4.08873 12.6297 4.11094Z" fill="white" stroke="white"/>
<path d="M12.0094 21C13.2656 21 14.2969 20.0672 14.4328 18.9844H9.58594C9.71719 20.0672 10.7531 21 12.0094 21Z" fill="white"/>
</g>
<defs>
<clipPath id="clip0_3088_2927">
<rect width="24" height="24" fill="white"/>
</clipPath>
</defs>
</svg>
