<svg width="51" height="41" viewBox="0 0 51 41" fill="none" xmlns="http://www.w3.org/2000/svg">
<path d="M10.8569 36.0798C11.2143 36.6978 11.8741 37.0784 12.5881 37.0784L31.1497 37.0784C31.8637 37.0784 32.5235 36.6978 32.881 36.0798L42.1585 20.0406C42.5169 19.4211 42.5169 18.6573 42.1585 18.0378L32.881 1.99859C32.5235 1.38058 31.8637 1 31.1497 1L12.5881 0.999999C11.8741 0.999999 11.2143 1.38058 10.8569 1.9986L1.57928 18.0378C1.22093 18.6573 1.22093 19.4211 1.57928 20.0406L10.8569 36.0798Z" stroke="#265073" stroke-linecap="round" stroke-linejoin="round"/>
<path d="M24.3363 39.6169C24.6938 40.2349 25.3536 40.6155 26.0675 40.6155L41.151 40.6155C41.865 40.6155 42.5248 40.2349 42.8823 39.6169L50.4208 26.5842C50.7791 25.9647 50.7791 25.201 50.4208 24.5814L42.8823 11.5488C42.5248 10.9308 41.865 10.5502 41.151 10.5502L26.0675 10.5502C25.3536 10.5502 24.6938 10.9308 24.3363 11.5488L16.7978 24.5814C16.4394 25.2009 16.4394 25.9647 16.7978 26.5842L24.3363 39.6169Z" fill="#2D9596"/>
</svg>
