<svg width="20" height="20" viewBox="0 0 20 20" fill="none" xmlns="http://www.w3.org/2000/svg">
<g clip-path="url(#clip0_3183_5166)">
<path fill-rule="evenodd" clip-rule="evenodd" d="M9.41483 1.82938C9.74493 1.70558 10.1046 1.69011 10.442 1.78295L10.5852 1.82938L16.4185 4.01684C17.0257 4.24452 17.4416 4.8014 17.4943 5.43948L17.5 5.57737V10.0462C17.5 12.8035 15.988 15.3309 13.5758 16.6388L13.3541 16.7544L10.559 18.1518C10.2462 18.3083 9.88418 18.3257 9.56044 18.204L9.441 18.1518L6.6459 16.7544C4.17975 15.5213 2.59522 13.0386 2.50415 10.2962L2.5 10.0462V5.57737C2.5 4.92896 2.87541 4.34402 3.45435 4.07058L3.58146 4.01684L9.41483 1.82938ZM12.8608 7.19077L9.029 11.0225L7.55589 9.54931C7.23045 9.2239 6.70282 9.2239 6.37738 9.54931C6.05194 9.87472 6.05194 10.4024 6.37738 10.7278L8.38083 12.7313C8.73883 13.0893 9.31925 13.0893 9.67725 12.7313L14.0392 8.36925C14.3647 8.04382 14.3647 7.5162 14.0392 7.19077C13.7138 6.86533 13.1862 6.86533 12.8608 7.19077Z" fill="#2E3947"/>
</g>
<defs>
<clipPath id="clip0_3183_5166">
<rect width="20" height="19.9997" fill="white"/>
</clipPath>
</defs>
</svg>
