<?xml version="1.0" encoding="utf-8"?>
<svg viewBox="0 27 428 113" xmlns="http://www.w3.org/2000/svg">
  <path fill-rule="evenodd" clip-rule="evenodd" d="M 0.341 26.866 C 0.341 20.239 6.922 25.198 13.521 26.198 L 416.342 26.257 C 422.967 26.257 428.341 22.637 428.341 29.264 L 428.341 31.698 C 427.827 31.585 427.303 31.528 426.775 31.528 L 399.997 31.528 C 398.721 31.526 397.467 31.86 396.363 32.497 C 395.259 33.133 394.341 34.049 393.703 35.153 L 381.937 55.528 L 381.118 55.528 C 379.795 55.53 378.496 55.876 377.351 56.533 C 376.206 57.19 375.258 58.133 374.597 59.268 L 357.351 88.801 C 356.69 89.935 356.341 91.221 356.341 92.531 C 356.341 93.84 356.69 95.127 357.351 96.26 L 368.511 115.371 L 216.143 138.51 C 214.949 138.692 213.733 138.692 212.539 138.51 L 60.171 115.371 L 71.329 96.26 C 71.992 95.127 72.341 93.84 72.341 92.531 C 72.341 91.221 71.992 89.935 71.329 88.801 L 54.085 59.268 C 53.424 58.133 52.474 57.19 51.331 56.533 C 50.186 55.876 48.887 55.53 47.562 55.528 L 46.745 55.528 L 34.979 35.153 C 34.341 34.049 33.423 33.133 32.319 32.497 C 31.215 31.86 29.961 31.526 28.685 31.528 L 1.907 31.528 C 1.379 31.528 0.852 31.585 0.341 31.698 L 0.341 26.866 Z M 45.589 55.528 L 34.112 35.653 C 33.562 34.702 32.773 33.912 31.82 33.363 C 30.866 32.815 29.787 32.527 28.687 32.528 L 28.685 32.528 L 1.907 32.528 C 1.377 32.528 0.85 32.595 0.341 32.726 L 0.341 69.964 L 6.592 59.257 C 7.253 58.124 8.206 57.183 9.348 56.528 C 10.493 55.874 11.792 55.529 13.115 55.528 L 30.926 55.528 L 28.687 32.528 L 30.926 55.528 L 45.589 55.528 Z M 428.341 69.964 L 428.341 32.726 C 427.832 32.595 427.305 32.528 426.775 32.528 L 399.997 32.528 L 399.995 32.528 C 398.895 32.527 397.814 32.815 396.862 33.363 C 395.909 33.912 395.12 34.702 394.57 35.653 L 383.091 55.528 L 397.756 55.528 L 415.567 55.528 C 416.89 55.529 418.189 55.874 419.332 56.528 C 420.477 57.183 421.427 58.124 422.088 59.257 L 428.341 69.964 Z" fill="#2D9596"/>
</svg>