<svg width="82" height="272" viewBox="0 0 82 272" fill="none" xmlns="http://www.w3.org/2000/svg">
<path opacity="0.2" d="M72.7712 180.084C77.0609 187.5 84.9787 192.067 93.5461 192.067L145.245 192.067C153.813 192.067 161.73 187.5 166.02 180.084L191.831 135.462C196.131 128.028 196.131 118.862 191.831 111.428L166.02 66.8064C161.73 59.3902 153.813 54.8232 145.245 54.8232L93.5461 54.8232C84.9786 54.8232 77.0609 59.3902 72.7712 66.8064L46.9605 111.428C42.6603 118.862 42.6603 128.028 46.9605 135.462L72.7712 180.084Z" stroke="#265073" stroke-width="3" stroke-linecap="round" stroke-linejoin="round"/>
<path d="M32.2789 248.633C36.5686 256.049 44.4864 260.616 53.0538 260.616L110.635 260.616C119.202 260.616 127.12 256.049 131.41 248.633L160.161 198.927C164.461 191.493 164.461 182.328 160.161 174.894L131.41 125.188C127.12 117.771 119.202 113.204 110.635 113.204L53.0538 113.204C44.4864 113.204 36.5686 117.771 32.2789 125.188L3.5274 174.894C-0.772759 182.328 -0.772775 191.493 3.5274 198.927L32.2789 248.633Z" fill="url(#paint0_linear_2319_49877)" fill-opacity="0.25"/>
<defs>
<linearGradient id="paint0_linear_2319_49877" x1="167.112" y1="186.91" x2="-3.42353" y2="186.91" gradientUnits="userSpaceOnUse">
<stop offset="0.0001" stop-color="#2D9596"/>
<stop offset="1" stop-color="#265073"/>
</linearGradient>
</defs>
</svg>
