<svg width="83" height="208" viewBox="0 0 83 208" fill="none" xmlns="http://www.w3.org/2000/svg">
<g opacity="0.4" clip-path="url(#clip0_2319_49529)">
<path opacity="0.2" d="M73.7713 126.084C78.0611 133.5 85.9788 138.067 94.5462 138.067L146.245 138.067C154.813 138.067 162.731 133.5 167.02 126.084L192.831 81.462C197.131 74.0278 197.131 64.8625 192.831 57.4283L167.02 12.8064C162.731 5.39024 154.813 0.823225 146.245 0.823225L94.5462 0.823223C85.9788 0.823222 78.0611 5.39025 73.7713 12.8064L47.9606 57.4283C43.6604 64.8625 43.6604 74.0278 47.9606 81.462L73.7713 126.084Z" stroke="#265073" stroke-width="3" stroke-linecap="round" stroke-linejoin="round"/>
<path d="M33.2788 194.633C37.5685 202.049 45.4862 206.616 54.0537 206.616L111.635 206.616C120.202 206.616 128.12 202.049 132.409 194.633L161.161 144.927C165.461 137.493 165.461 128.328 161.161 120.894L132.409 71.1875C128.12 63.7714 120.202 59.2044 111.635 59.2044L54.0536 59.2044C45.4862 59.2044 37.5685 63.7714 33.2788 71.1875L4.52728 120.894C0.227112 128.328 0.227107 137.493 4.52727 144.927L33.2788 194.633Z" fill="#265073" fill-opacity="0.25"/>
</g>
<defs>
<clipPath id="clip0_2319_49529">
<rect width="206.374" height="82.54" fill="white" transform="translate(0.620605 207.324) rotate(-90.0387)"/>
</clipPath>
</defs>
</svg>
