<svg width="24" height="25" viewBox="0 0 24 25" fill="none" xmlns="http://www.w3.org/2000/svg">
<g clip-path="url(#clip0_3088_1334)">
<path d="M14.4091 2.99613C15.3917 3.2393 16.3169 3.6276 17.1603 4.13664C17.5106 4.34809 17.6968 4.75164 17.6303 5.15539C17.5167 5.84439 17.688 6.37133 18.0101 6.69335C18.3321 7.01537 18.859 7.18669 19.548 7.07315C19.9518 7.00662 20.3553 7.19278 20.5668 7.54312C21.0758 8.38652 21.4641 9.31165 21.7072 10.2943C21.8056 10.6917 21.6518 11.1088 21.3191 11.3473C20.7513 11.7543 20.4997 12.2482 20.4997 12.7037C20.4997 13.1592 20.7513 13.6531 21.3191 14.0601C21.6518 14.2985 21.8056 14.7157 21.7072 15.1131C21.4641 16.0958 21.0757 17.0209 20.5667 17.8644C20.3553 18.2147 19.9517 18.4009 19.548 18.3343C18.859 18.2208 18.3321 18.3921 18.0101 18.7141C17.6881 19.0361 17.5167 19.5631 17.6303 20.252C17.6968 20.6558 17.5106 21.0593 17.1603 21.2708C16.3169 21.7798 15.3917 22.1681 14.409 22.4113C14.0117 22.5096 13.5945 22.3558 13.356 22.0231C12.9491 21.4553 12.4552 21.2037 11.9997 21.2037C11.5441 21.2037 11.0502 21.4553 10.6433 22.0231C10.4048 22.3558 9.98758 22.5096 9.59022 22.4113C8.60754 22.1681 7.68239 21.7798 6.83898 21.2708C6.48864 21.0593 6.30248 20.6558 6.36901 20.252C6.48253 19.5631 6.31122 19.0361 5.9892 18.7141C5.66719 18.3921 5.14027 18.2208 4.4513 18.3343C4.04755 18.4009 3.644 18.2147 3.43256 17.8644C2.92351 17.0209 2.53521 16.0958 2.29203 15.1131C2.1937 14.7157 2.34748 14.2985 2.6802 14.0601C3.24801 13.6531 3.49961 13.1592 3.49961 12.7037C3.49961 12.2482 3.24801 11.7543 2.6802 11.3473C2.34748 11.1088 2.1937 10.6917 2.29203 10.2943C2.5352 9.31165 2.92349 8.38652 3.4325 7.54313C3.64395 7.19279 4.0475 7.00662 4.45126 7.07316C5.14025 7.1867 5.66719 7.01538 5.98921 6.69336C6.31123 6.37133 6.48255 5.84439 6.369 5.1554C6.30247 4.75164 6.48863 4.34808 6.83897 4.13664C7.68238 3.6276 8.60753 3.2393 9.59021 2.99613C9.98758 2.89779 10.4048 3.05158 10.6433 3.3843C11.0502 3.9521 11.5441 4.2037 11.9997 4.2037C12.4552 4.2037 12.9491 3.9521 13.356 3.3843C13.5945 3.05158 14.0117 2.89779 14.4091 2.99613ZM11.9997 7.70361C9.23828 7.70361 6.99971 9.94219 6.99971 12.7036C6.99971 15.465 9.23828 17.7036 11.9997 17.7036C14.7612 17.7036 16.9997 15.465 16.9997 12.7036C16.9997 9.94219 14.7612 7.70361 11.9997 7.70361ZM11.9997 9.70361C13.6566 9.70361 14.9997 11.0467 14.9997 12.7036C14.9997 14.3605 13.6566 15.7036 11.9997 15.7036C10.3429 15.7036 8.99971 14.3605 8.99971 12.7036C8.99971 11.0467 10.3429 9.70361 11.9997 9.70361Z" fill="white"/>
</g>
<defs>
<clipPath id="clip0_3088_1334">
<rect width="24" height="24" fill="white" transform="translate(0 0.703613)"/>
</clipPath>
</defs>
</svg>
