<svg width="16" height="17" viewBox="0 0 16 17" fill="none" xmlns="http://www.w3.org/2000/svg">
<path fill-rule="evenodd" clip-rule="evenodd" d="M9.99992 4.11856C9.99992 2.82989 11.0446 1.78522 12.3333 1.78522C13.6219 1.78522 14.6666 2.82989 14.6666 4.11856C14.6666 5.40722 13.6219 6.45189 12.3333 6.45189C11.6782 6.45189 11.0861 6.18193 10.6623 5.7472L7.77983 7.25824C7.92201 7.62883 7.99992 8.03126 7.99992 8.45189C7.99992 8.87252 7.92201 9.27495 7.77983 9.64554L10.6623 11.1566C11.0861 10.7219 11.6782 10.4519 12.3333 10.4519C13.6219 10.4519 14.6666 11.4966 14.6666 12.7852C14.6666 14.0739 13.6219 15.1186 12.3333 15.1186C11.0446 15.1186 9.99992 14.0739 9.99992 12.7852C9.99992 12.632 10.0147 12.4823 10.0429 12.3373L7.05893 10.7731C6.45314 11.3973 5.60516 11.7852 4.66659 11.7852C2.82564 11.7852 1.33325 10.2928 1.33325 8.45189C1.33325 6.61094 2.82564 5.11856 4.66659 5.11856C5.60516 5.11856 6.45313 5.50647 7.05892 6.13072L10.0429 4.5665C10.0147 4.42153 9.99992 4.27177 9.99992 4.11856Z" fill="white"/>
</svg>
