<svg width="77" height="119" viewBox="0 0 77 119" fill="none" xmlns="http://www.w3.org/2000/svg">
<g clip-path="url(#clip0_2319_49524)">
<path opacity="0.2" d="M-15.7811 27.2434C-14.7086 25.3893 -12.7292 24.2476 -10.5873 24.2476L25.7043 24.2476C27.8461 24.2476 29.8256 25.3893 30.898 27.2434L49.0341 58.5973C50.1091 60.4558 50.1091 62.7471 49.0341 64.6057L30.898 95.9596C29.8256 97.8136 27.8461 98.9554 25.7043 98.9554L-10.5873 98.9554C-12.7292 98.9554 -14.7086 97.8136 -15.781 95.9596L-33.9171 64.6057C-34.9922 62.7471 -34.9922 60.4558 -33.9171 58.5973L-15.7811 27.2434Z" stroke="#265073" stroke-linecap="round" stroke-linejoin="round"/>
<path d="M3.05912 59.0228C4.13155 57.1687 6.11099 56.027 8.25284 56.027L47.746 56.027C49.8879 56.027 51.8673 57.1687 52.9398 59.0228L72.6766 93.1441C73.7517 95.0027 73.7517 97.294 72.6766 99.1525L52.9398 133.274C51.8673 135.128 49.8879 136.27 47.746 136.27L8.25285 136.27C6.11099 136.27 4.13156 135.128 3.05912 133.274L-16.6777 99.1525C-17.7528 97.294 -17.7528 95.0027 -16.6777 93.1441L3.05912 59.0228Z" fill="#265073"/>
<path opacity="0.2" d="M-38.8872 0.58766C-37.8148 -1.26637 -35.8354 -2.40813 -33.6935 -2.40813L-6.07173 -2.40813C-3.92987 -2.40813 -1.95044 -1.26638 -0.878004 0.587658L12.9232 24.4473C13.9982 26.3058 13.9982 28.5972 12.9232 30.4557L-0.878 54.3154C-1.95043 56.1694 -3.92986 57.3111 -6.07172 57.3111L-33.6935 57.3111C-35.8353 57.3111 -37.8148 56.1694 -38.8872 54.3154L-52.6884 30.4557C-53.7634 28.5972 -53.7634 26.3058 -52.6884 24.4473L-38.8872 0.58766Z" fill="#ECF4D6"/>
</g>
<defs>
<clipPath id="clip0_2319_49524">
<rect width="118.038" height="75.9861" fill="white" transform="matrix(0.000675759 -1 -1 -0.000675759 76.6809 118.089)"/>
</clipPath>
</defs>
</svg>
