<svg width="27" height="27" viewBox="0 0 27 27" fill="none" xmlns="http://www.w3.org/2000/svg">
<path d="M2.6828 10.472H9.20517C9.29756 10.4713 9.38748 10.5018 9.46047 10.5585L10.5352 11.419V5.91785C10.5352 5.69944 10.4484 5.48997 10.294 5.33553C10.1395 5.18108 9.93006 5.09432 9.71165 5.09432H2.6828C2.46439 5.09432 2.25492 5.18108 2.10048 5.33553C1.94603 5.48997 1.85927 5.69944 1.85927 5.91785V9.64845C1.85927 9.86687 1.94603 10.0763 2.10048 10.2308C2.25492 10.3852 2.46439 10.472 2.6828 10.472ZM4.63045 6.8855C4.632 6.74468 4.67095 6.60679 4.7433 6.48596C4.81565 6.36514 4.91881 6.26571 5.04222 6.19785C5.16227 6.12806 5.29865 6.09129 5.43752 6.09129C5.57638 6.09129 5.71276 6.12806 5.83281 6.19785L7.37693 7.02138C7.49795 7.09479 7.598 7.19815 7.66744 7.32148C7.73688 7.44482 7.77336 7.58397 7.77336 7.7255C7.77336 7.86704 7.73688 8.00619 7.66744 8.12953C7.598 8.25286 7.49795 8.35622 7.37693 8.42962L5.83281 9.25316C5.7156 9.31801 5.58383 9.35201 5.44987 9.35198C5.30523 9.35172 5.16321 9.31338 5.0381 9.2408C4.91437 9.17228 4.81105 9.07212 4.73871 8.95058C4.66636 8.82904 4.62758 8.69047 4.62634 8.54904L4.63045 6.8855ZM8.24576 20.3091L9.10223 20.9844V16.0638C9.10223 15.9546 9.05885 15.8498 8.98163 15.7726C8.90441 15.6954 8.79967 15.652 8.69047 15.652H2.07339C1.96418 15.652 1.85945 15.6954 1.78222 15.7726C1.705 15.8498 1.66162 15.9546 1.66162 16.0638V19.8067C1.66162 19.9159 1.705 20.0207 1.78222 20.0979C1.85945 20.1751 1.96418 20.2185 2.07339 20.2185H7.99046C8.08334 20.219 8.17331 20.2509 8.24576 20.3091ZM3.4528 18.4726C3.35019 18.4726 3.24988 18.4422 3.16456 18.3852C3.07924 18.3282 3.01274 18.2471 2.97347 18.1523C2.9342 18.0575 2.92393 17.9532 2.94395 17.8526C2.96397 17.7519 3.01338 17.6595 3.08594 17.5869C3.1585 17.5143 3.25094 17.4649 3.35159 17.4449C3.45223 17.4249 3.55655 17.4352 3.65135 17.4744C3.74615 17.5137 3.82718 17.5802 3.88419 17.6655C3.9412 17.7508 3.97163 17.8512 3.97163 17.9538C3.97163 18.0914 3.91697 18.2233 3.81967 18.3206C3.72237 18.4179 3.5904 18.4726 3.4528 18.4726ZM5.51163 18.4726C5.40902 18.4726 5.30871 18.4422 5.22339 18.3852C5.13807 18.3282 5.07157 18.2471 5.0323 18.1523C4.99303 18.0575 4.98276 17.9532 5.00278 17.8526C5.0228 17.7519 5.07221 17.6595 5.14477 17.5869C5.21733 17.5143 5.30977 17.4649 5.41042 17.4449C5.51106 17.4249 5.61538 17.4352 5.71018 17.4744C5.80498 17.5137 5.88601 17.5802 5.94302 17.6655C6.00003 17.7508 6.03046 17.8512 6.03046 17.9538C6.03046 18.0914 5.9758 18.2233 5.8785 18.3206C5.7812 18.4179 5.64923 18.4726 5.51163 18.4726ZM7.57046 18.4726C7.46785 18.4726 7.36754 18.4422 7.28222 18.3852C7.1969 18.3282 7.1304 18.2471 7.09113 18.1523C7.05186 18.0575 7.04159 17.9532 7.06161 17.8526C7.08163 17.7519 7.13104 17.6595 7.2036 17.5869C7.27616 17.5143 7.3686 17.4649 7.46925 17.4449C7.56989 17.4249 7.67421 17.4352 7.76901 17.4744C7.86381 17.5137 7.94484 17.5802 8.00185 17.6655C8.05886 17.7508 8.08929 17.8512 8.08929 17.9538C8.08929 18.0914 8.03463 18.2233 7.93733 18.3206C7.84003 18.4179 7.70806 18.4726 7.57046 18.4726ZM13.4175 19.5102C13.3451 19.5684 13.2551 19.6003 13.1622 19.6008C13.101 19.5994 13.0407 19.5854 12.9852 19.5597C12.9151 19.5263 12.8559 19.4738 12.8144 19.4082C12.7729 19.3427 12.7507 19.2667 12.7505 19.1891V10.542C12.7505 10.1052 12.924 9.68622 13.2329 9.37733C13.5418 9.06845 13.9607 8.89492 14.3975 8.89492H18.6964V3.1302C18.6964 2.80257 18.5662 2.48837 18.3346 2.25671C18.1029 2.02504 17.7887 1.8949 17.4611 1.8949H6.91576C6.58813 1.8949 6.27393 2.02504 6.04227 2.25671C5.8106 2.48837 5.68046 2.80257 5.68046 3.1302V4.27902H9.71165C10.1485 4.27902 10.5674 4.45255 10.8763 4.76144C11.1852 5.07032 11.3587 5.48926 11.3587 5.92609V12.2673C11.3589 12.3445 11.3373 12.4201 11.2966 12.4856C11.2558 12.5512 11.1974 12.6039 11.1281 12.6379C11.0717 12.6652 11.0097 12.6793 10.9469 12.679C10.8541 12.6785 10.7641 12.6466 10.6916 12.5885L9.04459 11.2955H5.68046V14.8285H8.69047C9.01809 14.8285 9.33229 14.9586 9.56395 15.1903C9.79562 15.4219 9.92577 15.7361 9.92577 16.0638V21.8285C9.92592 21.9057 9.90438 21.9813 9.86361 22.0469C9.82284 22.1124 9.76448 22.1651 9.69518 22.1991C9.63817 22.2248 9.57655 22.2389 9.514 22.2403C9.42112 22.2397 9.33115 22.2078 9.2587 22.1497L7.84635 21.0379H5.68046V23.5085C5.68046 23.6707 5.71241 23.8314 5.77449 23.9812C5.83657 24.1311 5.92756 24.2673 6.04227 24.382C6.15698 24.4967 6.29315 24.5877 6.44303 24.6498C6.5929 24.7118 6.75353 24.7438 6.91576 24.7438H17.4611C17.7887 24.7438 18.1029 24.6136 18.3346 24.382C18.5662 24.1503 18.6964 23.8361 18.6964 23.5085V17.7932H15.6081L13.4175 19.5102ZM10.9469 3.30725C10.8377 3.30725 10.733 3.26387 10.6558 3.18665C10.5786 3.10943 10.5352 3.0047 10.5352 2.89549C10.5352 2.78628 10.5786 2.68155 10.6558 2.60433C10.733 2.52711 10.8377 2.48372 10.9469 2.48372H13.4175C13.5267 2.48372 13.6315 2.52711 13.7087 2.60433C13.7859 2.68155 13.8293 2.78628 13.8293 2.89549C13.8293 3.0047 13.7859 3.10943 13.7087 3.18665C13.6315 3.26387 13.5267 3.30725 13.4175 3.30725H10.9469ZM24.3499 9.70198H14.4099C14.1915 9.70198 13.982 9.78875 13.8276 9.94319C13.6731 10.0976 13.5864 10.3071 13.5864 10.5255V18.3491L15.2087 17.0726C15.2812 17.0145 15.3711 16.9825 15.464 16.982H24.3499C24.5683 16.982 24.7778 16.8952 24.9323 16.7408C25.0867 16.5864 25.1735 16.3769 25.1735 16.1585V10.5255C25.1735 10.3071 25.0867 10.0976 24.9323 9.94319C24.7778 9.78875 24.5683 9.70198 24.3499 9.70198ZM22.7029 12.2673C22.7029 12.3765 22.6595 12.4812 22.5823 12.5584C22.505 12.6357 22.4003 12.679 22.2911 12.679C22.1819 12.679 22.0772 12.6357 21.9999 12.5584C21.9227 12.4812 21.8793 12.3765 21.8793 12.2673V11.2502H16.9381V13.9679L18.1323 13.0002C18.2043 12.9448 18.2926 12.9147 18.3834 12.9147C18.4743 12.9147 18.5626 12.9448 18.6346 13.0002L19.3593 13.5314L20.4423 12.2961C20.478 12.2552 20.5216 12.2217 20.5703 12.1977C20.6191 12.1737 20.6721 12.1595 20.7264 12.1561C20.7808 12.1525 20.8354 12.1597 20.887 12.1774C20.9386 12.1951 20.9862 12.2228 21.027 12.259L22.5835 13.6508C22.5835 13.6508 22.6164 13.7002 22.637 13.7249C22.6508 13.7432 22.6632 13.7625 22.674 13.7826C22.6759 13.8045 22.6759 13.8265 22.674 13.8485C22.6764 13.8786 22.6764 13.9089 22.674 13.9391V15.8208C22.674 15.93 22.6307 16.0348 22.5534 16.112C22.4762 16.1892 22.3715 16.2326 22.2623 16.2326H16.4976C16.3883 16.2326 16.2836 16.1892 16.2064 16.112C16.1292 16.0348 16.0858 15.93 16.0858 15.8208V10.8385C16.0858 10.7292 16.1292 10.6245 16.2064 10.5473C16.2836 10.4701 16.3883 10.4267 16.4976 10.4267H22.2623C22.3715 10.4267 22.4762 10.4701 22.5534 10.5473C22.6307 10.6245 22.674 10.7292 22.674 10.8385L22.7029 12.2673ZM5.47457 8.56139L5.44163 6.91432L6.96105 7.73786L5.47457 8.56139ZM16.9217 15.0179L18.3587 13.8402L19.1287 14.4085C19.2118 14.4689 19.3145 14.496 19.4166 14.4846C19.5187 14.4731 19.6128 14.424 19.6805 14.3467L20.7387 13.1485L21.8587 14.1326V15.4091H16.9176L16.9217 15.0179Z" fill="white"/>
</svg>
