<svg width="24" height="24" viewBox="0 0 24 24" fill="none" xmlns="http://www.w3.org/2000/svg">
<path d="M6.93923 2.9037C7.52502 2.31791 8.47476 2.31791 9.06055 2.9037L12.5961 6.43923C13.1819 7.02502 13.1819 7.97476 12.5961 8.56055C12.0103 9.14634 11.0605 9.14634 10.4748 8.56055L9.49989 7.58568L9.49989 15.9999C9.49989 16.8283 8.82832 17.4999 7.99989 17.4999C7.17146 17.4999 6.49989 16.8283 6.49989 15.9999L6.49989 7.58568L5.52502 8.56055C4.93923 9.14634 3.98948 9.14634 3.4037 8.56055C2.81791 7.97476 2.81791 7.02501 3.4037 6.43923L6.93923 2.9037Z" fill="white"/>
<path d="M15.9999 6.5C16.8283 6.5 17.4999 7.17157 17.4999 8V16.4142L18.4748 15.4393C19.0605 14.8535 20.0103 14.8535 20.5961 15.4393C21.1819 16.0251 21.1819 16.9749 20.5961 17.5606L17.0605 21.0962C16.4748 21.682 15.525 21.682 14.9392 21.0962L11.4037 17.5606C10.8179 16.9749 10.8179 16.0251 11.4037 15.4393C11.9895 14.8535 12.9392 14.8535 13.525 15.4393L14.4999 16.4142V8C14.4999 7.17157 15.1715 6.5 15.9999 6.5Z" fill="white"/>
</svg>
