<svg width="28" height="27" viewBox="0 0 28 27" fill="none" xmlns="http://www.w3.org/2000/svg">
<path d="M22.9764 4.25031H22.1529V3.42677C22.1529 2.97383 21.7823 2.60324 21.3293 2.60324C20.8764 2.60324 20.5058 2.97383 20.5058 3.42677V4.74442L19.5999 5.65031C17.9528 4.2503 15.8117 3.42677 13.5058 3.42677C8.27635 3.42677 4.03516 7.66796 4.03516 12.8974C4.03516 16.4386 5.97046 19.5268 8.85282 21.1327L7.41164 22.5739C7.08223 22.9033 7.08223 23.3974 7.41164 23.7268C7.57634 23.8915 7.78223 23.9739 7.98811 23.9739C8.19399 23.9739 8.39988 23.8915 8.56458 23.7268L10.4587 21.8327C11.4058 22.1621 12.4352 22.3268 13.5058 22.3268C14.5764 22.3268 15.6058 22.1621 16.5528 21.8327L18.447 23.7268C18.6117 23.8915 18.8176 23.9739 19.0234 23.9739C19.2293 23.9739 19.4352 23.8915 19.5999 23.7268C19.9293 23.3974 19.9293 22.9033 19.5999 22.5739L18.1587 21.1327C21.0411 19.4856 22.9764 16.4386 22.9764 12.8974C22.9764 10.5915 22.1529 8.45032 20.7529 6.80326L21.6587 5.89737H22.9764C23.4293 5.89737 23.7999 5.52678 23.7999 5.07384C23.7999 4.62089 23.4293 4.25031 22.9764 4.25031ZM21.3293 12.8974C21.3293 17.2209 17.8293 20.7209 13.5058 20.7209C9.18223 20.7209 5.68222 17.2209 5.68222 12.8974C5.68222 8.57385 9.18223 5.07384 13.5058 5.07384C15.3587 5.07384 17.0881 5.73266 18.4058 6.80326L17.5411 7.66796C16.4293 6.84443 15.0293 6.30914 13.5058 6.30914C9.88223 6.30914 6.91752 9.27385 6.91752 12.8974C6.91752 16.5209 9.88223 19.4856 13.5058 19.4856C17.1293 19.4856 20.094 16.5209 20.094 12.8974C20.094 11.3739 19.5587 9.97385 18.694 8.86209L19.5587 7.99738C20.6705 9.31503 21.3293 11.0444 21.3293 12.8974ZM18.447 12.8974C18.447 15.615 16.2234 17.8386 13.5058 17.8386C10.7881 17.8386 8.56458 15.615 8.56458 12.8974C8.56458 10.1797 10.7881 7.9562 13.5058 7.9562C14.5764 7.9562 15.5646 8.28561 16.347 8.86209L15.4411 9.76797C14.8646 9.39738 14.2058 9.1915 13.4646 9.1915C11.4058 9.1915 9.7587 10.8386 9.7587 12.8974C9.7587 14.9562 11.4058 16.6033 13.4646 16.6033C15.5234 16.6033 17.1705 14.9562 17.1705 12.8974C17.1705 12.1562 16.9646 11.4974 16.594 10.9209L17.4999 10.015C18.1176 10.8386 18.447 11.8268 18.447 12.8974ZM15.5646 12.8974C15.5646 14.0503 14.6587 14.9562 13.5058 14.9562C12.3528 14.9562 11.4469 14.0503 11.4469 12.8974C11.4469 11.7444 12.3528 10.8386 13.5058 10.8386C13.7528 10.8386 14.0411 10.8797 14.247 11.0033L12.9293 12.3209C12.5999 12.6503 12.5999 13.1445 12.9293 13.4739C13.094 13.6386 13.2999 13.7209 13.5058 13.7209C13.7117 13.7209 13.9175 13.6386 14.0822 13.4739L15.3999 12.1562C15.5234 12.4033 15.5646 12.6503 15.5646 12.8974Z" fill="white"/>
</svg>
