<svg width="20" height="20" viewBox="0 0 20 20" fill="none" xmlns="http://www.w3.org/2000/svg">
<path fill-rule="evenodd" clip-rule="evenodd" d="M8.33336 1.66663C7.87313 1.66663 7.50004 2.03972 7.50004 2.49995C7.50004 2.96018 7.87313 3.33327 8.33336 3.33327H11.6667C12.127 3.33327 12.5 2.96018 12.5 2.49995C12.5 2.03972 12.127 1.66663 11.6667 1.66663H8.33336ZM5.83337 2.66663C5.83337 2.60984 5.83811 2.55415 5.8472 2.49995H5.33337C4.2288 2.49995 3.33337 3.39538 3.33337 4.49995V16.333C3.33337 17.4376 4.2288 18.333 5.33337 18.333H10.6667C13.9804 18.333 16.6667 15.6467 16.6667 12.333V4.49995C16.6667 3.39538 15.7713 2.49995 14.6667 2.49995H14.1529C14.162 2.55415 14.1667 2.60984 14.1667 2.66663V2.99991C14.1667 4.10448 13.2713 4.99991 12.1667 4.99991H7.83337C6.72881 4.99991 5.83337 4.10448 5.83337 2.99991V2.66663ZM6.66671 9.16651C6.66671 8.70628 7.0398 8.33319 7.50004 8.33319H12.5C12.9603 8.33319 13.3334 8.70628 13.3334 9.16651C13.3334 9.62674 12.9603 9.99983 12.5 9.99983H7.50004C7.0398 9.99983 6.66671 9.62674 6.66671 9.16651ZM7.50004 11.6665C7.0398 11.6665 6.66671 12.0396 6.66671 12.4998C6.66671 12.96 7.0398 13.3331 7.50004 13.3331H10C10.4603 13.3331 10.8334 12.96 10.8334 12.4998C10.8334 12.0396 10.4603 11.6665 10 11.6665H7.50004Z" fill="#2E3947"/>
</svg>
