<svg width="16" height="17" viewBox="0 0 16 17" fill="none" xmlns="http://www.w3.org/2000/svg">
<path fill-rule="evenodd" clip-rule="evenodd" d="M8.00016 1.78095C4.31826 1.78095 1.3335 4.76572 1.3335 8.44762C1.3335 12.1295 4.31826 15.1143 8.00016 15.1143C11.6821 15.1143 14.6668 12.1295 14.6668 8.44762C14.6668 4.76572 11.6821 1.78095 8.00016 1.78095ZM8.66683 5.11429C8.66683 4.7461 8.36835 4.44762 8.00016 4.44762C7.63197 4.44762 7.3335 4.7461 7.3335 5.11429V8.44762C7.3335 8.62443 7.40373 8.794 7.52876 8.91902L9.52876 10.919C9.78911 11.1794 10.2112 11.1794 10.4716 10.919C10.7319 10.6587 10.7319 10.2366 10.4716 9.97622L8.66683 8.17148V5.11429Z" fill="#2E3947"/>
</svg>
