<svg width="17" height="16" viewBox="0 0 17 16" fill="none" xmlns="http://www.w3.org/2000/svg">
<g clip-path="url(#clip0_3382_6431)">
<path fill-rule="evenodd" clip-rule="evenodd" d="M8.50004 2.66675C6.64226 2.66675 4.99154 3.50459 3.81625 4.54192C3.22614 5.06275 2.73986 5.64737 2.39708 6.22952C2.06054 6.80108 1.83337 7.42001 1.83337 8.00008C1.83337 8.58015 2.06054 9.19908 2.39708 9.77061C2.73986 10.3528 3.22614 10.9374 3.81625 11.4582C4.99154 12.4955 6.64226 13.3334 8.50004 13.3334C10.3578 13.3334 12.0086 12.4955 13.1838 11.4582C13.7739 10.9374 14.2602 10.3528 14.603 9.77061C14.9396 9.19908 15.1667 8.58015 15.1667 8.00008C15.1667 7.42001 14.9396 6.80108 14.603 6.22952C14.2602 5.64737 13.7739 5.06275 13.1838 4.54192C12.0086 3.50459 10.3578 2.66675 8.50004 2.66675ZM9.83337 8.00008C10.0732 8.00008 10.2982 7.93681 10.4926 7.82601C10.4975 7.88335 10.5 7.94141 10.5 8.00008C10.5 9.10468 9.60464 10.0001 8.50004 10.0001C7.39544 10.0001 6.50004 9.10468 6.50004 8.00008C6.50004 6.89548 7.39544 6.00008 8.50004 6.00008C8.55871 6.00008 8.61677 6.00261 8.67411 6.00755C8.56331 6.20197 8.50004 6.42697 8.50004 6.66675C8.50004 7.40315 9.09697 8.00008 9.83337 8.00008Z" fill="white"/>
</g>
<defs>
<clipPath id="clip0_3382_6431">
<rect width="16" height="16" fill="white" transform="translate(0.5)"/>
</clipPath>
</defs>
</svg>
